<?xml version="1.0" standalone="no"?>
<!DOCTYPE svg PUBLIC "-//W3C//DTD SVG 20010904//EN"
 "http://www.w3.org/TR/2001/REC-SVG-20010904/DTD/svg10.dtd">
<svg version="1.0" xmlns="http://www.w3.org/2000/svg"
 width="568.000000pt" height="568.000000pt" viewBox="0 0 568.000000 568.000000"
 preserveAspectRatio="xMidYMid meet">
<metadata>
Created by potrace 1.14, written by Peter Selinger 2001-2017
</metadata>
<g transform="translate(0.000000,568.000000) scale(0.100000,-0.100000)"
fill="#000000" stroke="none">
<path d="M2610 5665 c-41 -7 -86 -15 -100 -18 -82 -16 -247 -70 -305 -100 -22
-11 -41 -19 -43 -18 -5 4 -156 -81 -217 -123 -128 -87 -287 -233 -360 -331
-16 -22 -33 -42 -37 -45 -29 -22 -191 -316 -191 -347 0 -7 -3 -13 -7 -13 -6 0
-24 -49 -36 -95 -1 -5 -12 -41 -22 -80 -43 -151 -53 -226 -55 -405 -1 -118 2
-165 19 -280 14 -98 63 -265 110 -370 32 -73 47 -102 98 -194 13 -23 10 -19
84 -121 64 -87 231 -265 211 -225 -7 14 -15 27 -19 30 -9 6 -65 107 -101 180
-56 115 -110 294 -127 420 -14 109 -5 451 13 480 4 6 9 27 20 88 9 43 55 170
92 252 30 65 116 216 132 230 4 3 19 23 36 45 61 84 168 189 261 260 32 25 64
48 69 53 107 83 357 189 535 226 344 70 723 9 1025 -166 56 -33 129 -80 135
-87 3 -3 23 -19 44 -35 53 -40 184 -170 232 -231 21 -27 41 -52 44 -55 15 -15
81 -126 117 -195 55 -108 114 -272 127 -355 3 -19 8 -48 12 -65 9 -47 13 -77
13 -114 1 -19 3 -32 6 -29 17 17 26 336 12 423 -4 22 -9 58 -12 80 -3 22 -12
67 -20 100 -9 33 -17 69 -20 80 -27 121 -137 349 -233 485 -75 106 -246 285
-337 351 -33 24 -61 47 -63 52 -2 4 -8 7 -12 7 -5 0 -28 13 -52 29 -66 43
-243 127 -340 160 -49 17 -88 28 -88 26 0 -2 -11 0 -26 5 -25 10 -33 12 -163
35 -95 16 -364 16 -461 0z"/>
<path d="M3910 5380 c0 -6 4 -10 9 -10 5 0 49 -39 98 -87 235 -232 379 -478
462 -791 16 -63 38 -123 48 -135 10 -11 33 -36 51 -56 53 -57 145 -180 193
-257 24 -38 49 -79 56 -90 69 -110 199 -442 219 -559 1 -11 6 -31 9 -45 5 -22
10 -48 30 -148 27 -142 27 -688 0 -732 -2 -4 -6 -28 -10 -55 -3 -27 -15 -85
-26 -129 -12 -45 -22 -89 -24 -98 -15 -76 -112 -316 -173 -428 -38 -71 -130
-218 -147 -236 -5 -6 -19 -23 -30 -38 -25 -34 -81 -100 -118 -138 -20 -21 -32
-52 -47 -116 -27 -116 -25 -108 -50 -182 -72 -212 -233 -474 -383 -622 -21
-21 -34 -38 -29 -38 14 0 248 142 317 192 116 84 275 221 384 329 82 82 212
237 272 324 19 28 36 52 39 55 18 17 133 209 168 280 13 25 27 52 32 60 44 69
173 412 194 512 3 13 14 59 25 103 23 96 28 122 51 295 14 103 17 186 15 350
-2 118 -6 233 -9 255 -3 22 -8 58 -11 80 -7 57 -28 174 -40 225 -6 24 -9 40
-19 85 -29 131 -125 386 -212 559 -65 129 -76 148 -163 280 -36 55 -70 106
-76 115 -5 8 -16 21 -23 29 -7 8 -25 30 -40 50 -15 21 -29 39 -32 42 -3 3 -34
39 -70 80 -95 111 -230 240 -350 337 -73 58 -285 209 -285 203 0 -2 -19 8 -42
23 -41 26 -183 101 -235 124 -17 8 -28 9 -28 3z"/>
<path d="M1680 5330 c-8 -5 -58 -33 -110 -61 -52 -28 -140 -81 -194 -118 -55
-36 -106 -70 -115 -76 -8 -5 -21 -14 -27 -20 -7 -5 -32 -26 -55 -45 -165 -134
-318 -287 -447 -445 -65 -80 -158 -221 -262 -395 -51 -87 -154 -323 -200 -460
-19 -57 -63 -216 -75 -275 -3 -11 -7 -31 -10 -45 -17 -81 -23 -115 -30 -185
-4 -33 -9 -73 -13 -90 -15 -75 -4 -616 13 -645 2 -3 6 -30 10 -60 4 -30 13
-86 22 -125 8 -38 16 -79 19 -91 6 -32 63 -226 73 -249 5 -11 24 -60 42 -110
18 -49 38 -93 44 -97 5 -4 7 -8 3 -8 -18 0 200 -399 254 -465 5 -5 32 -42 61
-81 82 -112 134 -170 262 -299 159 -159 246 -232 410 -342 119 -80 336 -203
357 -203 2 0 -28 33 -67 73 -38 40 -81 87 -95 105 -14 18 -34 43 -44 55 -125
145 -281 489 -311 684 -2 13 -26 46 -53 75 -43 46 -70 78 -135 158 -74 91
-189 293 -250 440 -65 156 -147 435 -149 510 0 8 -4 33 -8 55 -27 132 -29 533
-5 655 3 14 8 43 11 65 17 137 84 371 149 525 83 196 223 419 351 554 25 28
48 61 50 75 3 14 7 34 10 43 3 10 7 29 10 43 2 14 15 60 29 103 13 42 24 79
24 82 -1 21 120 266 161 326 16 25 30 49 30 55 0 5 4 9 8 9 4 0 15 12 24 28 9
15 26 38 38 52 12 14 30 36 42 50 11 14 55 60 96 103 75 75 82 85 52 67z"/>
<path d="M2988 5065 c-1 -1 -43 -5 -93 -8 -49 -3 -100 -8 -111 -11 -12 -2 -39
-7 -60 -10 -164 -26 -403 -131 -554 -243 -136 -101 -312 -295 -367 -403 -10
-19 -21 -37 -25 -40 -9 -7 -88 -180 -82 -180 3 0 0 -10 -7 -21 -12 -22 -46
-135 -54 -179 -3 -14 -7 -36 -10 -50 -31 -136 -22 -444 16 -566 5 -17 12 -42
14 -54 31 -163 188 -437 337 -590 99 -102 258 -226 315 -247 10 -3 25 -11 33
-18 42 -33 274 -118 360 -131 19 -3 43 -7 53 -10 96 -28 400 -22 532 10 11 3
45 11 75 19 60 15 239 84 255 98 15 14 -9 11 -51 -8 -22 -9 -43 -17 -49 -19
-5 -1 -35 -9 -66 -18 -143 -42 -377 -58 -524 -35 -33 5 -72 11 -87 14 -64 10
-155 38 -254 79 -60 25 -233 120 -244 134 -3 4 -24 20 -47 35 -131 89 -304
304 -387 482 -85 182 -120 344 -121 560 0 146 13 264 35 325 5 14 11 36 14 50
4 24 17 64 35 105 24 56 94 199 102 209 5 6 22 30 37 52 79 121 226 268 348
349 86 58 277 155 305 155 9 0 19 3 23 7 3 4 12 8 19 9 7 1 48 12 91 23 277
73 621 35 884 -97 93 -46 122 -63 140 -79 7 -7 16 -13 20 -13 4 0 21 -11 37
-25 45 -37 47 -39 85 -64 l35 -23 -30 27 c-83 76 -119 106 -194 159 -59 42
-260 146 -283 146 -8 0 -18 4 -24 9 -9 8 -141 45 -199 56 -16 2 -41 7 -54 10
-14 2 -63 7 -110 10 -47 4 -91 8 -98 10 -6 2 -13 2 -15 0z"/>
<path d="M2578 3394 c-2 -1 -28 -5 -58 -9 -90 -10 -95 -10 -107 -18 -7 -5 -13
-6 -13 -3 0 6 -154 -37 -195 -54 -16 -8 -32 -14 -35 -15 -3 -1 -22 -9 -44 -18
-21 -9 -40 -17 -42 -17 -2 0 -25 -14 -52 -31 -52 -34 -50 -34 28 2 63 29 91
41 105 44 6 2 35 10 65 19 30 8 66 17 80 20 14 2 42 7 63 11 48 9 94 13 192
15 120 3 234 -11 350 -42 22 -5 47 -11 55 -13 8 -2 50 -17 93 -34 258 -103
470 -275 623 -506 309 -466 286 -1081 -56 -1527 -50 -64 -197 -208 -260 -254
-353 -258 -796 -327 -1210 -191 -131 43 -302 134 -390 208 -74 63 -80 67 -80
59 0 -4 19 -24 43 -43 23 -20 56 -48 72 -62 91 -82 306 -202 435 -244 157 -50
236 -62 430 -66 240 -5 440 41 650 148 63 31 180 103 190 116 3 3 23 19 45 35
91 65 256 251 322 364 46 78 113 224 128 282 1 3 4 12 8 20 56 138 81 524 42
660 -2 8 -6 26 -9 40 -21 123 -110 351 -170 435 -11 17 -21 32 -21 35 0 17
-128 173 -201 244 -78 77 -236 196 -281 213 -10 3 -25 12 -33 18 -44 37 -298
125 -400 140 -19 2 -46 7 -60 10 -27 6 -297 14 -302 9z"/>
<path d="M3910 2798 c0 -5 16 -30 35 -57 19 -26 35 -51 35 -54 0 -3 15 -31 33
-64 42 -74 91 -198 116 -293 39 -145 45 -193 45 -375 1 -157 -6 -241 -24 -304
-5 -17 -6 -31 -3 -31 3 0 0 -7 -7 -15 -7 -8 -10 -15 -7 -15 4 0 0 -18 -8 -40
-8 -22 -15 -42 -15 -45 -4 -27 -52 -149 -84 -213 -140 -279 -403 -533 -687
-666 -202 -94 -396 -137 -619 -138 -113 0 -146 3 -265 23 -433 74 -827 364
-1035 761 -64 123 -130 319 -147 438 -2 19 -6 44 -8 55 -2 11 -4 35 -4 54 -1
54 -11 30 -18 -45 -13 -132 -9 -287 12 -436 6 -46 58 -239 79 -294 50 -134
168 -341 256 -449 48 -59 262 -265 275 -265 7 0 15 -4 17 -8 3 -7 30 -27 129
-93 104 -70 367 -173 498 -195 14 -3 33 -7 41 -9 71 -20 399 -27 510 -11 163
23 350 82 493 154 92 46 246 144 301 192 111 96 168 155 270 280 77 95 219
365 242 459 2 9 13 50 24 91 11 41 23 91 26 110 3 19 7 42 9 50 18 64 25 297
13 420 -28 282 -148 582 -324 811 -52 67 -203 228 -204 217z"/>
<path d="M3648 2463 c-10 -2 -18 -8 -18 -13 0 -4 9 -6 20 -3 11 3 20 9 20 14
0 5 -1 8 -2 8 -2 -1 -11 -3 -20 -6z"/>
</g>
</svg>
