<svg width="290" height="302" viewBox="0 0 290 302" fill="none" xmlns="http://www.w3.org/2000/svg">
<g opacity="0.3">
<path d="M6.35011 169.154L7.24008 169.61L6.35009 169.154C-1.84669 185.153 -6.26717 205.012 -7.92202 224.137C-9.57703 243.263 -8.47314 261.739 -5.5593 275.005C-5.1688 276.793 -3.40072 277.918 -1.62115 277.524C0.162452 277.133 1.29279 275.371 0.902908 273.586L0.902654 273.585C-1.87574 260.94 -2.95841 243.21 -1.37828 224.803C0.20207 206.393 4.43873 187.391 12.2372 172.167C17.2891 162.308 23.8368 154.101 32.1325 148.757C40.4098 143.425 50.4902 140.901 62.7094 142.501L62.7101 142.501C69.4636 143.381 74.4983 146.358 78.1494 150.709C75.2022 153.089 72.3523 155.517 69.6059 157.992L69.6057 157.992C65.4194 161.766 58.9476 169.408 52.7811 178.572C46.6124 187.739 40.6898 198.517 37.66 208.576L37.6599 208.577C35.4905 215.787 34.7746 222.721 36.3787 228.602C37.9987 234.542 41.9603 239.308 48.9002 242.145C56.7689 245.359 64.4719 242.93 71.0986 236.926C80.1666 228.718 87.4645 213.426 90.7963 197.288C93.5756 183.837 93.6448 169.663 89.7756 158.373L89.775 158.371C89.0181 156.177 88.1201 154.082 87.0623 152.117C132.079 117.767 196.854 95.7473 252.042 98.6891L252.046 98.6893C253.86 98.7792 255.423 97.3922 255.518 95.5604C255.618 93.7348 254.215 92.179 252.398 92.0811L252.397 92.0811C195.814 89.0693 129.583 111.52 83.3891 146.605C78.7202 140.927 72.1968 137.069 63.566 135.94L63.4363 136.931L63.566 135.94C49.8004 134.139 38.2931 136.927 28.8116 142.96C19.3473 148.982 11.9652 158.195 6.35011 169.154ZM43.9961 210.483L43.9961 210.482C46.8191 201.108 52.3755 190.967 58.2311 182.264C64.0889 173.558 70.1869 166.377 74.0352 162.905C76.5222 160.662 79.0987 158.458 81.7593 156.294C83.3197 159.442 84.4368 162.99 85.1558 166.801L85.1559 166.802C87.6983 180.241 85.3542 196.698 80.1082 210.417C76.6518 219.456 71.9834 227.204 66.6616 232.025C61.83 236.393 56.6481 238.164 51.4027 236.023C46.242 233.913 43.5896 230.404 42.5918 226.05C41.5775 221.625 42.2587 216.249 43.9961 210.483Z" fill="white" stroke="white" stroke-width="2"/>
<path d="M184.743 151.6L184.744 151.6C199.785 128.857 227.468 109.668 252.906 99.1099C254.593 98.41 255.39 96.4726 254.691 94.7884C253.993 93.1059 252.06 92.2977 250.372 92.9982L250.372 92.9982C223.897 103.984 195.027 124.066 179.228 147.95C178.221 149.471 178.642 151.523 180.164 152.531C181.684 153.538 183.737 153.119 184.743 151.6Z" fill="white" stroke="white" stroke-width="2"/>
<mask id="path-3-outside-1_434_162" maskUnits="userSpaceOnUse" x="171.643" y="57.8165" width="86.2558" height="53.4703" fill="black">
<rect fill="white" x="171.643" y="57.8165" width="86.2558" height="53.4703"/>
<path fill-rule="evenodd" clip-rule="evenodd" d="M250.679 92.5007C227.886 94.8834 199.314 84.0216 181.268 69.7848C180.267 68.9943 178.813 69.162 178.028 70.165C177.237 71.1656 177.407 72.6145 178.408 73.4049C197.314 88.3192 227.279 99.5847 251.159 97.0888C252.425 96.9591 253.347 95.8191 253.217 94.5532C253.082 93.2851 251.947 92.3656 250.679 92.5007Z"/>
</mask>
<path fill-rule="evenodd" clip-rule="evenodd" d="M250.679 92.5007C227.886 94.8834 199.314 84.0216 181.268 69.7848C180.267 68.9943 178.813 69.162 178.028 70.165C177.237 71.1656 177.407 72.6145 178.408 73.4049C197.314 88.3192 227.279 99.5847 251.159 97.0888C252.425 96.9591 253.347 95.8191 253.217 94.5532C253.082 93.2851 251.947 92.3656 250.679 92.5007Z" fill="white"/>
<path d="M250.679 92.5007L250.887 94.4898L250.891 94.4894L250.679 92.5007ZM181.268 69.7848L180.028 71.3542L180.029 71.355L181.268 69.7848ZM178.028 70.165L179.597 71.4047L179.603 71.3978L178.028 70.165ZM178.408 73.4049L177.168 74.9743L177.169 74.9751L178.408 73.4049ZM251.159 97.0888L250.955 95.0993L250.951 95.0997L251.159 97.0888ZM253.217 94.5532L255.207 94.3493L255.206 94.3414L253.217 94.5532ZM250.471 90.5115C228.326 92.8265 200.259 82.2197 182.507 68.2146L180.029 71.355C198.369 85.8235 227.446 96.9403 250.887 94.4898L250.471 90.5115ZM182.508 68.2154C180.646 66.7448 177.928 67.0482 176.453 68.9322L179.603 71.3978C179.698 71.2757 179.889 71.2439 180.028 71.3542L182.508 68.2154ZM176.458 68.9253C174.983 70.7926 175.301 73.4991 177.168 74.9743L179.648 71.8355C179.514 71.7298 179.491 71.5387 179.597 71.4047L176.458 68.9253ZM177.169 74.9751C196.374 90.1255 226.844 101.641 251.367 99.078L250.951 95.0997C227.714 97.5284 198.253 86.5129 179.647 71.8347L177.169 74.9751ZM251.363 99.0784C253.735 98.8353 255.448 96.7066 255.207 94.3493L251.228 94.7572C251.245 94.9315 251.115 95.0829 250.955 95.0993L251.363 99.0784ZM255.206 94.3414C254.954 91.9788 252.838 90.2594 250.467 90.5119L250.891 94.4894C251.057 94.4717 251.21 94.5914 251.228 94.7651L255.206 94.3414Z" fill="white" mask="url(#path-3-outside-1_434_162)"/>
</g>
</svg>
