<svg width="378" height="344" viewBox="0 0 378 344" fill="none" xmlns="http://www.w3.org/2000/svg">
<g opacity="0.3">
<path fill-rule="evenodd" clip-rule="evenodd" d="M260.754 271.656C273.267 278.463 287.724 280.497 303.946 275.731C354.127 260.986 374.389 221.654 377.078 175.054C381.003 107.009 346.894 23.3141 316.443 -18.2674C315.003 -20.2384 312.239 -20.6589 310.279 -19.219C308.308 -17.7791 307.877 -15.0145 309.317 -13.0435C338.874 27.3129 372.066 108.512 368.262 174.551C365.791 217.339 347.543 253.715 301.451 267.253C287.736 271.291 275.542 269.533 264.947 263.805C268.584 256.824 271.975 249.833 275.11 242.841C283.76 223.539 296.661 169.962 291.779 130.58C288.27 102.332 275.642 81.4041 248.092 82.1707C232.779 82.6003 221.712 92.153 214.953 107.34C205.648 128.214 204.637 160.179 211.235 190.799C216.725 216.292 227.452 240.811 242.65 257.255C245.997 260.862 249.545 264.101 253.304 266.883C201.031 362.745 103.824 452.439 3.93981 490.333C1.6672 491.205 0.511181 493.747 1.38308 496.031C2.2438 498.314 4.79743 499.46 7.07005 498.599C108.58 460.079 207.401 369.079 260.754 271.656ZM257.52 258.954C260.923 252.386 264.102 245.807 267.048 239.228C275.331 220.729 287.689 169.403 283.01 131.671C280.142 108.515 270.915 90.3702 248.336 90.9975C236.478 91.334 228.262 99.1781 223.015 110.931C217.256 123.866 215.069 141.377 216.015 160.044C217.451 188.384 226.146 219.38 241.239 241.308C246.017 248.257 251.451 254.28 257.52 258.954Z" fill="white"/>
<path fill-rule="evenodd" clip-rule="evenodd" d="M260.754 271.656C273.267 278.463 287.724 280.497 303.946 275.731C354.127 260.986 374.389 221.654 377.078 175.054C381.003 107.009 346.894 23.3141 316.443 -18.2674C315.003 -20.2384 312.239 -20.6589 310.279 -19.219C308.308 -17.7791 307.877 -15.0145 309.317 -13.0435C338.874 27.3129 372.066 108.512 368.262 174.551C365.791 217.339 347.543 253.715 301.451 267.253C287.736 271.291 275.542 269.533 264.947 263.805C268.584 256.824 271.975 249.833 275.11 242.841C283.76 223.539 296.661 169.962 291.779 130.58C288.27 102.332 275.642 81.4041 248.092 82.1707C232.779 82.6003 221.712 92.153 214.953 107.34C205.648 128.214 204.637 160.179 211.235 190.799C216.725 216.292 227.452 240.811 242.65 257.255C245.997 260.862 249.545 264.101 253.304 266.883C201.031 362.745 103.824 452.439 3.93981 490.333C1.6672 491.205 0.511181 493.747 1.38308 496.031C2.2438 498.314 4.79743 499.46 7.07005 498.599C108.58 460.079 207.401 369.079 260.754 271.656ZM257.52 258.954C260.923 252.386 264.102 245.807 267.048 239.228C275.331 220.729 287.689 169.403 283.01 131.671C280.142 108.515 270.915 90.3702 248.336 90.9975C236.478 91.334 228.262 99.1781 223.015 110.931C217.256 123.866 215.069 141.377 216.015 160.044C217.451 188.384 226.146 219.38 241.239 241.308C246.017 248.257 251.451 254.28 257.52 258.954Z" stroke="white"/>
</g>
</svg>
