<?xml version="1.0" encoding="UTF-8"?>
<svg id="Layer_1" data-name="Layer 1" xmlns="http://www.w3.org/2000/svg" viewBox="0 0 75.72 35">
  <defs>
    <style>
      .cls-1 {
        fill: #293d8f;
      }

      .cls-2 {
        fill: #44b880;
      }

      .cls-3 {
        fill: #324594;
      }

      .cls-4 {
        fill: #283c8f;
      }

      .cls-5 {
        fill: #2a3e90;
      }

      .cls-6 {
        fill: #2a3e8f;
      }

      .cls-7 {
        fill: #374996;
      }
    </style>
  </defs>
  <path class="cls-1" d="M.37,27.93c0-2.12,0-4.25,0-6.37,0-.59,.29-.88,.87-.88,1.68,0,3.36-.02,5.04,.02,1.61,.04,3.21,.19,4.68,.88,2.2,1.03,3.58,2.73,3.86,5.19,.32,2.9-1.08,5.38-3.69,6.71-1.37,.7-2.83,1.03-4.35,1.08-1.74,.06-3.48,.01-5.23,.03-.32,0-.64-.01-.96,0-.18,0-.23-.04-.23-.23,0-1.77,0-3.55,0-5.32v-1.12Zm2.57-.17c0,1.86,0,3.72,0,5.57,0,.18,.05,.24,.23,.23,.51-.01,1.03,0,1.54,0,.79,0,1.59,.02,2.37-.13,1.35-.26,2.53-.82,3.42-1.88,1.36-1.62,1.63-3.51,1.17-5.51-.59-2.56-2.8-4.07-5.27-4.28-.98-.08-1.96-.03-2.94-.04-.4,0-.53,.13-.53,.53,0,1.83,0,3.67,0,5.5Z"/>
  <path class="cls-1" d="M41.89,8.03c.87,0,1.71,0,2.54,0,.14,0,.17,.09,.22,.17,1.32,2.27,2.64,4.54,3.96,6.8,.14,.25,.29,.49,.45,.77,.31-.64,.6-1.25,.89-1.86,.91-1.9,1.82-3.81,2.72-5.71,.06-.12,.12-.18,.26-.17,.35,.01,.7,0,1.05,0,.03,.09-.03,.14-.05,.2-2.11,4.53-4.21,9.06-6.32,13.59-.57,1.23-1.39,2.22-2.65,2.8-.46,.21-.94,.32-1.44,.32-.54,0-1.09,.02-1.63,0-.26-.01-.3,.08-.3,.31,0,2.36,.03,4.73,0,7.09-.02,1.08,1.07,1.59,1.94,1.14,.17-.09,.34-.2,.47-.34,.09-.09,.16-.11,.28-.03,.49,.3,.5,.3,.11,.72-.98,1.06-2.21,1.36-3.57,1.07-.9-.19-1.34-.87-1.5-1.74-.04-.21-.05-.43-.05-.65,0-2.43,0-4.87,0-7.3,0-.23-.07-.28-.28-.27-.51,.02-1.01,0-1.52,0-.09,0-.24,.09-.25-.1-.01-.17-.02-.3,.21-.35,.54-.11,1.07-.27,1.61-.39,.17-.04,.23-.1,.23-.29-.01-.87,0-1.74-.01-2.61,0-.17,.06-.24,.21-.29,.35-.11,.71-.24,1.05-.38,.29-.12,.58-.15,.89-.15,.16,0,.19,.05,.19,.2,0,1.07,0,2.15,0,3.22,0,.19,.03,.25,.24,.25,.61-.02,1.21,0,1.82-.03,.87-.05,1.53-.53,2.07-1.17,.56-.67,.95-1.45,1.35-2.23,.31-.6,.59-1.21,.9-1.81,.08-.16,.08-.27-.02-.43-1.98-3.37-3.95-6.74-5.93-10.11-.04-.07-.07-.13-.13-.24Z"/>
  <path class="cls-1" d="M2.55,6.82c-.55-.26-1.07-.51-1.59-.77-.28-.13-.56-.28-.84-.4-.13-.06-.15-.13-.11-.26,.09-.31,.38-.53,.74-.53,1.75,0,3.5,0,5.25,0,1.32,.01,2.62,.14,3.9,.5,1.87,.53,3.3,1.63,4.24,3.34,1.23,2.25,.86,5.35-.84,7.28-1.2,1.36-2.75,2.1-4.48,2.49-.91,.21-1.83,.28-2.75,.28-1.81,0-3.63,0-5.44,0-.19,0-.26-.03-.26-.25,0-3.69,0-7.39,0-11.08,0-.22,.06-.26,.26-.23,1.07,.15,1.86,.66,2.22,1.72,.07,.22,.09,.44,.09,.67,0,2.63,0,5.26,0,7.88,0,.21,.05,.26,.26,.26,1.08-.03,2.16,.06,3.24-.05,2.41-.25,4.24-1.36,5.06-3.71,.69-1.98,.54-3.95-.73-5.71-.91-1.26-2.19-1.95-3.7-2.24-.52-.1-1.05-.13-1.58-.13-.81,0-1.62,0-2.43,0-.37,0-.5,.14-.51,.51,0,.13,0,.26,0,.42Z"/>
  <path class="cls-5" d="M29.44,26.43c.4-.49,.77-.92,1.17-1.32,.85-.85,1.91-1.18,3.07-1.28,1.72-.14,2.96,1.18,3.18,2.68,.03,.22,.04,.45,.04,.67,0,2.44,0,4.88,0,7.33,0,.22-.06,.27-.27,.26-.61-.01-1.23-.01-1.84,0-.19,0-.23-.05-.23-.23,0-2.36,0-4.73,0-7.09,0-.38-.05-.75-.2-1.09-.36-.84-1.18-1.24-2.16-1.03-1.03,.22-1.9,.75-2.7,1.41-.11,.09-.09,.2-.09,.32,0,2.47,0,4.95,0,7.42,0,.34,.03,.29-.3,.3-.59,0-1.18,0-1.77,0-.22,0-.29-.04-.29-.28,0-2.71,0-5.41,0-8.12,0-.59,0-1.18,0-1.77,0-.14,.04-.2,.17-.25,.46-.15,.92-.32,1.38-.49,.23-.08,.46-.04,.69-.05,.16,0,.11,.13,.11,.2,0,.71,0,1.42,0,2.12,0,.07,0,.15,.01,.29Z"/>
  <path class="cls-1" d="M26.66,18.77c-.74,0-1.49,.05-2.23-.02-.46-.05-.77-.43-1-.84-.1-.17-.13-.36-.15-.6-.25,.18-.49,.35-.72,.53-.71,.55-1.49,.95-2.39,1.09-.76,.12-1.52,.12-2.25-.18-1.68-.68-2.18-2.76-1.01-4.17,.49-.59,1.1-.99,1.79-1.32,1.39-.65,2.86-.98,4.39-1.01,.16,0,.21-.05,.21-.21-.02-.64,.02-1.29-.09-1.93-.2-1.2-.9-1.66-2.16-1.53-1.06,.11-1.87,.91-2.09,1.97-.04,.17-.09,.23-.27,.23-.58-.01-1.15,0-1.73,0-.15,0-.2-.03-.17-.2,.16-.78,.63-1.34,1.26-1.78,.85-.59,1.81-.85,2.82-.94,1.03-.08,2.07-.06,3.06,.31,1.16,.43,1.69,1.19,1.69,2.43,0,2.11,.02,4.22-.01,6.32-.01,.85,.3,1.44,1.04,1.85Zm-3.37-6.22c-.05,0-.09,0-.13,.01-1.1,.33-2.16,.73-3.13,1.34-.47,.29-.89,.63-1.18,1.1-.2,.32-.27,.66-.2,1.02,.22,1.18,1.28,1.86,2.47,1.59,.79-.18,1.45-.62,2.11-1.06,.08-.05,.07-.13,.07-.2,0-.4,0-.79,0-1.19,0-.87,0-1.74,0-2.62Z"/>
  <path class="cls-1" d="M56.12,34.77c-.73,0-1.43,0-2.14,0-.07,0-.14,0-.2-.03-.56-.3-.98-.71-1.04-1.43-.25,.18-.49,.35-.72,.52-.74,.57-1.55,.98-2.48,1.11-.81,.11-1.61,.09-2.37-.29-1.48-.74-1.9-2.66-.86-4,.46-.6,1.07-1.01,1.74-1.34,1.43-.69,2.93-1.04,4.52-1.07,.09,0,.19,.03,.19-.12,0-.71,.03-1.42-.1-2.12-.2-1.02-.8-1.47-1.9-1.45-1.13,.02-2.07,.81-2.34,1.98-.04,.18-.1,.24-.28,.23-.57-.01-1.14-.01-1.7,0-.19,0-.21-.05-.17-.22,.19-.83,.71-1.4,1.4-1.84,.93-.59,1.97-.82,3.06-.87,.98-.04,1.94,.02,2.86,.4,.97,.39,1.48,1.13,1.5,2.16,.03,1.84,.01,3.69,.02,5.53,0,.4,.01,.81,0,1.21-.03,.65,.28,1.11,.8,1.46,.07,.05,.14,.09,.22,.14,0,0,0,.01,.02,.04Zm-3.37-6.25c-.72,.21-1.4,.44-2.06,.74-.72,.33-1.43,.69-2,1.25-.33,.33-.6,.7-.61,1.19-.03,1.25,1.15,2.18,2.43,1.93,.82-.16,1.5-.62,2.17-1.08,.06-.04,.07-.09,.07-.16,0-1.28,0-2.56,0-3.88Z"/>
  <path class="cls-5" d="M22.07,28.34c-1.26,0-2.52,0-3.78,0-.2,0-.27,.02-.26,.26,.05,1.19,.33,2.31,1.04,3.28,1.05,1.45,2.78,1.87,4.51,1.09,.97-.44,1.75-1.09,2.15-2.12,.04-.1,.08-.13,.19-.08,.6,.3,.6,.09,.32,.73-.85,1.9-2.3,3.1-4.36,3.43-2.21,.36-4.49-.94-5.45-2.98-.66-1.41-.6-2.85-.18-4.3,.47-1.6,1.44-2.82,3.01-3.46,2.22-.9,4.9-.24,6.21,1.85,.39,.63,.6,1.32,.66,2.06,.01,.17-.03,.23-.21,.23-1.28,0-2.57,0-3.85,0Zm-1.37-.87s0,.01,0,.02c.82,0,1.65,0,2.47,0,.21,0,.25-.06,.23-.26-.03-.26-.08-.51-.16-.75-.47-1.36-2.02-2.18-3.31-1.74-1.19,.41-1.78,1.65-1.88,2.57-.02,.16,.06,.16,.18,.16,.82,0,1.65,0,2.47,0Z"/>
  <path class="cls-6" d="M37.32,18.99c-1.44,.04-2.72-.35-3.8-1.33-.19-.17-.36-.37-.54-.55-.08-.08-.07-.13,.02-.2,.24-.19,.49-.39,.72-.59,.11-.1,.17-.08,.25,.03,.38,.48,.78,.93,1.28,1.28,.91,.62,1.9,.78,2.95,.44,.35-.11,.66-.31,.9-.61,.4-.51,.41-1.16,.02-1.68-.36-.48-.87-.77-1.4-1.02-.89-.41-1.82-.77-2.69-1.23-.45-.24-.86-.53-1.2-.92-1.06-1.21-.89-2.91,.4-3.9,.55-.42,1.17-.67,1.85-.79,.92-.16,1.84-.15,2.75,.11,.98,.28,1.69,.96,2.34,1.7,.09,.1,0,.13-.06,.18-.2,.17-.42,.33-.61,.5-.12,.11-.16,.08-.24-.04-.35-.51-.77-.96-1.3-1.29-1.05-.64-2.15-.75-3.27-.22-.95,.45-1.07,1.43-.3,2.15,.44,.41,.97,.67,1.52,.89,.93,.38,1.89,.71,2.79,1.17,.34,.17,.66,.38,.96,.61,1.64,1.26,1.17,3.45-.06,4.37-.74,.54-1.57,.79-2.47,.89-.27,.03-.54,.06-.81,.04Z"/>
  <path class="cls-4" d="M59.52,26.65c0,2.61,0,5.22,0,7.84,0,.25-.07,.29-.3,.28-.61-.02-1.23-.01-1.84,0-.16,0-.21-.03-.21-.2,0-5.08,0-10.15,0-15.23,0-.14,.05-.2,.17-.25,.36-.12,.72-.24,1.07-.39,.3-.13,.61-.16,.93-.15,.13,0,.17,.04,.17,.17,0,.44,0,.87,0,1.31v6.62Z"/>
  <path class="cls-2" d="M67.04,3.16c0,1.15-.32,2.24-.73,3.3-.34,.91-.77,1.78-1.24,2.63-.07,.12-.11,.29-.27,.29-.17,0-.22-.18-.29-.3-.35-.63-.65-1.29-.92-1.96-.42-1.02-.77-2.06-.93-3.16-.13-.91-.12-1.8,.31-2.64,.3-.6,.78-1.02,1.42-1.25,.28-.1,.56-.1,.84,.01,1.04,.4,1.56,1.2,1.75,2.26,.05,.27,.06,.54,.05,.81Z"/>
  <path class="cls-2" d="M67,18.61c0,.94-.13,1.74-.71,2.39-.47,.53-1.04,.95-1.81,.76-.59-.15-1.05-.53-1.38-1.05-.46-.74-.55-1.56-.48-2.4,.17-1.89,.89-3.6,1.75-5.27,.06-.11,.13-.21,.2-.31,.18-.24,.28-.24,.45,0,.09,.12,.17,.24,.24,.37,.72,1.38,1.3,2.82,1.61,4.35,.08,.42,.13,.84,.13,1.17Z"/>
  <path class="cls-2" d="M56.96,13.11c-.87-.02-1.68-.18-2.34-.79-.16-.15-.3-.31-.41-.5-.42-.7-.49-1.29,.26-2.16,.52-.61,1.23-.85,2-.92,1.28-.12,2.48,.21,3.67,.62,.66,.23,1.3,.51,1.94,.81,.12,.06,.17,.13,.19,.26,.04,.3,.09,.6,.14,.9,.02,.1,0,.17-.1,.22-1.34,.64-2.71,1.2-4.19,1.46-.38,.07-.77,.09-1.14,.11Z"/>
  <path class="cls-2" d="M72.67,13.11c-1.23-.02-2.36-.34-3.47-.75-.63-.24-1.25-.51-1.86-.8-.12-.06-.15-.12-.13-.25,.06-.31,.1-.63,.14-.94,.01-.09,.05-.14,.13-.17,1.42-.67,2.88-1.25,4.45-1.44,.75-.09,1.49-.07,2.2,.21,.68,.27,1.18,.74,1.46,1.42,.15,.35,.15,.69,0,1.04-.39,.93-1.13,1.41-2.08,1.6-.29,.06-.59,.07-.85,.08Z"/>
  <path class="cls-1" d="M30.66,13.31c0,1.74,0,3.48,0,5.22,0,.2-.05,.24-.25,.24-.63-.01-1.26,0-1.89,0-.14,0-.2-.02-.2-.18,0-3.33,0-6.65,0-9.98,0-.13,.04-.19,.16-.24,.46-.16,.92-.34,1.38-.51,.23-.08,.46-.04,.69-.04,.16,0,.1,.13,.1,.21,0,.9,0,1.8,0,2.71,0,.86,0,1.71,0,2.57Z"/>
  <path class="cls-2" d="M70.33,17.45c-.98-.03-1.81-.5-2.51-1.19-.64-.63-1.08-1.4-1.41-2.23-.02-.06-.03-.11,0-.17,.27-.5,.42-1.03,.57-1.57,.04-.14,.09-.13,.19-.09,1.52,.68,2.92,1.53,4.02,2.8,.25,.28,.43,.61,.53,.97,.19,.66-.1,1.2-.76,1.4-.19,.06-.39,.08-.64,.09Z"/>
  <path class="cls-2" d="M59.15,17.45c-.08-.01-.24-.02-.39-.05-.82-.2-1.14-.84-.82-1.64,.24-.58,.64-1.03,1.1-1.43,.99-.87,2.1-1.57,3.31-2.1,.2-.09,.25-.03,.3,.16,.13,.5,.28,.99,.52,1.44,.03,.07,.05,.13,.02,.2-.5,1.24-1.2,2.31-2.4,2.99-.49,.28-1.01,.44-1.65,.44Z"/>
  <path class="cls-2" d="M66.17,8.39c.39-.99,.81-1.97,1.57-2.75,.67-.68,1.45-1.17,2.43-1.26,.36-.03,.71,0,1.04,.17,.44,.23,.65,.66,.55,1.15-.14,.68-.56,1.19-1.04,1.65-.82,.78-1.76,1.38-2.75,1.9-.12,.06-.25,.12-.37,.19-.13,.07-.16,.02-.16-.11,0-.33,0-.65-.08-.97-.12-.46-.38-.56-.77-.28-.14,.1-.26,.22-.39,.33-.01-.01-.03-.02-.04-.03Z"/>
  <path class="cls-2" d="M63.42,8.43c-.14-.11-.26-.24-.41-.34-.39-.28-.65-.18-.77,.28-.08,.32-.07,.65-.07,.97,0,.13-.03,.17-.16,.1-1.27-.64-2.47-1.38-3.45-2.43-.28-.3-.51-.63-.64-1.02-.3-.84,.11-1.5,.99-1.61,.91-.11,1.68,.22,2.38,.74,.78,.59,1.33,1.36,1.72,2.25,.15,.34,.29,.68,.44,1.02-.01,0-.03,.02-.04,.02Z"/>
  <path class="cls-6" d="M30.81,4.74c0,.71-.67,1.29-1.41,1.23-.7-.06-1.23-.54-1.26-1.15-.03-.75,.64-1.36,1.41-1.3,.73,.06,1.26,.57,1.26,1.22Z"/>
  <path class="cls-3" d="M64.22,23.84c1.16,.03,2.2,1.07,2.1,2.36-.1,1.27-1.18,2.19-2.38,2.08-1.24-.12-2.18-1.18-2.07-2.35,.12-1.26,1.17-2.2,2.35-2.08Zm1.84,2.21c0-1.07-.89-1.96-1.96-1.96-1.08,0-1.98,.9-1.97,1.98,0,1.08,.89,1.95,1.97,1.94,1.08,0,1.96-.88,1.96-1.96Z"/>
  <path class="cls-2" d="M66.21,8.42s-.03,.02-.05,.03c0-.02,0-.04,0-.06,.01,.01,.03,.02,.04,.03Z"/>
  <path class="cls-2" d="M63.47,8.47s0,0-.01,.01c0,0-.01,0-.01-.01,0,0,0,0,.01-.01,0,0,0,0,.01,.01Z"/>
  <path class="cls-7" d="M64.65,26.07c.38,.25,.23,.64,.27,.98,.01,.1-.11,.05-.17,.06-.09,.02-.15-.01-.15-.12,0-.13,0-.26,0-.4-.02-.28-.11-.37-.39-.38-.67-.04-.66-.04-.67,.65,0,.08,.08,.22-.08,.25-.13,.03-.24,.02-.23-.18,.01-.59,0-1.18,0-1.77,0-.11,.02-.18,.15-.17,.35,.01,.7-.02,1.05,.02,.31,.04,.47,.18,.53,.44,.06,.26-.02,.44-.3,.62Zm-.7-.82c-.1,0-.2,0-.3,0-.07,0-.12,.02-.11,.1,0,.17,0,.34,0,.51,0,.04,0,.08,.06,.08,.3-.01,.61,.06,.89-.07,.13-.06,.17-.18,.16-.31,0-.13-.07-.22-.19-.27-.16-.07-.33-.05-.5-.05Z"/>
</svg>