<?xml version="1.0" encoding="UTF-8"?>
<svg id="Layer_1" data-name="Layer 1" xmlns="http://www.w3.org/2000/svg" viewBox="0 0 129.48 35">
  <defs>
    <style>
      .cls-1 {
        fill: #f2c710;
      }

      .cls-2 {
        fill: #1e549d;
      }

      .cls-3 {
        fill: #fefefe;
      }
    </style>
  </defs>
  <g>
    <path class="cls-1" d="M16.1,30.56c.07,.02,.09-.04,.13-.08,1.47-1.38,2.6-2.98,3.25-4.9,.79-2.31,.71-4.61-.1-6.9-.54-1.51-1.36-2.87-2.16-4.25-.61-1.07-1.19-2.15-1.59-3.33-.4-1.21-.57-2.45-.47-3.72,.26-3.13,1.76-5.54,4.32-7.32C19.52,.05,19.55,.04,19.55,0h.08c0,.09,.07,.14,.11,.21,1.49,2.29,2.91,4.63,4.2,7.04,.92,1.73,1.65,3.54,2.09,5.45,.62,2.69,.48,5.33-.53,7.92-.83,2.13-2.04,4.01-3.55,5.71-.96,1.09-2.1,1.98-3.2,2.91-1.49,1.26-2.96,2.53-4.42,3.83-.04,.04-.08,.09-.18,.11,.43-.66,.84-1.3,1.21-1.96,0-.02,.01-.03,.02-.05h0c.17-.08,.29-.24,.44-.36,.03,0,.05,0,.05-.04h0s.05,0,.04-.04h0s.07,0,.08-.04h0s.04-.01,.04-.04h0s.05,0,.04-.04h0s.05,0,.04-.04h0Z"/>
    <path class="cls-2" d="M3.89,5.85c-.04,.48-.08,.91-.1,1.33-.09,1.88,0,3.75,.49,5.58,.3,1.14,.8,2.19,1.42,3.18,.71,1.14,1.55,2.17,2.53,3.08,.57,.53,1.21,.98,1.8,1.49,.98,.86,1.93,1.74,2.73,2.78,.97,1.26,1.64,2.66,1.92,4.24,.37,2.1-.05,4.04-1.1,5.87-.3,.53-.63,1.04-1.02,1.51-.07,.09-.12,.13-.23,.03-2.25-2.22-4.61-4.34-6.89-6.52-1.47-1.41-2.71-3-3.68-4.79-.85-1.57-1.4-3.23-1.65-5-.26-1.92-.07-3.81,.42-5.67,.49-1.87,1.25-3.62,2.21-5.3,.34-.6,.7-1.19,1.15-1.8Z"/>
    <path class="cls-1" d="M7.81,17.93c-.35-.34-.63-.7-.89-1.07-1.19-1.64-2.07-3.44-2.52-5.42-.34-1.46-.4-2.94-.32-4.44,.03-.49,.07-.97,.13-1.45,.02-.14,.03-.27,.12-.4C5.39,3.56,6.46,1.97,7.47,.35c.08-.12,.13-.13,.24-.04,.65,.51,1.25,1.07,1.8,1.7,.7,.8,1.26,1.67,1.68,2.63,.43,.97,.67,1.98,.71,3.04,.07,1.7-.35,3.3-1.03,4.85-.58,1.33-1.37,2.53-2.16,3.74-.13,.2-.27,.4-.39,.6-.2,.33-.42,.65-.51,1.07Z"/>
    <path class="cls-2" d="M15.82,30.8c-.15,.12-.26,.28-.44,.36,.02-.32,.12-.62,.17-.94,.45-2.41,.01-4.65-1.29-6.72-.24-.38-.51-.73-.82-1.05-.09-.1-.1-.15,0-.25,1.02-1.09,2.12-2.09,3.27-3.04,.54-.45,1.05-.92,1.57-1.39,.11-.1,.15-.12,.23,.03,.46,.88,.73,1.81,.9,2.78,.33,1.91,.13,3.77-.48,5.6-.36,1.09-.96,2.06-1.66,2.97-.36,.47-.74,.91-1.16,1.33-.02,.02-.06,.04-.03,.08,0,0,0,0,0,0-.04-.02-.06,0-.04,.04h0s-.06,0-.04,.04h0s-.06,0-.04,.04h0c-.05-.03-.06,.01-.08,.04h0s-.03,.03-.04,.04h0s-.03,.02-.05,.04Z"/>
    <path class="cls-2" d="M15.38,31.16s-.01,.03-.02,.05c-.01-.02-.03-.05,.02-.05Z"/>
    <path class="cls-3" d="M15.9,30.72s.03-.08,.08-.05c-.01,.04-.04,.06-.08,.05Z"/>
    <path class="cls-3" d="M15.98,30.68s0-.06,.04-.04c0,.03-.02,.04-.04,.04Z"/>
    <path class="cls-3" d="M15.82,30.8s.03-.03,.05-.04c0,.03-.02,.04-.05,.04Z"/>
    <path class="cls-3" d="M15.86,30.76s.03-.03,.04-.04c0,.04-.01,.05-.04,.04Z"/>
    <path class="cls-3" d="M16.02,30.64s0-.06,.04-.04c0,.03-.01,.04-.04,.04Z"/>
    <path class="cls-3" d="M16.06,30.6s0-.06,.04-.04c0,.04-.01,.05-.04,.04Z"/>
  </g>
  <g>
    <g>
      <path class="cls-2" d="M118.07,26.05c0,.23,0,.47,0,.7,0,.04,.01,.09-.05,.1-.07,.01-.09-.03-.1-.08-.02-.09-.03-.17-.05-.25-.15-.65-.73-1.08-1.37-1.02-.33,.03-.63,.26-.7,.54-.08,.32,.05,.56,.3,.75,.36,.27,.77,.49,1.16,.71,.4,.23,.82,.44,1.01,.89,.36,.83-.24,1.73-1.19,1.81-.43,.04-.82-.08-1.22-.19-.19-.05-.4-.16-.47,.15,0,.03-.05,.05-.08,.04-.04-.01-.05-.05-.05-.08,0-.49,0-.97,0-1.46,0-.05,.01-.09,.07-.08,.05,0,.07,.05,.08,.09,.04,.19,.08,.37,.17,.54,.29,.62,1.22,.92,1.8,.57,.37-.22,.48-.67,.25-1.04-.1-.16-.24-.27-.39-.37-.47-.28-.94-.55-1.39-.86-.56-.37-.76-.93-.56-1.48,.2-.55,.82-.9,1.44-.84,.28,.03,.54,.12,.8,.21,.18,.06,.32,.07,.39-.15,.01-.05,.04-.07,.09-.07,.08,0,.07,.07,.07,.11,0,.24,0,.49,0,.73Z"/>
      <path class="cls-2" d="M104.02,30.1c-.26,0-.52,0-.78,0-.05,0-.14,.03-.14-.06,0-.06,.07-.08,.12-.08,.37-.02,.41-.24,.29-.58q-.31-.88-1.22-.88c-.09,0-.17,0-.26,0-.25,.02-.59-.12-.72,.06-.23,.3-.37,.68-.44,1.07-.03,.15,.07,.24,.21,.28,.07,.02,.15,.03,.23,.04,.05,.01,.11,.02,.1,.09,0,.06-.06,.05-.1,.05-.43,0-.87,0-1.3,0-.04,0-.09,0-.09-.06,0-.05,.03-.08,.08-.09,.35-.04,.48-.32,.59-.59,.57-1.32,1.14-2.64,1.71-3.96,.03-.07,.03-.19,.14-.2,.13-.01,.12,.12,.16,.2,.55,1.31,1.1,2.62,1.65,3.92,.13,.3,.28,.59,.66,.62,.04,0,.09,.03,.08,.08,0,.07-.07,.06-.12,.06-.28,0-.56,0-.83,0Zm-1.81-3.74c-.25,.57-.49,1.14-.74,1.71-.06,.14,0,.16,.13,.16,.42,0,.85,0,1.27,0,.14,0,.16-.04,.11-.16-.21-.49-.42-.99-.62-1.48-.03-.08-.04-.17-.15-.22Z"/>
      <path class="cls-2" d="M120.32,29.94c0,.43-.02,.84,.02,1.24,.02,.23,.16,.31,.36,.32,.06,0,.17-.01,.16,.08,0,.1-.11,.06-.17,.06-.45,0-.9,0-1.35,0-.06,0-.16,.05-.16-.06,0-.08,.09-.06,.14-.07,.35-.06,.41-.11,.41-.45,0-1.11,0-2.22,0-3.33,0-.41-.02-.41-.42-.45-.03,0-.07,0-.08-.04-.01-.04,.01-.07,.05-.08,.3-.12,.61-.25,.92-.37,.11-.04,.13,.03,.13,.12,0,.18,0,.36,0,.59,.15-.17,.25-.31,.37-.43,.44-.43,1.07-.4,1.47,.06,.65,.74,.52,2.2-.26,2.8-.49,.37-1.02,.38-1.57,.01Zm1.61-1.23c0-.44-.06-.85-.35-1.18-.2-.24-.47-.3-.75-.19-.29,.11-.51,.4-.51,.67,0,.43-.02,.87,.03,1.3,.03,.34,.19,.56,.5,.65,.33,.1,.63,0,.83-.27,.21-.3,.26-.63,.26-.97Z"/>
      <path class="cls-2" d="M111.62,29.75c-.27,.24-.51,.41-.83,.44-.61,.05-1.19-.38-1.36-1.02-.19-.75-.03-1.42,.51-1.99,.43-.46,1.03-.52,1.65-.2,0-.39,0-.79,0-1.18,0-.21-.14-.28-.34-.23-.05,.01-.13,.04-.15-.05,0-.06,.06-.08,.1-.09,.24-.1,.48-.19,.72-.3,.2-.09,.27-.06,.27,.18-.01,1.02,0,2.05,0,3.07,0,.35,.02,.69,.03,1.04,.01,.28,.07,.33,.35,.3,.05,0,.1-.05,.13,.02,.03,.07-.02,.09-.07,.11-.27,.11-.54,.23-.81,.34-.15,.06-.23,.01-.21-.17,0-.07,0-.14,0-.26Zm0-1.15c0-.25,0-.5,0-.75-.02-.46-.28-.78-.69-.84-.31-.05-.64,.17-.79,.57-.21,.54-.2,1.09,.03,1.61,.14,.31,.37,.54,.73,.6,.41,.07,.73-.2,.73-.6,0-.2,0-.4,0-.6Z"/>
      <path class="cls-2" d="M78.86,27.79c-.01-1.52,1.1-2.65,2.54-2.59,.32,.01,.61,.11,.9,.24,.21,.1,.4,.12,.49-.16,.02-.05,.05-.1,.11-.08,.05,.02,.05,.07,.05,.11,.03,.47,.06,.93,.09,1.4,0,.04,0,.09-.05,.1-.05,.01-.07-.04-.08-.08-.08-.21-.16-.42-.28-.61-.64-.95-2.08-.91-2.62,.1-.46,.87-.5,1.8-.12,2.71,.47,1.16,2.14,1.25,2.81,.4,.09-.11,.18-.21,.27-.32,.04-.04,.07-.12,.14-.06,.07,.05,0,.11-.03,.15-.44,.74-1.08,1.12-1.95,1.1-1.34-.03-2.26-1.01-2.27-2.42Z"/>
      <path class="cls-2" d="M40.5,30.01c-.03,.09-.07,.09-.11,.09-.45,0-.9,0-1.35,0-.05,0-.12,.02-.13-.04-.02-.1,.07-.08,.12-.09,.25-.03,.33-.18,.34-.41,.03-.68,.01-1.35,0-2.03,0-.21-.09-.33-.33-.27-.06,.02-.13,.04-.16-.04-.03-.09,.05-.09,.1-.11,.26-.11,.53-.22,.79-.32,.14-.06,.21-.02,.21,.14,0,.14,0,.29,0,.48,.18-.16,.32-.29,.48-.41,.29-.22,.6-.31,.94-.15,.33,.15,.44,.45,.47,.78,.05,.48,.02,.95,.03,1.43,0,.16,0,.31,0,.47,0,.25,.08,.42,.36,.44,.05,0,.11,0,.11,.07,0,.04-.03,.06-.07,.06-.51,0-1.01,0-1.52,0,0-.14,.07-.12,.13-.13,.28-.02,.39-.18,.38-.45,0-.56,0-1.13-.01-1.69-.02-.6-.42-.8-.94-.49-.25,.15-.41,.33-.38,.66,.04,.49,0,.99,.02,1.48,0,.38,.04,.41,.43,.48,.03,0,.06,.02,.1,.04Z"/>
      <path class="cls-2" d="M107.25,30.03c.53-.2,.53-.2,.53-.8,0-.48,0-.95-.02-1.43-.02-.54-.37-.74-.85-.5-.29,.15-.5,.33-.47,.72,.04,.49,0,.99,.01,1.48,0,.36,.05,.4,.41,.47,.04,0,.09,0,.11,.09h-1.59c-.02-.07,.02-.08,.07-.09,.3-.02,.39-.2,.4-.47,.02-.66,.01-1.32-.01-1.98,0-.21-.09-.33-.33-.27-.06,.01-.13,.04-.16-.04-.03-.09,.05-.09,.1-.12,.26-.11,.53-.22,.79-.32,.14-.06,.21-.02,.2,.15,0,.14,0,.29,0,.48,.26-.22,.45-.45,.75-.56,.52-.19,.94,0,1.1,.52,.07,.24,.07,.48,.08,.72,0,.48,0,.95,0,1.43,0,.25,.09,.42,.36,.44,.05,0,.11,0,.11,.08,0,.06-.06,.05-.1,.05-.49,0-.97,0-1.46-.01-.01,0-.02-.02-.05-.05Z"/>
      <path class="cls-2" d="M52.88,30.07h-1.6s.02-.07,.04-.07c.42-.14,.44-.14,.45-.59,.01-.62,0-1.25-.02-1.87,0-.21-.09-.33-.33-.27-.05,.01-.13,.05-.16-.04-.03-.09,.05-.09,.1-.12,.26-.11,.53-.22,.79-.32,.14-.06,.21-.02,.21,.14,0,.14,0,.29,0,.48,.18-.15,.32-.29,.47-.41,.28-.22,.6-.31,.94-.16,.33,.15,.44,.45,.48,.78,.06,.59,.02,1.18,.03,1.77q.01,.43,.41,.58s.07,.02,.07,.06c0,.06-.04,.07-.09,.07-.5,0-1,0-1.5,0,0-.15,.09-.12,.15-.13,.26-.03,.36-.17,.36-.42,0-.58,0-1.16-.01-1.74-.02-.57-.38-.76-.88-.5-.28,.15-.46,.34-.43,.71,.04,.48,0,.97,.01,1.45,0,.38,.04,.42,.42,.49,.04,0,.09,0,.09,.09Z"/>
      <path class="cls-2" d="M89.69,27.44c.29-.29,.52-.54,.87-.63,.49-.12,.89,.13,1,.65,.04,.22,.05,.45,.06,.67,0,.46,0,.92,0,1.38,0,.26,.07,.45,.37,.46,.05,0,.11,0,.11,.08,0,.06-.06,.05-.1,.05-.48,0-.95,0-1.43,0-.02,0-.04-.03-.06-.04,0-.02,.01-.05,.02-.05,.48-.14,.49-.14,.49-.65,0-.52,0-1.04-.02-1.56-.02-.54-.37-.73-.85-.49-.29,.15-.49,.33-.46,.72,.04,.48,0,.97,.01,1.46,0,.38,.04,.42,.42,.49,.04,0,.09,0,.1,.09h-1.6s.02-.07,.04-.07c.42-.14,.43-.14,.45-.56,.03-.64,.01-1.28-.02-1.92-.01-.21-.11-.3-.33-.24-.05,.02-.13,.05-.15-.04-.03-.09,.05-.09,.1-.11,.26-.11,.51-.21,.77-.31,.18-.07,.24-.02,.23,.17,0,.13,0,.27,0,.47Z"/>
      <path class="cls-2" d="M68.25,27.44c.24-.24,.43-.44,.68-.56,.55-.26,1.06-.02,1.19,.57,.1,.43,.04,.86,.05,1.3,0,.25,0,.5,0,.75,0,.26,.09,.46,.39,.47,.02,0,.05,.01,.07,.02,.01,0,.01,.03,.03,.07-.14,.05-.29,.02-.42,.02-.33,0-.66,0-.99,0-.06,0-.16,.04-.17-.06,0-.09,.09-.06,.14-.07,.24-.03,.36-.16,.36-.4,0-.61,.04-1.21-.02-1.82-.06-.52-.37-.69-.84-.46-.31,.15-.52,.35-.49,.76,.04,.47,0,.95,.01,1.43,0,.36,.05,.4,.4,.49,.05,.01,.11,0,.11,.08,0,.05-.04,.05-.08,.05-.5,0-.99,0-1.52,0,.03-.06,.04-.1,.06-.1,.41-.14,.44-.17,.45-.6,0-.61,.02-1.21-.02-1.82-.01-.23-.07-.4-.36-.31-.05,.02-.11,.02-.13-.05-.02-.07,.04-.09,.09-.11,.27-.11,.54-.22,.82-.33,.13-.05,.2-.02,.19,.13,0,.15,0,.31,0,.52Z"/>
      <path class="cls-2" d="M74.17,29.47c0,.38-.54,.78-.87,.67-.21-.07-.22-.27-.27-.49-.16,.11-.3,.21-.44,.31-.43,.3-.92,.26-1.18-.11-.27-.38-.18-.91,.22-1.22,.37-.29,.82-.45,1.25-.62,.15-.06,.17-.13,.17-.26-.02-.53-.14-.71-.52-.76-.34-.04-.55,.13-.56,.48,0,.06,0,.12-.01,.18-.02,.16-.11,.25-.27,.26-.18,0-.27-.1-.3-.26-.03-.2,.06-.37,.19-.52,.38-.42,1.34-.5,1.78-.15,.19,.14,.26,.34,.26,.57,.01,.6,.02,1.2,.03,1.79,0,.12-.04,.28,.11,.35,.15,.07,.22-.09,.32-.16,.02-.01,.04-.03,.08-.06Zm-1.12-.65c0-.16,0-.31,0-.47,0-.12-.04-.17-.15-.12-.31,.15-.66,.26-.9,.53-.21,.24-.21,.61,0,.83,.18,.2,.43,.2,.73,.03,.24-.13,.37-.29,.31-.58-.01-.08,0-.16,0-.23Z"/>
      <path class="cls-2" d="M58.29,29.45c-.05,.39-.5,.75-.82,.7-.19-.03-.26-.13-.33-.48-.16,.05-.28,.15-.4,.25-.4,.34-.92,.32-1.21-.03-.31-.37-.23-.92,.17-1.24,.34-.27,.74-.44,1.15-.58,.24-.08,.35-.18,.27-.44-.02-.06-.01-.14-.02-.21-.05-.3-.28-.46-.61-.43-.29,.03-.43,.18-.43,.5,0,.06,0,.12,0,.18-.04,.15-.13,.24-.3,.23-.16,0-.25-.1-.27-.26-.04-.28,.11-.48,.31-.64,.38-.3,1.17-.33,1.58-.08,.26,.16,.33,.41,.34,.69,0,.55,0,1.11,.01,1.66,0,.08,0,.16,.01,.23,.04,.2,.14,.24,.31,.12,.07-.05,.13-.11,.23-.19Zm-1.13-.65c0-.06,0-.12,0-.18,0-.46,0-.47-.41-.29-.24,.11-.49,.22-.65,.45-.18,.24-.18,.6,.02,.81,.19,.21,.42,.19,.73,.03,.26-.14,.38-.32,.33-.61-.01-.07,0-.14,0-.21Z"/>
      <path class="cls-2" d="M126.43,29.48c.01,.36-.55,.78-.88,.65-.2-.08-.22-.27-.25-.48-.15,.1-.29,.18-.42,.27-.42,.33-.92,.31-1.2-.05-.29-.38-.2-.93,.2-1.24,.33-.26,.72-.4,1.11-.56,.13-.05,.34-.03,.32-.26-.03-.29,.02-.63-.32-.76-.48-.19-.82,.09-.76,.48,.02,.15,0,.3-.18,.37-.1,.04-.21,.04-.29-.04-.14-.12-.14-.28-.09-.43,.11-.33,.37-.51,.7-.6,.37-.1,.74-.07,1.09,.07,.3,.12,.42,.37,.43,.68,.01,.58,.01,1.16,.03,1.74,0,.13-.04,.3,.11,.38,.16,.08,.23-.1,.34-.17,.02-.01,.05-.02,.07-.04Zm-1.12-1.3c-.31,.13-.59,.23-.84,.39-.15,.1-.27,.22-.33,.39-.08,.24-.04,.46,.14,.65,.14,.15,.33,.19,.5,.1,.2-.1,.48-.15,.51-.41,.04-.36,0-.72,0-1.13Z"/>
      <path class="cls-2" d="M66.54,28.51c-.04,.54-.21,1.11-.78,1.47-.93,.59-2.14-.02-2.3-1.15-.05-.33-.02-.66,.1-.97,.31-.81,.96-1.2,1.77-1.05,.7,.13,1.22,.83,1.21,1.7Zm-2.46-.23c.01,.45,.1,.92,.39,1.33,.18,.25,.43,.38,.74,.33,.31-.05,.5-.25,.59-.55,.12-.43,.11-.87,.02-1.31-.05-.25-.14-.48-.28-.69-.19-.27-.43-.42-.77-.37-.32,.05-.49,.26-.59,.55-.07,.22-.1,.44-.1,.71Z"/>
      <path class="cls-2" d="M46.89,28.09c-.32,0-.64,0-.96,0-.08,0-.15-.01-.17,.11-.07,.51,.35,1.2,.85,1.37,.47,.16,.93-.03,1.16-.47,.02-.05,.05-.09,.07-.14,.02-.04,.04-.08,.1-.07,.07,.02,.06,.07,.05,.13-.13,.5-.38,.92-.89,1.11-.51,.18-.97,.05-1.36-.33-.76-.75-.57-2.36,.34-2.86,.82-.45,1.77,0,1.91,.9,.03,.17,.02,.28-.21,.26-.29-.02-.59,0-.88,0Zm-.4-.2c.2,0,.4,0,.6,0,.15,0,.17-.05,.15-.19-.06-.38-.3-.65-.64-.68-.34-.03-.67,.22-.79,.59-.06,.18-.07,.3,.19,.27,.16-.02,.33,0,.49,0Z"/>
      <path class="cls-2" d="M37.3,25.31c.29,0,.59,0,.88,0,.05,0,.12-.02,.13,.05,.01,.09-.06,.09-.12,.09-.47,0-.54,.24-.55,.64,0,1.08,0,2.17,0,3.25,0,.49,.07,.56,.55,.64,.05,0,.12-.02,.12,.06,0,.08-.07,.06-.12,.06-.6,0-1.2,0-1.79,0-.05,0-.12,0-.11-.07,0-.06,.06-.04,.1-.05,.53-.12,.56-.15,.57-.7,0-1.07,0-2.13,0-3.2,0-.5-.06-.55-.55-.63-.05,0-.12,0-.12-.06,0-.1,.08-.07,.13-.07,.15,0,.29,0,.44,0,.15,0,.29,0,.44,0Z"/>
      <path class="cls-2" d="M95.11,28.56c0-1.01,.58-1.72,1.44-1.79,.42-.04,.79,.09,1.06,.44,.11,.14,.17,.31,.08,.48-.07,.14-.21,.17-.36,.14-.2-.04-.29-.16-.31-.36-.03-.22-.1-.41-.35-.45-.3-.05-.55,.03-.73,.28-.42,.56-.31,1.67,.23,2.13,.12,.1,.26,.17,.42,.19,.43,.06,.77-.11,.99-.51,.04-.07,.07-.14,.11-.21,.02-.03,.04-.09,.1-.06,.05,.02,.04,.07,.03,.11-.13,.56-.49,1.05-1.04,1.19-.49,.13-1-.07-1.34-.53-.24-.34-.32-.72-.33-1.07Z"/>
      <path class="cls-2" d="M76.35,30.03c-.01,.07-.06,.07-.1,.07-.45,0-.9,0-1.35,0-.05,0-.12,.02-.12-.06,0-.08,.06-.07,.11-.07,.28-.02,.35-.21,.35-.45,0-1.21,0-2.43,0-3.64,0-.23-.07-.38-.34-.31-.06,.02-.13,.03-.15-.05-.02-.08,.07-.08,.12-.1,.23-.1,.46-.19,.7-.29,.25-.1,.28-.08,.28,.19,0,1.27,0,2.55,0,3.82,0,.14,0,.28,0,.42,0,.25,.11,.39,.36,.41,.06,0,.12,0,.15,.06Z"/>
      <path class="cls-2" d="M85.12,27.38c0,.69,0,1.39,0,2.08,0,.37,.05,.42,.41,.51,.05,.01,.11,0,.1,.08-.01,.06-.07,.05-.1,.05-.45,0-.9,0-1.35,0-.04,0-.1,.01-.1-.05-.01-.08,.06-.07,.11-.08,.27-.02,.34-.2,.35-.43,0-.61,.01-1.21,.01-1.82,0-.61,.01-1.23-.03-1.84-.01-.22-.06-.38-.33-.32-.05,.01-.11,.03-.14-.03-.04-.09,.05-.1,.1-.12,.25-.1,.49-.21,.74-.31,.16-.06,.25-.04,.24,.17-.01,.7,0,1.4,0,2.1h0Z"/>
      <path class="cls-2" d="M44.69,29.49c-.13,.34-.33,.59-.7,.65-.36,.06-.63-.16-.68-.55-.06-.53-.02-1.06-.03-1.58,0-.15,0-.29,0-.44,0-.14,.03-.3-.03-.41-.07-.11-.24-.03-.37-.04-.04,0-.09,0-.1-.05-.01-.05,.01-.08,.06-.1,.43-.23,.69-.6,.86-1.04,.02-.05,.04-.13,.12-.11,.08,.02,.05,.1,.05,.16,0,.23,.01,.47,0,.7-.01,.17,.05,.21,.21,.2,.14-.01,.28,0,.42,0,.08,0,.13,0,.13,.11,0,.09-.02,.15-.13,.14-.02,0-.03,0-.05,0-.18,.01-.42-.08-.53,.04-.13,.14-.04,.38-.04,.57,0,.52,0,1.04,0,1.56,0,.18,.01,.37,.21,.43,.2,.07,.35-.03,.46-.2,.03-.04,.06-.06,.14-.03Z"/>
      <path class="cls-2" d="M60.59,29.49c-.07,.22-.19,.39-.37,.52-.21,.15-.44,.2-.69,.08-.24-.11-.33-.32-.34-.57-.01-.7-.02-1.4,0-2.11,0-.23-.05-.33-.3-.3-.07,0-.17,.05-.21-.05-.04-.1,.08-.11,.14-.15,.35-.23,.59-.55,.75-.94,.03-.06,.04-.18,.14-.16,.1,.02,.05,.13,.05,.2,0,.23,0,.47,0,.7,0,.11,.03,.16,.15,.15,.14,0,.28,0,.42,0,.09,0,.2-.03,.19,.13,0,.16-.11,.12-.2,.12q-.55,.01-.55,.58c0,.51,0,1.02,0,1.53,0,.19,0,.41,.21,.49,.21,.08,.37-.03,.48-.21,.02-.04,.07-.05,.14-.02Z"/>
      <path class="cls-2" d="M49.67,27.4c.18-.19,.31-.4,.54-.53,.23-.13,.47-.12,.62,.03,.13,.13,.17,.29,.06,.45-.11,.16-.26,.17-.43,.08-.13-.07-.26-.25-.41-.14-.19,.14-.36,.34-.37,.6-.02,.53,0,1.06,0,1.59,0,.27,.13,.46,.42,.5,.05,0,.14-.01,.12,.09-.01,.07-.08,.04-.13,.04-.46,0-.92,0-1.38,0-.05,0-.11,.02-.13-.05-.01-.08,.06-.07,.11-.08,.32-.02,.39-.22,.39-.5,0-.63,.02-1.26-.02-1.9-.02-.3-.06-.33-.37-.3-.05,0-.11,.03-.13-.04-.01-.06,.04-.09,.09-.11,.28-.11,.56-.23,.84-.34,.12-.05,.18,0,.17,.13,0,.16,0,.33,0,.49Z"/>
      <path class="cls-2" d="M87.5,28.25c0,.43,0,.87,0,1.3,0,.24,.09,.4,.36,.42,.05,0,.12,0,.12,.07,0,.1-.09,.06-.14,.06-.43,0-.85,0-1.28,0-.05,0-.14,.03-.14-.07,0-.07,.07-.06,.12-.06,.27-.02,.35-.19,.35-.43,0-.66,0-1.32-.01-1.98,0-.22-.08-.38-.35-.3-.06,.02-.13,.02-.14-.06-.01-.07,.06-.08,.1-.09,.26-.11,.53-.21,.79-.32,.16-.07,.22-.02,.22,.16,0,.43,0,.87,0,1.3,0,0,0,0,0,0Z"/>
      <path class="cls-2" d="M92.77,30c.57-.01,.48-.44,.48-.8,0-.52,0-1.04-.02-1.56,0-.35-.03-.36-.39-.36-.04,0-.09,0-.11-.05-.02-.07,.03-.09,.08-.11,.26-.11,.53-.21,.79-.32,.17-.07,.23-.03,.23,.16,0,.73,0,1.46,0,2.19,0,.13,0,.26,0,.39,0,.25,.09,.42,.37,.44,.05,0,.12,0,.11,.08,0,.06-.06,.05-.1,.05-.46,0-.92,0-1.38,0-.04,0-.06-.02-.07-.09Z"/>
      <path class="cls-2" d="M62.24,28.23c0,.43,0,.87,0,1.3,0,.25,.09,.42,.36,.44,.05,0,.12,0,.11,.07,0,.07-.08,.05-.13,.05-.43,0-.87,0-1.3,0-.05,0-.12,.02-.12-.05,0-.08,.06-.07,.11-.07,.26-.02,.36-.19,.36-.42,0-.66,0-1.32-.02-1.97,0-.23-.07-.4-.36-.31-.05,.01-.11,.02-.13-.04-.02-.07,.03-.09,.08-.11,.27-.11,.54-.22,.82-.33,.15-.06,.2-.01,.2,.15,0,.43,0,.87,0,1.3,0,0,0,0,.01,0Z"/>
      <path class="cls-2" d="M87.22,25.08c.19,.01,.34,.18,.33,.36,0,.2-.18,.35-.38,.34-.19-.01-.34-.18-.33-.36,0-.2,.18-.35,.38-.34Z"/>
      <path class="cls-2" d="M61.93,25.08c.2,0,.37,.16,.36,.35,0,.19-.16,.34-.35,.34-.2,0-.36-.15-.36-.35,0-.19,.15-.34,.34-.34Z"/>
      <path class="cls-2" d="M93.9,25.43c0,.18-.15,.35-.33,.36-.21,.01-.37-.14-.37-.34,0-.19,.14-.35,.33-.36,.2-.01,.37,.14,.38,.34Z"/>
    </g>
    <g>
      <path class="cls-2" d="M129.48,19.4c-.87,0-1.74,0-2.61,0-.19,0-.27-.07-.35-.22-1.93-3.78-3.86-7.56-5.78-11.33-.04-.07-.08-.15-.13-.23-.09,.07-.11,.17-.15,.25-.52,1.12-1.04,2.25-1.53,3.39-1.15,2.64-2.34,5.25-3.5,7.89-.07,.17-.16,.24-.34,.22-.26-.02-.53,0-.8,0q-.26,0-.16-.23c.49-1.11,.99-2.23,1.48-3.34,1.81-4.08,3.61-8.15,5.42-12.23,.03-.07,.06-.14,.11-.22,.05,.08,.08,.14,.11,.2,1.31,2.52,2.61,5.04,3.92,7.56,1.4,2.7,2.8,5.39,4.19,8.08,.03,.06,.05,.13,.11,.17v.05Z"/>
      <path class="cls-2" d="M98.14,11.74c0-2.53,0-5.06,0-7.59,0-.2,.03-.28,.26-.27,2.09,.04,4.18-.04,6.27,.07,1.63,.08,3.21,.42,4.67,1.19,2.09,1.1,3.34,2.8,3.65,5.16,.23,1.69,.06,3.32-.66,4.88-.63,1.37-1.64,2.39-2.93,3.14-1.62,.94-3.39,1.29-5.24,1.3-1.93,0-3.85,0-5.78,0-.2,0-.24-.06-.24-.25,0-2.54,0-5.09,0-7.63Zm2.71,0c0,2.11,0,4.23,0,6.34,0,.2,.04,.27,.25,.26,1.01-.01,2.02,0,3.03,0,.32,0,.64,0,.96-.09,2.37-.58,3.87-2.07,4.56-4.39,.36-1.2,.39-2.44,.19-3.67-.17-1.02-.55-1.96-1.21-2.76-1.12-1.36-2.6-2.05-4.33-2.22-1.06-.11-2.13-.03-3.19-.06-.2,0-.26,.04-.26,.25,0,2.11,0,4.23,0,6.34Z"/>
      <path class="cls-2" d="M45.08,15.3c0-.15,0-.24,0-.32,0-3.61,0-7.22,0-10.83,0-.21,.05-.28,.27-.27,.25,.02,.5,.01,.75,0,.14,0,.18,.04,.17,.17,0,.04,0,.08,0,.12,0,5.17,0,10.33,0,15.5,0,.25-.08,.28-.3,.28-.29,0-.47-.09-.66-.31-2.72-3.12-5.45-6.23-8.18-9.35-.82-.93-1.64-1.87-2.46-2.8-.06-.06-.11-.13-.18-.2-.07,.09-.04,.19-.04,.28,0,3.92,0,7.84,0,11.77,0,.24-.06,.31-.3,.29-.22-.03-.45-.03-.68-.02-.21,.01-.23-.08-.23-.26,0-2.04,0-4.09,0-6.13,0-3.03,0-6.06,0-9.09,0-.21,.05-.27,.26-.25,.26,.02,.53,.03,.8,0,.32-.03,.53,.08,.74,.32,1.32,1.48,2.66,2.94,3.99,4.41,1.97,2.17,3.94,4.34,5.91,6.51,.04,.04,.07,.08,.16,.18Z"/>
      <path class="cls-2" d="M79.85,19.7c2.38-5.36,4.74-10.68,7.12-16.04,2.79,5.38,5.55,10.71,8.33,16.07h-1.03c-.52,0-1.03,0-1.55,0-.18,0-.29-.04-.38-.22-1.69-3.33-3.39-6.66-5.09-9.98-.27-.53-.54-1.05-.81-1.59-.08,.06-.09,.14-.13,.21-1.1,2.45-2.19,4.9-3.28,7.35-.6,1.33-1.19,2.67-1.78,4-.06,.14-.13,.2-.29,.2-.35-.01-.7,0-1.1,0Z"/>
      <path class="cls-2" d="M74.1,15.71c.77-1.75,1.52-3.46,2.28-5.16,.97-2.16,1.94-4.32,2.91-6.49,.05-.11,.12-.15,.23-.14,.31,0,.63,0,.94,0,.16,0,.18,.03,.12,.18-.48,1.06-.95,2.13-1.42,3.19-1.83,4.14-3.67,8.27-5.5,12.41-.03,.08-.07,.15-.12,.26-2.78-5.36-5.54-10.69-8.3-16.01,.06-.08,.12-.05,.18-.05,.81,0,1.63,0,2.44,0,.15,0,.22,.05,.29,.17,1.51,2.97,3.03,5.94,4.55,8.92,.43,.84,.86,1.68,1.29,2.51,.03,.06,.07,.12,.12,.22Z"/>
      <path class="cls-2" d="M54.44,12.79c0,1.86,0,3.71-.01,5.57,0,.21,.13,.15,.24,.15,2.4,0,4.81,0,7.21,0,.2,0,.39,0,.59,0,.14,0,.2,.03,.19,.18-.01,.24-.01,.49,0,.73,0,.16-.06,.21-.2,.19-.02,0-.05,0-.07,0-3.45,0-6.89-.01-10.34,0-.23,0-.3-.04-.3-.29,.01-2.22,0-4.43,0-6.65,0-.09,0-.17,0-.26,0-.14,.05-.18,.19-.18,.66,0,1.31,0,1.97,0q.51,0,.53,.52s0,.03,0,.05Z"/>
      <path class="cls-2" d="M57.22,3.9c1.73,0,3.46,0,5.19,0,.19,0,.26,.05,.25,.24-.02,.19-.02,.38,0,.56,.01,.18-.04,.24-.23,.24-.67-.01-1.33,0-2,0-1.92,0-3.84,0-5.76,0-.2,0-.24,.06-.24,.25,0,1.52,0,3.04,0,4.56,0,.19-.03,.26-.24,.25-.76-.01-1.52,.04-2.26,.2-.14,.03-.19,0-.19-.16,0-1.98,0-3.96,0-5.94,0-.19,.09-.19,.23-.19,1.75,0,3.49,0,5.24,0Z"/>
      <path class="cls-1" d="M54.44,12.79s-2.66-.42-2.7-.39c-1.23,0-2.52,.18-3.8,.62-.08,.03-.15,.05-.23,.08,.02-.03,.05-.06,.07-.09,.24-.28,.61-.64,1.11-1.01,.3-.22,1.5-1.07,3.48-1.3,2.02-.23,3.94,.18,5.83,.9,1.13,.43,2.3,.74,3.54,.71,.37-.01,.73-.06,1.12-.15-.04,.12-.12,.17-.2,.23-.7,.54-1.52,.79-2.37,.95-1.34,.24-2.66,.15-3.98-.16-.62-.14-1.24-.26-1.86-.39Z"/>
    </g>
  </g>
</svg>