<?xml version="1.0" encoding="UTF-8"?>
<svg id="Layer_1" data-name="Layer 1" xmlns="http://www.w3.org/2000/svg" viewBox="0 0 147.19 35">
  <defs>
    <style>
      .cls-1 {
        fill: #1aae62;
      }

      .cls-2 {
        fill: #e73a53;
      }

      .cls-3 {
        fill: #158d68;
      }

      .cls-4 {
        fill: #e45661;
      }

      .cls-5 {
        fill: #14a476;
      }

      .cls-6 {
        fill: #128b66;
      }

      .cls-7 {
        fill: #d83350;
      }

      .cls-8 {
        fill: #d7324f;
      }

      .cls-9 {
        fill: #e75b5c;
      }

      .cls-10 {
        fill: #e54f5d;
      }

      .cls-11 {
        fill: #17a578;
      }

      .cls-12 {
        fill: #f9fbfa;
      }

      .cls-13 {
        fill: #d8334f;
      }
    </style>
  </defs>
  <path class="cls-3" d="M21.15,0c.37,.12,.74,.22,1.1,.35,2.71,1.04,3.77,3.87,2.4,6.42-.19,.34-.34,.71-.55,1.04-.62,1.02-.39,2.11-.28,3.2,.02,.23,.2,.17,.33,.2,1.4,.36,2.67,.06,3.89-.69,1.03-.63,2.15-.94,3.38-.66,2.33,.54,3.88,2.8,3.65,5.33-.06,.67-.2,1.33-.51,1.93-.13,.26-.11,.47,0,.73,.72,1.59,.73,3.2-.04,4.77-1.14,2.34-3.72,3.2-6.06,2.04-.61-.31-1.21-.64-1.85-.9-.88-.35-1.75-.05-2.62,0-.16,0-.15,.14-.17,.25-.26,1.33-.16,2.59,.6,3.76,.29,.44,.51,.91,.66,1.41,.76,2.44-.79,4.98-3.44,5.62-1.3,.31-2.57,.22-3.78-.38-.26-.13-.44-.08-.68,.02-2.03,.86-3.98,.74-5.74-.64-1.65-1.29-2.09-3.42-1.19-5.3,.26-.54,.53-1.08,.82-1.61,.53-.97,.26-1.98,.15-2.97-.02-.16-.12-.16-.24-.18-1.31-.23-2.57-.2-3.73,.57-.22,.14-.45,.26-.69,.37-2.64,1.28-5.55-.06-6.37-2.92C.14,21.55,.15,21.3,0,21.09v-1.86c.25-.54,.32-1.14,.64-1.65,.03-.04,.03-.13,0-.18C.32,16.87,.23,16.26,0,15.7v-1.96c.16-.14,.14-.35,.2-.52,.56-1.75,1.66-2.93,3.49-3.35,1.15-.26,2.22,0,3.2,.59,1.25,.75,2.55,1.15,4.01,.76,.11-.03,.3,.06,.32-.14,.06-.84,.36-1.67,.05-2.52-.25-.68-.61-1.3-.93-1.94-1.24-2.46-.2-5.18,2.35-6.22C13.07,.24,13.48,.13,13.87,0c.59,0,1.18,0,1.77,0,.61,.2,1.24,.31,1.81,.64,.05,.03,.13,.03,.18,0C18.17,.31,18.79,.21,19.38,0,19.97,0,20.56,0,21.15,0Zm-3.15,12.56s.08-.07,.12-.1c.14,.12,.27,.23,.41,.35,.47,.41,.99,.68,1.64,.66,.3,0,.47-.09,.61-.37,.27-.57,.63-1.09,1.19-1.4,.33-.18,.43-.41,.38-.75-.03-.19-.04-.39-.07-.58-.16-.96-.09-1.89,.35-2.77,.24-.48,.49-.96,.74-1.44,.51-.99,.61-1.98,.11-3.01-.98-2.01-3.8-2.57-5.6-1.1-.28,.23-.41,.22-.68,0-.7-.59-1.55-.83-2.46-.82-2.16,.04-3.75,1.82-3.42,3.82,.11,.67,.47,1.25,.79,1.84,.59,1.07,.96,2.18,.69,3.42-.06,.29-.06,.58-.1,.88-.02,.16,.02,.28,.17,.36,.68,.35,1.13,.94,1.45,1.61,.11,.23,.26,.29,.49,.3,.86,.04,1.5-.37,2.03-1,.09,.07,.17,.15,.26,.22,.42,.4,.55,.38,.89-.12Zm-5.41,4.42c-.03-.06-.07-.11-.1-.17,.61-.52,1.03-1.13,1-1.98,0-.27-.07-.45-.34-.57-.56-.25-1.09-.6-1.38-1.14-.26-.49-.6-.51-1.04-.41-1.4,.31-2.69,.04-3.91-.69-.27-.16-.54-.3-.82-.44-1.72-.81-3.63-.14-4.41,1.59-.64,1.42-.45,2.78,.5,4.01,.18,.24,.21,.35,0,.6-.67,.8-.91,1.75-.83,2.78,.16,2.23,2.53,4.05,4.96,2.7,.21-.12,.43-.24,.65-.35,.76-.38,1.52-.79,2.4-.78,.62,0,1.24,.1,1.86,.15,.2,.02,.37,.01,.49-.21,.34-.63,.88-1.05,1.51-1.35,.28-.13,.36-.31,.37-.6,.03-.83-.45-1.4-.96-1.97,.61-.7,.61-.72,.05-1.17Zm9.8,.07c-.4,.39-.39,.47,.15,1.09-.53,.53-.98,1.1-1,1.9,0,.31,.06,.54,.41,.69,.56,.24,1.07,.61,1.37,1.15,.21,.39,.47,.44,.83,.39,.16-.02,.33-.03,.49-.06,.94-.15,1.85-.1,2.73,.31,.52,.24,1.02,.52,1.53,.78,.97,.5,1.96,.6,2.97,.12,2.03-.97,2.61-3.7,1.16-5.57-.24-.31-.22-.45,.01-.75,1.47-1.84,.84-4.63-1.24-5.58-1-.46-1.98-.34-2.92,.16-.71,.37-1.41,.76-2.18,1.01-.81,.27-1.62,.12-2.43,0-.41-.06-.73-.06-.96,.4-.26,.5-.72,.86-1.24,1.07-.53,.22-.57,.6-.49,1.07,.11,.66,.53,1.14,.98,1.6-.05,.07-.11,.14-.16,.21Zm-4.39,5.32c-.39-.46-.49-.44-1.11,.13-.46-.45-.94-.86-1.61-.98-.47-.08-.85-.05-1.07,.49-.21,.52-.57,.98-1.08,1.24-.46,.23-.49,.55-.39,.96,.33,1.45,.03,2.78-.72,4.04-.15,.25-.29,.51-.41,.78-.8,1.76-.05,3.7,1.74,4.42,1.39,.56,2.7,.36,3.88-.55,.23-.18,.35-.22,.59,0,.58,.51,1.29,.78,2.06,.84,1.37,.1,2.53-.33,3.33-1.48,.79-1.13,.75-2.32,.11-3.51-.22-.4-.42-.81-.63-1.21-.49-.95-.6-1.95-.39-3,.04-.21,.03-.42,.06-.63,.03-.25-.05-.41-.29-.54-.54-.3-.91-.78-1.21-1.32-.3-.53-.49-.61-1.1-.49-.64,.13-1.11,.53-1.56,.97l-.19-.12Zm3.27-4.87c-.03-.06-.06-.12-.1-.17-.55-.71-.85-1.5-.86-2.4,0-.22-.14-.21-.29-.22-.85-.02-1.61-.3-2.27-.82-.19-.15-.3-.1-.46,.02-.66,.5-1.4,.78-2.23,.79-.22,0-.31,.05-.32,.29-.01,.83-.29,1.57-.79,2.22-.14,.18-.16,.3-.01,.5,.51,.65,.78,1.39,.8,2.22,0,.23,.06,.31,.3,.31,.82,.02,1.58,.28,2.23,.79,.19,.15,.31,.15,.51,0,.62-.49,1.34-.76,2.13-.78,.34,0,.39-.14,.41-.44,.03-.77,.3-1.46,.77-2.08,.06-.08,.11-.16,.18-.25Z"/>
  <path class="cls-6" d="M134.95,19.15c-3.25,0-6.49,0-9.74,0-1.26,0-1.98-.72-1.99-1.97,0-1.86,0-3.73,0-5.59,0-1.24,.74-1.99,1.98-1.99,6.47,0,12.95,0,19.42,0,1.27,0,2.02,.74,2.02,2,0,1.86,0,3.73,0,5.59,0,1.21-.76,1.95-1.97,1.95-3.25,0-6.49,0-9.74,0Zm-5.76-2.9s-.08-.06-.12,0c0,0,.04,.04,.06,.06,.12,.35,.44,.52,.72,.7,3,1.96,6.11,2.22,9.33,.54,.26-.13,.47-.27,.81-.18,.36,.09,.63-.14,.68-.52,.05-.36-.12-.61-.47-.69-.37-.09-.68,.07-.74,.45-.05,.34-.25,.4-.51,.49-2.69,.95-5.35,.89-8.03-.08-.6-.22-1.12-.61-1.75-.76Zm2.23-3.44c-.08-.37-.3-.51-.62-.43-.32,.08-.28,.35-.28,.6,0,.87,0,1.73,0,2.6,0,.31,.11,.52,.44,.52,.32,0,.46-.19,.45-.51,0-.56,0-1.11,0-1.67,0-.49,.24-.76,.64-.76,.39,0,.62,.28,.63,.77,0,.54,.01,1.08,0,1.62,0,.33,.11,.56,.46,.55,.33,0,.43-.23,.43-.54,0-.56,0-1.11,0-1.67,0-.42,.18-.69,.62-.73,.39-.03,.65,.27,.66,.74,0,.56,0,1.11,0,1.67,0,.31,.11,.52,.44,.53,.32,0,.46-.19,.46-.5,0-.64,.02-1.27-.01-1.91-.02-.54-.19-1.05-.73-1.29-.56-.25-1.06-.11-1.46,.34-.1,.11-.16,.14-.31,.02-.72-.64-1.07-.63-1.8,.07Zm-3.49,3.29c.21,0,.27,0,.34,0,.92-.05,1.58-.62,1.62-1.39,.04-.79-.46-1.32-1.43-1.5-.18-.03-.36-.06-.53-.1-.3-.07-.59-.18-.54-.57,.05-.36,.34-.44,.65-.47,.35-.03,.68,.08,.98,.25,.25,.14,.47,.13,.63-.14,.17-.3,.04-.5-.23-.64-.55-.3-1.12-.44-1.74-.31-.81,.18-1.25,.66-1.24,1.35,0,.71,.39,1.11,1.22,1.29,.25,.06,.51,.09,.77,.15,.31,.08,.54,.25,.51,.61-.03,.35-.29,.5-.59,.55-.45,.07-.88-.01-1.26-.27-.24-.16-.48-.16-.64,.09-.17,.26-.08,.49,.18,.66,.44,.29,.92,.4,1.3,.42Zm12.72-1.47c.79,0,1.52,0,2.26,0,.58,0,.72-.19,.63-.76-.13-.84-.88-1.52-1.75-1.6-.93-.08-1.79,.47-2.07,1.32-.28,.85,.06,1.73,.84,2.21,.75,.46,1.97,.36,2.53-.2,.16-.16,.2-.34,.06-.52-.13-.18-.31-.24-.52-.13-.13,.07-.24,.17-.38,.23-.67,.3-1.24,.12-1.61-.55Zm-1.58-.95c0-.65,0-1.3,0-1.96,0-.31-.13-.52-.44-.52-.32,0-.45,.19-.45,.51,0,1.29,0,2.57,0,3.86,0,.32,.12,.52,.44,.52,.31,0,.45-.2,.45-.51,0-.64,0-1.27,0-1.91Zm-1.67,.57c0-.46,0-.91,0-1.37,0-.32-.13-.5-.46-.5-.3,0-.43,.18-.43,.48,0,.91,0,1.83,0,2.74,0,.32,.14,.51,.46,.5,.32,0,.44-.22,.43-.53-.01-.44,0-.88,0-1.32Zm.04-2.55c0-.31-.16-.5-.46-.52-.31-.02-.5,.16-.52,.46-.02,.3,.16,.5,.46,.52,.29,.02,.48-.15,.52-.45Z"/>
  <path class="cls-7" d="M71.28,14.56c.58-1.13,1.14-2.22,1.7-3.3,.43-.84,.87-1.68,1.29-2.53,.23-.48,.56-.72,1.12-.69,.6,.04,1.21,0,1.82,0,.68,0,.85,.16,.85,.83,0,1.91,0,3.83,0,5.74,0,1.9,0,3.79,0,5.69,0,.74-.15,.88-.9,.88-.66,0-1.31,0-1.97,0-.6,0-.74-.15-.75-.76-.06-2.47-.02-4.94,.75-7.32,.01-.04,0-.09,0-.13-.2,.02-.18,.19-.22,.29-.56,1.64-1.35,3.18-2.13,4.73-.23,.46-.57,.67-1.09,.66-2.06-.03-1.59,.18-2.53-1.51-.69-1.25-1.3-2.53-1.66-3.91-.02-.09-.04-.2-.21-.27,.12,.6,.22,1.17,.36,1.73,.47,1.95,.35,3.93,.36,5.9,0,.37-.22,.59-.58,.59-.79,.02-1.57,.01-2.36,0-.3,0-.49-.17-.54-.47-.03-.18-.04-.36-.04-.53,0-3.69,0-7.39,0-11.08,0-.93,.12-1.05,1.04-1.05,.52,0,1.05,.03,1.57,0,.58-.04,.91,.23,1.16,.72,.92,1.82,1.86,3.63,2.79,5.45,.05,.1,.1,.2,.19,.35Z"/>
  <path class="cls-8" d="M87.38,21.19c-1.04,0-1.89,0-2.74,0-.66,0-.83-.17-.83-.85,0-1.34-.01-2.68,0-4.02,0-.34-.08-.48-.43-.43-.47,.07-.65-.16-.63-.62,.03-.46,.02-.92,0-1.37-.01-.44,.18-.65,.62-.61,.35,.04,.44-.09,.43-.43-.02-1.32-.01-2.65,0-3.97,0-.67,.17-.84,.84-.84,1.62,0,3.25,0,4.87,0,.79,0,1.57,.13,2.31,.41,1.77,.68,2.78,1.99,2.98,3.85,.16,1.43,.13,2.87,.02,4.31-.19,2.48-1.77,4.1-4.25,4.48-1.13,.17-2.26,.05-3.2,.1Zm3.78-6.56c0-.44,0-.88,0-1.32,0-1.26-.65-1.93-1.91-2.01-.15,0-.29-.02-.44-.01-.42,.02-.98-.19-1.22,.09-.21,.24-.06,.78-.07,1.18,0,.13,.01,.26,0,.39-.02,.25,.07,.35,.33,.34,.44-.02,.88,0,1.33,0,.32,0,.48,.14,.48,.47,0,.55,0,1.11,0,1.66,0,.32-.14,.48-.47,.47-.46,0-.92,0-1.37,0-.2,0-.3,.05-.29,.27,.01,.51,.01,1.01,0,1.52,0,.22,.08,.28,.29,.28,.52-.02,1.05,.02,1.57-.03,1.2-.12,1.78-.77,1.79-1.97,0-.44,0-.88,0-1.32Z"/>
  <path class="cls-13" d="M95.74,12.79c0-1.26,0-2.52,0-3.78,0-.85,.12-.97,.95-.97,.59,0,1.18,0,1.77,0,.85,0,.97,.12,.97,.95,0,2.44,0,4.87,0,7.31,0,.7,.08,1.39,.8,1.7,.83,.36,1.7,.37,2.48-.16,.49-.34,.55-.9,.55-1.45,0-2.35,0-4.71,0-7.06q0-1.29,1.27-1.28c.56,0,1.11,0,1.67,0,.55,0,.73,.19,.75,.74,.01,.46,0,.92,0,1.37,0,.11-.05,.25,.08,.3,.13,.05,.25-.04,.35-.13,.16-.14,.19-.34,.19-.54,0-.39,.01-.78,0-1.18-.01-.42,.18-.6,.6-.58,.38,.02,.75,0,1.13,0,.41,0,.61,.22,.62,.6,.02,.83,.02,1.67-.15,2.49-.25,1.17-.8,1.68-1.99,1.82-.83,.1-.82,.1-.83,.94-.01,1.08,.06,2.16-.04,3.23-.19,2.09-1.41,3.57-3.44,4.11-1.42,.38-2.86,.38-4.27-.01-2.17-.61-3.45-2.31-3.47-4.6-.01-1.27,0-2.55,0-3.82Z"/>
  <path class="cls-8" d="M61.66,21.19c-.41,0-.82,0-1.23,0-.53,0-.9-.22-1.04-.78-.11-.42-.17-.97-.46-1.2-.32-.25-.88-.07-1.34-.08-.75-.01-1.51,0-2.26,0-.26,0-.38,.07-.45,.33-.08,.33-.21,.65-.31,.98-.17,.52-.53,.76-1.07,.76-.72,0-1.44,0-2.16,0-.67,0-.81-.21-.58-.85,.58-1.63,1.18-3.25,1.77-4.87,.81-2.24,1.64-4.47,2.44-6.71,.18-.51,.47-.74,1.01-.72,.72,.03,1.44,.02,2.16,0,.47-.01,.78,.17,.94,.62,1.43,3.93,2.86,7.85,4.28,11.78,.19,.52,.02,.74-.53,.75-.39,0-.79,0-1.18,0Zm-3.54-5.03c-.49-1.57-1.06-3.11-1.17-4.77,.02,1.68-.64,3.19-1.1,4.77h2.27Z"/>
  <path class="cls-8" d="M110.08,14.61c.02-.88-.07-1.76,.06-2.64,.31-2.08,1.48-3.42,3.5-3.96,1.68-.44,3.37-.42,5.01,.23,1.28,.5,2.11,1.46,2.59,2.72,.21,.55,.07,.82-.47,1.03-.66,.24-1.32,.48-1.99,.7-.61,.2-.79,.11-1.04-.45-.54-1.21-2.23-1.67-3.33-.89-.42,.3-.6,.74-.61,1.23-.02,1.36-.05,2.71,0,4.07,.04,1.19,1.04,1.8,2.44,1.57,.72-.12,1.22-.5,1.49-1.19,.25-.62,.42-.69,1.06-.47,.65,.22,1.3,.45,1.94,.68,.61,.22,.72,.48,.48,1.1-.55,1.42-1.54,2.39-2.99,2.82-1.62,.49-3.27,.49-4.89-.01-1.96-.61-3.16-2.24-3.26-4.38-.03-.72,0-1.44,0-2.16Z"/>
  <path class="cls-8" d="M46.72,8.04c1.52,0,3.05,0,4.57,0,.66,0,.83,.17,.84,.85,0,.52,0,1.05,0,1.57,0,.64-.18,.82-.82,.82-.74,0-1.48,.03-2.21-.01-.46-.03-.52,.14-.52,.55,.02,2.78,0,5.56,0,8.34,0,.92-.12,1.04-1.05,1.04-.57,0-1.15,0-1.72,0-.81,0-.95-.14-.95-.93,0-1.81,0-3.63,0-5.44,0-1.05-.01-2.09,0-3.14,0-.33-.1-.41-.42-.4-.8,.02-1.61,.01-2.41,0-.52,0-.71-.19-.72-.71-.01-.59,0-1.18,0-1.76,0-.58,.19-.76,.77-.76,1.54,0,3.08,0,4.62,0Z"/>
  <path class="cls-11" d="M70.02,29.23c-.21,.08-.6-.23-.63,.19-.03,.41,.41,.35,.67,.39,.43,.06,.88-.03,1.32,.07,.41,.09,.76,.24,.86,.69,.11,.46-.06,.84-.4,1.14-.69,.62-2.31,.78-3.11,.3-.57-.33-.64-1.08-.13-1.48,.19-.15,.29-.22,.12-.47-.18-.26-.13-.57,.11-.8,.15-.15,.22-.2,.01-.39-.67-.61-.48-1.64,.35-2.01,.54-.24,1.11-.27,1.68-.08,.23,.08,.37,.12,.46-.18,.08-.27,.32-.41,.61-.41,.18,0,.45-.07,.44,.23,0,.22,.11,.55-.33,.56-.35,0-.51,.12-.32,.55,.27,.6-.14,1.35-.78,1.58-.3,.1-.6,.14-.93,.11Zm.14,1.27s0,0,0,.01c-.13,0-.27,.02-.39,0-.32-.07-.51,.07-.58,.37-.08,.28,.02,.52,.27,.68,.39,.24,1.29,.18,1.64-.11,.17-.14,.24-.3,.21-.52-.04-.23-.21-.33-.41-.36-.24-.04-.49-.04-.73-.06Zm.71-2.5c0-.4-.28-.7-.71-.72-.43-.02-.73,.25-.74,.66-.01,.42,.26,.7,.69,.71,.43,.02,.75-.26,.76-.66Z"/>
  <path class="cls-7" d="M58.83,7.06c-.68,.16-1.26-.13-1.63-.84-.14-.26-.3-.29-.43,0-.55,1.16-1.6,.83-2.53,.82-.33,0-.36-.27-.2-.49,.58-.79,1.14-1.59,1.77-2.34,.49-.58,1.99-.5,2.49,.12,.58,.71,1.11,1.45,1.65,2.19,.24,.33,.14,.51-.27,.54-.24,.02-.49,0-.85,0Z"/>
  <path class="cls-11" d="M58.84,27.99c.84,.52,1,1.43,1.36,2.22,.02,.05,0,.14-.02,.17-.21,.2-1.05-.04-1.15-.32-.14-.36-.29-.73-.44-1.09-.12-.27-.33-.44-.62-.51-.61-.14-.71-.05-.7,.56,0,.26-.02,.53,.02,.78,.09,.5-.09,.64-.59,.61-.35-.02-.47-.07-.46-.46,.03-1.39,.02-2.78,0-4.16,0-.33,.08-.42,.4-.41,.64,.03,1.28-.02,1.91,.04,.75,.07,1.14,.4,1.24,.91,.12,.64-.14,1.15-.8,1.53-.04,.02-.08,.05-.16,.11Zm-1.59-1.06c0,.9,.09,.98,.85,.79,.55-.13,.79-.46,.72-.98-.07-.48-.51-.71-1.25-.64-.62,.05-.23,.52-.33,.79,0,.01,0,.03,0,.05Z"/>
  <path class="cls-11" d="M104.76,25.46c-.47,.67-.97,1.25-1.53,1.78-.17,.16-.19,.24-.02,.41,.69,.71,1.16,1.58,1.65,2.42,.14,.23,.14,.36-.18,.34-.16-.01-.33-.02-.49,0-.31,.05-.46-.09-.59-.36-.31-.63-.67-1.24-1.13-1.77-.09-.11-.21-.26-.36-.2-.17,.07-.09,.26-.09,.39,0,.49,0,.98,.05,1.47,.05,.41-.11,.52-.48,.47-.11-.02-.23-.01-.34,0-.23,.02-.27-.08-.26-.29,.06-1.47,.06-2.94,0-4.41,0-.24,.05-.3,.29-.31,.8-.03,.8-.04,.78,.75,0,.39,0,.78,0,1.18,.21,.07,.29-.12,.38-.23,.27-.33,.59-.64,.76-1.02,.33-.7,.85-.79,1.57-.63Z"/>
  <path class="cls-11" d="M92.87,28.22c0-.33,.03-.66,0-.98-.07-.56,.34-.41,.63-.46,.39-.06,.43,.16,.39,.46-.02,.13-.03,.26-.02,.39,.02,.15-.1,.4,.09,.43,.27,.03,.47-.2,.64-.4,.16-.19-.05-.24-.15-.33-.21-.19-.24-.41-.13-.67,.12-.28,.35-.38,.63-.36,.28,.02,.43,.19,.51,.45,.13,.44-.05,.8-.31,1.13-.25,.31-.56,.56-.93,.71-.29,.12-.39,.3-.35,.6,.03,.21,.05,.42,.05,.63,0,.2,.16,.52-.06,.56-.25,.04-.6,.25-.83-.09-.1-.14-.19-.03-.3,0-.21,.08-.43,.17-.65,.21-.97,.16-1.51-.28-1.56-1.26-.04-.72,.03-1.44-.06-2.15-.04-.37,.28-.26,.44-.29,.59-.09,.61-.06,.58,.52-.03,.6-.05,1.21,.02,1.81,.08,.67,.72,.94,1.27,.55,.13-.09,.14-.21,.14-.34,0-.38,0-.75,0-1.13-.01,0-.02,0-.03,0Z"/>
  <path class="cls-11" d="M106.24,27.04c.42-.21,.82-.38,1.27-.36,.84,.04,1.24,.42,1.24,1.25,0,.72,0,1.44,0,2.15,0,.6-.44,.25-.68,.32-.27,.08-.37-.05-.33-.35,.08-.63,.08-1.27,.05-1.91-.01-.3-.07-.59-.4-.72-.37-.14-.71-.03-1.03,.15-.16,.09-.12,.25-.12,.4,0,.69-.01,1.37,.04,2.06,.04,.54-.33,.34-.57,.38-.3,.04-.47,0-.46-.4,.07-1.53,.08-3.07-.04-4.6-.02-.3,.07-.35,.34-.36,.7-.03,.7-.04,.68,.68-.01,.42,0,.84,0,1.3Z"/>
  <path class="cls-11" d="M87.78,30.53c-.26-.03-.52-.07-.78-.07-.47,0-.57-.21-.44-.64,.07-.21,.13-.28,.37-.22,.51,.14,1.03,.18,1.55,.06,.24-.05,.44-.15,.48-.42,.03-.25-.07-.46-.29-.58-.31-.18-.63-.34-.96-.49-.25-.12-.5-.25-.71-.43-.76-.68-.56-1.87,.39-2.24,.69-.28,1.42-.24,2.12-.09,.41,.09,.07,.39,.1,.6,.03,.21-.07,.27-.29,.21-.39-.12-.8-.17-1.21-.09-.24,.04-.51,.11-.55,.41-.04,.28,.14,.46,.37,.57,.19,.09,.38,.18,.58,.26,.36,.15,.72,.31,1.01,.59,.79,.75,.53,2.01-.5,2.38-.4,.15-.83,.19-1.26,.2Z"/>
  <path class="cls-11" d="M67.82,28.98c0,.26,0,.52,0,.78,.01,.65-.17,.79-.83,.65-.24-.05-.17-.19-.16-.33,.02-.62,.06-1.24,.05-1.86-.01-.75-.49-1.04-1.19-.76-.24,.1-.36,.24-.35,.51,.02,.69,0,1.37,.02,2.06,.02,.62-.43,.31-.68,.37-.33,.08-.36-.12-.34-.39,.07-1.01,.13-2.02-.09-3.02-.02-.1-.03-.23,.11-.21,.3,.05,.68-.38,.91,.15,.05,.11,.17,.01,.26-.02,.23-.08,.46-.19,.7-.23,1.07-.18,1.64,.33,1.62,1.4,0,.29,0,.59,0,.88,0,0-.01,0-.02,0Z"/>
  <path class="cls-7" d="M103.95,4.71c0,.24-.17,.36-.33,.47-.79,.55-1.59,1.09-2.38,1.64-.3,.21-.53,.17-.76-.1-.99-1.16-.76-.95,.06-1.77,.52-.52,1.06-1.02,1.6-1.52,.38-.36,.71-.34,1.04,.06,.2,.24,.39,.49,.57,.74,.11,.14,.19,.3,.2,.48Z"/>
  <path class="cls-11" d="M113.2,28.53c0,1.16-.86,1.99-2.03,1.98-1.1,0-1.86-.76-1.86-1.84,0-1.15,.86-1.99,2.03-1.99,1.1,0,1.86,.77,1.86,1.85Zm-1,0c-.03-.13-.07-.36-.15-.56-.15-.36-.41-.59-.82-.59-.41,0-.67,.24-.8,.6-.17,.48-.16,.96,.11,1.41,.37,.6,1.1,.59,1.47-.01,.14-.23,.17-.49,.2-.85Z"/>
  <path class="cls-11" d="M79.64,30.51c-1.11-.01-1.86-.75-1.86-1.84,0-1.18,.87-2.01,2.07-1.99,1.1,.02,1.84,.78,1.83,1.87-.01,1.16-.86,1.97-2.05,1.96Zm1.02-2.04s-.02-.22-.08-.39c-.15-.41-.4-.72-.88-.71-.48,.02-.72,.33-.85,.75-.12,.41-.08,.81,.12,1.19,.17,.32,.43,.53,.83,.51,.37-.02,.59-.24,.75-.55,.11-.21,.13-.44,.12-.8Z"/>
  <path class="cls-11" d="M122.74,28.62c.02-1.15,.89-1.96,2.08-1.93,1.09,.02,1.84,.79,1.82,1.87-.02,1.18-.89,1.99-2.1,1.95-1.1-.03-1.82-.79-1.8-1.89Zm2.9-.01c-.04-.17-.05-.36-.11-.52-.15-.41-.4-.72-.89-.71-.48,.02-.72,.33-.84,.76-.13,.43-.08,.84,.14,1.23,.17,.3,.43,.48,.8,.47,.35-.02,.57-.22,.73-.51,.12-.22,.16-.46,.17-.71Z"/>
  <path class="cls-11" d="M117.07,29.66c.1,.59-.16,.78-.66,.81-.41,.03-.81,.07-1.22-.01-1.15-.24-1.77-1.28-1.44-2.41,.32-1.1,1.45-1.66,2.53-1.25,.64,.24,1.09,1.2,.87,1.84-.07,.21-.23,.15-.36,.15-.6,.02-1.21,.05-1.81,.04-.32,0-.32,.11-.21,.34,.21,.42,.56,.61,1.02,.64,.43,.03,.84-.1,1.27-.16Zm-1.66-1.41c.11,0,.23,.02,.34,0,.18-.03,.48,.11,.5-.22,.02-.27-.13-.5-.41-.6-.32-.11-.62-.08-.87,.15-.17,.16-.34,.38-.25,.6,.07,.18,.32,.05,.49,.07,.06,.01,.13,0,.2,0Z"/>
  <path class="cls-11" d="M63.66,28.84c0,.36,0,.72,0,1.08,0,.16,.2,.41-.02,.47-.25,.07-.61,.17-.78-.02-.18-.19-.25-.1-.39-.04-.27,.13-.55,.19-.85,.18-.54-.01-.95-.27-1.08-.68-.15-.49,.06-1.01,.51-1.32,.38-.26,.83-.27,1.26-.36,.14-.03,.4,.12,.39-.2,0-.25-.08-.45-.35-.52-.42-.11-.84-.06-1.26,0-.12,.02-.34,.23-.38-.05-.03-.2-.1-.51,.21-.57,.69-.15,1.39-.24,2.08,0,.44,.15,.63,.51,.65,.95,.02,.36,0,.72,0,1.08,0,0,.01,0,.02,0Zm-.94,.36c-.02-.21,.08-.49-.34-.46-.56,.04-.99,.28-.98,.62,0,.4,.29,.46,.61,.46,.56,0,.72-.13,.71-.62Z"/>
  <path class="cls-5" d="M120.49,28.28c0-.59-.01-1.18,0-1.77,0-.26-.07-.36-.33-.33-.21,.02-.43,.05-.64,.03-.2-.02-.52,.18-.52-.28,0-.35,0-.57,.48-.55,1.03,.04,2.07,.03,3.1,0,.43-.01,.36,.22,.38,.48,.02,.35-.15,.37-.42,.35-1.06-.07-1.06-.06-1.06,.99,0,.93-.01,1.86,.04,2.79,.03,.57-.35,.35-.61,.4-.33,.05-.46-.05-.44-.41,.04-.57,0-1.14,0-1.72,0,0,.01,0,.02,0Z"/>
  <path class="cls-5" d="M75.54,28.35c0-.6-.01-1.21,0-1.81,0-.29-.09-.38-.36-.35-.19,.02-.39,.02-.59,.04-.52,.04-.66-.16-.53-.66,.05-.19,.18-.16,.3-.16,1.11,0,2.23,0,3.34,0,.36,0,.3,.2,.29,.41,0,.2,.07,.46-.29,.42-.02,0-.03,0-.05,0-1.13,0-1.13,0-1.13,1.12,0,.87-.03,1.74,.04,2.6,.04,.56-.28,.44-.6,.47-.36,.03-.49-.06-.46-.45,.04-.54,.01-1.08,.01-1.62,0,0,.01,0,.02,0Z"/>
  <path class="cls-11" d="M83.5,26.4c-.16,.47,.14,.54,.57,.48,.2-.02,.41-.05,.37,.27-.03,.23,0,.49-.36,.42-.53-.1-.68,.15-.63,.64,.04,.34,.02,.68,.05,1.02,.03,.44,.28,.63,.72,.59,.1,0,.3-.16,.28,.08-.01,.18,.1,.43-.18,.55-.69,.31-1.56-.12-1.72-.86-.12-.55-.06-1.11-.06-1.66,0-.26-.05-.4-.34-.37-.21,.02-.18-.16-.16-.27,.02-.14-.1-.41,.14-.39,.58,.04,.39-.36,.44-.64,.03-.17-.13-.41,.24-.47,.67-.11,.66-.14,.64,.62Z"/>
  <path class="cls-11" d="M129.36,29.77c0,.36,.06,.69-.44,.74-.73,.07-1.26-.18-1.43-.74-.15-.53-.09-1.07-.11-1.6,0-.27,.15-.65-.4-.61-.17,.01-.11-.21-.1-.32,0-.12-.06-.34,.1-.33,.67,.05,.43-.44,.47-.76,.02-.17-.02-.32,.25-.37,.65-.11,.68-.13,.62,.55-.04,.45,.09,.62,.55,.55,.19-.03,.43-.09,.41,.28-.02,.29-.09,.47-.42,.4-.45-.09-.61,.12-.57,.55,.02,.28,0,.55,.02,.83,.05,.81,.22,.94,1.03,.83Z"/>
  <path class="cls-11" d="M98.71,29.66c0,.75-.06,.8-.73,.85-1.02,.08-1.79-.3-2.14-1.06-.34-.72-.17-1.64,.43-2.21,.6-.58,1.33-.63,2.11-.5,.3,.05,.17,.26,.15,.42-.02,.16-.03,.35-.29,.26-.05-.01-.1-.02-.14-.03-.5-.08-.95-.04-1.25,.45-.26,.44-.23,1.13,.09,1.53,.34,.44,.8,.53,1.32,.4,.14-.03,.28-.07,.45-.12Z"/>
  <path class="cls-1" d="M147.17,28.15c-1.07,0-2.15,0-3.22,0-2.54,0-5.08,.02-7.61,.04-.54,0-1.08,.02-1.62,.03-.15,0-.32,.03-.31-.2,0-.24,.19-.18,.33-.18,3.5,.02,7.01,0,10.51,.09,.65,.02,1.31,0,1.96,0,0,.07-.02,.14-.02,.21Z"/>
  <path class="cls-1" d="M40.29,27.86c2.26,0,4.52,0,6.78,0,1.88,0,3.77-.02,5.65-.01,.14,0,.41-.13,.4,.19-.01,.3-.27,.18-.41,.18-3.59-.03-7.18-.06-10.76-.09-.55,0-1.1,0-1.65,0,0-.09,0-.18,0-.26Z"/>
  <path class="cls-11" d="M62.2,26.29c-.53,0-.94-.28-1.15-.76-.08-.17-.11-.29,.11-.39,.17-.08,.28-.13,.43,.08,.46,.64,.76,.65,1.22,0,.18-.25,.31-.14,.48-.06,.26,.12,.09,.27,.03,.39-.23,.48-.62,.73-1.12,.73Z"/>
  <path class="cls-11" d="M123.49,26.22c.22-.37,.42-.74,.66-1.08,.15-.22,1-.19,1.15,.04,.22,.34,.42,.69,.64,1.05-.4,.17-.65,.02-.85-.28-.24-.37-.48-.43-.74-.01-.19,.3-.43,.47-.85,.29Z"/>
  <path class="cls-11" d="M78.52,26.24c.23-.38,.43-.74,.66-1.07,.15-.22,1-.24,1.15-.02,.23,.35,.43,.72,.66,1.09-.39,.13-.62,.02-.84-.26-.37-.48-.4-.48-.79,.02-.21,.27-.44,.36-.83,.25Z"/>
  <path class="cls-11" d="M111.93,25.25c0,.23-.11,.4-.29,.54-.11,.08-.25,.11-.31,.28-.08,.23-.35,.17-.44,.07-.1-.11-.24-.3-.01-.5,.47-.4,.46-.42-.12-.71-.12-.06-.13-.12-.12-.22,.02-.11,0-.22,.15-.27,.44-.15,1.14,.35,1.13,.82Z"/>
  <path class="cls-11" d="M93.45,25.04c-.69,1.08-.98,1.29-1.59,1.2,.34-1.1,.57-1.28,1.59-1.2Z"/>
  <path class="cls-11" d="M127.01,24.39c-.42,.33-.47,1.11-1.26,1.01,.24-.91,.46-1.1,1.26-1.01Z"/>
  <path class="cls-11" d="M82.06,24.4c-.43,.32-.47,1.14-1.28,.99,.32-.99,.45-1.09,1.28-.99Z"/>
  <path class="cls-10" d="M18.18,22.49c.8,.81,1.61,1.62,2.4,2.44,.6,.63,.68,1.51,.23,2.2-.46,.7-1.31,.99-2.11,.71-.33-.12-.59-.35-.82-.6-.24-.25-.47-.26-.71,0-.31,.35-.69,.6-1.15,.69,0-.16-.15-.22-.25-.27-1.03-.55-1.04-2.12-.26-2.8,.88-.76,1.66-1.65,2.48-2.49l.19,.12Z"/>
  <path class="cls-10" d="M22.55,16.84c.81-.79,1.61-1.59,2.42-2.37,.51-.49,1.12-.67,1.81-.45,.67,.21,1.07,.68,1.2,1.36,.12,.63-.08,1.16-.52,1.61-.47,.48-.47,.52-.02,.98,.29,.3,.5,.64,.56,1.06-.18,0-.22,.16-.32,.26-.26,.28-.49,.6-.9,.72-.76,.22-1.37-.04-1.91-.55-.84-.8-1.59-1.68-2.49-2.41,.05-.07,.11-.14,.16-.21Z"/>
  <path class="cls-10" d="M7.1,18.94c.06-.4,.28-.71,.56-1,.41-.41,.41-.48,0-.91-.76-.78-.8-1.86-.08-2.57,.71-.71,1.79-.7,2.55,.03,.8,.77,1.59,1.55,2.38,2.32,.03,.06,.06,.11,.1,.17-.86,.87-1.72,1.75-2.58,2.61-.6,.6-1.37,.65-2.1,.23-.38-.22-.52-.61-.81-.89Z"/>
  <path class="cls-4" d="M17.69,7.94c.47-.6,1.05-.97,1.84-.88,.7,.07,1.18,.44,1.44,1.09,.27,.68,.17,1.33-.35,1.85-.71,.72-1.45,1.39-2.18,2.09-.11,.11-.21,.24-.31,.36-.04,.03-.08,.07-.12,.1-.16-.1-.3-.23-.39-.39,.23-.11,.2-.31,.2-.51,0-1.09,0-2.18,0-3.27,0-.16,.05-.33-.11-.45Z"/>
  <path class="cls-2" d="M7.1,18.94c.29,.27,.43,.67,.81,.89,.73,.42,1.5,.37,2.1-.23,.86-.87,1.72-1.74,2.58-2.61,.56,.45,.56,.46-.05,1.17-.78,.77-1.56,1.54-2.35,2.3-1,.96-2.44,.75-2.99-.42-.16-.35-.22-.72-.11-1.09Z"/>
  <path class="cls-2" d="M22.39,17.05c.89,.74,1.65,1.62,2.49,2.41,.54,.51,1.15,.77,1.91,.55,.41-.12,.64-.43,.9-.72,.1-.11,.14-.26,.32-.26,.05,.9-.31,1.55-1.03,1.87-.75,.33-1.45,.18-2.09-.46-.78-.77-1.56-1.53-2.34-2.3-.54-.62-.55-.7-.15-1.09Z"/>
  <path class="cls-13" d="M18,22.37c-.82,.84-1.6,1.73-2.48,2.49-.79,.68-.77,2.25,.26,2.8,.1,.06,.25,.11,.25,.27-.92,.07-1.59-.29-1.92-1.03-.32-.72-.16-1.45,.47-2.08,.77-.78,1.54-1.55,2.31-2.32,.62-.57,.72-.58,1.11-.13Z"/>
  <path class="cls-2" d="M17.61,12.16c.09,.17,.23,.29,.39,.39-.34,.51-.47,.52-.89,.12-.08-.08-.17-.15-.26-.22-.77-.78-1.53-1.55-2.3-2.33-.62-.63-.77-1.41-.39-2.14,.37-.72,1.07-1.05,1.97-.91-.05,.11-.16,.15-.26,.21-1.02,.58-1.29,1.78-.51,2.65,.7,.79,1.5,1.49,2.26,2.23Z"/>
  <path class="cls-12" d="M131.42,12.8c.73-.71,1.08-.72,1.8-.07,.14,.13,.2,.1,.31-.02,.41-.45,.9-.59,1.46-.34,.55,.24,.71,.75,.73,1.29,.03,.64,0,1.27,.01,1.91,0,.32-.15,.51-.46,.5-.33,0-.44-.22-.44-.53,0-.56,0-1.11,0-1.67,0-.47-.27-.77-.66-.74-.44,.03-.62,.31-.62,.73,0,.56,0,1.11,0,1.67,0,.3-.1,.53-.43,.54-.35,0-.47-.21-.46-.55,.01-.54,0-1.08,0-1.62,0-.49-.24-.77-.63-.77-.4,0-.63,.26-.64,.76,0,.56,0,1.11,0,1.67,0,.32-.14,.51-.45,.51-.33,0-.44-.21-.44-.52,0-.87,0-1.73,0-2.6,0-.25-.04-.52,.28-.6,.32-.08,.54,.06,.62,.43Z"/>
  <path class="cls-12" d="M127.93,16.09c-.37-.02-.86-.13-1.3-.42-.26-.17-.35-.4-.18-.66,.16-.24,.4-.25,.64-.09,.38,.26,.81,.34,1.26,.27,.3-.05,.57-.2,.59-.55,.03-.36-.2-.53-.51-.61-.25-.06-.51-.09-.77-.15-.83-.18-1.21-.59-1.22-1.29,0-.69,.43-1.17,1.24-1.35,.62-.14,1.2,0,1.74,.31,.26,.15,.4,.35,.23,.64-.16,.27-.38,.27-.63,.14-.31-.17-.63-.28-.98-.25-.31,.02-.61,.1-.65,.47-.05,.38,.24,.5,.54,.57,.17,.04,.35,.06,.53,.1,.98,.18,1.48,.7,1.43,1.5-.04,.78-.7,1.34-1.62,1.39-.07,0-.13,0-.34,0Z"/>
  <path class="cls-12" d="M140.65,14.62c.37,.67,.94,.85,1.61,.55,.13-.06,.25-.16,.38-.23,.21-.11,.39-.05,.52,.13,.14,.19,.1,.36-.06,.52-.56,.56-1.78,.66-2.53,.2-.78-.48-1.11-1.36-.84-2.21,.28-.85,1.14-1.4,2.07-1.32,.88,.08,1.62,.75,1.75,1.6,.09,.57-.06,.76-.63,.76-.74,0-1.47,0-2.26,0Zm1.97-.8c-.26-.51-.62-.71-1.1-.66-.4,.04-.72,.23-.85,.66h1.95Z"/>
  <path class="cls-12" d="M129.19,16.24c.63,.15,1.14,.54,1.75,.76,2.67,.97,5.34,1.02,8.03,.08,.26-.09,.46-.16,.51-.49,.06-.38,.36-.54,.74-.45,.35,.08,.52,.33,.47,.69-.05,.39-.32,.62-.68,.52-.34-.09-.55,.05-.81,.18-3.22,1.68-6.33,1.42-9.33-.54-.28-.18-.6-.35-.72-.7,.02-.02,.04-.04,.06-.06Z"/>
  <path class="cls-12" d="M139.07,13.66c0,.64,0,1.27,0,1.91,0,.32-.14,.51-.45,.51-.32,0-.44-.2-.44-.52,0-1.29,0-2.57,0-3.86,0-.32,.13-.51,.45-.51,.32,0,.45,.2,.44,.52,0,.65,0,1.3,0,1.96Z"/>
  <path class="cls-12" d="M137.4,14.23c0,.44,0,.88,0,1.32,0,.31-.11,.52-.43,.53-.32,0-.46-.18-.46-.5,0-.91,0-1.83,0-2.74,0-.3,.13-.47,.43-.48,.32,0,.46,.18,.46,.5,0,.46,0,.91,0,1.37Z"/>
  <path class="cls-12" d="M137.44,11.68c-.04,.3-.23,.47-.52,.45-.3-.02-.48-.21-.46-.52,.02-.3,.21-.48,.52-.46,.3,.02,.46,.21,.46,.52Z"/>
  <path class="cls-12" d="M129.13,16.3s-.06-.06-.06-.06c.04-.06,.08-.03,.12,0-.02,.02-.04,.04-.06,.06Z"/>
  <path class="cls-9" d="M17.61,12.16c-.76-.74-1.55-1.44-2.26-2.23-.77-.86-.51-2.07,.51-2.65,.1-.06,.21-.1,.26-.21,.4,.08,.71,.29,.98,.58,.16,.18,.33,.31,.58,.27,.16,.12,.11,.29,.11,.45,0,1.09,0,2.18,0,3.27,0,.19,.03,.4-.2,.51Z"/>
  <path class="cls-3" d="M142.61,13.82h-1.95c.14-.43,.45-.62,.85-.66,.48-.05,.84,.15,1.1,.66Z"/>
</svg>