<?xml version="1.0" encoding="UTF-8"?>
<svg id="Layer_1" data-name="Layer 1" xmlns="http://www.w3.org/2000/svg" viewBox="0 0 170.28 35">
  <defs>
    <style>
      .cls-1 {
        fill: #224699;
      }

      .cls-2 {
        fill: #224599;
      }

      .cls-3 {
        fill: #234699;
      }

      .cls-4 {
        fill: #2c4c90;
      }

      .cls-5 {
        fill: #c72335;
      }

      .cls-6 {
        fill: #fbd307;
      }

      .cls-7 {
        fill: #fad308;
      }

      .cls-8 {
        fill: #224595;
      }

      .cls-9 {
        fill: #f9d208;
      }

      .cls-10 {
        fill: #24479a;
      }

      .cls-11 {
        fill: #26499b;
      }

      .cls-12 {
        fill: #214498;
      }
    </style>
  </defs>
  <path class="cls-7" d="M13.31,11.34c-.56-1.17-1.58-1.95-2.47-2.84-1.67-1.66-1.12-5.38,1.02-6.33,.74-.33,1.41-.68,1.97-1.29C14.4,.27,15.19-.04,16,0c1.47,.08,2.95,.26,4.41,.47,.57,.08,1.11,.38,1.51,.82,.65,.7,1.38,1.22,2.28,1.58,.94,.38,1.11,1.27,1.04,2.2-.07,1.02-.32,2-.6,2.98-.74-.07-1.16,.32-1.55,.92-1.07,1.62-2.21,3.18-3.32,4.77-.23-.92-.2-1.77-.24-2.63-.04-.97,.43-2.23-.2-2.83-.62-.59-1.87-.14-2.84-.17-.05,0-.1,.06-.21,.14,1.08,1.15,2,2.42,2.23,4.01,.19,1.35,.69,2.5,1.6,3.49-.27,.54-.92,.84-1.09,1.58,.69-.33,1.04-.85,1.52-1.23,1.58,.75,1.6,.77,.65,2.23-.48,.74-.15,1.38,.28,1.88,.27,.32,.32,.51,.13,.81-.15,.23-.26,.42-.02,.66,.32,.31,.27,.63,0,.96-.34,.42-.23,.88-.09,1.34,.09,.31,.3,.72,.18,.94-.45,.85,.1,1.34,.53,1.89,.36,.46,.71,.92,1.06,1.39,.79,1.07,1.83,1.6,3.18,1.57,1.6-.03,3.2,.02,4.8,.04-.01,.96-.33,1.86-1.09,2.4-1.44,1.01-2.95,1.94-4.67,2.44-.56,.16-1.15,.13-1.72-.05-.52-.16-1.02-.2-1.58-.08-1.32,.28-2.24-.4-2.91-1.45-.64-.99-.97-2.1-1.17-3.25,.46-.21,1.28,.29,1.41-.36,.18-.9,.24-1.93-.05-2.77-.19-.56-1.08,.14-1.65-.02-.1-.03-.21-.01-.32-.02-.31-2.18-.5-4.37-.56-6.57-.77,2.19-.7,4.41-.32,6.64-.86,.24-1.76,.35-2.54,.86-.76,.49-.45,1.25-.4,1.87,.05,.57,.64,.3,.99,.31,.93,.05,1.87,.04,2.81,.06,.98,3.18-1.18,5.62-4.41,4.98-.47-.09-.93-.14-1.39,.03-.73,.27-1.53,.23-2.1-.18-2.03-1.47-4.29-2.8-4.7-5.62-.08-.57-.31-1-.68-1.44-1-1.19-.9-2.32,.15-3.51,.67-.76,1.63-1.18,2.22-2.02,0,0-.01,0-.01,0,.42,.09,.65-.26,.94-.44,1.92-1.15,3.89-2.17,6.09-2.69,.17,.31-.09,.71,.23,1.06,1.1-1.18,1.78-2.55,2.22-4.04,.74-2.53,.48-5.01-.45-7.44-.3-.8-1-.37-1.52-.4-.57-.04-.4,.49-.42,.81-.04,.8-.05,1.6-.07,2.39-.08,0-.17,.01-.25,.02h.01Z"/>
  <path class="cls-6" d="M6.53,22.06c-1.2,.55-2.35,.38-3.52-.13-1.45-.62-2.28-1.65-2.29-3.25,0-.59-.09-1.14-.35-1.68-.48-1.01-.5-2.08,0-3.05,.53-1.04,.92-2.12,1.42-3.16,.45-.94,1.12-1.71,2.15-2.05,.42-.14,.64-.44,.9-.74,.9-1.03,1.72-1.24,3.02-.78,1.77,.63,3.03,1.94,4.31,3.25,.33,.34,.47,.98,1.15,.88,0,0-.01,0-.01,0-.29,.36,.1,.47,.25,.67,.1,2.17,.1,4.34,0,6.51-2.56,.4-4.77,1.58-6.83,3.09-.14,.1-.43,.19-.2,.47h.01Z"/>
  <path class="cls-8" d="M20.11,15.73c-.91-.99-1.41-2.15-1.6-3.49-.23-1.59-1.15-2.85-2.23-4.01,.11-.07,.16-.14,.21-.14,.97,.04,2.22-.41,2.84,.17,.63,.6,.16,1.86,.2,2.83,.04,.85,0,1.71,.24,2.63,1.11-1.59,2.26-3.15,3.32-4.77,.4-.6,.81-.99,1.55-.92,.27,0,.54,0,.81,0,1.76,0,3.52,0,5.31,0-.04,.6-.37,.86-.6,1.16-1.94,2.58-3.9,5.14-5.85,7.72q-1.59,2.11,.2,4.07c.22,.27,.45,.55,.67,.82,2.03,2.54,4.04,5.1,6.2,7.53,.09,.21,.1,.38-.16,.46-1.6-.02-3.2-.07-4.8-.04-1.35,.02-2.39-.51-3.18-1.57-.35-.47-.71-.93-1.06-1.39-.43-.56-.98-1.05-.53-1.89,.12-.22-.09-.63-.18-.94-.14-.47-.25-.93,.09-1.34,.27-.33,.33-.65,0-.96-.25-.24-.14-.43,.02-.66,.19-.29,.14-.49-.13-.81-.42-.51-.75-1.15-.28-1.88,.95-1.47,.93-1.48-.65-2.23-.14-.12-.29-.24-.43-.35Z"/>
  <path class="cls-12" d="M105.06,24.2c.71-2.29,1.43-4.58,2.11-6.88,.43-1.45,1.57-.62,2.37-.74,.75-.11,1.06,.52,1.06,1.22,0,3.76,0,7.51,.01,11.27,0,.52-.16,.66-.68,.69-2.43,.11-2.43,.13-2.43-2.33,0-1.13,0-2.26,0-3.39,0-.07,0-.14,0-.52-.73,1.89-1.04,3.59-1.51,5.24-.16,.57-.26,1.03-1.08,1.02-.83,0-.92-.47-1.07-1.04-.44-1.66-.89-3.33-1.51-4.94,0,1.67-.03,3.35,.01,5.02,.02,.66-.1,.95-.87,.95-2.04-.02-2.24-.17-2.24-2.23,0-3.35,.03-6.71-.02-10.06-.01-.79,.23-.96,.98-.95,2.39,.03,2.39,0,3.06,2.29,.52,1.8,1.04,3.6,1.56,5.4,.08,0,.16-.01,.24-.02Z"/>
  <path class="cls-9" d="M24.52,21q-1.78-1.96-.2-4.07c1.94-2.58,3.9-5.14,5.85-7.72,.23-.3,.56-.56,.6-1.16-1.79,0-3.55,0-5.31,0,1.51-2.01,4.35-2.13,5.85-.22,.39,.5,.81,.9,1.41,1.15,.69,.29,1.3,.8,1.52,1.5,.62,1.96,1.43,3.9,1.02,6.04-.57,.02-1.15,.09-1.72,.03-.69-.06-.85,.21-.83,.86,.03,1.36-.01,2.73-.03,4.1-1.3,.47-2.65,.52-3.99,.31-1.4-.22-2.78-.54-4.17-.81Z"/>
  <path class="cls-10" d="M56.16,23.11c0,1.66-.01,3.33,0,4.99,0,.6,.02,1.24-.62,1.51-.72,.3-1.51,.17-2.26,.09-.29-.03-.18-.43-.18-.67,0-3.94,0-7.88-.01-11.81,0-.52,.16-.75,.68-.67,.04,0,.07,0,.11,0q2.46-.08,3.46,2.18c.56,1.26,1.13,2.52,1.7,3.78,.02,.04,.11,.06,.28,.14,0-1.53,0-3.01,0-4.49,0-.6-.03-1.27,.63-1.5,.72-.25,1.51-.17,2.26-.04,.3,.05,.2,.43,.2,.67,0,3.9,0,7.8,.01,11.7,0,.54-.14,.75-.73,.77-2.31,.09-2.31,.12-3.25-2-.69-1.56-1.38-3.12-2.07-4.68-.07,0-.13,.01-.2,.02Z"/>
  <path class="cls-10" d="M82.49,22.6c0-1.47,0-2.94,0-4.41,0-1.39,1.65-2.3,2.87-1.59,.29,.17,.21,.44,.21,.68,0,3.94,0,7.87,.01,11.81,0,.53-.19,.74-.7,.67-.04,0-.07,0-.11,0q-2.24,.08-3.16-1.96c-.7-1.56-1.39-3.12-2.09-4.68,0-.01-.06,0-.19-.01,0,1.66,0,3.32,0,4.98,0,1.41-1.6,2.33-2.86,1.64-.3-.16-.2-.44-.2-.67,0-3.94,0-7.87-.01-11.81,0-.49,.1-.78,.65-.7,.07,.01,.15,0,.22,0q2.4-.05,3.36,2.16c.58,1.31,1.17,2.62,1.76,3.93,.08-.01,.16-.03,.24-.04Z"/>
  <path class="cls-12" d="M149.39,29.75c-1.2,0-2.24-.02-3.29,0-.53,.02-.57-.38-.67-.7-.34-1.04-.63-2.09-.96-3.13-.1-.32-.15-.77-.68-.67-.49,.09-.33,.49-.34,.79-.02,.87-.02,1.75,0,2.62,.02,.71-.24,1.05-1.01,1.09-2.32,.11-2.32,.13-2.32-2.21,0-3.17,0-6.34,0-9.51,0-1.21,.27-1.49,1.46-1.5,1.13,0,2.26-.02,3.39,0,1.77,.04,3.28,1.03,3.82,2.59,.59,1.74,.48,3.41-.94,4.73-.44,.41-.44,.72-.25,1.2,.59,1.51,1.17,3.03,1.8,4.68Zm-5.96-8.74c0,.4,0,.8,0,1.2,0,.3,.11,.48,.44,.47,.77-.02,1.44-.21,1.75-1.01,.31-.81,.12-1.5-.56-2.03-.41-.31-.91-.34-1.35-.21-.53,.16-.2,.68-.28,1.04-.04,.17,0,.36,0,.54Z"/>
  <path class="cls-11" d="M121.72,21.75c.6-1.46,1.22-2.91,1.79-4.37,.22-.57,.49-.89,1.17-.84,.9,.07,1.81,.02,2.93,.02-.78,1.58-1.4,3.09-2.24,4.47-.75,1.23-.76,2.26-.06,3.5,.82,1.45,1.44,3.02,2.18,4.51,.3,.61,.13,.79-.48,.73-.07,0-.15,0-.22,0q-2.71,.04-3.75-2.49c-.43-1.04-.87-2.07-1.53-3.1,0,1.33,0,2.67,0,4,0,1.54-.04,1.59-1.61,1.59q-1.76,0-1.76-1.79c0-3.5,.01-6.99-.01-10.49,0-.67,.12-.95,.89-.95,2.5,0,2.5-.03,2.5,2.5v2.68c.07,.02,.14,.03,.21,.05Z"/>
  <path class="cls-2" d="M64.44,23.14c0-.95-.04-1.9,0-2.84,.13-2.32,2.09-3.97,4.64-3.96,2.54,.01,4.41,1.63,4.56,3.91,.04,.63-.01,1.08-.83,.95-.39-.06-.8-.04-1.2,0-.78,.08-1.35,0-1.44-1.01-.05-.62-.61-.86-1.22-.84-.69,.02-1.14,.45-1.16,1.08-.06,1.82-.07,3.64,.01,5.46,.04,.85,.9,1.34,1.67,1.13,.67-.17,1.23-1.24,1.07-1.95-.12-.5-.5-.35-.79-.34-1.33,.02-.58-.97-.71-1.5-.14-.53-.06-.99,.74-.94,1.02,.07,2.04,.04,3.06,0,.59-.02,.86,.11,.82,.77-.05,.87,0,1.75-.02,2.62-.07,2.52-2.01,4.26-4.71,4.24-2.68-.02-4.47-1.72-4.5-4.29-.01-.84,0-1.68,0-2.51,0,0,0,0,0,0Z"/>
  <path class="cls-2" d="M154.34,16.55c.8,0,1.6,0,2.4,0,1.31,0,1.57,.24,1.56,1.51,0,1.72,.15,1.37-1.35,1.41-.47,.01-.95,0-1.42,0-1.38,0-1.66,.38-1.39,1.75,.09,.43,.34,.4,.62,.4,.73,0,1.46,.02,2.18,0,.46-.02,.61,.14,.64,.62,.16,2.2,.17,2.2-2.02,2.2-1.4,0-1.76,.52-1.42,1.91,.12,.48,.44,.4,.75,.4,.87,.01,1.75,.04,2.62,0,.67-.03,.96,.11,.95,.89-.02,2.13,.03,2.13-2.1,2.13-1.38,0-2.77,0-4.15,0-.95,0-1.4-.42-1.4-1.39,.01-3.68,.02-7.36,0-11.03,0-.61,.16-.83,.79-.8,.91,.05,1.82,.01,2.73,.01Z"/>
  <path class="cls-1" d="M96.01,29.76c-.89,.21-1.72-.01-2.12-1.18-.1-.29-.39-.52-.63-.74-1.66-1.52-2.32-1.38-2.72,.77-.2,1.06-.7,1.2-1.62,1.17-2.03-.06-2.03-.02-1.44-1.97,1.04-3.45,2.09-6.89,3.09-10.35,.19-.65,.44-.94,1.18-.93,2.28,.02,2.27-.01,2.94,2.2,.99,3.31,1.96,6.62,3.01,9.92,.3,.93,.14,1.27-.84,1.11-.21-.03-.44,0-.84,0Zm-3.66-8.6c-.31,1.24-.54,2.19-.77,3.14q-.58,2.39,1.89,2.28s.07,0,.11,.01c.35,.05,.49-.12,.38-.44-.5-1.58-1.02-3.16-1.61-5Z"/>
  <path class="cls-3" d="M41.1,29.7c.98-3.28,1.95-6.51,2.91-9.74,.11-.38,.23-.77,.34-1.15,.69-2.32,.69-2.29,3.1-2.28,.67,0,.87,.29,1.03,.83,1.13,3.83,2.27,7.66,3.44,11.49,.22,.71,.12,1.02-.68,.92-.25-.03-.51-.02-.76,0-1.05,.1-1.93,.05-2.44-1.19-.32-.78-1.15-1.29-1.98-1.63-.54-.22-.9-.2-1.1,.53-.63,2.33-.67,2.33-3.12,2.28-.21,0-.43-.03-.74-.06Zm7.19-3.08c-.58-1.8-1.11-3.45-1.66-5.15-.15,.12-.19,.14-.2,.16-.25,.98-.51,1.97-.75,2.95q-.48,1.94,1.58,1.99c.29,0,.58,.03,1.04,.05Z"/>
  <path class="cls-3" d="M159.35,29.72c1.27-4.25,2.52-8.42,3.75-12.6,.12-.41,.33-.63,.77-.57,.07,.01,.15,0,.22,0q2.36-.05,3.03,2.2c1.01,3.38,2,6.76,3.05,10.13,.2,.66,.16,.96-.61,.88-.32-.03-.66-.04-.98,0-1.01,.12-1.76-.04-2.25-1.13-.39-.87-1.26-1.4-2.17-1.73-.46-.17-.79-.15-.94,.48-.18,.77-.1,1.92-.69,2.22-.9,.45-2.05,.15-3.19,.12Zm5.53-8.23c-.07,.01-.13,.02-.2,.04-.2,.83-.4,1.67-.61,2.5q-.62,2.45,1.83,2.56c.17,0,.35,.08,.58-.15-.52-1.62-1.06-3.28-1.6-4.95Z"/>
  <path class="cls-2" d="M32.69,21.49c.01-1.37,.06-2.73,.03-4.09-.02-.64,.14-.92,.83-.86,.57,.05,1.15-.02,1.72-.03,1.16,.02,2.33,.04,3.49,.04,.54,0,1.05,.05,1.29,.6,.3,.69,.17,1.43,.1,2.15-.02,.24-.36,.17-.57,.17-.76,0-1.53,0-2.29,0-1.15,0-1.61,.72-1.24,1.86,.12,.37,.38,.28,.61,.28,.69,.01,1.39,.04,2.07,0,.6-.04,.72,.21,.73,.76,.06,2.07,.08,2.05-2.05,2.08-.45,0-1.12-.26-1.29,.2-.2,.54-.08,1.22-.04,1.84,.03,.35,.38,.26,.61,.26,.95,.01,1.89,.02,2.84,0,.49-.01,.69,.12,.72,.67,.14,2.34,.16,2.34-2.19,2.34-1.06,0-2.11,0-3.17,0q-2.08,0-2.21-2c0-2.09,0-4.17,0-6.26Z"/>
  <path class="cls-5" d="M133.84,29.21c1.17-.8,1.85-1.86,1.64-3.29-.2-1.28-.94-2.18-2.19-2.62-.46-.16-.93-.13-1.4-.15-1.84-.06-3.28-1.47-3.31-3.25-.03-1.82,1.41-3.27,3.32-3.34,3.11-.1,5.8,1.95,6.55,5.01,.74,3.01-.74,6.14-3.54,7.46-.32,.15-.64,.37-1.07,.19Z"/>
  <path class="cls-7" d="M31.4,29.34c-2.16-2.43-4.17-4.99-6.2-7.53,1.51,.2,3.02,.41,4.54,.6,.31,.04,.56,.14,.76,.36,1.28,1.41,2.35,2.9,1.85,4.97-.28,.55-.52,1.13-.95,1.59Z"/>
  <path class="cls-4" d="M17.46,29.81c-.94-.02-1.87,0-2.81-.06-.35-.02-.94,.25-.99-.31-.06-.63-.36-1.38,.4-1.87,.78-.5,1.68-.61,2.54-.86,.29-.02,.58-.05,.88-.07,.11,0,.22-.01,.32,.02,.58,.17,1.46-.53,1.65,.02,.29,.84,.22,1.87,.05,2.77-.13,.65-.95,.16-1.41,.36-.21,0-.42,0-.62,0Z"/>
  <path class="cls-4" d="M13.55,18.51c.1-2.17,.1-4.34,0-6.51,0-.23,0-.46,0-.69,.02-.8,.03-1.6,.07-2.39,.02-.32-.16-.85,.42-.81,.51,.03,1.21-.39,1.52,.4,.93,2.43,1.19,4.92,.45,7.44-.44,1.49-1.12,2.86-2.22,4.04-.32-.35-.06-.75-.23-1.06,0-.14,0-.29,0-.43Z"/>
</svg>