<?xml version="1.0" encoding="UTF-8"?>
<svg id="Layer_1" data-name="Layer 1" xmlns="http://www.w3.org/2000/svg" viewBox="0 0 84.07 35">
  <defs>
    <style>
      .cls-1 {
        fill: #7f3c69;
      }

      .cls-2 {
        fill: #e47b79;
      }

      .cls-3 {
        fill: #83406c;
      }

      .cls-4 {
        fill: #7f3b69;
      }

      .cls-5 {
        fill: #813e6a;
      }

      .cls-6 {
        fill: #803c69;
      }

      .cls-7 {
        fill: #813e6b;
      }

      .cls-8 {
        fill: #803d6a;
      }

      .cls-9 {
        fill: #84416d;
      }

      .cls-10 {
        fill: #803c6a;
      }

      .cls-11 {
        fill: #813d6a;
      }

      .cls-12 {
        fill: #7e3a68;
      }
    </style>
  </defs>
  <path class="cls-2" d="M8.58,25.86c-2.42,.01-4.55-.46-6.34-1.99C.64,22.49,.03,20.68,0,18.62c0-.3,.11-.42,.41-.41,.83,.01,1.65,0,2.48,0,.25,0,.41,.07,.4,.36-.13,2.48,1.82,4.08,4.47,4.33,1.15,.11,2.29,.02,3.38-.37,1.33-.48,1.96-1.41,1.96-2.8,0-.78-.32-1.38-.96-1.82-1.19-.82-2.58-1.04-3.94-1.34-1.26-.28-2.52-.56-3.74-.99-2.43-.85-3.76-2.39-3.82-4.46-.08-2.65,1.19-4.74,3.54-5.71,2.49-1.04,5.03-1.08,7.56-.16,2.42,.88,4.03,3.33,3.93,5.9-.01,.36-.14,.48-.49,.47-.76-.02-1.53-.01-2.29,0-.28,0-.45-.07-.45-.39,0-.12-.05-.25-.07-.37-.36-1.86-1.43-2.92-3.31-3.16-.95-.12-1.9-.1-2.84,.13-1.48,.37-2.21,1.35-2.17,2.86,.02,.57,.25,1.01,.71,1.34,1.03,.74,2.24,.96,3.44,1.23,1.63,.36,3.27,.69,4.82,1.35,2.06,.88,3.33,2.37,3.48,4.66,.14,2.3-.83,4.07-2.75,5.29-1.61,1.02-3.41,1.33-5.16,1.32Z"/>
  <path class="cls-2" d="M54.42,15.21c0,3.07-.01,6.15,.01,9.22,0,.54-.16,.7-.68,.67-.68-.04-1.36-.04-2.03,0-.48,.03-.62-.14-.61-.61,.02-2.29,0-4.58,.02-6.87,0-.55-.14-.73-.71-.72-2.29,.03-4.58,.03-6.87,0-.58,0-.7,.19-.7,.73,.03,2.27,0,4.53,.02,6.8,0,.54-.17,.7-.69,.67-.68-.04-1.36-.04-2.03,0-.49,.03-.61-.15-.61-.62,.02-3.54,0-7.08,0-10.62,0-2.59,.01-5.17-.01-7.76,0-.54,.12-.78,.7-.74,.63,.05,1.27,.04,1.91,0,.55-.04,.73,.12,.72,.7-.03,2.25,0,4.49-.03,6.74,0,.61,.19,.74,.76,.73,2.29-.03,4.58-.03,6.87,0,.5,0,.65-.14,.65-.64-.02-2.29,0-4.58-.02-6.87,0-.48,.1-.69,.63-.66,.7,.04,1.4,.04,2.1,0,.49-.03,.6,.16,.6,.62-.02,3.07,0,6.15,0,9.22Z"/>
  <path class="cls-2" d="M70.85,15.22c0-3.03,.01-6.06-.01-9.09,0-.57,.14-.77,.74-.76,3.94,.03,7.88,.02,11.82,0,.55,0,.69,.18,.66,.69-.04,.63-.05,1.27,0,1.91,.06,.62-.2,.73-.76,.72-2.82-.02-5.64,0-8.45-.02-.55,0-.74,.13-.72,.7,.04,1.23,.03,2.46,0,3.69,0,.44,.13,.58,.58,.58,2.33-.02,4.66,.01,6.99-.02,.58,0,.74,.17,.7,.72-.05,.63-.04,1.27,0,1.91,.03,.52-.12,.69-.66,.69-2.29-.03-4.58,0-6.86-.03-.59,0-.76,.17-.74,.75,.04,1.14,.04,2.29,0,3.43-.02,.55,.13,.73,.7,.72,2.84-.03,5.68,0,8.52-.03,.56,0,.75,.15,.71,.71-.05,.65-.04,1.31,0,1.97,.03,.51-.15,.64-.64,.64-3.39-.02-6.78-.01-10.17-.01-.57,0-1.15-.04-1.72,.01-.59,.05-.7-.19-.7-.72,.02-3.05,.01-6.1,.01-9.15Z"/>
  <path class="cls-2" d="M56.07,15.2c0-3.05,.01-6.1-.01-9.15,0-.52,.14-.68,.67-.68,3.94,.02,7.88,.02,11.82,0,.54,0,.78,.12,.73,.71-.05,.65-.04,1.31,0,1.97,.03,.51-.15,.65-.65,.64-2.82-.02-5.64-.01-8.45-.01q-.81,0-.81,.84c0,1.12,.03,2.25-.01,3.37-.02,.57,.12,.77,.73,.76,2.25-.04,4.49,0,6.74-.03,.61-.01,.77,.19,.73,.76-.04,.63-.04,1.27,0,1.91,.03,.5-.14,.65-.65,.65-2.27-.02-4.53,0-6.8-.02-.57,0-.78,.14-.75,.74,.05,1.16,.04,2.33,0,3.5-.02,.55,.18,.67,.69,.67,2.84-.02,5.68,0,8.52-.02,.56,0,.76,.16,.72,.72-.04,.68-.03,1.36,0,2.03,.01,.4-.1,.56-.53,.56-4.05-.01-8.09-.02-12.14,0-.48,0-.55-.2-.55-.61,.01-3.09,0-6.19,0-9.28Z"/>
  <path class="cls-12" d="M27.97,30.41c-2.52,0-5.04-.01-7.56,.01-.49,0-.62-.14-.59-.61,.04-.74,.03-1.48,0-2.22-.01-.35,.09-.48,.46-.48,5.17,.01,10.34,.01,15.51,0,.4,0,.51,.13,.5,.51-.02,.72-.04,1.44,0,2.16,.03,.5-.12,.65-.63,.64-2.56-.03-5.13-.01-7.69-.01Z"/>
  <path class="cls-1" d="M53.21,28.73c-.08,.35-.15,.55-.18,.76-.04,.32-.19,.41-.51,.42-.32,0-.45-.13-.51-.42-.09-.46-.2-.91-.3-1.36-.04-.18-.16-.38,.16-.42,.25-.03,.4,.05,.45,.32,.05,.29,.12,.57,.28,.87,.06-.28,.13-.57,.18-.85,.05-.25,.18-.35,.44-.35,.24,0,.34,.13,.38,.34,.06,.29,.13,.58,.2,.91,.22-.29,.2-.61,.26-.9,.05-.25,.18-.37,.44-.33,.33,.05,.18,.28,.15,.44-.08,.42-.18,.83-.27,1.24-.07,.3-.12,.55-.55,.54-.4-.01-.43-.25-.47-.53-.03-.17-.08-.33-.17-.65Z"/>
  <path class="cls-5" d="M76.01,28.89c0,.23,0,.46,0,.69,0,.2-.07,.32-.29,.32-.27,0-.3-.16-.3-.37,0-.47,0-.93,0-1.4,0-.16-.06-.37,.18-.41,.23-.04,.47-.08,.63,.17,.16,.26,.33,.52,.51,.82,.16-.24,.08-.45,.09-.65,.01-.23,.08-.36,.33-.35,.23,0,.27,.15,.27,.34,0,.47,0,.93,0,1.4,0,.17,.08,.41-.21,.45-.21,.03-.43,.03-.56-.19-.17-.29-.35-.57-.52-.85-.04,.01-.09,.02-.13,.04Z"/>
  <path class="cls-8" d="M62.54,28.66c0-.18,0-.37,0-.55,0-.19-.02-.4,.27-.4,.28,0,.29,.18,.29,.38,0,.47,0,.93,0,1.4,0,.16,.05,.37-.19,.4-.21,.03-.43,.04-.56-.18-.18-.3-.36-.59-.67-.85,0,.24,0,.49,0,.73,0,.21-.07,.31-.3,.31-.22,0-.29-.12-.3-.32,0-.47,0-.93,0-1.4,0-.18-.07-.42,.2-.47,.25-.05,.51-.05,.66,.23,.14,.26,.3,.5,.46,.75l.14-.04Z"/>
  <path class="cls-11" d="M73.89,28.31c.03,.21,.14,.2,.24,.21,.19,.01,.4,0,.39,.28,0,.26-.2,.22-.36,.23-.13,.01-.28,.01-.26,.19,.02,.17,.18,.14,.3,.15,.11,0,.21-.01,.32,0,.22,.04,.58-.15,.57,.28,0,.37-.34,.23-.54,.24-1.28,.03-1.28,.03-1.28-1.24,0-.21,0-.42,0-.63,0-.16,.04-.31,.23-.32,.44-.01,.89,0,1.33,0,.15,0,.22,.1,.22,.25,0,.19-.1,.25-.27,.27-.29,.03-.61-.07-.88,.09Z"/>
  <path class="cls-11" d="M68.37,28.29c.17,.28,.47,.2,.69,.3,.27,.12,.47,.29,.48,.61,0,.34-.19,.57-.49,.67-.37,.12-.75,.11-1.11-.08-.13-.07-.3-.15-.22-.33,.08-.17,.23-.33,.46-.2,.22,.13,.44,.26,.71,.03-.11-.24-.33-.23-.53-.27-.39-.09-.67-.29-.62-.74,.05-.44,.39-.58,.76-.63,.14-.02,.3,0,.44,.05,.2,.07,.54,.08,.44,.4-.09,.28-.33,.26-.57,.12-.13-.08-.28-.1-.44,.08Z"/>
  <path class="cls-11" d="M40.25,28.33c.13,.2,.24,.19,.35,.19,.19,0,.34,.04,.33,.28,0,.21-.14,.23-.3,.24-.14,.01-.35-.02-.32,.19,.02,.2,.24,.11,.36,.15,.27,.09,.77-.22,.77,.24,0,.52-.52,.2-.81,.27-.18,.04-.38,0-.57,.01-.3,.02-.42-.11-.4-.41,.01-.19,0-.38,0-.57,0-1.3,.17-1.44,1.49-1.23,.16,.03,.29,.04,.3,.24,0,.23-.13,.27-.32,.29-.28,.02-.57-.07-.88,.1Z"/>
  <path class="cls-11" d="M66.27,28.29c.16,.29,.46,.2,.68,.3,.3,.13,.5,.31,.48,.66-.02,.34-.22,.55-.53,.63-.35,.1-.71,.09-1.04-.1-.15-.08-.33-.17-.19-.38,.09-.14,.23-.26,.43-.14,.09,.05,.18,.12,.28,.13,.13,.03,.32,.08,.36-.12,.03-.16-.15-.17-.25-.22-.02,0-.04-.01-.06-.02-.37-.06-.72-.16-.79-.59-.05-.28,.07-.5,.31-.64,.37-.23,.76-.21,1.15-.03,.12,.06,.3,.14,.2,.33-.07,.14-.19,.3-.4,.2-.2-.09-.4-.25-.62,0Z"/>
  <path class="cls-10" d="M55.61,28.35c.11,.22,.28,.17,.41,.17,.18,.01,.27,.09,.27,.27,0,.21-.13,.23-.29,.24-.14,0-.35-.04-.35,.16,0,.26,.25,.14,.39,.18,.27,.09,.8-.25,.78,.29-.02,.44-.51,.21-.78,.22-.99,.03-.99,.01-.99-1,0-1.23,0-1.23,1.26-1.19,.2,0,.52-.12,.52,.26,0,.38-.33,.22-.53,.26-.22,.04-.46-.08-.68,.13Z"/>
  <path class="cls-11" d="M71.9,29.93c-.57-.02-.97-.29-1.13-.84-.16-.56,.06-1.01,.55-1.29,.49-.28,.98-.22,1.41,.15,.11,.1,.32,.24,.19,.41-.13,.16-.36,.23-.56,.04-.14-.14-.3-.24-.5-.21-.25,.04-.43,.19-.5,.43-.07,.24-.01,.46,.18,.63,.19,.17,.42,.2,.65,.08,.09-.05,.16-.14,.24-.2,.17-.12,.36-.04,.47,.06,.18,.17-.04,.3-.14,.41-.23,.25-.52,.34-.86,.33Z"/>
  <path class="cls-10" d="M80.37,28.39c.16,.07,.22,.09,.27,.11,.19,.08,.53-.1,.55,.27,.02,.4-.32,.22-.51,.28-.09,.03-.15,.08-.15,.17,0,.09,.08,.14,.17,.15,.25,0,.51,0,.76,.01,.16,0,.29,.03,.3,.24,0,.23-.12,.29-.32,.28-.02,0-.04,0-.06,0-.46-.04-1.13,.22-1.32-.11-.3-.52-.09-1.23-.09-1.86,0-.2,.16-.22,.32-.22,.38,0,.76,0,1.14,0,.15,0,.3,.02,.31,.23,0,.22-.12,.28-.32,.3-.3,.02-.61-.07-1.05,.16Z"/>
  <path class="cls-8" d="M64.11,28.31c.03,.21,.14,.21,.24,.21,.19,.01,.4-.01,.4,.28,0,.26-.19,.23-.36,.24-.13,0-.28,.01-.28,.18,0,.17,.17,.15,.29,.16,.21,0,.42,0,.63,0,.16,0,.29,.03,.3,.24,.01,.23-.13,.29-.32,.28-.38,0-.76-.01-1.14,0-.28,.01-.38-.11-.36-.38,.01-.19,0-.38,0-.57,0-1.35,.12-1.46,1.46-1.26,.15,.02,.31,.02,.32,.23,.01,.22-.11,.29-.31,.3-.29,.02-.59-.07-.88,.08Z"/>
  <path class="cls-11" d="M46.07,28.71c-.01,.34,.08,.79-.36,1.07-.69,.44-1.51,.02-1.56-.8-.01-.27,0-.55,0-.82,0-.21-.04-.45,.28-.46,.38-.01,.3,.27,.31,.49,0,.27,0,.55,0,.82,0,.22,.12,.37,.34,.38,.26,.01,.4-.13,.41-.38,.01-.32,0-.63,0-.95,0-.17,0-.34,.25-.36,.27-.01,.31,.15,.31,.36,0,.19,0,.38,0,.64Z"/>
  <path class="cls-8" d="M48.48,27.78c.64-.32,.74,.28,1.04,.6,.09-.15,.18-.27,.24-.4,.13-.29,.4-.38,.62-.24,.26,.17-.03,.36-.12,.52-.22,.45-.57,.84-.51,1.4,.02,.14-.08,.23-.24,.23-.13,0-.31,0-.29-.16,.1-.79-.54-1.29-.75-1.96Z"/>
  <path class="cls-3" d="M78.68,27.7c.17,0,.34,0,.51,0,.18,.01,.41-.06,.43,.23,.02,.28-.17,.3-.37,.3-.29,0-.26,.21-.26,.4,0,.32,0,.64,0,.95,0,.2-.07,.32-.29,.31-.22,0-.31-.11-.31-.31,0-.23,0-.47,0-.7,0-.32,.11-.72-.45-.69-.15,0-.19-.14-.19-.28,0-.17,.11-.22,.25-.22,.23,0,.47,0,.7,0h0Z"/>
  <path class="cls-9" d="M59.14,28.77c0-.25,0-.51,0-.76,0-.21,.09-.31,.31-.31,.22,0,.29,.12,.29,.32,0,.13,0,.25,0,.38-.04,.57-.1,1.14,.78,.98,.17-.03,.27,.07,.27,.26,0,.19-.11,.26-.28,.26-.36,0-.72,0-1.08,0-.22,0-.3-.11-.3-.31,0-.27,0-.55,0-.82Z"/>
  <path class="cls-11" d="M47.41,27.7c.13,0,.25-.01,.38,0,.19,.02,.46-.09,.48,.24,.02,.28-.19,.28-.39,.28-.29,0-.27,.2-.28,.4,0,.34,0,.68,0,1.01,0,.18-.1,.26-.28,.26-.18,0-.28-.08-.28-.26,0-.25,0-.51,0-.76,0-.32,.1-.71-.46-.67-.16,.01-.18-.15-.18-.28,0-.16,.11-.22,.25-.22,.25,0,.51,0,.76,0h0Z"/>
  <path class="cls-1" d="M57.21,28.86c0-.34,0-.6,0-.85,0-.2,.08-.31,.3-.3,.19,0,.25,.12,.25,.29,0,.19,.02,.38,0,.57-.06,.57,.03,.96,.75,.82,.17-.03,.34,.01,.34,.25,0,.24-.16,.26-.34,.26-.04,0-.08,0-.13,0-1.46-.02-1.14,.18-1.18-1.04Z"/>
  <path class="cls-12" d="M28.99,5.04c-4.11-.32-7.99,1.39-9.86,5.59-.88,1.98-1.16,4.06-.85,6.21,1.28,8.78,9.72,10.08,14.54,7.55,3.62-1.9,4.97-5.19,5.09-8,.08-5.81-2.81-10.87-8.92-11.34Zm4.15,14.77c-1.62,2.16-3.88,2.79-6.44,2.3-2.57-.49-4.07-2.19-4.8-4.63-.21-.71-.31-1.45-.29-2.2-.02-.94,.13-1.86,.45-2.74,1.06-2.97,3.58-4.54,6.8-4.25,2.88,.26,5.13,2.48,5.61,5.54,.34,2.16,0,4.2-1.32,5.97Z"/>
  <path class="cls-7" d="M38.95,27.79c-.07-.04-.16-.05-.24-.07-1.13-.23-1.32-.08-1.32,1.05,.04,1.29-.26,1.11,1.07,1.13,.38,0,.72-.07,.85-.5,.09-.29-.19-1.52-.36-1.61Zm-.93,.45c.08-.17,.25-.12,.39-.1,.13,.02,.24,.09,.2,.26-.11,.17-.29,.14-.45,.12-.17-.02-.2-.15-.14-.28Zm.29,1.19c-.15,0-.31-.01-.31-.22,0-.26,.19-.23,.36-.23,.17,0,.38,.02,.36,.25-.02,.21-.24,.2-.41,.21Z"/>
  <path class="cls-4" d="M83.73,28.93c.44-.82,.22-1.21-.72-1.23q-.9-.02-.9,.86c0,.32,0,.63,0,.95,0,.2,0,.39,.29,.38,.24,0,.26-.15,.27-.33,.01-.15-.1-.37,.16-.41,.21-.03,.27,.18,.35,.32,.18,.34,.4,.54,.83,.38,.02-.37-.5-.52-.28-.92Zm-.74-.26c-.18,0-.34-.02-.33-.26,.01-.24,.18-.25,.35-.24,.18,.01,.32,.07,.37,.24-.06,.23-.22,.25-.39,.25Z"/>
  <path class="cls-6" d="M43.8,29.48c-.16-.48-.33-.95-.48-1.43-.08-.26-.24-.38-.54-.33-.25-.05-.41,.04-.5,.32-.15,.5-.34,1-.5,1.49-.04,.13-.16,.3,.07,.36,.16,.05,.33,.05,.44-.13,.33-.52,.65-.52,.98,0,.13,.2,.34,.19,.5,.11,.18-.08,.06-.26,.02-.39Zm-.88-.55c-.06,.09-.21,.09-.27,0-.16-.22,.06-.38,.12-.57,.13,.18,.3,.35,.16,.57Z"/>
</svg>