<?xml version="1.0" encoding="UTF-8"?>
<svg id="Layer_1" data-name="Layer 1" xmlns="http://www.w3.org/2000/svg" viewBox="0 0 113.67 35">
  <defs>
    <style>
      .cls-1 {
        fill: #199642;
      }
    </style>
  </defs>
  <path class="cls-1" d="M75.95,21.23v.54c0,3.61,0,7.22,0,10.84,0,1.37-.94,2.38-2.2,2.39-1.25,0-2.22-1.02-2.22-2.37,0-8.85,0-17.7,0-26.55,0-1.26,.75-2.15,1.98-2.31,2.57-.34,5.12-.23,7.62,.49,7.64,2.22,7.8,10.82,3.77,14.79-.82,.8-1.71,1.5-2.71,2.05-.28,.15-.31,.26-.09,.51,3.94,4.41,8.62,7.55,14.54,8.57,2.57,.44,5.14,.44,7.69-.15,.23-.05,.45-.13,.67-.2,1.23-.43,2.44,.11,2.89,1.28,.45,1.15-.08,2.43-1.23,2.93-.75,.33-1.54,.51-2.35,.63-8.06,1.24-15.13-1.02-21.41-6.06-2.39-1.92-4.44-4.18-6.27-6.64-.19-.26-.38-.52-.57-.77-.03,.01-.07,.02-.1,.03Zm0-7.89c0,1.59,0,3.18,0,4.76,0,.32,.03,.45,.41,.35,.97-.24,1.92-.5,2.83-.9,1.17-.52,2.23-1.19,3-2.24,1.78-2.39,.87-5.51-1.9-6.55-1.23-.46-2.52-.59-3.82-.64-.39-.01-.53,.08-.52,.5,.03,1.57,.01,3.14,.01,4.71Z"/>
  <path class="cls-1" d="M62.92,13.73c-1.15-1.85-2.67-3.16-4.55-4.05-2.07-.99-4.27-1.41-6.54-1.57-1-.07-1.7-.58-2.02-1.53-.31-.92-.09-1.75,.62-2.42,.39-.38,.87-.6,1.42-.57,4.62,.27,8.91,1.44,12.38,4.71,2.69,2.53,4.14,5.73,4.8,9.32,.88,4.86,.35,9.63-.84,14.37-.12,.47-.24,.95-.39,1.41-.53,1.59-2.3,2.07-3.58,.99-.33-.28-.61-.61-.87-.96-1.13-1.54-2.22-3.11-3.43-4.6-.25-.31-.37-.33-.59,.03-.9,1.48-1.83,2.94-2.75,4.41-.24,.38-.49,.76-.83,1.07-.93,.86-2.2,.86-3.13,0-.68-.63-1.11-1.41-1.46-2.26-.76-1.88-1.08-3.85-1.27-5.85-.28-2.81-.36-5.62-.03-8.43,.06-.46,.14-.93,.25-1.38,.49-1.92,1.8-2.89,3.95-2.92,1.51-.02,2.98,.31,4.43,.67,.56,.14,1.09,.17,1.65,.05,.9-.19,1.81-.31,2.79-.47Zm-8.33,14.23c.31-.49,.54-.86,.77-1.22,.57-.9,1.14-1.8,1.86-2.59,1.25-1.37,2.67-1.47,4.11-.29,.67,.55,1.25,1.2,1.81,1.87,.47,.56,.93,1.13,1.43,1.73,.04-.13,.07-.2,.08-.27,.36-2.42,.5-4.85,.24-7.29-.08-.79-.54-1.27-1.32-1.45-.58-.13-1.16-.08-1.72,.06-1.72,.44-3.42,.48-5.12-.1-.08-.03-.18-.04-.26-.06-1.28-.23-2.27,.45-2.35,1.75-.16,2.58,.03,5.15,.46,7.87Z"/>
  <path class="cls-1" d="M26.87,19.54c-.1,4.47-1.55,8.68-5.07,11.99-5.39,5.09-13.28,4.47-18.07-1.39C1.28,27.13,.1,23.65,0,19.79c-.11-4.25,1.02-8.12,3.75-11.42,2.66-3.21,6.07-4.99,10.31-4.76,3.95,.21,7.02,2.14,9.38,5.23,2.34,3.07,3.36,6.59,3.41,10.7Zm-22.46-.9c-.01,3.86,1.12,6.9,3.17,9.11,3.12,3.36,7.79,3.58,11.16,.48,2.31-2.12,3.41-4.84,3.63-7.92,.25-3.63-.67-6.92-3.22-9.61-3.26-3.42-8.03-3.45-11.36-.11-2.37,2.39-3.31,5.35-3.38,8.05Z"/>
  <path class="cls-1" d="M28.96,19.8c-.02-7.91,5.33-14.35,12.77-15.89,1.26-.26,2.53-.37,3.82-.34,1.31,.03,2.26,.98,2.26,2.27,0,1.29-1,2.28-2.32,2.27-3.98-.03-7.31,1.41-9.8,4.55-4.27,5.4-2.43,13.16,3.82,16.38,1.88,.97,3.88,1.42,6,1.36,1.23-.03,2.23,.91,2.29,2.13,.06,1.3-.78,2.34-2.05,2.39-4.65,.16-8.7-1.35-12.05-4.58-3.12-2.99-4.67-6.71-4.75-10.54Z"/>
  <path class="cls-1" d="M97.59,27.65c-.69-.03-1.26-.17-1.83-.31-1.71-.4-3.33-1.06-4.89-1.87-.36-.19-.57-.44-.71-.82-2.61-6.89,.13-14.73,6.51-18.62,2.77-1.69,5.77-2.52,9.01-2.46,1.4,.02,2.37,.95,2.36,2.28,0,1.31-1.01,2.26-2.38,2.26-4.38,.01-7.86,1.74-10.34,5.39-.61,.9-1.02,1.91-1.33,2.95-.12,.41-.04,.53,.4,.53,3.79-.02,7.58-.01,11.38,0,1.09,0,1.93,.64,2.21,1.65,.28,.99-.14,2.05-1.02,2.58-.4,.24-.84,.3-1.3,.3-3.74,0-7.48,0-11.21,0-.62,0-.62,0-.45,.59,.59,2.04,1.41,3.33,3.59,5.57Z"/>
  <path class="cls-1" d="M25.7,4.62c0-.79,0-1.59,0-2.38,.01-1.22,.9-2.2,2.04-2.24,1.3-.05,2.32,.8,2.36,2.07,.06,1.73,.05,3.46,0,5.19-.03,1.25-1.08,2.17-2.28,2.13-1.21-.04-2.12-1.01-2.13-2.28,0-.83,0-1.66,0-2.49Z"/>
  <path class="cls-1" d="M113.67,30.08c0,1.29-.95,2.29-2.21,2.31-1.25,.02-2.26-.98-2.28-2.26-.02-1.26,.97-2.28,2.23-2.3,1.26-.02,2.25,.97,2.26,2.25Zm-4.02,.04c0,1.04,.78,1.85,1.78,1.86,1.01,0,1.81-.84,1.79-1.9-.02-1.04-.8-1.86-1.78-1.86-1.01,0-1.8,.84-1.79,1.9Z"/>
  <path class="cls-1" d="M112.51,31.36c-.28,.1-.45,.06-.56-.16-.07-.13-.13-.26-.22-.37-.16-.21-.2-.64-.58-.51-.34,.11-.1,.47-.16,.71-.04,.14,.09,.36-.17,.38-.29,.02-.23-.22-.23-.38,0-.63,0-1.26,0-1.89,0-.25,.08-.36,.34-.34,.32,.02,.65,0,.97,.03,.27,.02,.48,.18,.55,.45,.07,.29,.09,.66-.19,.78-.55,.25-.23,.5-.08,.77,.1,.17,.21,.33,.33,.54Zm-1.24-2.23c-.15-.04-.3,.03-.3,.37,0,.32,.07,.47,.42,.43,.28-.03,.64,0,.64-.39,0-.41-.35-.38-.77-.41Z"/>
</svg>