<?xml version="1.0" encoding="UTF-8"?>
<svg id="Layer_1" data-name="Layer 1" xmlns="http://www.w3.org/2000/svg" viewBox="0 0 195.03 35">
  <defs>
    <style>
      .cls-1 {
        fill: #063c4c;
      }

      .cls-2 {
        fill: #c7883d;
      }

      .cls-3 {
        fill: #073d4c;
      }

      .cls-4 {
        fill: #033a49;
      }

      .cls-5 {
        fill: #c7883c;
      }

      .cls-6 {
        fill: #053b4b;
      }

      .cls-7 {
        fill: #c98c43;
      }

      .cls-8 {
        fill: #043a4a;
      }

      .cls-9 {
        fill: #fdfcfa;
      }

      .cls-10 {
        fill: #c6873b;
      }

      .cls-11 {
        fill: #fcfaf8;
      }

      .cls-12 {
        fill: #f7efe6;
      }

      .cls-13 {
        fill: #013949;
      }

      .cls-14 {
        fill: #fefefe;
      }
    </style>
  </defs>
  <g>
    <path class="cls-1" d="M128.44,22.49h-2.79c.49-.91,.38-1.87,.38-2.81,0-3.93,0-7.86,0-11.79,0-.69,0-1.38-.43-2.1,1.13,0,2.16,0,3.2,0,.23,0,.27,.1,.22,.31-.14,.63,.12,1.15,.48,1.65,1.17,1.62,2.32,3.25,3.56,4.87-.08-2.25,.36-4.51-.25-6.78h2.87c-.47,1.01-.39,2.08-.39,3.13,0,3.69,0,7.38,0,11.07,0,.81,0,1.62,.43,2.42h-2.96c.63-1.54,.24-3.16,.37-4.73,.07-.88-.19-1.58-.72-2.29-1.38-1.84-2.7-3.73-4.12-5.59,.07,4.21-.27,8.41,.14,12.63Z"/>
    <path class="cls-1" d="M192.06,22.51c.6-1.2,.29-2.39,.42-3.54,.2-1.76-.29-3.21-1.45-4.56-1.11-1.3-2.02-2.76-3.02-4.15-.1-.14-.22-.28-.44-.55,0,.63,0,1.09,0,1.55,0,2.95,0,5.9,0,8.85,0,.79,0,1.57,.42,2.35h-2.99c.46-.84,.41-1.75,.41-2.65,0-3.9,0-7.81,0-11.71,0-.76-.01-1.52-.45-2.31,1.1,0,2.14,0,3.17,0,.3,0,.28,.16,.24,.37-.09,.52,.05,.99,.36,1.41,1.16,1.63,2.32,3.25,3.49,4.87,.03,.05,.09,.08,.28,.22-.17-2.36,.27-4.6-.33-6.84h2.86c-.5,1.15-.36,2.34-.37,3.51,0,3.59,0,7.19,0,10.78,0,.69-.03,1.39,.27,2.03,.15,.31,0,.36-.27,.36-.83,0-1.66,0-2.6,0Z"/>
    <path class="cls-6" d="M148.29,22.49h-2.99c.5-.84,.42-1.73,.42-2.61,0-2.59,0-5.19,0-7.78,0-.91-.61-1.43-1.52-1.24-.28,.06-.56,.14-.82,.25-.7,.3-1.42,.38-2.16,.17-.29-.08-.49-.1-.49,.32,.02,3.12,.02,6.23,.04,9.35,0,.52,.15,1.02,.4,1.54h-3.02c.51-.87,.42-1.78,.42-2.68,0-4,0-8,0-11.99,0-.67-.03-1.33-.42-1.99h3c-.43,.88-.38,1.8-.42,2.72-.02,.46,.2,.64,.59,.73,.56,.14,1.08,.01,1.61-.15,.81-.25,1.62-.59,2.49-.21,.22,.1,.3-.01,.29-.23-.03-.95,.13-1.91-.41-2.86h2.97c-.5,1.09-.39,2.25-.39,3.4,0,3.24,0,6.47,0,9.71,0,1.18-.13,2.38,.39,3.53Z"/>
    <path class="cls-8" d="M101.38,22.51c.43-.84,.43-1.66,.43-2.5,0-4.02,0-8.04,0-12.07,0-.77-.04-1.52-.4-2.23,.36-.12,.69,0,1,.09,4.69,1.42,7.88,4.37,9.18,9.17,.43,1.59,.32,3.23-.33,4.76-.76,1.8-2.14,2.75-4.11,2.77-1.9,.02-3.79,0-5.76,0Zm2.6-7.84c0,1.69,.01,3.38-.01,5.06,0,.43,.09,.6,.54,.56,.59-.04,1.19,0,1.78,0,2.09,0,3.14-1,3.25-3.1,.16-3.03-2.26-6.83-5.06-8-.43-.18-.52-.1-.51,.35,.02,1.71,0,3.42,0,5.13Z"/>
    <path class="cls-4" d="M79.67,5.82h3.01c-.49,.9-.39,1.83-.43,2.76-.02,.48,.22,.63,.59,.72,.58,.15,1.13,0,1.68-.18,.79-.26,1.58-.54,2.43-.18,.32,.14,.28-.12,.28-.31,0-.94,.09-1.9-.41-2.81h3c-.5,.96-.41,1.96-.41,2.94,0,3.79,0,7.57,0,11.36,0,.79,0,1.57,.4,2.35h-2.97c.42-.8,.4-1.66,.39-2.51,0-2.62,0-5.24,0-7.86,0-.9-.63-1.41-1.53-1.24-.07,.01-.14,.04-.2,.06-1.03,.38-2.07,.7-3.26,.22,.17,3.85-.21,7.6,.24,11.35h-2.79c.47-.89,.42-1.82,.42-2.75,0-3.88,0-7.76,0-11.64,0-.76-.02-1.52-.43-2.28Z"/>
    <path class="cls-3" d="M173.43,5.79c2.92,0,5.68,0,8.44,0,.3,0,.42,.07,.41,.4-.02,.76,0,1.52,0,2.31-1.91-.92-3.91-.36-5.84-.52-.39-.03-.32,.23-.34,.46-.03,.32,.12,.4,.41,.39,1.52-.01,3.05,.02,4.57-.02,.49-.01,.59,.15,.59,.6,0,1.61,.02,1.61-1.58,1.61-1.14,0-2.29,.02-3.43,0-.41,0-.58,.07-.58,.54,.02,2.74,.02,5.48,0,8.21,0,.44,.11,.57,.56,.56,1.52-.03,3.05-.01,4.57,0,.68,0,1.31-.18,1.99-.62,0,.9,0,1.69,0,2.49,0,.31-.18,.32-.42,.32-3.07,0-6.14,0-9.29,0,.5-.99,.39-1.99,.39-2.98,0-3.83,0-7.67,0-11.5,0-.73,.03-1.48-.46-2.24Z"/>
    <path class="cls-8" d="M46.71,22.48h-2.95c.62-1.57,.26-3.18,.36-4.76,.02-.27-.14-.31-.36-.31-1.36,0-2.71,0-4.07,0-.31,0-.42,.11-.41,.42,.01,1.54-.14,3.09,.39,4.64h-2.99c1.03-2.15,.25-4.48,.69-6.7,.7-3.5,2.11-6.55,5.07-8.72,1.12-.82,2.36-1.33,3.77-1.31,.36,0,.53,.06,.32,.48-.25,.52-.25,1.11-.25,1.68,0,4.17,0,8.33,0,12.5,0,.69,.08,1.37,.42,2.08Zm-2.32-14.52c-.15,0-.2,0-.24,.02-2.77,1.67-3.99,4.35-4.78,7.31-.09,.33,.13,.34,.36,.34,1.4,0,2.81,0,4.21,0,.33,0,.46-.09,.46-.44-.01-2.4,0-4.8,0-7.23Z"/>
    <path class="cls-3" d="M116.14,22.49h-3.05c.89-1.44,.54-3.02,.58-4.54,.08-3.27,1.03-6.24,3.06-8.8,1.39-1.75,3.07-3.13,5.42-3.38,.09-.01,.19-.02,.28-.02,.47-.02,.9-.05,.53,.65-.2,.38-.17,.83-.17,1.26,0,4.33,0,8.66,0,13,0,.63,.15,1.21,.36,1.83h-2.9c.6-1.55,.25-3.13,.35-4.68,.02-.34-.16-.38-.44-.38-1.31,0-2.62,.02-3.93,0-.49-.01-.47,.29-.47,.6,0,1.49-.11,2.99,.38,4.48Zm4.72-14.5c-.12,0-.17-.03-.21-.01-.11,.05-.22,.1-.31,.16-2.54,1.71-3.72,4.28-4.49,7.11-.1,.37,.14,.38,.4,.38,1.38,0,2.75-.01,4.13,0,.37,0,.5-.11,.49-.48-.02-1.04,0-2.09,0-3.13,0-1.34,0-2.69,0-4.03Z"/>
    <path class="cls-6" d="M156.49,5.79c1.08,0,2.03,0,2.98,0,.34,0,.47,.04,.33,.43-.22,.61-.26,1.26-.14,1.9,.63,3.31,1.28,6.62,1.92,9.97,.2-.11,.19-.28,.22-.41,.59-2.99,1.16-5.97,1.76-8.96,.19-.97,.24-1.92-.13-2.9h3.2c-1.25,3.39-1.54,7.01-2.35,10.5-.36,1.55-.62,3.12-.92,4.69-.05,.25-.11,.55-.03,.78,.26,.75-.15,.75-.7,.73-.86-.03-1.71-.01-2.57,0-.27,0-.48,.02-.35-.37,.25-.75,.11-1.51-.04-2.26-.77-3.99-1.54-7.98-2.32-11.97-.14-.73-.4-1.41-.86-2.12Z"/>
    <path class="cls-4" d="M78.5,5.41c.18,1.12-1.05,2.34-2.33,2.41-.52,.03-1.05,.03-1.57,.01-.36-.02-.5,.07-.5,.47,.02,4.21,.02,8.42,.02,12.63,0,.53,.18,1.02,.38,1.55h-2.95c.53-1.05,.39-2.17,.39-3.28,0-3.57,0-7.14,.02-10.71,0-.53-.12-.7-.66-.67-1.11,.04-2.24-.09-3.33,.66,0-.87,.02-1.59,0-2.32-.02-.49,.32-.37,.57-.37,2.26,0,4.52,0,6.78,0,1.07,0,2.14,.02,3.2-.38Z"/>
    <path class="cls-4" d="M36.23,5.4c-.06,1.35-1.06,2.33-2.37,2.42-.52,.04-1.05,.04-1.57,.01-.38-.02-.48,.12-.48,.49,.01,4.21,0,8.42,.01,12.63,0,.53,.2,1.02,.37,1.54h-2.95c.49-.96,.41-1.96,.41-2.95,0-3.66,0-7.33,.01-10.99,0-.53-.08-.75-.69-.73-1.11,.05-2.24-.08-3.33,.66,0-.87,.02-1.6,0-2.33-.01-.5,.34-.36,.59-.36,2.14,0,4.28,0,6.42,0,1.18,0,2.38,.08,3.57-.39Z"/>
    <path class="cls-4" d="M48.83,5.79c1.34,0,2.5,0,3.66,0,.28,0,.36,.09,.37,.37,.02,.77,.65,1.18,1.07,1.71,.13,.16,.24,.1,.34-.03,.37-.49,.9-.91,1.04-1.51,.12-.52,.37-.54,.79-.54,1.06,.02,2.12,0,3.37,0-1.6,1.12-2.74,2.46-3.88,3.78-.23,.26-.35,.52-.35,.89,.01,3.45,.01,6.9,0,10.35,0,.58,.17,1.11,.38,1.68h-2.98c.49-.89,.41-1.82,.41-2.75,0-3-.01-6,.01-8.99,0-.47-.13-.81-.45-1.14-1.19-1.26-2.27-2.62-3.79-3.82Z"/>
    <path class="cls-6" d="M171.01,22.49h-2.97c.47-.89,.4-1.82,.4-2.74,0-3.83,0-7.66,0-11.49,0-.82,.04-1.65-.43-2.45h2.98c-.52,1.22-.37,2.48-.37,3.72-.01,3.23,0,6.47,0,9.7,0,1.09-.12,2.19,.39,3.25Z"/>
    <path class="cls-4" d="M92.26,5.82h2.98c-.4,.89-.4,1.78-.4,2.69,0,3.81,0,7.61,0,11.42,0,.86,0,1.71,.42,2.55h-2.99c.43-.79,.41-1.63,.41-2.46,0-4,0-7.99,0-11.99,0-.74-.03-1.47-.43-2.21Z"/>
    <path class="cls-3" d="M181.44,4.65c-.67,0-1.27,.01-1.88,0-.55-.02-.68-.54-.95-.87-.59-.68-.67-.76-1.12,.02-.72,1.23-1.83,.75-2.98,.88,.99-1.08,1.71-2.2,2.54-3.24,.23-.29,1.85-.18,2.07,.1,.77,1.01,1.52,2.03,2.33,3.12Z"/>
    <path class="cls-3" d="M47.95,4.56c-1.57,.37-2.76,.01-3.44-1.73-.74,1.72-1.88,2.13-3.44,1.73,.9-.95,1.58-2.05,2.39-3.05,.3-.38,1.85-.29,2.15,.09,.77,.98,1.41,2.07,2.34,2.96Z"/>
    <path class="cls-7" d="M108.43,30.92c.42-.82,.8-1.49,1.1-2.18,.19-.43,.5-.46,.86-.41,.47,.07,.26,.44,.26,.68,.02,.97,0,1.95,.01,2.92,0,.27,.04,.53-.37,.53-.4,0-.39-.25-.38-.52,0-.64,0-1.28-.15-1.98-.27,.52-.55,1.05-.83,1.57-.12,.22-.17,.51-.52,.5-.35,0-.39-.3-.51-.52-.28-.51-.54-1.03-.96-1.5,0,.6,0,1.21,0,1.81,0,.29,.11,.65-.41,.63-.48-.01-.37-.34-.37-.6,0-.97-.01-1.95,0-2.92,0-.22-.16-.58,.27-.6,.32-.02,.65-.09,.84,.33,.33,.73,.72,1.43,1.15,2.26Z"/>
    <path class="cls-2" d="M76.59,28.31c.35,.03,.71,.03,1.06,.08,.94,.14,1.6,.9,1.67,1.86,.06,.98-.54,1.85-1.47,2.1-.67,.18-1.37,.09-2.05,.11-.31,0-.3-.21-.33-.43-.08-.52,.28-1.15-.36-1.54-.03-.02,0-.22,.04-.25,.54-.26,.33-.75,.3-1.13-.04-.62,.14-.9,.78-.78,.11,.02,.24,0,.36,0,0,0,0-.01,0-.02Zm.25,3.39c.81,.06,1.32-.16,1.57-.81,.38-.99-.3-1.83-1.48-1.82-.31,0-.67-.11-.68,.45,0,.48,.11,.71,.63,.65,.18-.02,.49-.08,.47,.25-.02,.27-.29,.22-.46,.2-.49-.05-.65,.13-.65,.63,0,.62,.42,.43,.58,.45Z"/>
    <path class="cls-2" d="M160.74,31.08c0-.9,0-1.58,0-2.26,0-.3,.04-.49,.42-.5,.4,0,.4,.22,.4,.5,0,1.02,0,2.04,0,3.07,0,.19,.13,.47-.18,.54-.28,.07-.56,.05-.76-.23-.52-.71-1.05-1.41-1.58-2.11-.06-.07-.12-.14-.31-.36,0,.85,0,1.54,0,2.23,0,.29,0,.51-.4,.5-.4,0-.4-.23-.39-.51,0-1,0-2,0-2.99,0-.21-.14-.52,.2-.6,.31-.08,.59-.02,.8,.29,.54,.77,1.12,1.51,1.81,2.44Z"/>
    <path class="cls-10" d="M122.53,30.87c0-.66,0-1.32,0-1.98,0-.29-.06-.57,.4-.56,.48,0,.38,.33,.38,.59,0,.95,.01,1.9,0,2.85,0,.23,.17,.56-.21,.67-.36,.1-.62-.04-.84-.37-.41-.61-.87-1.19-1.32-1.78-.09-.12-.15-.3-.47-.31,0,.66,0,1.31,0,1.96,0,.27,.02,.52-.38,.52-.4,0-.4-.22-.4-.5,0-1.02,0-2.05,0-3.07,0-.19-.13-.47,.18-.54,.28-.06,.56-.04,.76,.24,.51,.71,1.05,1.41,1.57,2.12,.06,.08,.11,.15,.16,.23,.05-.03,.1-.05,.16-.08Z"/>
    <path class="cls-10" d="M68.75,30.01c0,.66,0,1.32,0,1.98,0,.32-.07,.49-.43,.48-.35,0-.36-.2-.36-.47,0-1.02,0-2.04,0-3.07,0-.2-.15-.51,.21-.58,.29-.05,.54,0,.75,.28,.53,.75,1.1,1.48,1.73,2.32,.2-.77,.08-1.42,.11-2.06,.01-.3-.03-.57,.42-.55,.42,.01,.36,.27,.36,.53,0,1,0,2,0,3,0,.21,.15,.51-.21,.59-.29,.06-.54,0-.74-.28-.53-.75-1.1-1.48-1.65-2.21l-.19,.06Z"/>
    <path class="cls-2" d="M141.66,30.38c0-.55,.01-1.09,0-1.64,0-.3,.1-.42,.41-.42,.74,.01,1.47,0,2.21,0,.25,0,.4,.04,.41,.35,0,.33-.16,.4-.44,.39-.43-.01-.86,0-1.28,0-.32-.01-.47,.09-.47,.44,0,.35,.09,.54,.48,.52,.35-.02,.71,0,1.07,0,.24,0,.4,.05,.41,.35,0,.29-.13,.37-.39,.36-.33,0-.67,.01-1,0-.37-.02-.56,.07-.57,.5,0,.46,.23,.5,.58,.48,.43-.01,.86,0,1.28,0,.25,0,.4,.06,.42,.35,.01,.32-.14,.41-.43,.4-.74-.01-1.47-.02-2.21,0-.4,.01-.48-.17-.47-.51,.02-.52,0-1.04,0-1.57Z"/>
    <path class="cls-7" d="M80.72,30.24c.08-.54-.3-1.39,.15-1.8,.4-.37,1.23-.08,1.87-.11,.24,0,.48,0,.71,0,.27,0,.29,.18,.29,.39,0,.22-.06,.36-.32,.36-.48,0-.95,.01-1.43,0-.33-.01-.46,.09-.46,.44,0,.35,.08,.54,.47,.51,.31-.02,.62-.01,.93,0,.27,0,.6-.1,.59,.38,0,.44-.32,.32-.56,.34-.29,.01-.57,.01-.86,0-.35-.02-.58,.02-.59,.48,0,.44,.19,.52,.56,.5,.45-.02,.9,0,1.36,0,.28,0,.37,.12,.38,.39,0,.28-.12,.37-.39,.37-.76,0-1.52-.01-2.29,0-.36,0-.44-.16-.43-.48,.02-.55,0-1.1,0-1.75Z"/>
    <path class="cls-2" d="M61.1,30.46c0,.52-.01,1.05,0,1.57,0,.3-.08,.44-.4,.43-.29,0-.43-.08-.43-.41,0-.4,.19-.91-.1-1.16-.33-.28-.87-.05-1.31-.1-.44-.05-.6,.15-.56,.57,.02,.26,0,.52,0,.78,0,.32-.23,.3-.45,.31-.21,0-.37-.04-.37-.31,0-1.17,0-2.33,0-3.5,0-.26,.13-.33,.36-.32,.21,0,.46-.05,.46,.29,0,.07,0,.14,0,.21,.06,1.3,.3,1.48,1.64,1.27,.3-.05,.33-.2,.33-.43,0-.33,0-.67,0-1,0-.31,.18-.34,.42-.34,.25,0,.41,.04,.41,.35-.01,.59,0,1.19,0,1.78Z"/>
    <path class="cls-7" d="M166.76,31.29c.2,.67-.28,.92-.89,1.1-1.06,.31-2.1-.05-2.62-.92-.48-.82-.37-1.83,.27-2.51,.71-.74,1.91-.9,2.83-.36,.19,.11,.48,.18,.26,.52-.18,.27-.33,.3-.64,.15-1.13-.54-2.18,.02-2.17,1.12,0,.95,.96,1.6,1.86,1.28,.28-.1,.33-.28,.36-.54,.03-.27-.23-.73,.36-.74,.36,0,.37,.02,.37,.9Z"/>
    <path class="cls-7" d="M149.85,28.26c.36,0,.71,.08,1.04,.22,.25,.1,.49,.19,.32,.56-.15,.33-.32,.36-.6,.19-.04-.03-.08-.05-.13-.06-.43-.09-1.02-.39-1.19,.16-.17,.55,.51,.55,.87,.7,.37,.15,.78,.24,1.03,.6,.41,.59,.15,1.42-.57,1.71-.8,.32-1.54,.13-2.25-.28-.26-.15-.27-.32-.14-.59,.17-.36,.34-.2,.55-.07,.35,.22,.73,.35,1.15,.32,.25-.02,.49-.09,.52-.38,.03-.25-.15-.39-.36-.48-.22-.09-.45-.15-.68-.22-.86-.28-1.21-.71-1.1-1.34,.11-.62,.7-1.02,1.52-1.03Z"/>
    <path class="cls-2" d="M66.3,32.45c-.29,.04-.51-.04-.58-.32-.12-.51-.47-.58-.92-.55-.62,.05-1.35-.23-1.61,.71-.07,.26-.48,.22-.7,.1-.24-.13,0-.34,.07-.49,.44-1.05,.92-2.09,1.37-3.13,.12-.29,.26-.46,.62-.46,.36,0,.48,.18,.61,.47,.45,1.07,.92,2.14,1.39,3.2,.13,.29,.21,.52-.24,.45Zm-1.79-3.23c-.21,.49-.31,.82-.48,1.11-.31,.55-.06,.61,.43,.59,.77-.03,.77-.01,.47-.75-.11-.26-.22-.51-.42-.96Z"/>
    <path class="cls-2" d="M100.59,32.38c.56-1.28,1.1-2.54,1.67-3.78,.18-.4,.85-.4,1.03-.01,.53,1.16,1.03,2.34,1.54,3.52,.05,.12,.16,.3-.07,.33-.24,.03-.61,.14-.71-.15-.38-1.18-1.34-.53-2.03-.68-.22-.05-.34,.15-.39,.34-.14,.55-.5,.6-1.04,.45Zm2.17-3c-.25,.23-.31,.54-.43,.82-.31,.72-.3,.7,.47,.73,.51,.02,.74-.08,.43-.61-.17-.3-.2-.68-.47-.94Z"/>
    <path class="cls-2" d="M154.5,28.34c.35-.06,.5,.13,.63,.43,.44,1.05,.91,2.09,1.34,3.14,.06,.15,.38,.39,.03,.51-.24,.08-.57,.14-.76-.19-.13-.24-.11-.61-.48-.63-.54-.02-1.09-.02-1.63,.03-.24,.02-.27,.31-.34,.5-.15,.41-.49,.39-.76,.27-.3-.13-.03-.37,.04-.54,.43-1.03,.89-2.05,1.33-3.07,.12-.27,.22-.55,.6-.46Zm-.04,.98c-.14,.33-.29,.6-.38,.89-.07,.22-.42,.51-.11,.65,.29,.13,.69,.05,1.04,.01,.14-.01,.1-.18,.05-.29-.19-.4-.27-.85-.61-1.26Z"/>
    <path class="cls-2" d="M118.01,32.45c-.34,.07-.5-.12-.58-.4-.11-.4-.38-.5-.76-.46-.66,.06-1.45-.28-1.75,.73-.07,.24-.44,.18-.65,.11-.31-.11-.05-.33,0-.46,.45-1.07,.94-2.13,1.39-3.2,.13-.3,.28-.45,.62-.45,.32,0,.46,.14,.57,.41,.46,1.1,.93,2.19,1.41,3.27,.15,.33,.13,.5-.27,.44Zm-1.75-3.25c-.2,.48-.29,.78-.45,1.04-.37,.63-.1,.68,.49,.71,.8,.04,.57-.32,.38-.73-.12-.27-.23-.55-.43-1.01Z"/>
    <path class="cls-2" d="M139.99,29.94c0,.24,0,.48,0,.71-.01,1.19-.65,1.85-1.77,1.85-1.13,0-1.77-.66-1.79-1.85-.01-.64,.01-1.28,0-1.92,0-.32,.13-.41,.42-.41,.3,0,.42,.1,.41,.42-.02,.66,0,1.33,0,2,0,.63,.33,.99,.95,1.01,.63,.02,.97-.34,.99-.97,.02-.66,.01-1.33,0-2,0-.27,.03-.45,.38-.46,.37,0,.44,.16,.42,.48-.02,.38,0,.76,0,1.14Z"/>
    <path class="cls-2" d="M85.33,30.34c0-.17-.02-.34,0-.5,.09-.49-.26-1.09,.19-1.47,.35-.3,2.32,.03,2.68,.35,.75,.66,.53,1.98-.39,2.38-.34,.15-.7,.17-1.05,.14-.49-.05-.7,.12-.65,.63,.03,.26,.12,.59-.36,.6-.51,.01-.42-.33-.42-.63,0-.5,0-1,0-1.5Zm.8-.56c-.07,.48-.05,.85,.62,.77,.53-.06,1.1-.03,1.1-.77,0-.7-.55-.67-1.06-.72-.59-.06-.77,.19-.65,.72Z"/>
    <path class="cls-7" d="M54.47,28.33c.45,0,.9,0,1.35,0,.25,0,.4,.05,.4,.35,0,.31-.13,.46-.42,.4-.84-.16-.91,.31-.86,.97,.05,.59,.02,1.18,0,1.78,0,.28,.14,.64-.39,.65-.57,.01-.43-.38-.43-.68-.01-.69-.03-1.38,0-2.06,.02-.47-.09-.7-.62-.66-.25,.02-.66,.19-.68-.35-.02-.59,.43-.36,.71-.39,.31-.03,.62,0,.92,0Z"/>
    <path class="cls-7" d="M133.14,30.73c0-.21-.02-.43,0-.64,.08-.68-.01-1.18-.89-1.01-.25,.05-.39-.07-.4-.36-.01-.33,.15-.4,.43-.4,.83,0,1.66,0,2.5,0,.27,0,.45,.05,.45,.39,0,.35-.2,.41-.46,.37-.75-.14-.87,.24-.82,.88,.05,.69,0,1.38,.02,2.07,0,.28-.06,.44-.39,.45-.34,0-.47-.11-.45-.46,.02-.43,0-.86,0-1.28Z"/>
    <path class="cls-7" d="M98.12,30.73c0-.17-.01-.33,0-.5,.05-.7,.09-1.36-.96-1.16-.24,.05-.32-.12-.33-.35,0-.26,.06-.4,.35-.4,.88,0,1.76,0,2.64,0,.27,0,.38,.11,.39,.38,0,.27-.11,.42-.38,.37-.89-.17-.94,.34-.9,1.01,.04,.64,0,1.28,.02,1.92,.01,.35-.12,.46-.46,.45-.34,0-.39-.18-.38-.45,.01-.43,0-.86,0-1.28Z"/>
    <path class="cls-3" d="M179.46,25.09c0,.63-.48,1.13-1.11,1.14-.62,.01-1.16-.49-1.18-1.09-.02-.63,.53-1.19,1.17-1.18,.62,0,1.12,.51,1.13,1.13Z"/>
    <path class="cls-7" d="M144.26,28.09c-.77-.14-1.34-.37-1.94-.01,.13-.48,.28-.86,.76-.94,.61-.1,.77,.4,1.18,.95Z"/>
    <path class="cls-7" d="M101.88,28.07c.6-1.28,1.07-1.29,1.86-.05-.67-.03-1.27-.29-1.86,.05Z"/>
    <path class="cls-7" d="M63.56,28.08c.71-1.29,1.15-1.29,1.99,0-.71-.23-1.31-.17-1.99,0Z"/>
    <path class="cls-7" d="M92.76,30.93c-.17,0-.33,0-.5,0-.18-.01-.25-.14-.22-.3,.07-.41,.42-.25,.63-.23,.29,.02,.68-.21,.85,.22,.05,.13-.02,.29-.2,.3-.19,.01-.38,0-.57,0,0,0,0,0,0,0Z"/>
    <path class="cls-7" d="M127.74,30.94c-.2-.04-.43,.08-.61-.08-.11-.1-.1-.26-.02-.38,.08-.13,1.25-.14,1.36-.02,.11,.12,.11,.29,.01,.38-.21,.19-.49,.06-.74,.1Z"/>
    <path class="cls-7" d="M154.14,27.95c.33-.47,.51-1.13,1.26-.49-.34,.31-.59,.74-1.26,.49Z"/>
    <path class="cls-7" d="M143.65,33.26c-.02,.27-.15,.46-.42,.48-.31,.02-.48-.18-.48-.48,0-.26,.17-.44,.45-.44,.27,0,.41,.18,.45,.44Z"/>
    <path class="cls-7" d="M82.26,32.81c.32,.05,.47,.21,.45,.49-.02,.27-.17,.45-.46,.43-.27-.02-.43-.2-.42-.48,.01-.28,.19-.41,.42-.45Z"/>
  </g>
  <g>
    <path class="cls-2" d="M.93,15.51c.09-.1,.07-.22,.07-.33-.03-.9,.03-1.8,.27-2.67,.5-1.76,1.82-2.64,3.71-2.42-.19,.04-.32,.07-.45,.1-.53,.16-.9,.51-1.2,.95-.58,.87-.83,1.85-.93,2.87-.28,3.05,.54,5.84,1.99,8.48,.58,1.06,1.25,2.08,1.86,3.13,.86,1.5,1.61,3.05,2.24,4.66,.02,.05,.04,.1,.06,.16,0,.03,.02,.06,.03,.09l.16,.51c0-.18-.03-.36-.11-.51-.01-.04-.02-.09-.03-.13l-.05-.16c-.43-1.63-1-3.21-1.69-4.75-.67-1.51-1.34-3.03-1.71-4.65-.48-2.12-.65-4.26-.54-6.43,0-.13,.06-.22,.15-.3,.33-.3,.72-.38,1.15-.37,.21,0,.11,.15,.09,.23-.18,.98-.27,1.96-.29,2.95-.04,1.88,.22,3.71,.72,5.52,.4,1.44,1.03,2.8,1.51,4.22,.53,1.56,1.05,3.12,1.34,4.75,.05,.26,.08,.51,.12,.77,.12-1.01,.36-1.99,.64-2.97,.52-1.8,1.19-3.55,1.84-5.3,1.2-3.22,1.53-6.54,.91-9.93-.04-.2,.01-.25,.21-.24,.2,0,.4,.02,.58,.09,.38,.14,.61,.35,.63,.82,.12,3.48-.4,6.83-1.89,10.01-.87,1.86-1.59,3.78-2.12,5.77-.06,.21-.12,.42-.18,.63,.01,0,.03,0,.04,.01,.07-.21,.14-.43,.21-.64,.92-2.47,2.2-4.77,3.6-7,1.31-2.08,2.2-4.33,2.5-6.78,.18-1.5,.15-2.98-.36-4.43-.07-.21-.16-.42-.27-.62-.46-.91-.9-1.26-1.87-1.51,1.58-.29,2.97,.52,3.54,2.08,.32,.88,.4,1.8,.39,2.74,0,.2-.06,.41,.04,.61,0,0,0,0,0,0-.11,.06-.08,.17-.09,.27-.21,2.34-.99,4.49-2.17,6.5-.85,1.44-1.86,2.78-2.79,4.17-1.28,1.92-2.35,3.94-2.91,6.19-.08,.34-.21,.67-.2,1.02h0c-.09,.02-.04,.11-.09,.16-.09,.32-.12,.64-.15,.96,.01,.06,0,.12-.05,.17-.01,0-.02,0-.03,0-.14-.49-.39-.95-.5-1.46,.07-.05,.01-.14,.06-.2,.08,.23,.16,.46,.25,.71,.03-.11,0-.18-.02-.26-.45-2.32-1.36-4.46-2.63-6.45-.94-1.47-1.97-2.88-2.92-4.34-1.43-2.23-2.37-4.63-2.59-7.29,0-.06,0-.13-.09-.14l-.02-.02Z"/>
    <path class="cls-10" d="M9.39,0c.6,1.14,1.3,2.2,1.85,3.34,1.31,2.69,2.14,5.53,2.66,8.47,.09,.5,.08,.5-.41,.5-.28,0-.56-.01-.84,0-.19,.01-.26-.07-.31-.24-.47-1.62-1.15-3.14-2.1-4.54-.21-.31-.46-.6-.68-.91-.12-.16-.19-.18-.33,0-.88,1.07-1.54,2.25-2.09,3.52-.27,.64-.51,1.29-.7,1.96-.05,.17-.12,.23-.3,.22-.37-.01-.74-.01-1.11,0-.17,0-.24-.03-.21-.23,.68-3.99,1.93-7.76,4.09-11.21,.17-.27,.34-.55,.46-.88Z"/>
    <path class="cls-8" d="M14.79,15.09c-.03-.17-.05-.35-.11-.51-.24-.64-.84-1.09-1.52-1.1-.78-.01-1.57,0-2.35,0-.23,0-.33,.09-.33,.32,0,2.39-.01,4.77,0,7.16,0,1.01,.49,1.46,1.62,1.57-.84,.91-1.67,1.79-2.49,2.68-.07-.1-.04-.19-.04-.27,0-4.01,0-8.03,0-12.04,0-.24,.05-.29,.29-.29,1.83,.01,3.65,.01,5.48,0,.25,0,.3,.08,.31,.3,.04,.79-.19,1.49-.7,2.1-.03,.03-.06,.07-.09,.1-.01,0-.03,0-.06,0Z"/>
    <path class="cls-13" d="M4,15.15c-.66-.71-.92-1.5-.84-2.41,.02-.19,.15-.14,.26-.14,1.05,0,2.11,0,3.16,0,.81,0,1.62,0,2.43,0,.16,0,.21,.04,.21,.21,0,4.1,0,8.19,0,12.29,0,.03,0,.05-.02,.12-.84-.9-1.66-1.79-2.52-2.7,.13,0,.2,0,.28-.02,.77-.07,1.23-.52,1.33-1.28,.02-.16,.03-.32,.03-.48,0-2.27,0-4.54,0-6.81,0-.4-.05-.44-.45-.44-.68,0-1.37,0-2.05,0-1.03,0-1.69,.59-1.82,1.68Z"/>
    <path class="cls-2" d="M8.72,33.3c-.48-1.11-1.24-2.04-2.06-2.91-1.21-1.27-2.55-2.37-3.91-3.47-.77-.62-1.5-1.29-2.08-2.1-.24-.34-.44-.7-.56-1.1-.23-.8,.02-1.5,.73-1.93,.23-.14,.22-.24,.11-.45C.41,20.34,.04,19.31,0,18.18c-.03-.91,.17-1.75,.74-2.48,.05-.07,.09-.16,.19-.19,0,0,.02,.02,.02,.02-.12,.6-.26,1.19-.27,1.81-.03,1.34,.39,2.55,1.01,3.7,.92,1.71,2.07,3.27,3.27,4.78,1.23,1.54,2.37,3.13,3.09,4.98,.32,.83,.67,1.65,.89,2.51-.07,0-.15-.01-.22-.02Zm-.34-1.07s.02,.1,.07,.12c.05,.25,.19,.47,.31,.69-.09-.27-.16-.54-.3-.78,0-.02-.02-.05-.03-.07-.02-.03-.02-.11-.07-.07-.04,.03,0,.08,.03,.11Zm-.05-.14c.04-.15-.03-.23-.07-.32-.76-1.78-1.88-3.33-3.13-4.8-1.39-1.64-2.77-3.29-3.9-5.13-.11-.18-.18-.13-.26,.02-.35,.66-.31,1.31-.01,1.97,.27,.6,.68,1.1,1.13,1.57,.8,.85,1.7,1.61,2.61,2.34,1.46,1.18,2.72,2.52,3.55,4.22,.01,.03,.04,.05,.09,.11Zm.49,1.09s0-.01,0-.02c0,0-.01,0-.01,.01,0,.01,0,.02,.01,.03,0,0,0-.01,0-.02Z"/>
    <path class="cls-2" d="M17.85,15.52c.19,.07,.27,.25,.36,.41,.63,1,.69,2.08,.46,3.2-.16,.8-.47,1.54-.85,2.26-.05,.09-.13,.18-.09,.3,0,0,0,0,0,0-.1-.01-.11,.07-.15,.13-.46,.79-1,1.51-1.55,2.24-1.03,1.39-2.2,2.67-3.27,4.02-.99,1.25-1.8,2.6-2.39,4.08-.14,.28-.28,.56-.32,.87h0s-.06,.05-.09,.08l-.02-.1s0-.07,.02-.11c.78-2.3,1.76-4.48,3.32-6.38,1.36-1.65,2.64-3.37,3.69-5.25,.65-1.17,1.13-2.39,1.14-3.76,0-.68-.14-1.34-.27-2h0Z"/>
    <path class="cls-5" d="M18.04,21.84c.08,.03,.15,.08,.2,.16,0,.08,.04,.12,.12,.12,.03,.04,.06,.08,.1,.11,0,.08,0,.15,.11,.16,.3,.44,.27,.92,.12,1.4-.23,.73-.7,1.31-1.21,1.86-.78,.84-1.72,1.51-2.59,2.24-1.38,1.17-2.75,2.35-3.84,3.81-.36,.48-.65,.99-.93,1.51-.02-.02-.04-.04-.06-.05,.01-.04,.02-.09,.04-.13h0c.12-.27,.25-.54,.37-.81,.04-.08,.09-.16,.13-.24,.69-1.36,1.59-2.56,2.76-3.55,.73-.61,1.46-1.23,2.17-1.86,.8-.71,1.59-1.43,2.15-2.36,.45-.76,.59-1.54,.19-2.36,.07,0,.13,0,.2-.01Z"/>
    <path class="cls-7" d="M9.46,34.81c.03-.32,.06-.65,.15-.96,.12-.01,.09-.1,.09-.17,0,0,0,0,0,0,.13-.14,.1-.35,.2-.49,.03,0,.07,0,.1,0h.02s0,.08,.04,.11c-.2,.5-.4,1.01-.6,1.51Z"/>
    <path class="cls-12" d="M10.27,30.43c-.07,.21-.14,.43-.21,.64-.01,0-.03,0-.04-.01,.06-.21,.12-.42,.18-.63,.03,0,.05,0,.08,0Z"/>
    <path class="cls-2" d="M18.04,21.84c-.07,0-.13,0-.2,.01-.05-.05-.09-.1-.09-.17,0,0,0,0,0,0,.13-.01,.21,.08,.3,.15Z"/>
    <path class="cls-12" d="M8.72,33.3c.07,0,.15,.01,.22,.02,0,0,0,0,0,0-.05,.06,.01,.15-.06,.2,0,0,0,0,0,0,0-.05,.03-.11-.06-.11h0c0-.05-.03-.06-.07-.06-.01-.02-.02-.03-.04-.05Z"/>
    <path class="cls-2" d="M18.55,22.39c-.11,0-.11-.08-.11-.16,.06,.04,.09,.09,.11,.16Z"/>
    <path class="cls-2" d="M18.35,22.11c-.08,0-.12-.04-.12-.12,.06,.02,.09,.06,.12,.12Z"/>
    <path class="cls-5" d="M10.06,33.3s-.04-.08-.04-.13c0,0,.02,0,.02,0,.02,.02,.04,.04,.06,.05-.01,.03-.02,.06-.03,.08Z"/>
    <path class="cls-2" d="M8.82,33.41c.08,0,.07,.06,.06,.11-.07,0-.07-.06-.06-.11Z"/>
    <path class="cls-2" d="M8.75,33.35s.08,0,.07,.06c-.05,0-.05-.03-.07-.06Z"/>
    <path class="cls-7" d="M9.38,34.97s.02,0,.03,0c-.01,.03-.02,.04-.03,0Z"/>
    <path class="cls-12" d="M8.62,30.54c.09,.16,.11,.33,.11,.51l-.16-.51h.03s.03,0,.03,0Z"/>
    <path class="cls-14" d="M8.54,30.25c.02,.05,.03,.11,.05,.16-.02,.01-.03,.03-.05,.04-.02-.05-.04-.1-.06-.16,.02-.01,.04-.03,.06-.04Z"/>
    <path class="cls-11" d="M9.69,33.67c0,.07,.03,.16-.09,.17,.04-.05,0-.14,.09-.17Z"/>
    <path class="cls-14" d="M8.62,30.54h-.03s-.03,0-.03,0c0-.03-.02-.06-.03-.09,.02-.01,.03-.03,.05-.04,.01,.04,.02,.09,.03,.13Z"/>
    <path class="cls-12" d="M8.45,32.26c.15,.24,.22,.51,.3,.78-.12-.22-.26-.44-.31-.69,0-.03,0-.06,0-.09Z"/>
    <path class="cls-12" d="M8.81,33.18s0,.01,0,.02c0,0-.01-.02-.01-.03,0,0,0,0,.01-.01,0,0,0,.01,0,.02Z"/>
    <path class="cls-9" d="M8.38,32.23s-.07-.08-.03-.11c.06-.04,.05,.04,.07,.07-.02,.01-.03,.03-.05,.04Z"/>
    <path class="cls-9" d="M8.45,32.26s0,.06,0,.09c-.05-.03-.06-.08-.07-.12,.02-.01,.03-.03,.05-.04,0,.02,.02,.05,.03,.07Z"/>
    <path class="cls-12" d="M10.39,32.16s.03,.04,.05,.06c-.12,.27-.25,.54-.37,.82,.04-.32,.18-.6,.32-.87Z"/>
    <path class="cls-12" d="M10.04,33.16s-.02,0-.02,0c0,0-.02,.01-.02,.01,0-.02-.01-.05-.02-.07,.03-.03,.06-.06,.09-.08-.01,.04-.02,.09-.04,.13Z"/>
    <path class="cls-5" d="M9.98,33.11s.01,.05,.02,.07c-.03,0-.07,0-.1,0,0-.06,.01-.13,.06-.18,0,.03,.02,.07,.02,.1Z"/>
  </g>
</svg>