<?xml version="1.0" encoding="UTF-8"?>
<svg id="Layer_1" data-name="Layer 1" xmlns="http://www.w3.org/2000/svg" viewBox="0 0 150.43 35">
  <defs>
    <style>
      .cls-1 {
        fill: #22afe1;
      }

      .cls-2 {
        fill: #254184;
      }

      .cls-3 {
        fill: #21aee1;
      }

      .cls-4 {
        fill: #28b1e2;
      }

      .cls-5 {
        fill: #22aee1;
      }
    </style>
  </defs>
  <path class="cls-2" d="M7.68,23.79c1.91-.04,3.71,.08,5.51,0,5.35-.21,10.19-1.91,14.62-4.87,5.69-3.8,11.06-8.04,16.65-11.97,2.12-1.49,4.23-2.99,6.46-4.31,3.99-2.37,8.04-2.7,12.16-.33,.12,.07,.23,.15,.39,.25-1.29,1.12-2.58,2.2-3.82,3.34-4.63,4.27-8.59,9.12-12.53,14.01-2.72,3.37-5.43,6.75-8.79,9.54-2.75,2.28-5.77,4.01-9.36,4.58-3.85,.61-7.47-.18-10.88-1.91-3.67-1.87-6.86-4.4-9.72-7.34-.19-.2-.36-.43-.53-.65-.05-.06-.07-.14-.16-.33Z"/>
  <path class="cls-2" d="M137.21,10c0-2.47,0-4.94,0-7.41,0-1.74,.54-2.26,2.28-2.26,3.41,0,6.82,.01,10.23-.01,.55,0,.75,.13,.7,.69-.05,.61-.05,1.24,0,1.85,.04,.53-.15,.66-.66,.66-2.68-.03-5.36,0-8.04-.03-.6,0-.86,.1-.8,.77,.07,.75,.06,1.52,0,2.27-.04,.61,.12,.82,.78,.8,1.86-.05,3.72,0,5.58-.03,.6-.01,.75,.18,.75,.76-.02,1.84-.5,2.37-2.34,2.38-1.38,0-2.76,.02-4.14,0-.47,0-.63,.11-.62,.6,.03,1.12,.04,2.25,0,3.37-.02,.56,.2,.63,.68,.63,2.68-.02,5.36,.01,8.04-.03,.64,0,.84,.16,.79,.79-.06,.67-.03,1.35,0,2.02,.02,.42-.09,.59-.55,.58-4.03-.02-8.06-.02-12.1,0-.54,0-.57-.23-.57-.65,.01-2.58,0-5.17,0-7.75Z"/>
  <path class="cls-2" d="M93.42,18.39c-1.92,0-3.84-.02-5.75,.01-.56,0-.78-.09-.77-.72,.03-5.14,.01-10.28,.02-15.42,0-1.36,.58-1.94,1.96-1.94,3.5,0,6.99,.01,10.49-.01,.55,0,.75,.14,.71,.7-.04,.59-.05,1.18,0,1.77,.05,.62-.21,.74-.78,.73-2.62-.03-5.25,0-7.87-.02-.62,0-.92,.1-.86,.81,.07,.78,.04,1.57,0,2.36-.03,.52,.16,.67,.67,.67,1.89-.03,3.78,0,5.67-.02,.52,0,.73,.1,.73,.69,0,1.98-.42,2.44-2.41,2.45-1.3,0-2.6,.04-3.89-.02-.67-.03-.8,.2-.78,.81,.05,1.01,.06,2.02,0,3.03-.04,.67,.22,.78,.82,.77,2.59-.03,5.19,.02,7.78-.04,.79-.02,.98,.24,.91,.95-.05,.53-.06,1.07,0,1.6,.09,.74-.23,.88-.9,.86-1.92-.04-3.83-.02-5.75-.02Z"/>
  <path class="cls-2" d="M119.11,9.59c0-2.1,.26-3.89,1.13-5.55,1.46-2.8,3.96-3.85,6.94-4.02,1.24-.07,2.47,.05,3.68,.42,2.67,.82,4.01,2.73,4.46,5.38,.07,.41,0,.62-.49,.59-.59-.04-1.18,0-1.78-.02-.73-.02-1.31-.34-1.64-1-.83-1.68-2.27-2.13-4.01-2.03-1.78,.1-3.18,.87-3.87,2.53-.98,2.33-.97,4.72,.04,7.04,.76,1.75,2.35,2.55,4.51,2.44,1.76-.09,2.89-.96,3.51-2.76,.13-.37,.29-.48,.65-.47,.79,.02,1.58,.06,2.37,0,.69-.06,.8,.19,.69,.8-.56,3.07-2.71,5.15-5.83,5.62-1.41,.21-2.81,.24-4.2-.06-3.37-.74-5.54-3.22-6-6.86-.09-.75-.23-1.5-.16-2.01Z"/>
  <path class="cls-3" d="M0,12.67c.4-.04,.59,.24,.83,.41,4.15,2.94,8.8,3.86,13.8,3.33,7.24-.77,13.71-3.66,19.9-7.29q.82-.48,1.5-.44c-1.13,.87-2.17,1.67-3.21,2.46-4.04,3.08-8.2,5.94-12.89,7.97-2.6,1.12-5.27,2-8.1,2.25-4.75,.42-8.53-1.72-10.69-5.98-.44-.87-.82-1.76-1.13-2.71Z"/>
  <path class="cls-5" d="M149.22,24.35c-1.07,3.13-2.09,6.18-3.17,9.21-.4,1.12-1.83,1.73-2.94,1.31-.59-.22-.2-.78-.28-1.18-.06-.3,.09-.43,.42-.47,1.48-.2,1.61-.43,1.12-1.84-.75-2.14-1.48-4.29-2.25-6.43-.18-.51-.14-.67,.46-.67,1.53,0,1.53-.03,1.96,1.43,.34,1.18,.69,2.36,1.09,3.75,.38-1.29,.72-2.38,1.03-3.48,.5-1.75,.59-1.81,2.58-1.63Z"/>
  <path class="cls-5" d="M120.69,32.05c-1.91,.18-3.22-.46-3.63-1.68-.28-.85-.19-.98,.69-.99,.57,0,1.11-.13,1.42,.65,.22,.57,1.74,.68,2.23,.27,.39-.33,.29-.64-.08-.88-.38-.25-.83-.34-1.27-.43-.58-.11-1.16-.22-1.69-.49-.77-.39-1.22-.99-1.22-1.86,0-.87,.36-1.57,1.16-2,1.21-.65,3.33-.53,4.26,.25,.11,.09,.21,.19,.3,.3,.35,.44,.7,.93,.48,1.51-.11,.29-1.69,.04-1.93-.34-.41-.66-1.02-.61-1.64-.55-.3,.02-.57,.16-.62,.48-.05,.33,.22,.53,.48,.61,.64,.21,1.3,.35,1.94,.54,1.69,.49,2.22,1.12,2.09,2.46-.12,1.23-1.08,2.02-2.61,2.15-.17,.01-.34,.02-.37,.02Z"/>
  <path class="cls-5" d="M100.5,29.08c0,.67,.01,1.35,0,2.02,0,.38,.19,.9-.54,.86-.63-.04-1.33,0-1.35-.88-.04-1.23,0-2.47-.02-3.7-.02-1.02-.44-1.44-1.35-1.43-.82,.01-1.2,.35-1.21,1.16-.02,1.37-.05,2.75,0,4.12,.04,.92-.56,.7-1.06,.72-.49,.01-1.01,.15-.97-.71,.07-1.34,0-2.69,.03-4.04,.05-2.06,1.14-2.99,3.43-2.97,2,.02,3.02,1.02,3.04,2.99,0,.62,0,1.23,0,1.85Z"/>
  <path class="cls-5" d="M104.23,26.61c0-1.18-.02-2.36,.01-3.54,0-.33-.27-.87,.38-.93,.6-.06,1.22-.05,1.49,.65,.08,.2,.11,.44,.09,.66-.04,.54,.02,.96,.74,.84,.22-.04,.39,.07,.4,.32,.02,.39-.08,.84-.43,.93-.83,.2-.7,.79-.7,1.36,0,.9,.01,1.8,0,2.69,0,.45,.08,.78,.63,.77,.8-.01,.45,.61,.51,.98,.08,.48-.22,.53-.61,.54-2.3,.09-2.51-.11-2.51-2.41,0-.95,0-1.91,0-2.86Z"/>
  <path class="cls-5" d="M127.36,26.62c0-1.18-.02-2.36,.01-3.54,0-.33-.28-.86,.36-.93,.59-.07,1.22-.07,1.5,.63,.07,.18,.13,.39,.11,.57-.05,.61,.02,1.07,.82,.95,.21-.03,.28,.13,.29,.32,.02,.36-.04,.79-.37,.88-.92,.23-.73,.91-.73,1.53,0,.84,.01,1.69,0,2.53,0,.48,.06,.81,.67,.81,.75,0,.36,.61,.43,.95,.08,.36-.06,.61-.49,.56-.03,0-.06,0-.08,0-2.28,.12-2.51-.09-2.51-2.39,0-.95,0-1.91,0-2.86Z"/>
  <path class="cls-1" d="M134.13,29.23c.05-.81-.11-1.77,.2-2.7,.48-1.42,2.23-2.48,3.68-2.24,.25,.04,.34,.15,.34,.38,0,.31-.02,.62,0,.93,.05,.51-.09,.72-.68,.75-1.19,.06-1.55,.52-1.56,1.73,0,.98-.06,1.97,.02,2.94,.06,.82-.27,1.05-1.01,.95-.14-.02-.28-.02-.42,0-.43,.04-.61-.12-.59-.57,.03-.67,0-1.35,0-2.16Z"/>
  <path class="cls-5" d="M111.28,28.05c0-.98,0-1.97,0-2.95,0-.4-.14-.89,.58-.83,.59,.05,1.26-.03,1.32,.82,.04,.61,.01,1.23,.01,1.85,0,1.46-.03,2.92,.01,4.38,.03,.84-.54,.62-.96,.61-.42,0-1.01,.25-.97-.6,.05-1.09,.01-2.19,.01-3.28Z"/>
  <path class="cls-4" d="M112.47,23.66c-.8,.08-1.3,.11-1.21-.74,.05-.5,.03-.87,.7-.8,.65,.06,1.23,.07,1.25,.97,.02,.85-.57,.54-.74,.57Z"/>
  <path class="cls-2" d="M113.57,3.01c-.31-.87-.4-2.02-1.02-2.53-.66-.54-1.84-.14-2.79-.15-1.24-.02-1.62,.26-2.05,1.45-1.36,3.77-2.71,7.54-4.06,11.31-.62,1.73-1.25,3.47-1.91,5.3,1.29,0,2.47-.01,3.65,0,.38,0,.45-.22,.54-.51,.26-.83,.55-1.65,.79-2.48,.13-.46,.32-.69,.87-.68,1.92,.04,3.83,.03,5.75,0,.5,0,.69,.19,.82,.62,.25,.86,.56,1.7,.82,2.56,.09,.3,.19,.49,.55,.48,1.15-.02,2.31,0,3.57,0-1.88-5.22-3.71-10.3-5.55-15.38Zm-.84,8.46c-.35,.4-1.15,.12-1.76,.14-.79,.02-1.58-.02-2.37,.02-.52,.02-.61-.11-.45-.6,.75-2.23,1.46-4.47,2.26-6.95,.68,2.06,1.29,3.92,1.9,5.78,.18,.55,.62,1.39,.42,1.62Z"/>
  <path class="cls-2" d="M79.31,.32c-1.89,0-3.78,0-5.66,0-1.75,0-2.42,.68-2.43,2.46,0,2.44,0,4.88,0,7.32,0,2.53,.01,5.05-.01,7.58,0,.52,.1,.76,.69,.72,.79-.05,1.58-.05,2.36,0,.59,.04,.77-.15,.76-.75-.04-1.65,0-3.31-.03-4.97-.01-.54,.14-.74,.71-.72,1.21,.04,2.42,.02,3.63,.01,3.63,0,5.55-1.78,5.81-5.35,.3-3.98-1.86-6.31-5.84-6.31Zm-.07,8.29c-1.23,.08-2.48,.02-3.71,.05-.38,0-.49-.15-.48-.5,.02-.7,0-1.4,0-2.1,0-.64,.02-1.29,0-1.93-.02-.44,.07-.66,.59-.64,1.15,.04,2.31-.01,3.46,.03,1.46,.05,2.24,.89,2.28,2.36,.04,1.75-.61,2.64-2.13,2.74Z"/>
  <path class="cls-5" d="M79.47,25.25c-.36-1.65-1.53-2.78-3.13-3-1.29-.18-2.59-.11-3.88-.1-.79,0-1.16,.41-1.13,1.22,.04,1.32,0,2.64,0,3.95s.02,2.64,0,3.95c-.01,.5,.11,.71,.65,.69,1.07-.04,2.14,.02,3.21-.02,2.82-.12,4.32-1.62,4.46-4.44,.04-.76-.02-1.51-.18-2.26Zm-2.04,3.1c-.21,1.02-.89,1.61-1.99,1.77-1.99,.28-2.07,.21-2.07-1.75,0-.45,0-.9,0-1.35,0-.87,.01-1.74,0-2.61,0-.35,.11-.51,.48-.49,.56,.02,1.13-.02,1.69,.02,.98,.06,1.68,.71,1.89,1.75,.18,.89,.19,1.78,0,2.67Z"/>
  <path class="cls-5" d="M85.97,28.66c.62,.04,1.24,0,1.86,0,.17,0,.34,0,.51,0,2.18,0,2.4-.33,1.67-2.43-.47-1.35-1.41-1.98-2.97-2-1.82-.02-2.92,.57-3.38,1.93-.46,1.37-.46,2.76,.08,4.11,.49,1.23,1.75,1.9,3.31,1.84,1.48-.06,2.49-.75,2.95-1.98,.16-.41,.16-.61-.38-.6-.68,.01-1.29,.07-1.88,.53-.85,.66-1.93,.28-2.25-.69-.15-.45-.14-.76,.49-.73Zm.02-2.56c.44-.34,.92-.39,1.43-.15,.48,.23,.79,.68,.71,1.14-.09,.46-.61,.12-.93,.2-.13,.03-.28,0-.42,0-.14,0-.29,.02-.42,0-.3-.06-.78,.21-.87-.19-.09-.36,.19-.75,.52-1Z"/>
</svg>