<?xml version="1.0" encoding="utf-8"?>
<!-- Generator: Adobe Illustrator 28.0.0, SVG Export Plug-In . SVG Version: 6.00 Build 0)  -->
<svg version="1.1" id="Layer_1" xmlns="http://www.w3.org/2000/svg" xmlns:xlink="http://www.w3.org/1999/xlink" x="0px" y="0px"
	 viewBox="0 0 135.8 142.4" style="enable-background:new 0 0 135.8 142.4;" xml:space="preserve">
<style type="text/css">
	.st0{fill:#3953A4;}
	.st1{fill:#231F20;}
	.st2{fill:#A7C5E7;}
	.st3{fill:#FFFFFF;}
</style>
<g>
	<path class="st0" d="M107.7,46.2c0,0.3-0.1,0.5-0.1,0.8c-0.8-17.1-13.6-31.8-31.2-34.4c-20-3-38.7,10.8-41.7,30.8
		c-1.5,10,1.2,19.7,6.8,27.2c-10-8.7-15.5-22.2-13.4-36.3c3.3-22,23.8-37.1,45.7-33.9C95.8,3.7,111,24.2,107.7,46.2z"/>
	<path class="st1" d="M91.3,79.1c-7,4.8-15.7,7-24.7,5.7c-19-2.8-32.1-20.5-29.3-39.6S57.9,13,76.9,15.9c9,1.3,16.6,6,21.9,12.5
		C93.9,23,87.1,19.1,79.3,18c-18.1-2.7-34.9,9.8-37.6,27.8C39,63.9,51.4,80.7,69.5,83.4C77.4,84.6,85,82.9,91.3,79.1z"/>
	<path class="st0" d="M28.1,96.2c0-0.3,0.1-0.5,0.1-0.8c0.8,17.1,13.6,31.8,31.2,34.4c20,3,38.7-10.8,41.7-30.8
		c1.5-10-1.2-19.7-6.8-27.2c10,8.7,15.5,22.2,13.4,36.3c-3.3,22-23.8,37.1-45.7,33.9C40,138.7,24.8,118.2,28.1,96.2z"/>
	<path class="st1" d="M44.5,63.3c7-4.8,15.7-7,24.7-5.7c19,2.8,32.1,20.5,29.3,39.6c-2.8,19-20.5,32.1-39.6,29.3
		c-9-1.3-16.6-6-21.9-12.5c4.9,5.4,11.7,9.3,19.6,10.4c18.1,2.7,34.9-9.8,37.6-27.8c2.7-18.1-9.8-34.9-27.8-37.6
		C58.4,57.8,50.8,59.5,44.5,63.3z"/>
	<path class="st2" d="M26.5,110.2c-20-19.7-20.6-56.5-0.9-76.7c0.7-3.9,2.3-10.1,6.5-16.5c2.5-3.8,5.3-6.6,7.6-8.6
		C15.3,20-0.2,44.8,0,71.7c0.2,26.7,15.8,51,40,62.4c-2.1-1.9-4.5-4.5-6.8-7.8C29,120.2,27.3,114.2,26.5,110.2z M94.2,7
		c2.5,2.1,5.8,5.2,8.8,9.5c4.3,6.3,5.9,12.4,6.7,16.2c19.9,19.8,20.3,56.6,0.5,76.7c-0.7,4.1-2.4,10.2-6.6,16.5
		c-1.9,2.9-4,5.2-5.9,7c23.2-12,37.9-35.9,38.1-61.7C136,43.7,119.6,18.5,94.2,7z"/>
</g>
</svg>
