<?xml version="1.0" encoding="utf-8"?>
<!-- Generator: Adobe Illustrator 28.0.0, SVG Export Plug-In . SVG Version: 6.00 Build 0)  -->
<svg version="1.1" id="Layer_1" xmlns="http://www.w3.org/2000/svg" xmlns:xlink="http://www.w3.org/1999/xlink" x="0px" y="0px"
	 viewBox="0 0 135.8 187.5" style="enable-background:new 0 0 135.8 187.5;" xml:space="preserve">
<style type="text/css">
	.st0{fill:#3953A4;}
	.st1{fill:#231F20;}
	.st2{fill:#A7C5E7;}
	.st3{fill:#FFFFFF;}
	.st4{fill:#5E7CBE;}
	.st5{display:none;}
	.st6{opacity:0;fill:#3953A4;}
	.st7{font-family:'ErasITC-Bold';}
	.st8{font-size:36px;}
	.st9{display:inline;opacity:1.923077e-02;}
	.st10{display:inline;opacity:3.846154e-02;}
	.st11{display:inline;opacity:5.769231e-02;}
	.st12{display:inline;opacity:7.692308e-02;}
	.st13{display:inline;opacity:9.615385e-02;}
	.st14{display:inline;opacity:0.1154;}
	.st15{display:inline;opacity:0.1346;}
	.st16{display:inline;opacity:0.1538;}
	.st17{display:inline;opacity:0.1731;}
	.st18{display:inline;opacity:0.1923;}
	.st19{display:inline;opacity:0.2115;}
	.st20{display:inline;opacity:0.2308;}
	.st21{display:inline;opacity:0.25;}
	.st22{display:inline;opacity:0.2692;}
	.st23{display:inline;opacity:0.2885;}
	.st24{display:inline;opacity:0.3077;}
	.st25{display:inline;opacity:0.3269;}
	.st26{display:inline;opacity:0.3462;}
	.st27{display:inline;opacity:0.3654;}
	.st28{display:inline;opacity:0.3846;}
	.st29{display:inline;opacity:0.4038;}
	.st30{display:inline;opacity:0.4231;}
	.st31{display:inline;opacity:0.4423;}
	.st32{display:inline;opacity:0.4615;}
	.st33{display:inline;opacity:0.4808;}
	.st34{opacity:0.5;fill:#3953A4;}
</style>
<g>
	<g>
		<path class="st0" d="M18.2,176.3c-0.2-2.5-0.3-4.5-0.5-6c1.3,0.6,2.5,1,3.5,1.2s1.9,0.3,2.7,0.3c1,0,1.8-0.1,2.4-0.4
			c0.6-0.3,0.9-0.7,0.9-1.3c0-0.2,0-0.4-0.1-0.6c-0.1-0.2-0.2-0.4-0.3-0.6s-0.4-0.5-0.7-0.7l-3.3-2.9c-0.8-0.7-1.3-1.1-1.6-1.4
			c-0.6-0.6-1.1-1.2-1.5-1.7c-0.3-0.5-0.6-1-0.8-1.6c-0.2-0.5-0.2-1.1-0.2-1.7c0-0.7,0.1-1.4,0.4-2.1s0.6-1.3,1.1-1.9s1.2-1.1,2-1.5
			s1.7-0.7,2.7-0.9s1.9-0.2,2.9-0.2c2,0,4.1,0.2,6.5,0.7c0,0.8,0.1,1.5,0.1,2.2s0.2,1.9,0.3,3.5c-1.1-0.4-2.1-0.7-3-0.9
			s-1.7-0.3-2.3-0.3c-0.9,0-1.7,0.2-2.3,0.5s-0.9,0.8-0.9,1.3c0,0.2,0,0.5,0.1,0.7s0.3,0.5,0.5,0.8s0.6,0.6,1,1s1.1,0.9,2,1.6l1.3,1
			c0.4,0.3,0.8,0.7,1.2,1.1s0.8,0.9,1.1,1.3s0.6,0.8,0.7,1.2s0.3,0.7,0.4,1.1s0.1,0.7,0.1,1.2c0,1.1-0.3,2.1-0.8,3s-1.2,1.7-2.1,2.4
			s-1.9,1-3,1.3s-2.3,0.4-3.5,0.4C23.5,177.1,21.1,176.8,18.2,176.3z"/>
		<path class="st0" d="M38,176.6c0.2-1.4,0.3-2.6,0.4-3.5c0.1-0.9,0.2-2.1,0.2-3.6s0.1-3,0.2-4.8s0.1-3.8,0.1-6.1c1.5,0,2.7,0,3.7,0
			c0.8,0,2,0,3.6,0c-0.2,2.2-0.3,4.2-0.4,5.8s-0.1,3.5-0.2,5.3c0,3.3-0.1,5.6-0.1,6.8c-1.4,0-2.6,0-3.6,0
			C40.9,176.6,39.6,176.6,38,176.6z M39.1,156.4c0.1-1.4,0.1-2.5,0.1-3.3c0-0.2,0-0.6,0-0.9c1.4,0,2.6,0,3.6,0c1.3,0,2.5,0,3.5,0
			c0,0.4-0.1,0.7-0.1,0.9l-0.1,2.2c0,0.3,0,0.7,0,1.2c-1.2,0-2.3,0-3.3,0C41.6,156.4,40.4,156.4,39.1,156.4z"/>
		<path class="st0" d="M47.4,176.6l4-5.3l3-4.1l-5.5-8.5c1.7,0,3.2,0,4.4,0c1.5,0,2.8,0,3.8,0l1.9,4c0.1,0.2,0.3,0.6,0.5,1.1
			c0.9-1.5,2-3.3,3.2-5.2c1,0,2.3,0,3.7,0c1.3,0,2.6,0,3.8,0l-2.8,3.7c-0.6,0.7-1.7,2.3-3.5,4.8c1.1,1.9,3,5,5.9,9.5
			c-1.3,0-2.6,0-3.9,0c-1.6,0-3,0-4.2,0c-0.8-1.6-1.3-2.9-1.7-3.6s-0.7-1.5-1-2.2l-0.6,1c-0.2,0.3-0.4,0.7-0.8,1.3l-2.2,3.5
			c-1.3,0-2.5,0-3.7,0C50.2,176.6,48.8,176.6,47.4,176.6z"/>
		<path class="st0" d="M86.9,152.2c1.9,0,3.7,0.3,5.4,0.8s3.3,1.3,4.6,2.4s2.3,2.4,2.9,3.8s1,3.1,1,5c0,2-0.4,3.8-1.1,5.4
			s-1.7,3-3.1,4.2s-2.9,2-4.8,2.5s-3.8,0.8-5.8,0.8c-2,0-3.9-0.3-5.7-0.8s-3.4-1.4-4.7-2.5s-2.3-2.5-2.9-3.9s-0.8-3-0.8-4.8
			c0-2.6,0.6-4.8,1.8-6.8s3-3.5,5.3-4.5S84,152.2,86.9,152.2z M86.6,157.5c-1.3,0-2.6,0.3-3.7,1s-1.9,1.6-2.5,2.8s-0.9,2.4-0.9,3.8
			c0,1.2,0.3,2.4,0.8,3.4s1.3,1.8,2.4,2.4s2.2,0.9,3.5,0.9c1.3,0,2.5-0.3,3.6-1s1.9-1.6,2.5-2.7s0.9-2.4,0.9-3.7
			c0-1.3-0.3-2.4-0.8-3.5s-1.3-1.9-2.3-2.5S87.9,157.5,86.6,157.5z"/>
		<path class="st0" d="M103.2,176.3c0-0.5-0.1-1.1-0.1-1.6s-0.1-1.4-0.2-2.3l-0.1-1.3c1.1,0.4,2.1,0.8,2.9,1s1.6,0.3,2.3,0.3
			c0.6,0,1-0.1,1.4-0.2s0.6-0.3,0.8-0.5c0.2-0.2,0.2-0.4,0.2-0.6c0-0.2-0.1-0.4-0.2-0.6c-0.1-0.2-0.4-0.4-0.8-0.7
			c-1-0.7-1.8-1.3-2.5-1.9s-1.3-1.1-1.6-1.5c-0.4-0.4-0.6-0.9-0.8-1.4c-0.2-0.5-0.3-1-0.3-1.6c0-1,0.3-1.9,0.8-2.7s1.4-1.5,2.5-1.8
			s2.4-0.6,4-0.6c1.6,0,3.7,0.2,6.2,0.6l0.3,4.9c-1.4-0.6-2.8-0.8-4.1-0.8c-0.9,0-1.6,0.1-2,0.3s-0.6,0.5-0.6,0.9
			c0,0.1,0,0.3,0.1,0.4s0.1,0.2,0.3,0.4s0.3,0.3,0.5,0.4s0.6,0.4,1.3,0.9s1.3,0.9,1.7,1.2c0.7,0.5,1.2,1,1.5,1.4s0.6,0.9,0.8,1.4
			s0.3,1,0.3,1.6c0,0.8-0.2,1.6-0.6,2.3s-1,1.3-1.8,1.7s-1.7,0.8-2.6,1s-1.9,0.3-2.9,0.3c-0.7,0-1.5-0.1-2.6-0.2
			S104.6,176.6,103.2,176.3z"/>
	</g>
	<path class="st0" d="M107.7,46.2c0,0.3-0.1,0.5-0.1,0.8c-0.8-17.1-13.6-31.8-31.2-34.4c-20-3-38.7,10.8-41.7,30.8
		c-1.5,10,1.2,19.7,6.8,27.2c-10-8.7-15.5-22.2-13.4-36.3c3.3-22,23.8-37.1,45.7-33.9C95.8,3.7,111,24.2,107.7,46.2z"/>
	<path class="st1" d="M91.3,79.1c-7,4.8-15.7,7-24.7,5.7c-19-2.8-32.1-20.5-29.3-39.6S57.9,13,76.9,15.9c9,1.3,16.6,6,21.9,12.5
		C93.9,23,87.1,19.1,79.3,18c-18.1-2.7-34.9,9.8-37.6,27.8C39,63.9,51.4,80.7,69.5,83.4C77.4,84.6,85,82.9,91.3,79.1z"/>
	<path class="st0" d="M28.1,96.2c0-0.3,0.1-0.5,0.1-0.8c0.8,17.1,13.6,31.8,31.2,34.4c20,3,38.7-10.8,41.7-30.8
		c1.5-10-1.2-19.7-6.8-27.2c10,8.7,15.5,22.2,13.4,36.3c-3.3,22-23.8,37.1-45.7,33.9C40,138.7,24.8,118.2,28.1,96.2z"/>
	<path class="st1" d="M44.5,63.3c7-4.8,15.7-7,24.7-5.7c19,2.8,32.1,20.5,29.3,39.6c-2.8,19-20.5,32.1-39.6,29.3
		c-9-1.3-16.6-6-21.9-12.5c4.9,5.4,11.7,9.3,19.6,10.4c18.1,2.7,34.9-9.8,37.6-27.8c2.7-18.1-9.8-34.9-27.8-37.6
		C58.4,57.8,50.8,59.5,44.5,63.3z"/>
	<path class="st2" d="M26.5,110.2c-20-19.7-20.6-56.5-0.9-76.7c0.7-3.9,2.3-10.1,6.5-16.5c2.5-3.8,5.3-6.6,7.6-8.6
		C15.3,20-0.2,44.8,0,71.7c0.2,26.7,15.8,51,40,62.4c-2.1-1.9-4.5-4.5-6.8-7.8C29,120.2,27.3,114.2,26.5,110.2z M94.2,7
		c2.5,2.1,5.8,5.2,8.8,9.5c4.3,6.3,5.9,12.4,6.7,16.2c19.9,19.8,20.3,56.6,0.5,76.7c-0.7,4.1-2.4,10.2-6.6,16.5
		c-1.9,2.9-4,5.2-5.9,7c23.2-12,37.9-35.9,38.1-61.7C136,43.7,119.6,18.5,94.2,7z"/>
	<g>
		<path class="st4" d="M20.5,185.6c-0.2,0.1-0.7,0.2-1.2,0.2c-1.3,0-2.3-0.8-2.3-2.4c0-1.5,1-2.5,2.5-2.5c0.6,0,1,0.1,1.1,0.2
			l-0.1,0.5c-0.2-0.1-0.6-0.2-1-0.2c-1.1,0-1.8,0.7-1.8,1.9c0,1.2,0.7,1.9,1.8,1.9c0.4,0,0.7-0.1,1-0.2L20.5,185.6z"/>
		<path class="st4" d="M24.2,184c0,1.3-0.9,1.8-1.7,1.8c-0.9,0-1.6-0.7-1.6-1.7c0-1.1,0.7-1.8,1.7-1.8C23.6,182.3,24.2,183,24.2,184
			z M21.5,184.1c0,0.7,0.4,1.3,1,1.3c0.6,0,1-0.6,1-1.3c0-0.6-0.3-1.3-1-1.3S21.5,183.4,21.5,184.1z M22.8,180.9l0.7,1H23l-0.4-0.7
			h0l-0.4,0.7h-0.5l0.7-1H22.8z"/>
		<path class="st4" d="M25,183.3c0-0.3,0-0.6,0-0.9h0.5l0,0.6h0c0.2-0.3,0.6-0.6,1.1-0.6c0.5,0,1.2,0.3,1.2,1.4v2h-0.6v-2
			c0-0.5-0.2-1-0.8-1c-0.4,0-0.7,0.3-0.8,0.6c0,0.1,0,0.2,0,0.3v2H25V183.3z"/>
		<path class="st4" d="M31.8,182.4c0,0.2,0,0.5,0,0.9v2c0,0.8-0.2,1.3-0.5,1.5c-0.3,0.3-0.8,0.4-1.2,0.4c-0.4,0-0.9-0.1-1.1-0.3
			l0.2-0.5c0.2,0.1,0.6,0.3,1,0.3c0.6,0,1.1-0.3,1.1-1.2v-0.4h0c-0.2,0.3-0.6,0.6-1.1,0.6c-0.8,0-1.4-0.7-1.4-1.7
			c0-1.1,0.7-1.8,1.5-1.8c0.6,0,0.9,0.3,1.1,0.6h0l0-0.5H31.8z M31.2,183.7c0-0.1,0-0.2,0-0.3c-0.1-0.4-0.4-0.7-0.9-0.7
			c-0.6,0-1,0.5-1,1.3c0,0.7,0.3,1.2,1,1.2c0.4,0,0.7-0.2,0.9-0.6c0-0.1,0-0.2,0-0.3V183.7z"/>
		<path class="st4" d="M34.3,183.3c0-0.3,0-0.6,0-0.9h0.5l0,0.6h0c0.2-0.3,0.6-0.6,1.1-0.6c0.5,0,1.2,0.3,1.2,1.4v2h-0.6v-2
			c0-0.5-0.2-1-0.8-1c-0.4,0-0.7,0.3-0.8,0.6c0,0.1,0,0.2,0,0.3v2h-0.6V183.3z"/>
		<path class="st4" d="M41.1,182.4c0,0.2,0,0.5,0,0.9v2c0,0.8-0.2,1.3-0.5,1.5c-0.3,0.3-0.8,0.4-1.2,0.4c-0.4,0-0.9-0.1-1.1-0.3
			l0.2-0.5c0.2,0.1,0.6,0.3,1,0.3c0.6,0,1.1-0.3,1.1-1.2v-0.4h0c-0.2,0.3-0.6,0.6-1.1,0.6c-0.8,0-1.4-0.7-1.4-1.7
			c0-1.1,0.7-1.8,1.5-1.8c0.6,0,0.9,0.3,1.1,0.6h0l0-0.5H41.1z M40.4,183.7c0-0.1,0-0.2,0-0.3c-0.1-0.4-0.4-0.7-0.9-0.7
			c-0.6,0-1,0.5-1,1.3c0,0.7,0.3,1.2,1,1.2c0.4,0,0.7-0.2,0.9-0.6c0-0.1,0-0.2,0-0.3V183.7z"/>
		<path class="st4" d="M42.1,180.8h0.6v2.1h0c0.1-0.2,0.3-0.3,0.4-0.4c0.2-0.1,0.4-0.2,0.6-0.2c0.5,0,1.2,0.3,1.2,1.4v2h-0.6v-1.9
			c0-0.5-0.2-1-0.8-1c-0.4,0-0.7,0.3-0.8,0.6c0,0.1,0,0.2,0,0.3v2h-0.6V180.8z"/>
		<path class="st4" d="M46.3,184.2c0,0.8,0.5,1.2,1.2,1.2c0.4,0,0.7-0.1,0.9-0.2l0.1,0.4c-0.2,0.1-0.6,0.2-1.1,0.2
			c-1,0-1.7-0.7-1.7-1.7s0.6-1.8,1.6-1.8c1.1,0,1.4,1,1.4,1.6c0,0.1,0,0.2,0,0.3H46.3z M48.1,183.7c0-0.4-0.2-1-0.9-1
			c-0.6,0-0.9,0.6-0.9,1H48.1z M47.4,180.9l0.7,1h-0.5l-0.4-0.7h0l-0.4,0.7h-0.5l0.7-1H47.4z M47.6,186.7c0,0.2-0.1,0.4-0.4,0.4
			c-0.2,0-0.3-0.2-0.3-0.4c0-0.2,0.2-0.4,0.4-0.4C47.4,186.3,47.6,186.5,47.6,186.7z"/>
		<path class="st4" d="M51.2,182.4l0.7,1.9c0.1,0.3,0.2,0.6,0.3,0.9h0c0.1-0.3,0.2-0.6,0.3-0.9l0.7-1.9h0.6l-1.3,3.4h-0.6l-1.3-3.4
			H51.2z"/>
		<path class="st4" d="M56.2,185.8l0-0.4h0c-0.2,0.3-0.6,0.5-1,0.5c-0.7,0-1-0.5-1-1c0-0.8,0.7-1.3,2-1.3v-0.1
			c0-0.3-0.1-0.8-0.8-0.8c-0.3,0-0.6,0.1-0.9,0.3l-0.1-0.4c0.3-0.2,0.7-0.3,1.1-0.3c1,0,1.3,0.7,1.3,1.4v1.3c0,0.3,0,0.6,0.1,0.8
			H56.2z M55.1,180.9l0.6,1h-0.4l-0.9-1H55.1z M56.1,184c-0.7,0-1.4,0.1-1.4,0.8c0,0.4,0.3,0.6,0.6,0.6c0.4,0,0.7-0.3,0.8-0.6
			c0-0.1,0-0.1,0-0.2V184z"/>
		<path class="st4" d="M62.1,182.4c0,0.2,0,0.5,0,0.9v2c0,0.8-0.2,1.3-0.5,1.5c-0.3,0.3-0.8,0.4-1.2,0.4c-0.4,0-0.9-0.1-1.1-0.3
			l0.2-0.5c0.2,0.1,0.6,0.3,1,0.3c0.6,0,1.1-0.3,1.1-1.2v-0.4h0c-0.2,0.3-0.6,0.6-1.1,0.6c-0.8,0-1.4-0.7-1.4-1.7
			c0-1.1,0.7-1.8,1.5-1.8c0.6,0,0.9,0.3,1.1,0.6h0l0-0.5H62.1z M61.4,183.7c0-0.1,0-0.2,0-0.3c-0.1-0.4-0.4-0.7-0.9-0.7
			c-0.6,0-1,0.5-1,1.3c0,0.7,0.3,1.2,1,1.2c0.4,0,0.7-0.2,0.9-0.6c0-0.1,0-0.2,0-0.3V183.7z"/>
		<path class="st4" d="M63.7,181.4c0,0.2-0.1,0.4-0.4,0.4c-0.2,0-0.4-0.2-0.4-0.4c0-0.2,0.2-0.4,0.4-0.4
			C63.6,181,63.7,181.2,63.7,181.4z M63,185.8v-3.4h0.6v3.4H63z"/>
		<path class="st4" d="M66.5,185.8l0-0.4h0c-0.2,0.3-0.6,0.5-1,0.5c-0.7,0-1-0.5-1-1c0-0.8,0.7-1.3,2-1.3v-0.1
			c0-0.3-0.1-0.8-0.8-0.8c-0.3,0-0.6,0.1-0.9,0.3l-0.1-0.4c0.3-0.2,0.7-0.3,1.1-0.3c1,0,1.3,0.7,1.3,1.4v1.3c0,0.3,0,0.6,0.1,0.8
			H66.5z M66.4,184c-0.7,0-1.4,0.1-1.4,0.8c0,0.4,0.3,0.6,0.6,0.6c0.4,0,0.7-0.3,0.8-0.6c0-0.1,0-0.1,0-0.2V184z M65.6,182
			c0.1-0.3,0.4-0.4,0.4-0.7c0-0.1-0.1-0.2-0.2-0.2c-0.1,0-0.3,0.1-0.3,0.2l-0.2-0.1c0.1-0.3,0.3-0.5,0.7-0.5c0.3,0,0.6,0.2,0.6,0.5
			c0,0.4-0.4,0.5-0.5,0.8L65.6,182z"/>
		<path class="st4" d="M68.7,181.4c0,0.2-0.1,0.4-0.4,0.4c-0.2,0-0.4-0.2-0.4-0.4c0-0.2,0.2-0.4,0.4-0.4
			C68.6,181,68.7,181.2,68.7,181.4z M68,185.8v-3.4h0.6v3.4H68z"/>
		<path class="st4" d="M71.2,183.5c0-0.4,0-0.8,0-1.1h0.6l0,0.6h0c0.3-0.4,0.7-0.7,1.2-0.7c0.8,0,1.4,0.7,1.4,1.7
			c0,1.2-0.7,1.8-1.5,1.8c-0.4,0-0.8-0.2-1-0.5h0v1.8h-0.6V183.5z M71.8,184.4c0,0.1,0,0.2,0,0.3c0.1,0.4,0.5,0.7,0.9,0.7
			c0.7,0,1-0.5,1-1.3c0-0.7-0.4-1.3-1-1.3c-0.4,0-0.8,0.3-0.9,0.8c0,0.1,0,0.2,0,0.3V184.4z"/>
		<path class="st4" d="M75.1,180.8h0.6v2.1h0c0.1-0.2,0.3-0.3,0.4-0.4c0.2-0.1,0.4-0.2,0.6-0.2c0.5,0,1.2,0.3,1.2,1.4v2h-0.6v-1.9
			c0-0.5-0.2-1-0.8-1c-0.4,0-0.7,0.3-0.8,0.6c0,0.1,0,0.2,0,0.3v2h-0.6V180.8z"/>
		<path class="st4" d="M80.9,185.8l0-0.4h0c-0.2,0.3-0.6,0.5-1,0.5c-0.7,0-1-0.5-1-1c0-0.8,0.7-1.3,2-1.3v-0.1
			c0-0.3-0.1-0.8-0.8-0.8c-0.3,0-0.6,0.1-0.9,0.3l-0.1-0.4c0.3-0.2,0.7-0.3,1.1-0.3c1,0,1.3,0.7,1.3,1.4v1.3c0,0.3,0,0.6,0.1,0.8
			H80.9z M80.8,184c-0.7,0-1.4,0.1-1.4,0.8c0,0.4,0.3,0.6,0.6,0.6c0.4,0,0.7-0.3,0.8-0.6c0-0.1,0-0.1,0-0.2V184z M81.1,180.9l-0.9,1
			h-0.4l0.6-1H81.1z"/>
		<path class="st4" d="M82.4,183.5c0-0.4,0-0.8,0-1.1h0.6l0,0.6h0c0.3-0.4,0.7-0.7,1.2-0.7c0.8,0,1.4,0.7,1.4,1.7
			c0,1.2-0.7,1.8-1.5,1.8c-0.4,0-0.8-0.2-1-0.5h0v1.8h-0.6V183.5z M83,184.4c0,0.1,0,0.2,0,0.3c0.1,0.4,0.5,0.7,0.9,0.7
			c0.7,0,1-0.5,1-1.3c0-0.7-0.4-1.3-1-1.3c-0.4,0-0.8,0.3-0.9,0.8c0,0.1,0,0.2,0,0.3V184.4z"/>
		<path class="st4" d="M87.9,183.5c0-0.4,0-0.8,0-1.1h0.6l0,0.6h0c0.3-0.4,0.7-0.7,1.2-0.7c0.8,0,1.4,0.7,1.4,1.7
			c0,1.2-0.7,1.8-1.5,1.8c-0.4,0-0.8-0.2-1-0.5h0v1.8h-0.6V183.5z M88.5,184.4c0,0.1,0,0.2,0,0.3c0.1,0.4,0.5,0.7,0.9,0.7
			c0.7,0,1-0.5,1-1.3c0-0.7-0.4-1.3-1-1.3c-0.4,0-0.8,0.3-0.9,0.8c0,0.1,0,0.2,0,0.3V184.4z"/>
		<path class="st4" d="M91.8,180.8h0.6v2.1h0c0.1-0.2,0.3-0.3,0.4-0.4c0.2-0.1,0.4-0.2,0.6-0.2c0.5,0,1.2,0.3,1.2,1.4v2h-0.6v-1.9
			c0-0.5-0.2-1-0.8-1c-0.4,0-0.7,0.3-0.8,0.6c0,0.1,0,0.2,0,0.3v2h-0.6V180.8z"/>
		<path class="st4" d="M97.6,185.8l0-0.4h0c-0.2,0.3-0.6,0.5-1,0.5c-0.7,0-1-0.5-1-1c0-0.8,0.7-1.3,2-1.3v-0.1
			c0-0.3-0.1-0.8-0.8-0.8c-0.3,0-0.6,0.1-0.9,0.3l-0.1-0.4c0.3-0.2,0.7-0.3,1.1-0.3c1,0,1.3,0.7,1.3,1.4v1.3c0,0.3,0,0.6,0.1,0.8
			H97.6z M97.1,180.9l0.6,1h-0.5l-0.4-0.7h0l-0.4,0.7H96l0.6-1H97.1z M97.5,184c-0.7,0-1.4,0.1-1.4,0.8c0,0.4,0.3,0.6,0.6,0.6
			c0.4,0,0.7-0.3,0.8-0.6c0-0.1,0-0.1,0-0.2V184z M97.7,180.3l0.4,0.9h-0.4l-0.7-0.9H97.7z"/>
		<path class="st4" d="M99.1,183.3c0-0.3,0-0.6,0-0.9h0.5l0,0.6h0c0.2-0.3,0.6-0.6,1.1-0.6c0.5,0,1.2,0.3,1.2,1.4v2h-0.6v-2
			c0-0.5-0.2-1-0.8-1c-0.4,0-0.7,0.3-0.8,0.6c0,0.1,0,0.2,0,0.3v2h-0.6V183.3z"/>
		<path class="st4" d="M104.5,183.3c0-0.3,0-0.6,0-0.9h0.5l0,0.5h0c0.2-0.3,0.5-0.6,1.1-0.6c0.5,0,0.8,0.3,1,0.7h0
			c0.1-0.2,0.2-0.3,0.4-0.4c0.2-0.2,0.4-0.2,0.8-0.2c0.4,0,1.1,0.3,1.1,1.5v2h-0.6v-1.9c0-0.7-0.2-1-0.7-1c-0.3,0-0.6,0.3-0.7,0.6
			c0,0.1,0,0.2,0,0.3v2.1h-0.6v-2c0-0.5-0.2-0.9-0.7-0.9c-0.4,0-0.7,0.3-0.8,0.6c0,0.1,0,0.2,0,0.3v2h-0.6V183.3z"/>
		<path class="st4" d="M110.7,184.2c0,0.8,0.5,1.2,1.2,1.2c0.4,0,0.7-0.1,0.9-0.2l0.1,0.4c-0.2,0.1-0.6,0.2-1.1,0.2
			c-1,0-1.7-0.7-1.7-1.7s0.6-1.8,1.6-1.8c1.1,0,1.4,1,1.4,1.6c0,0.1,0,0.2,0,0.3H110.7z M112.5,183.7c0-0.4-0.2-1-0.9-1
			c-0.6,0-0.9,0.6-0.9,1H112.5z M111.9,180.9l0.6,1H112l-0.4-0.7h0l-0.4,0.7h-0.4l0.6-1H111.9z M112.5,180.3l0.4,0.9h-0.4l-0.6-0.9
			H112.5z"/>
		<path class="st4" d="M113.8,183.3c0-0.3,0-0.6,0-0.9h0.5l0,0.5h0c0.2-0.3,0.5-0.6,1.1-0.6c0.5,0,0.8,0.3,1,0.7h0
			c0.1-0.2,0.2-0.3,0.4-0.4c0.2-0.2,0.4-0.2,0.7-0.2c0.4,0,1.1,0.3,1.1,1.5v2h-0.6v-1.9c0-0.7-0.2-1-0.7-1c-0.4,0-0.6,0.3-0.7,0.6
			c0,0.1,0,0.2,0,0.3v2.1h-0.6v-2c0-0.5-0.2-0.9-0.7-0.9c-0.4,0-0.7,0.3-0.8,0.6c0,0.1,0,0.2,0,0.3v2h-0.6V183.3z"/>
	</g>
	<g class="st5">
		<text transform="matrix(1 0 0 1 19.7079 177.8081)" class="st6 st7 st8">SixOs</text>
		<g class="st9">
			<path class="st0" d="M21.1,177.4c-0.2-2.5-0.3-4.5-0.5-6c1.3,0.6,2.5,1,3.5,1.2s1.9,0.3,2.7,0.3c1,0,1.8-0.1,2.4-0.4
				c0.6-0.3,0.9-0.7,0.9-1.3c0-0.2,0-0.4-0.1-0.6c-0.1-0.2-0.2-0.4-0.3-0.6s-0.4-0.5-0.7-0.7l-3.3-2.9c-0.8-0.7-1.3-1.1-1.6-1.4
				c-0.6-0.6-1.1-1.2-1.5-1.7c-0.3-0.5-0.6-1-0.8-1.6c-0.2-0.5-0.2-1.1-0.2-1.7c0-0.7,0.1-1.4,0.4-2.1s0.6-1.3,1.1-1.9
				s1.2-1.1,2-1.5s1.7-0.7,2.7-0.9s1.9-0.2,2.9-0.2c2,0,4.1,0.2,6.5,0.7c0,0.8,0.1,1.5,0.1,2.2s0.2,1.9,0.3,3.5
				c-1.1-0.4-2.1-0.7-3-0.9s-1.7-0.3-2.3-0.3c-0.9,0-1.7,0.2-2.3,0.5s-0.9,0.8-0.9,1.3c0,0.2,0,0.5,0.1,0.7s0.3,0.5,0.5,0.8
				s0.6,0.6,1,1s1.1,0.9,2,1.6l1.3,1c0.4,0.3,0.8,0.7,1.2,1.1s0.8,0.9,1.1,1.3s0.6,0.8,0.7,1.2s0.3,0.7,0.4,1.1s0.1,0.7,0.1,1.2
				c0,1.1-0.3,2.1-0.8,3s-1.2,1.7-2.1,2.4s-1.9,1-3,1.3c-1.1,0.2-2.3,0.4-3.5,0.4C26.4,178.2,24,177.9,21.1,177.4z"/>
			<path class="st0" d="M42,157.6c0.1-1.4,0.1-2.5,0.1-3.3c0-0.2,0-0.6,0-0.9c1.4,0,2.6,0,3.6,0c1.3,0,2.5,0,3.5,0
				c0,0.4-0.1,0.7-0.1,0.9l-0.1,2.2c0,0.3,0,0.7,0,1.2c-1.2,0-2.3,0-3.3,0C44.5,157.5,43.3,157.5,42,157.6z M40.9,177.8
				c0.2-1.4,0.3-2.6,0.4-3.5c0.1-0.9,0.2-2.1,0.2-3.6s0.1-3,0.2-4.8s0.1-3.8,0.1-6.1c1.5,0,2.7,0,3.7,0c0.8,0,2,0,3.6,0
				c-0.2,2.2-0.3,4.2-0.4,5.8s-0.1,3.5-0.2,5.3c0,3.3-0.1,5.6-0.1,6.8c-1.4,0-2.6,0-3.6,0C43.8,177.7,42.5,177.7,40.9,177.8z"/>
			<path class="st0" d="M50.4,177.8l4-5.3l3-4.1l-5.5-8.5c1.7,0,3.2,0,4.4,0c1.5,0,2.8,0,3.8,0l1.9,4c0.1,0.2,0.3,0.6,0.5,1.1
				c0.9-1.5,2-3.3,3.2-5.2c1,0,2.3,0,3.7,0c1.3,0,2.6,0,3.8,0l-2.8,3.7c-0.6,0.7-1.7,2.3-3.5,4.8c1.1,1.9,3,5,5.9,9.5
				c-1.3,0-2.6,0-3.9,0c-1.6,0-3,0-4.2,0c-0.8-1.6-1.3-2.9-1.7-3.6s-0.7-1.5-1-2.2l-0.6,1c-0.2,0.3-0.4,0.7-0.8,1.3l-2.2,3.5
				c-1.3,0-2.5,0-3.7,0C53.2,177.7,51.8,177.7,50.4,177.8z"/>
			<path class="st0" d="M89.5,158.6c-1.3,0-2.6,0.3-3.7,1s-1.9,1.6-2.5,2.8s-0.9,2.4-0.9,3.8c0,1.2,0.3,2.4,0.8,3.4s1.3,1.8,2.4,2.4
				s2.2,0.9,3.5,0.9c1.3,0,2.5-0.3,3.6-1s1.9-1.6,2.5-2.7s0.9-2.4,0.9-3.7c0-1.3-0.3-2.4-0.8-3.5s-1.3-1.9-2.3-2.5
				S90.8,158.6,89.5,158.6z M89.9,153.3c1.9,0,3.7,0.3,5.4,0.8s3.3,1.3,4.6,2.4s2.3,2.4,2.9,3.8s1,3.1,1,5c0,2-0.4,3.8-1.1,5.4
				s-1.7,3-3.1,4.2s-2.9,2-4.8,2.5s-3.8,0.8-5.8,0.8c-2,0-3.9-0.3-5.7-0.8s-3.4-1.4-4.7-2.5s-2.3-2.5-2.9-3.9s-0.8-3-0.8-4.8
				c0-2.6,0.6-4.8,1.8-6.8s3-3.5,5.3-4.5S86.9,153.3,89.9,153.3z"/>
			<path class="st0" d="M106.2,177.4c0-0.5-0.1-1.1-0.1-1.6s-0.1-1.4-0.2-2.3l-0.1-1.3c1.1,0.4,2.1,0.8,2.9,1s1.6,0.3,2.3,0.3
				c0.6,0,1-0.1,1.4-0.2c0.4-0.1,0.6-0.3,0.8-0.5c0.2-0.2,0.2-0.4,0.2-0.6c0-0.2-0.1-0.4-0.2-0.6c-0.1-0.2-0.4-0.4-0.8-0.7
				c-1-0.7-1.8-1.3-2.5-1.9s-1.3-1.1-1.6-1.5c-0.4-0.4-0.6-0.9-0.8-1.4c-0.2-0.5-0.3-1-0.3-1.6c0-1,0.3-1.9,0.8-2.7s1.4-1.5,2.5-1.8
				s2.4-0.6,4-0.6c1.6,0,3.7,0.2,6.2,0.6l0.3,4.9c-1.4-0.6-2.8-0.8-4.1-0.8c-0.9,0-1.6,0.1-2,0.3s-0.6,0.5-0.6,0.9
				c0,0.1,0,0.3,0.1,0.4s0.1,0.2,0.3,0.4s0.3,0.3,0.5,0.4s0.6,0.4,1.3,0.9s1.3,0.9,1.7,1.2c0.7,0.5,1.2,1,1.5,1.4s0.6,0.9,0.8,1.4
				s0.3,1,0.3,1.6c0,0.8-0.2,1.6-0.6,2.3s-1,1.3-1.8,1.7s-1.7,0.8-2.6,1s-1.9,0.3-2.9,0.3c-0.7,0-1.5-0.1-2.6-0.2
				S107.5,177.7,106.2,177.4z"/>
		</g>
		<g class="st10">
			<path class="st0" d="M21,177.3c-0.2-2.5-0.3-4.5-0.5-6c1.3,0.6,2.5,1,3.5,1.2s1.9,0.3,2.7,0.3c1,0,1.8-0.1,2.4-0.4
				c0.6-0.3,0.9-0.7,0.9-1.3c0-0.2,0-0.4-0.1-0.6c-0.1-0.2-0.2-0.4-0.3-0.6s-0.4-0.5-0.7-0.7l-3.3-2.9c-0.8-0.7-1.3-1.1-1.6-1.4
				c-0.6-0.6-1.1-1.2-1.5-1.7c-0.3-0.5-0.6-1-0.8-1.6c-0.2-0.5-0.2-1.1-0.2-1.7c0-0.7,0.1-1.4,0.4-2.1s0.6-1.3,1.1-1.9
				s1.2-1.1,2-1.5s1.7-0.7,2.7-0.9s1.9-0.2,2.9-0.2c2,0,4.1,0.2,6.5,0.7c0,0.8,0.1,1.5,0.1,2.2s0.2,1.9,0.3,3.5
				c-1.1-0.4-2.1-0.7-3-0.9s-1.7-0.3-2.3-0.3c-0.9,0-1.7,0.2-2.3,0.5s-0.9,0.8-0.9,1.3c0,0.2,0,0.5,0.1,0.7s0.3,0.5,0.5,0.8
				s0.6,0.6,1,1s1.1,0.9,2,1.6l1.3,1c0.4,0.3,0.8,0.7,1.2,1.1s0.8,0.9,1.1,1.3s0.6,0.8,0.7,1.2s0.3,0.7,0.4,1.1s0.1,0.7,0.1,1.2
				c0,1.1-0.3,2.1-0.8,3s-1.2,1.7-2.1,2.4s-1.9,1-3,1.3s-2.3,0.4-3.5,0.4C26.3,178.2,23.9,177.9,21,177.3z"/>
			<path class="st0" d="M41.9,157.5c0.1-1.4,0.1-2.5,0.1-3.3c0-0.2,0-0.6,0-0.9c1.4,0,2.6,0,3.6,0c1.3,0,2.5,0,3.5,0
				c0,0.4-0.1,0.7-0.1,0.9l-0.1,2.2c0,0.3,0,0.7,0,1.2c-1.2,0-2.3,0-3.3,0C44.4,157.5,43.2,157.5,41.9,157.5z M40.8,177.7
				c0.2-1.4,0.3-2.6,0.4-3.5c0.1-0.9,0.2-2.1,0.2-3.6s0.1-3,0.2-4.8s0.1-3.8,0.1-6.1c1.5,0,2.7,0,3.7,0c0.8,0,2,0,3.6,0
				c-0.2,2.2-0.3,4.2-0.4,5.8s-0.1,3.5-0.2,5.3c0,3.3-0.1,5.6-0.1,6.8c-1.4,0-2.6,0-3.6,0C43.7,177.7,42.4,177.7,40.8,177.7z"/>
			<path class="st0" d="M50.2,177.7l4-5.3l3-4.1l-5.5-8.5c1.7,0,3.2,0,4.4,0c1.5,0,2.8,0,3.8,0l1.9,4c0.1,0.2,0.3,0.6,0.5,1.1
				c0.9-1.5,2-3.3,3.2-5.2c1,0,2.3,0,3.7,0c1.3,0,2.6,0,3.8,0l-2.8,3.7c-0.6,0.7-1.7,2.3-3.5,4.8c1.1,1.9,3,5,5.9,9.5
				c-1.3,0-2.6,0-3.9,0c-1.6,0-3,0-4.2,0c-0.8-1.6-1.3-2.9-1.7-3.6s-0.7-1.5-1-2.2l-0.6,1c-0.2,0.3-0.4,0.7-0.8,1.3l-2.2,3.5
				c-1.3,0-2.5,0-3.7,0C53.1,177.7,51.7,177.7,50.2,177.7z"/>
			<path class="st0" d="M89.4,158.6c-1.3,0-2.6,0.3-3.7,1s-1.9,1.6-2.5,2.8s-0.9,2.4-0.9,3.8c0,1.2,0.3,2.4,0.8,3.4s1.3,1.8,2.4,2.4
				s2.2,0.9,3.5,0.9c1.3,0,2.5-0.3,3.6-1s1.9-1.6,2.5-2.7s0.9-2.4,0.9-3.7c0-1.3-0.3-2.4-0.8-3.5s-1.3-1.9-2.3-2.5
				S90.7,158.6,89.4,158.6z M89.7,153.3c1.9,0,3.7,0.3,5.4,0.8s3.3,1.3,4.6,2.4s2.3,2.4,2.9,3.8s1,3.1,1,5c0,2-0.4,3.8-1.1,5.4
				s-1.7,3-3.1,4.2s-2.9,2-4.8,2.5s-3.8,0.8-5.8,0.8c-2,0-3.9-0.3-5.7-0.8s-3.4-1.4-4.7-2.5s-2.3-2.5-2.9-3.9s-0.8-3-0.8-4.8
				c0-2.6,0.6-4.8,1.8-6.8s3-3.5,5.3-4.5S86.8,153.3,89.7,153.3z"/>
			<path class="st0" d="M106.1,177.4c0-0.5-0.1-1.1-0.1-1.6s-0.1-1.4-0.2-2.3l-0.1-1.3c1.1,0.4,2.1,0.8,2.9,1s1.6,0.3,2.3,0.3
				c0.6,0,1-0.1,1.4-0.2c0.4-0.1,0.6-0.3,0.8-0.5c0.2-0.2,0.2-0.4,0.2-0.6c0-0.2-0.1-0.4-0.2-0.6c-0.1-0.2-0.4-0.4-0.8-0.7
				c-1-0.7-1.8-1.3-2.5-1.9s-1.3-1.1-1.6-1.5c-0.4-0.4-0.6-0.9-0.8-1.4c-0.2-0.5-0.3-1-0.3-1.6c0-1,0.3-1.9,0.8-2.7s1.4-1.5,2.5-1.8
				s2.4-0.6,4-0.6c1.6,0,3.7,0.2,6.2,0.6l0.3,4.9c-1.4-0.6-2.8-0.8-4.1-0.8c-0.9,0-1.6,0.1-2,0.3s-0.6,0.5-0.6,0.9
				c0,0.1,0,0.3,0.1,0.4s0.1,0.2,0.3,0.4s0.3,0.3,0.5,0.4s0.6,0.4,1.3,0.9s1.3,0.9,1.7,1.2c0.7,0.5,1.2,1,1.5,1.4s0.6,0.9,0.8,1.4
				s0.3,1,0.3,1.6c0,0.8-0.2,1.6-0.6,2.3s-1,1.3-1.8,1.7s-1.7,0.8-2.6,1s-1.9,0.3-2.9,0.3c-0.7,0-1.5-0.1-2.6-0.2
				S107.4,177.7,106.1,177.4z"/>
		</g>
		<g class="st11">
			<path class="st0" d="M20.9,177.3c-0.2-2.5-0.3-4.5-0.5-6c1.3,0.6,2.5,1,3.5,1.2s1.9,0.3,2.7,0.3c1,0,1.8-0.1,2.4-0.4
				c0.6-0.3,0.9-0.7,0.9-1.3c0-0.2,0-0.4-0.1-0.6c-0.1-0.2-0.2-0.4-0.3-0.6s-0.4-0.5-0.7-0.7l-3.3-2.9c-0.8-0.7-1.3-1.1-1.6-1.4
				c-0.6-0.6-1.1-1.2-1.5-1.7c-0.3-0.5-0.6-1-0.8-1.6c-0.2-0.5-0.2-1.1-0.2-1.7c0-0.7,0.1-1.4,0.4-2.1s0.6-1.3,1.1-1.9
				s1.2-1.1,2-1.5s1.7-0.7,2.7-0.9s1.9-0.2,2.9-0.2c2,0,4.1,0.2,6.5,0.7c0,0.8,0.1,1.5,0.1,2.2s0.2,1.9,0.3,3.5
				c-1.1-0.4-2.1-0.7-3-0.9s-1.7-0.3-2.3-0.3c-0.9,0-1.7,0.2-2.3,0.5s-0.9,0.8-0.9,1.3c0,0.2,0,0.5,0.1,0.7s0.3,0.5,0.5,0.8
				s0.6,0.6,1,1s1.1,0.9,2,1.6l1.3,1c0.4,0.3,0.8,0.7,1.2,1.1s0.8,0.9,1.1,1.3s0.6,0.8,0.7,1.2s0.3,0.7,0.4,1.1s0.1,0.7,0.1,1.2
				c0,1.1-0.3,2.1-0.8,3s-1.2,1.7-2.1,2.4s-1.9,1-3,1.3c-1.1,0.2-2.3,0.4-3.5,0.4C26.2,178.1,23.8,177.9,20.9,177.3z"/>
			<path class="st0" d="M41.8,157.5c0.1-1.4,0.1-2.5,0.1-3.3c0-0.2,0-0.6,0-0.9c1.4,0,2.6,0,3.6,0c1.3,0,2.5,0,3.5,0
				c0,0.4-0.1,0.7-0.1,0.9l-0.1,2.2c0,0.3,0,0.7,0,1.2c-1.2,0-2.3,0-3.3,0C44.3,157.4,43.1,157.5,41.8,157.5z M40.7,177.7
				c0.2-1.4,0.3-2.6,0.4-3.5c0.1-0.9,0.2-2.1,0.2-3.6s0.1-3,0.2-4.8s0.1-3.8,0.1-6.1c1.5,0,2.7,0,3.7,0c0.8,0,2,0,3.6,0
				c-0.2,2.2-0.3,4.2-0.4,5.8s-0.1,3.5-0.2,5.3c0,3.3-0.1,5.6-0.1,6.8c-1.4,0-2.6,0-3.6,0C43.6,177.6,42.3,177.7,40.7,177.7z"/>
			<path class="st0" d="M50.1,177.7l4-5.3l3-4.1l-5.5-8.5c1.7,0,3.2,0,4.4,0c1.5,0,2.8,0,3.8,0l1.9,4c0.1,0.2,0.3,0.6,0.5,1.1
				c0.9-1.5,2-3.3,3.2-5.2c1,0,2.3,0,3.7,0c1.3,0,2.6,0,3.8,0l-2.8,3.7c-0.6,0.7-1.7,2.3-3.5,4.8c1.1,1.9,3,5,5.9,9.5
				c-1.3,0-2.6,0-3.9,0c-1.6,0-3,0-4.2,0c-0.8-1.6-1.3-2.9-1.7-3.6s-0.7-1.5-1-2.2l-0.6,1c-0.2,0.3-0.4,0.7-0.8,1.3l-2.2,3.5
				c-1.3,0-2.5,0-3.7,0C52.9,177.6,51.5,177.7,50.1,177.7z"/>
			<path class="st0" d="M89.3,158.5c-1.3,0-2.6,0.3-3.7,1s-1.9,1.6-2.5,2.8s-0.9,2.4-0.9,3.8c0,1.2,0.3,2.4,0.8,3.4s1.3,1.8,2.4,2.4
				s2.2,0.9,3.5,0.9c1.3,0,2.5-0.3,3.6-1s1.9-1.6,2.5-2.7s0.9-2.4,0.9-3.7c0-1.3-0.3-2.4-0.8-3.5s-1.3-1.9-2.3-2.5
				S90.6,158.5,89.3,158.5z M89.6,153.2c1.9,0,3.7,0.3,5.4,0.8s3.3,1.3,4.6,2.4s2.3,2.4,2.9,3.8s1,3.1,1,5c0,2-0.4,3.8-1.1,5.4
				s-1.7,3-3.1,4.2s-2.9,2-4.8,2.5s-3.8,0.8-5.8,0.8c-2,0-3.9-0.3-5.7-0.8s-3.4-1.4-4.7-2.5s-2.3-2.5-2.9-3.9s-0.8-3-0.8-4.8
				c0-2.6,0.6-4.8,1.8-6.8s3-3.5,5.3-4.5S86.7,153.2,89.6,153.2z"/>
			<path class="st0" d="M105.9,177.3c0-0.5-0.1-1.1-0.1-1.6s-0.1-1.4-0.2-2.3l-0.1-1.3c1.1,0.4,2.1,0.8,2.9,1s1.6,0.3,2.3,0.3
				c0.6,0,1-0.1,1.4-0.2c0.4-0.1,0.6-0.3,0.8-0.5c0.2-0.2,0.2-0.4,0.2-0.6c0-0.2-0.1-0.4-0.2-0.6c-0.1-0.2-0.4-0.4-0.8-0.7
				c-1-0.7-1.8-1.3-2.5-1.9s-1.3-1.1-1.6-1.5c-0.4-0.4-0.6-0.9-0.8-1.4c-0.2-0.5-0.3-1-0.3-1.6c0-1,0.3-1.9,0.8-2.7s1.4-1.5,2.5-1.8
				s2.4-0.6,4-0.6c1.6,0,3.7,0.2,6.2,0.6l0.3,4.9c-1.4-0.6-2.8-0.8-4.1-0.8c-0.9,0-1.6,0.1-2,0.3s-0.6,0.5-0.6,0.9
				c0,0.1,0,0.3,0.1,0.4s0.1,0.2,0.3,0.4s0.3,0.3,0.5,0.4s0.6,0.4,1.3,0.9s1.3,0.9,1.7,1.2c0.7,0.5,1.2,1,1.5,1.4s0.6,0.9,0.8,1.4
				s0.3,1,0.3,1.6c0,0.8-0.2,1.6-0.6,2.3s-1,1.3-1.8,1.7s-1.7,0.8-2.6,1s-1.9,0.3-2.9,0.3c-0.7,0-1.5-0.1-2.6-0.2
				S107.3,177.6,105.9,177.3z"/>
		</g>
		<g class="st12">
			<path class="st0" d="M20.8,177.3c-0.2-2.5-0.3-4.5-0.5-6c1.3,0.6,2.5,1,3.5,1.2s1.9,0.3,2.7,0.3c1,0,1.8-0.1,2.4-0.4
				c0.6-0.3,0.9-0.7,0.9-1.3c0-0.2,0-0.4-0.1-0.6c-0.1-0.2-0.2-0.4-0.3-0.6s-0.4-0.5-0.7-0.7l-3.3-2.9c-0.8-0.7-1.3-1.1-1.6-1.4
				c-0.6-0.6-1.1-1.2-1.5-1.7c-0.3-0.5-0.6-1-0.8-1.6c-0.2-0.5-0.2-1.1-0.2-1.7c0-0.7,0.1-1.4,0.4-2.1s0.6-1.3,1.1-1.9
				s1.2-1.1,2-1.5s1.7-0.7,2.7-0.9s1.9-0.2,2.9-0.2c2,0,4.1,0.2,6.5,0.7c0,0.8,0.1,1.5,0.1,2.2s0.2,1.9,0.3,3.5
				c-1.1-0.4-2.1-0.7-3-0.9s-1.7-0.3-2.3-0.3c-0.9,0-1.7,0.2-2.3,0.5s-0.9,0.8-0.9,1.3c0,0.2,0,0.5,0.1,0.7s0.3,0.5,0.5,0.8
				s0.6,0.6,1,1s1.1,0.9,2,1.6l1.3,1c0.4,0.3,0.8,0.7,1.2,1.1s0.8,0.9,1.1,1.3s0.6,0.8,0.7,1.2s0.3,0.7,0.4,1.1s0.1,0.7,0.1,1.2
				c0,1.1-0.3,2.1-0.8,3s-1.2,1.7-2.1,2.4s-1.9,1-3,1.3s-2.3,0.4-3.5,0.4C26.1,178.1,23.7,177.8,20.8,177.3z"/>
			<path class="st0" d="M41.7,157.4c0.1-1.4,0.1-2.5,0.1-3.3c0-0.2,0-0.6,0-0.9c1.4,0,2.6,0,3.6,0c1.3,0,2.5,0,3.5,0
				c0,0.4-0.1,0.7-0.1,0.9l-0.1,2.2c0,0.3,0,0.7,0,1.2c-1.2,0-2.3,0-3.3,0C44.2,157.4,43,157.4,41.7,157.4z M40.6,177.6
				c0.2-1.4,0.3-2.6,0.4-3.5c0.1-0.9,0.2-2.1,0.2-3.6s0.1-3,0.2-4.8s0.1-3.8,0.1-6.1c1.5,0,2.7,0,3.7,0c0.8,0,2,0,3.6,0
				c-0.2,2.2-0.3,4.2-0.4,5.8s-0.1,3.5-0.2,5.3c0,3.3-0.1,5.6-0.1,6.8c-1.4,0-2.6,0-3.6,0C43.5,177.6,42.2,177.6,40.6,177.6z"/>
			<path class="st0" d="M50,177.6l4-5.3l3-4.1l-5.5-8.5c1.7,0,3.2,0,4.4,0c1.5,0,2.8,0,3.8,0l1.9,4c0.1,0.2,0.3,0.6,0.5,1.1
				c0.9-1.5,2-3.3,3.2-5.2c1,0,2.3,0,3.7,0c1.3,0,2.6,0,3.8,0l-2.8,3.7c-0.6,0.7-1.7,2.3-3.5,4.8c1.1,1.9,3,5,5.9,9.5
				c-1.3,0-2.6,0-3.9,0c-1.6,0-3,0-4.2,0c-0.8-1.6-1.3-2.9-1.7-3.6s-0.7-1.5-1-2.2l-0.6,1c-0.2,0.3-0.4,0.7-0.8,1.3l-2.2,3.5
				c-1.3,0-2.5,0-3.7,0C52.8,177.6,51.4,177.6,50,177.6z"/>
			<path class="st0" d="M89.2,158.5c-1.3,0-2.6,0.3-3.7,1s-1.9,1.6-2.5,2.8s-0.9,2.4-0.9,3.8c0,1.2,0.3,2.4,0.8,3.4s1.3,1.8,2.4,2.4
				s2.2,0.9,3.5,0.9c1.3,0,2.5-0.3,3.6-1s1.9-1.6,2.5-2.7s0.9-2.4,0.9-3.7c0-1.3-0.3-2.4-0.8-3.5s-1.3-1.9-2.3-2.5
				S90.5,158.5,89.2,158.5z M89.5,153.2c1.9,0,3.7,0.3,5.4,0.8s3.3,1.3,4.6,2.4s2.3,2.4,2.9,3.8s1,3.1,1,5c0,2-0.4,3.8-1.1,5.4
				s-1.7,3-3.1,4.2s-2.9,2-4.8,2.5s-3.8,0.8-5.8,0.8c-2,0-3.9-0.3-5.7-0.8s-3.4-1.4-4.7-2.5s-2.3-2.5-2.9-3.9s-0.8-3-0.8-4.8
				c0-2.6,0.6-4.8,1.8-6.8s3-3.5,5.3-4.5S86.6,153.2,89.5,153.2z"/>
			<path class="st0" d="M105.8,177.3c0-0.5-0.1-1.1-0.1-1.6s-0.1-1.4-0.2-2.3l-0.1-1.3c1.1,0.4,2.1,0.8,2.9,1s1.6,0.3,2.3,0.3
				c0.6,0,1-0.1,1.4-0.2c0.4-0.1,0.6-0.3,0.8-0.5c0.2-0.2,0.2-0.4,0.2-0.6c0-0.2-0.1-0.4-0.2-0.6c-0.1-0.2-0.4-0.4-0.8-0.7
				c-1-0.7-1.8-1.3-2.5-1.9s-1.3-1.1-1.6-1.5c-0.4-0.4-0.6-0.9-0.8-1.4c-0.2-0.5-0.3-1-0.3-1.6c0-1,0.3-1.9,0.8-2.7s1.4-1.5,2.5-1.8
				s2.4-0.6,4-0.6c1.6,0,3.7,0.2,6.2,0.6l0.3,4.9c-1.4-0.6-2.8-0.8-4.1-0.8c-0.9,0-1.6,0.1-2,0.3s-0.6,0.5-0.6,0.9
				c0,0.1,0,0.3,0.1,0.4s0.1,0.2,0.3,0.4s0.3,0.3,0.5,0.4s0.6,0.4,1.3,0.9s1.3,0.9,1.7,1.2c0.7,0.5,1.2,1,1.5,1.4s0.6,0.9,0.8,1.4
				s0.3,1,0.3,1.6c0,0.8-0.2,1.6-0.6,2.3s-1,1.3-1.8,1.7s-1.7,0.8-2.6,1s-1.9,0.3-2.9,0.3c-0.7,0-1.5-0.1-2.6-0.2
				S107.2,177.6,105.8,177.3z"/>
		</g>
		<g class="st13">
			<path class="st0" d="M20.7,177.2c-0.2-2.5-0.3-4.5-0.5-6c1.3,0.6,2.5,1,3.5,1.2s1.9,0.3,2.7,0.3c1,0,1.8-0.1,2.4-0.4
				c0.6-0.3,0.9-0.7,0.9-1.3c0-0.2,0-0.4-0.1-0.6c-0.1-0.2-0.2-0.4-0.3-0.6s-0.4-0.5-0.7-0.7l-3.3-2.9c-0.8-0.7-1.3-1.1-1.6-1.4
				c-0.6-0.6-1.1-1.2-1.5-1.7c-0.3-0.5-0.6-1-0.8-1.6c-0.2-0.5-0.2-1.1-0.2-1.7c0-0.7,0.1-1.4,0.4-2.1s0.6-1.3,1.1-1.9
				s1.2-1.1,2-1.5s1.7-0.7,2.7-0.9s1.9-0.2,2.9-0.2c2,0,4.1,0.2,6.5,0.7c0,0.8,0.1,1.5,0.1,2.2s0.2,1.9,0.3,3.5
				c-1.1-0.4-2.1-0.7-3-0.9s-1.7-0.3-2.3-0.3c-0.9,0-1.7,0.2-2.3,0.5s-0.9,0.8-0.9,1.3c0,0.2,0,0.5,0.1,0.7s0.3,0.5,0.5,0.8
				s0.6,0.6,1,1s1.1,0.9,2,1.6l1.3,1c0.4,0.3,0.8,0.7,1.2,1.1s0.8,0.9,1.1,1.3s0.6,0.8,0.7,1.2s0.3,0.7,0.4,1.1s0.1,0.7,0.1,1.2
				c0,1.1-0.3,2.1-0.8,3s-1.2,1.7-2.1,2.4s-1.9,1-3,1.3c-1.1,0.2-2.3,0.4-3.5,0.4C26,178,23.6,177.8,20.7,177.2z"/>
			<path class="st0" d="M41.6,157.4c0.1-1.4,0.1-2.5,0.1-3.3c0-0.2,0-0.6,0-0.9c1.4,0,2.6,0,3.6,0c1.3,0,2.5,0,3.5,0
				c0,0.4-0.1,0.7-0.1,0.9l-0.1,2.2c0,0.3,0,0.7,0,1.2c-1.2,0-2.3,0-3.3,0C44,157.4,42.9,157.4,41.6,157.4z M40.5,177.6
				c0.2-1.4,0.3-2.6,0.4-3.5c0.1-0.9,0.2-2.1,0.2-3.6s0.1-3,0.2-4.8s0.1-3.8,0.1-6.1c1.5,0,2.7,0,3.7,0c0.8,0,2,0,3.6,0
				c-0.2,2.2-0.3,4.2-0.4,5.8s-0.1,3.5-0.2,5.3c0,3.3-0.1,5.6-0.1,6.8c-1.4,0-2.6,0-3.6,0C43.4,177.5,42.1,177.6,40.5,177.6z"/>
			<path class="st0" d="M49.9,177.6l4-5.3l3-4.1l-5.5-8.5c1.7,0,3.2,0,4.4,0c1.5,0,2.8,0,3.8,0l1.9,4c0.1,0.2,0.3,0.6,0.5,1.1
				c0.9-1.5,2-3.3,3.2-5.2c1,0,2.3,0,3.7,0c1.3,0,2.6,0,3.8,0l-2.8,3.7c-0.6,0.7-1.7,2.3-3.5,4.8c1.1,1.9,3,5,5.9,9.5
				c-1.3,0-2.6,0-3.9,0c-1.6,0-3,0-4.2,0c-0.8-1.6-1.3-2.9-1.7-3.6s-0.7-1.5-1-2.2l-0.6,1c-0.2,0.3-0.4,0.7-0.8,1.3l-2.2,3.5
				c-1.3,0-2.5,0-3.7,0C52.7,177.5,51.3,177.6,49.9,177.6z"/>
			<path class="st0" d="M89.1,158.4c-1.3,0-2.6,0.3-3.7,1s-1.9,1.6-2.5,2.8S82,164.6,82,166c0,1.2,0.3,2.4,0.8,3.4s1.3,1.8,2.4,2.4
				s2.2,0.9,3.5,0.9c1.3,0,2.5-0.3,3.6-1s1.9-1.6,2.5-2.7s0.9-2.4,0.9-3.7c0-1.3-0.3-2.4-0.8-3.5s-1.3-1.9-2.3-2.5
				S90.4,158.4,89.1,158.4z M89.4,153.1c1.9,0,3.7,0.3,5.4,0.8s3.3,1.3,4.6,2.4s2.3,2.4,2.9,3.8s1,3.1,1,5c0,2-0.4,3.8-1.1,5.4
				s-1.7,3-3.1,4.2s-2.9,2-4.8,2.5s-3.8,0.8-5.8,0.8c-2,0-3.9-0.3-5.7-0.8s-3.4-1.4-4.7-2.5s-2.3-2.5-2.9-3.9s-0.8-3-0.8-4.8
				c0-2.6,0.6-4.8,1.8-6.8s3-3.5,5.3-4.5S86.5,153.1,89.4,153.1z"/>
			<path class="st0" d="M105.7,177.3c0-0.5-0.1-1.1-0.1-1.6s-0.1-1.4-0.2-2.3l-0.1-1.3c1.1,0.4,2.1,0.8,2.9,1s1.6,0.3,2.3,0.3
				c0.6,0,1-0.1,1.4-0.2c0.4-0.1,0.6-0.3,0.8-0.5c0.2-0.2,0.2-0.4,0.2-0.6c0-0.2-0.1-0.4-0.2-0.6c-0.1-0.2-0.4-0.4-0.8-0.7
				c-1-0.7-1.8-1.3-2.5-1.9s-1.3-1.1-1.6-1.5c-0.4-0.4-0.6-0.9-0.8-1.4c-0.2-0.5-0.3-1-0.3-1.6c0-1,0.3-1.9,0.8-2.7s1.4-1.5,2.5-1.8
				s2.4-0.6,4-0.6c1.6,0,3.7,0.2,6.2,0.6l0.3,4.9c-1.4-0.6-2.8-0.8-4.1-0.8c-0.9,0-1.6,0.1-2,0.3s-0.6,0.5-0.6,0.9
				c0,0.1,0,0.3,0.1,0.4s0.1,0.2,0.3,0.4s0.3,0.3,0.5,0.4s0.6,0.4,1.3,0.9s1.3,0.9,1.7,1.2c0.7,0.5,1.2,1,1.5,1.4s0.6,0.9,0.8,1.4
				s0.3,1,0.3,1.6c0,0.8-0.2,1.6-0.6,2.3s-1,1.3-1.8,1.7s-1.7,0.8-2.6,1s-1.9,0.3-2.9,0.3c-0.7,0-1.5-0.1-2.6-0.2
				S107.1,177.5,105.7,177.3z"/>
		</g>
		<g class="st14">
			<path class="st0" d="M20.5,177.2c-0.2-2.5-0.3-4.5-0.5-6c1.3,0.6,2.5,1,3.5,1.2s1.9,0.3,2.7,0.3c1,0,1.8-0.1,2.4-0.4
				c0.6-0.3,0.9-0.7,0.9-1.3c0-0.2,0-0.4-0.1-0.6c-0.1-0.2-0.2-0.4-0.3-0.6s-0.4-0.5-0.7-0.7l-3.3-2.9c-0.8-0.7-1.3-1.1-1.6-1.4
				c-0.6-0.6-1.1-1.2-1.5-1.7c-0.3-0.5-0.6-1-0.8-1.6c-0.2-0.5-0.2-1.1-0.2-1.7c0-0.7,0.1-1.4,0.4-2.1s0.6-1.3,1.1-1.9
				s1.2-1.1,2-1.5s1.7-0.7,2.7-0.9s1.9-0.2,2.9-0.2c2,0,4.1,0.2,6.5,0.7c0,0.8,0.1,1.5,0.1,2.2s0.2,1.9,0.3,3.5
				c-1.1-0.4-2.1-0.7-3-0.9s-1.7-0.3-2.3-0.3c-0.9,0-1.7,0.2-2.3,0.5s-0.9,0.8-0.9,1.3c0,0.2,0,0.5,0.1,0.7s0.3,0.5,0.5,0.8
				s0.6,0.6,1,1s1.1,0.9,2,1.6l1.3,1c0.4,0.3,0.8,0.7,1.2,1.1s0.8,0.9,1.1,1.3s0.6,0.8,0.7,1.2s0.3,0.7,0.4,1.1s0.1,0.7,0.1,1.2
				c0,1.1-0.3,2.1-0.8,3s-1.2,1.7-2.1,2.4s-1.9,1-3,1.3S29,178,27.7,178C25.8,178,23.4,177.7,20.5,177.2z"/>
			<path class="st0" d="M41.4,157.3c0.1-1.4,0.1-2.5,0.1-3.3c0-0.2,0-0.6,0-0.9c1.4,0,2.6,0,3.6,0c1.3,0,2.5,0,3.5,0
				c0,0.4-0.1,0.7-0.1,0.9l-0.1,2.2c0,0.3,0,0.7,0,1.2c-1.2,0-2.3,0-3.3,0C43.9,157.3,42.7,157.3,41.4,157.3z M40.3,177.5
				c0.2-1.4,0.3-2.6,0.4-3.5c0.1-0.9,0.2-2.1,0.2-3.6s0.1-3,0.2-4.8s0.1-3.8,0.1-6.1c1.5,0,2.7,0,3.7,0c0.8,0,2,0,3.6,0
				c-0.2,2.2-0.3,4.2-0.4,5.8s-0.1,3.5-0.2,5.3c0,3.3-0.1,5.6-0.1,6.8c-1.4,0-2.6,0-3.6,0C43.3,177.5,42,177.5,40.3,177.5z"/>
			<path class="st0" d="M49.8,177.5l4-5.3l3-4.1l-5.5-8.5c1.7,0,3.2,0,4.4,0c1.5,0,2.8,0,3.8,0l1.9,4c0.1,0.2,0.3,0.6,0.5,1.1
				c0.9-1.5,2-3.3,3.2-5.2c1,0,2.3,0,3.7,0c1.3,0,2.6,0,3.8,0l-2.8,3.7c-0.6,0.7-1.7,2.3-3.5,4.8c1.1,1.9,3,5,5.9,9.5
				c-1.3,0-2.6,0-3.9,0c-1.6,0-3,0-4.2,0c-0.8-1.6-1.3-2.9-1.7-3.6s-0.7-1.5-1-2.2l-0.6,1c-0.2,0.3-0.4,0.7-0.8,1.3l-2.2,3.5
				c-1.3,0-2.5,0-3.7,0C52.6,177.5,51.2,177.5,49.8,177.5z"/>
			<path class="st0" d="M89,158.4c-1.3,0-2.6,0.3-3.7,1s-1.9,1.6-2.5,2.8s-0.9,2.4-0.9,3.8c0,1.2,0.3,2.4,0.8,3.4s1.3,1.8,2.4,2.4
				s2.2,0.9,3.5,0.9c1.3,0,2.5-0.3,3.6-1s1.9-1.6,2.5-2.7s0.9-2.4,0.9-3.7c0-1.3-0.3-2.4-0.8-3.5s-1.3-1.9-2.3-2.5
				S90.2,158.4,89,158.4z M89.3,153.1c1.9,0,3.7,0.3,5.4,0.8s3.3,1.3,4.6,2.4s2.3,2.4,2.9,3.8s1,3.1,1,5c0,2-0.4,3.8-1.1,5.4
				s-1.7,3-3.1,4.2s-2.9,2-4.8,2.5s-3.8,0.8-5.8,0.8c-2,0-3.9-0.3-5.7-0.8s-3.4-1.4-4.7-2.5s-2.3-2.5-2.9-3.9s-0.8-3-0.8-4.8
				c0-2.6,0.6-4.8,1.8-6.8s3-3.5,5.3-4.5S86.3,153.1,89.3,153.1z"/>
			<path class="st0" d="M105.6,177.2c0-0.5-0.1-1.1-0.1-1.6s-0.1-1.4-0.2-2.3l-0.1-1.3c1.1,0.4,2.1,0.8,2.9,1s1.6,0.3,2.3,0.3
				c0.6,0,1-0.1,1.4-0.2c0.4-0.1,0.6-0.3,0.8-0.5c0.2-0.2,0.2-0.4,0.2-0.6c0-0.2-0.1-0.4-0.2-0.6c-0.1-0.2-0.4-0.4-0.8-0.7
				c-1-0.7-1.8-1.3-2.5-1.9s-1.3-1.1-1.6-1.5c-0.4-0.4-0.6-0.9-0.8-1.4c-0.2-0.5-0.3-1-0.3-1.6c0-1,0.3-1.9,0.8-2.7s1.4-1.5,2.5-1.8
				s2.4-0.6,4-0.6c1.6,0,3.7,0.2,6.2,0.6l0.3,4.9c-1.4-0.6-2.8-0.8-4.1-0.8c-0.9,0-1.6,0.1-2,0.3s-0.6,0.5-0.6,0.9
				c0,0.1,0,0.3,0.1,0.4s0.1,0.2,0.3,0.4s0.3,0.3,0.5,0.4s0.6,0.4,1.3,0.9s1.3,0.9,1.7,1.2c0.7,0.5,1.2,1,1.5,1.4s0.6,0.9,0.8,1.4
				s0.3,1,0.3,1.6c0,0.8-0.2,1.6-0.6,2.3s-1,1.3-1.8,1.7s-1.7,0.8-2.6,1s-1.9,0.3-2.9,0.3c-0.7,0-1.5-0.1-2.6-0.2
				S106.9,177.5,105.6,177.2z"/>
		</g>
		<g class="st15">
			<path class="st0" d="M20.4,177.1c-0.2-2.5-0.3-4.5-0.5-6c1.3,0.6,2.5,1,3.5,1.2s1.9,0.3,2.7,0.3c1,0,1.8-0.1,2.4-0.4
				c0.6-0.3,0.9-0.7,0.9-1.3c0-0.2,0-0.4-0.1-0.6c-0.1-0.2-0.2-0.4-0.3-0.6s-0.4-0.5-0.7-0.7l-3.3-2.9c-0.8-0.7-1.3-1.1-1.6-1.4
				c-0.6-0.6-1.1-1.2-1.5-1.7c-0.3-0.5-0.6-1-0.8-1.6c-0.2-0.5-0.2-1.1-0.2-1.7c0-0.7,0.1-1.4,0.4-2.1s0.6-1.3,1.1-1.9
				s1.2-1.1,2-1.5s1.7-0.7,2.7-0.9s1.9-0.2,2.9-0.2c2,0,4.1,0.2,6.5,0.7c0,0.8,0.1,1.5,0.1,2.2s0.2,1.9,0.3,3.5
				c-1.1-0.4-2.1-0.7-3-0.9s-1.7-0.3-2.3-0.3c-0.9,0-1.7,0.2-2.3,0.5s-0.9,0.8-0.9,1.3c0,0.2,0,0.5,0.1,0.7s0.3,0.5,0.5,0.8
				s0.6,0.6,1,1s1.1,0.9,2,1.6l1.3,1c0.4,0.3,0.8,0.7,1.2,1.1s0.8,0.9,1.1,1.3s0.6,0.8,0.7,1.2s0.3,0.7,0.4,1.1s0.1,0.7,0.1,1.2
				c0,1.1-0.3,2.1-0.8,3s-1.2,1.7-2.1,2.4s-1.9,1-3,1.3c-1.1,0.2-2.3,0.4-3.5,0.4C25.7,178,23.3,177.7,20.4,177.1z"/>
			<path class="st0" d="M41.3,157.3c0.1-1.4,0.1-2.5,0.1-3.3c0-0.2,0-0.6,0-0.9c1.4,0,2.6,0,3.6,0c1.3,0,2.5,0,3.5,0
				c0,0.4-0.1,0.7-0.1,0.9l-0.1,2.2c0,0.3,0,0.7,0,1.2c-1.2,0-2.3,0-3.3,0C43.8,157.3,42.6,157.3,41.3,157.3z M40.2,177.5
				c0.2-1.4,0.3-2.6,0.4-3.5c0.1-0.9,0.2-2.1,0.2-3.6s0.1-3,0.2-4.8s0.1-3.8,0.1-6.1c1.5,0,2.7,0,3.7,0c0.8,0,2,0,3.6,0
				c-0.2,2.2-0.3,4.2-0.4,5.8s-0.1,3.5-0.2,5.3c0,3.3-0.1,5.6-0.1,6.8c-1.4,0-2.6,0-3.6,0C43.1,177.5,41.8,177.5,40.2,177.5z"/>
			<path class="st0" d="M49.7,177.5l4-5.3l3-4.1l-5.5-8.5c1.7,0,3.2,0,4.4,0c1.5,0,2.8,0,3.8,0l1.9,4c0.1,0.2,0.3,0.6,0.5,1.1
				c0.9-1.5,2-3.3,3.2-5.2c1,0,2.3,0,3.7,0c1.3,0,2.6,0,3.8,0l-2.8,3.7c-0.6,0.7-1.7,2.3-3.5,4.8c1.1,1.9,3,5,5.9,9.5
				c-1.3,0-2.6,0-3.9,0c-1.6,0-3,0-4.2,0c-0.8-1.6-1.3-2.9-1.7-3.6s-0.7-1.5-1-2.2l-0.6,1c-0.2,0.3-0.4,0.7-0.8,1.3l-2.2,3.5
				c-1.3,0-2.5,0-3.7,0C52.5,177.5,51.1,177.5,49.7,177.5z"/>
			<path class="st0" d="M88.8,158.3c-1.3,0-2.6,0.3-3.7,1s-1.9,1.6-2.5,2.8s-0.9,2.4-0.9,3.8c0,1.2,0.3,2.4,0.8,3.4s1.3,1.8,2.4,2.4
				s2.2,0.9,3.5,0.9c1.3,0,2.5-0.3,3.6-1s1.9-1.6,2.5-2.7s0.9-2.4,0.9-3.7c0-1.3-0.3-2.4-0.8-3.5s-1.3-1.9-2.3-2.5
				S90.1,158.3,88.8,158.3z M89.2,153c1.9,0,3.7,0.3,5.4,0.8s3.3,1.3,4.6,2.4s2.3,2.4,2.9,3.8s1,3.1,1,5c0,2-0.4,3.8-1.1,5.4
				s-1.7,3-3.1,4.2s-2.9,2-4.8,2.5s-3.8,0.8-5.8,0.8c-2,0-3.9-0.3-5.7-0.8s-3.4-1.4-4.7-2.5s-2.3-2.5-2.9-3.9s-0.8-3-0.8-4.8
				c0-2.6,0.6-4.8,1.8-6.8s3-3.5,5.3-4.5S86.2,153,89.2,153z"/>
			<path class="st0" d="M105.5,177.2c0-0.5-0.1-1.1-0.1-1.6s-0.1-1.4-0.2-2.3l-0.1-1.3c1.1,0.4,2.1,0.8,2.9,1s1.6,0.3,2.3,0.3
				c0.6,0,1-0.1,1.4-0.2c0.4-0.1,0.6-0.3,0.8-0.5c0.2-0.2,0.2-0.4,0.2-0.6c0-0.2-0.1-0.4-0.2-0.6c-0.1-0.2-0.4-0.4-0.8-0.7
				c-1-0.7-1.8-1.3-2.5-1.9s-1.3-1.1-1.6-1.5c-0.4-0.4-0.6-0.9-0.8-1.4c-0.2-0.5-0.3-1-0.3-1.6c0-1,0.3-1.9,0.8-2.7s1.4-1.5,2.5-1.8
				s2.4-0.6,4-0.6c1.6,0,3.7,0.2,6.2,0.6l0.3,4.9c-1.4-0.6-2.8-0.8-4.1-0.8c-0.9,0-1.6,0.1-2,0.3s-0.6,0.5-0.6,0.9
				c0,0.1,0,0.3,0.1,0.4s0.1,0.2,0.3,0.4s0.3,0.3,0.5,0.4s0.6,0.4,1.3,0.9s1.3,0.9,1.7,1.2c0.7,0.5,1.2,1,1.5,1.4s0.6,0.9,0.8,1.4
				s0.3,1,0.3,1.6c0,0.8-0.2,1.6-0.6,2.3s-1,1.3-1.8,1.7s-1.7,0.8-2.6,1s-1.9,0.3-2.9,0.3c-0.7,0-1.5-0.1-2.6-0.2
				S106.8,177.5,105.5,177.2z"/>
		</g>
		<g class="st16">
			<path class="st0" d="M20.3,177.1c-0.2-2.5-0.3-4.5-0.5-6c1.3,0.6,2.5,1,3.5,1.2s1.9,0.3,2.7,0.3c1,0,1.8-0.1,2.4-0.4
				c0.6-0.3,0.9-0.7,0.9-1.3c0-0.2,0-0.4-0.1-0.6c-0.1-0.2-0.2-0.4-0.3-0.6s-0.4-0.5-0.7-0.7l-3.3-2.9c-0.8-0.7-1.3-1.1-1.6-1.4
				c-0.6-0.6-1.1-1.2-1.5-1.7c-0.3-0.5-0.6-1-0.8-1.6c-0.2-0.5-0.2-1.1-0.2-1.7c0-0.7,0.1-1.4,0.4-2.1s0.6-1.3,1.1-1.9
				s1.2-1.1,2-1.5s1.7-0.7,2.7-0.9s1.9-0.2,2.9-0.2c2,0,4.1,0.2,6.5,0.7c0,0.8,0.1,1.5,0.1,2.2s0.2,1.9,0.3,3.5
				c-1.1-0.4-2.1-0.7-3-0.9s-1.7-0.3-2.3-0.3c-0.9,0-1.7,0.2-2.3,0.5s-0.9,0.8-0.9,1.3c0,0.2,0,0.5,0.1,0.7s0.3,0.5,0.5,0.8
				s0.6,0.6,1,1s1.1,0.9,2,1.6l1.3,1c0.4,0.3,0.8,0.7,1.2,1.1s0.8,0.9,1.1,1.3s0.6,0.8,0.7,1.2s0.3,0.7,0.4,1.1s0.1,0.7,0.1,1.2
				c0,1.1-0.3,2.1-0.8,3s-1.2,1.7-2.1,2.4s-1.9,1-3,1.3s-2.3,0.4-3.5,0.4C25.6,177.9,23.2,177.6,20.3,177.1z"/>
			<path class="st0" d="M41.2,157.3c0.1-1.4,0.1-2.5,0.1-3.3c0-0.2,0-0.6,0-0.9c1.4,0,2.6,0,3.6,0c1.3,0,2.5,0,3.5,0
				c0,0.4-0.1,0.7-0.1,0.9l-0.1,2.2c0,0.3,0,0.7,0,1.2c-1.2,0-2.3,0-3.3,0C43.7,157.2,42.5,157.2,41.2,157.3z M40.1,177.5
				c0.2-1.4,0.3-2.6,0.4-3.5c0.1-0.9,0.2-2.1,0.2-3.6s0.1-3,0.2-4.8s0.1-3.8,0.1-6.1c1.5,0,2.7,0,3.7,0c0.8,0,2,0,3.6,0
				c-0.2,2.2-0.3,4.2-0.4,5.8s-0.1,3.5-0.2,5.3c0,3.3-0.1,5.6-0.1,6.8c-1.4,0-2.6,0-3.6,0C43,177.4,41.7,177.4,40.1,177.5z"/>
			<path class="st0" d="M49.5,177.5l4-5.3l3-4.1l-5.5-8.5c1.7,0,3.2,0,4.4,0c1.5,0,2.8,0,3.8,0l1.9,4c0.1,0.2,0.3,0.6,0.5,1.1
				c0.9-1.5,2-3.3,3.2-5.2c1,0,2.3,0,3.7,0c1.3,0,2.6,0,3.8,0l-2.8,3.7c-0.6,0.7-1.7,2.3-3.5,4.8c1.1,1.9,3,5,5.9,9.5
				c-1.3,0-2.6,0-3.9,0c-1.6,0-3,0-4.2,0c-0.8-1.6-1.3-2.9-1.7-3.6s-0.7-1.5-1-2.2l-0.6,1c-0.2,0.3-0.4,0.7-0.8,1.3l-2.2,3.5
				c-1.3,0-2.5,0-3.7,0C52.4,177.4,51,177.4,49.5,177.5z"/>
			<path class="st0" d="M88.7,158.3c-1.3,0-2.6,0.3-3.7,1s-1.9,1.6-2.5,2.8s-0.9,2.4-0.9,3.8c0,1.2,0.3,2.4,0.8,3.4s1.3,1.8,2.4,2.4
				s2.2,0.9,3.5,0.9c1.3,0,2.5-0.3,3.6-1s1.9-1.6,2.5-2.7s0.9-2.4,0.9-3.7c0-1.3-0.3-2.4-0.8-3.5s-1.3-1.9-2.3-2.5
				S90,158.3,88.7,158.3z M89,153c1.9,0,3.7,0.3,5.4,0.8s3.3,1.3,4.6,2.4s2.3,2.4,2.9,3.8s1,3.1,1,5c0,2-0.4,3.8-1.1,5.4
				s-1.7,3-3.1,4.2s-2.9,2-4.8,2.5s-3.8,0.8-5.8,0.8c-2,0-3.9-0.3-5.7-0.8s-3.4-1.4-4.7-2.5s-2.3-2.5-2.9-3.9s-0.8-3-0.8-4.8
				c0-2.6,0.6-4.8,1.8-6.8s3-3.5,5.3-4.5S86.1,153,89,153z"/>
			<path class="st0" d="M105.3,177.1c0-0.5-0.1-1.1-0.1-1.6s-0.1-1.4-0.2-2.3l-0.1-1.3c1.1,0.4,2.1,0.8,2.9,1s1.6,0.3,2.3,0.3
				c0.6,0,1-0.1,1.4-0.2c0.4-0.1,0.6-0.3,0.8-0.5c0.2-0.2,0.2-0.4,0.2-0.6c0-0.2-0.1-0.4-0.2-0.6c-0.1-0.2-0.4-0.4-0.8-0.7
				c-1-0.7-1.8-1.3-2.5-1.9s-1.3-1.1-1.6-1.5c-0.4-0.4-0.6-0.9-0.8-1.4c-0.2-0.5-0.3-1-0.3-1.6c0-1,0.3-1.9,0.8-2.7s1.4-1.5,2.5-1.8
				s2.4-0.6,4-0.6c1.6,0,3.7,0.2,6.2,0.6l0.3,4.9c-1.4-0.6-2.8-0.8-4.1-0.8c-0.9,0-1.6,0.1-2,0.3s-0.6,0.5-0.6,0.9
				c0,0.1,0,0.3,0.1,0.4s0.1,0.2,0.3,0.4s0.3,0.3,0.5,0.4s0.6,0.4,1.3,0.9s1.3,0.9,1.7,1.2c0.7,0.5,1.2,1,1.5,1.4s0.6,0.9,0.8,1.4
				s0.3,1,0.3,1.6c0,0.8-0.2,1.6-0.6,2.3s-1,1.3-1.8,1.7s-1.7,0.8-2.6,1s-1.9,0.3-2.9,0.3c-0.7,0-1.5-0.1-2.6-0.2
				S106.7,177.4,105.3,177.1z"/>
		</g>
		<g class="st17">
			<path class="st0" d="M20.2,177c-0.2-2.5-0.3-4.5-0.5-6c1.3,0.6,2.5,1,3.5,1.2s1.9,0.3,2.7,0.3c1,0,1.8-0.1,2.4-0.4
				c0.6-0.3,0.9-0.7,0.9-1.3c0-0.2,0-0.4-0.1-0.6c-0.1-0.2-0.2-0.4-0.3-0.6s-0.4-0.5-0.7-0.7l-3.3-2.9c-0.8-0.7-1.3-1.1-1.6-1.4
				c-0.6-0.6-1.1-1.2-1.5-1.7c-0.3-0.5-0.6-1-0.8-1.6c-0.2-0.5-0.2-1.1-0.2-1.7c0-0.7,0.1-1.4,0.4-2.1s0.6-1.3,1.1-1.9
				s1.2-1.1,2-1.5s1.7-0.7,2.7-0.9s1.9-0.2,2.9-0.2c2,0,4.1,0.2,6.5,0.7c0,0.8,0.1,1.5,0.1,2.2s0.2,1.9,0.3,3.5
				c-1.1-0.4-2.1-0.7-3-0.9s-1.7-0.3-2.3-0.3c-0.9,0-1.7,0.2-2.3,0.5s-0.9,0.8-0.9,1.3c0,0.2,0,0.5,0.1,0.7s0.3,0.5,0.5,0.8
				s0.6,0.6,1,1s1.1,0.9,2,1.6l1.3,1c0.4,0.3,0.8,0.7,1.2,1.1s0.8,0.9,1.1,1.3s0.6,0.8,0.7,1.2s0.3,0.7,0.4,1.1s0.1,0.7,0.1,1.2
				c0,1.1-0.3,2.1-0.8,3s-1.2,1.7-2.1,2.4s-1.9,1-3,1.3s-2.3,0.4-3.5,0.4C25.5,177.9,23.1,177.6,20.2,177z"/>
			<path class="st0" d="M41.1,157.2c0.1-1.4,0.1-2.5,0.1-3.3c0-0.2,0-0.6,0-0.9c1.4,0,2.6,0,3.6,0c1.3,0,2.5,0,3.5,0
				c0,0.4-0.1,0.7-0.1,0.9L48,156c0,0.3,0,0.7,0,1.2c-1.2,0-2.3,0-3.3,0C43.6,157.2,42.4,157.2,41.1,157.2z M40,177.4
				c0.2-1.4,0.3-2.6,0.4-3.5c0.1-0.9,0.2-2.1,0.2-3.6s0.1-3,0.2-4.8s0.1-3.8,0.1-6.1c1.5,0,2.7,0,3.7,0c0.8,0,2,0,3.6,0
				c-0.2,2.2-0.3,4.2-0.4,5.8s-0.1,3.5-0.2,5.3c0,3.3-0.1,5.6-0.1,6.8c-1.4,0-2.6,0-3.6,0C42.9,177.4,41.6,177.4,40,177.4z"/>
			<path class="st0" d="M49.4,177.4l4-5.3l3-4.1l-5.5-8.5c1.7,0,3.2,0,4.4,0c1.5,0,2.8,0,3.8,0l1.9,4c0.1,0.2,0.3,0.6,0.5,1.1
				c0.9-1.5,2-3.3,3.2-5.2c1,0,2.3,0,3.7,0c1.3,0,2.6,0,3.8,0l-2.8,3.7c-0.6,0.7-1.7,2.3-3.5,4.8c1.1,1.9,3,5,5.9,9.5
				c-1.3,0-2.6,0-3.9,0c-1.6,0-3,0-4.2,0c-0.8-1.6-1.3-2.9-1.7-3.6s-0.7-1.5-1-2.2l-0.6,1c-0.2,0.3-0.4,0.7-0.8,1.3l-2.2,3.5
				c-1.3,0-2.5,0-3.7,0C52.2,177.4,50.8,177.4,49.4,177.4z"/>
			<path class="st0" d="M88.6,158.2c-1.3,0-2.6,0.3-3.7,1s-1.9,1.6-2.5,2.8s-0.9,2.4-0.9,3.8c0,1.2,0.3,2.4,0.8,3.4s1.3,1.8,2.4,2.4
				s2.2,0.9,3.5,0.9c1.3,0,2.5-0.3,3.6-1s1.9-1.6,2.5-2.7s0.9-2.4,0.9-3.7c0-1.3-0.3-2.4-0.8-3.5s-1.3-1.9-2.3-2.5
				S89.9,158.2,88.6,158.2z M88.9,153c1.9,0,3.7,0.3,5.4,0.8s3.3,1.3,4.6,2.4s2.3,2.4,2.9,3.8s1,3.1,1,5c0,2-0.4,3.8-1.1,5.4
				s-1.7,3-3.1,4.2s-2.9,2-4.8,2.5s-3.8,0.8-5.8,0.8c-2,0-3.9-0.3-5.7-0.8s-3.4-1.4-4.7-2.5s-2.3-2.5-2.9-3.9s-0.8-3-0.8-4.8
				c0-2.6,0.6-4.8,1.8-6.8s3-3.5,5.3-4.5S86,153,88.9,153z"/>
			<path class="st0" d="M105.2,177.1c0-0.5-0.1-1.1-0.1-1.6s-0.1-1.4-0.2-2.3l-0.1-1.3c1.1,0.4,2.1,0.8,2.9,1s1.6,0.3,2.3,0.3
				c0.6,0,1-0.1,1.4-0.2c0.4-0.1,0.6-0.3,0.8-0.5c0.2-0.2,0.2-0.4,0.2-0.6c0-0.2-0.1-0.4-0.2-0.6c-0.1-0.2-0.4-0.4-0.8-0.7
				c-1-0.7-1.8-1.3-2.5-1.9s-1.3-1.1-1.6-1.5c-0.4-0.4-0.6-0.9-0.8-1.4c-0.2-0.5-0.3-1-0.3-1.6c0-1,0.3-1.9,0.8-2.7s1.4-1.5,2.5-1.8
				s2.4-0.6,4-0.6c1.6,0,3.7,0.2,6.2,0.6l0.3,4.9c-1.4-0.6-2.8-0.8-4.1-0.8c-0.9,0-1.6,0.1-2,0.3s-0.6,0.5-0.6,0.9
				c0,0.1,0,0.3,0.1,0.4s0.1,0.2,0.3,0.4s0.3,0.3,0.5,0.4s0.6,0.4,1.3,0.9s1.3,0.9,1.7,1.2c0.7,0.5,1.2,1,1.5,1.4s0.6,0.9,0.8,1.4
				s0.3,1,0.3,1.6c0,0.8-0.2,1.6-0.6,2.3s-1,1.3-1.8,1.7s-1.7,0.8-2.6,1s-1.9,0.3-2.9,0.3c-0.7,0-1.5-0.1-2.6-0.2
				S106.6,177.4,105.2,177.1z"/>
		</g>
		<g class="st18">
			<path class="st0" d="M20.1,177c-0.2-2.5-0.3-4.5-0.5-6c1.3,0.6,2.5,1,3.5,1.2s1.9,0.3,2.7,0.3c1,0,1.8-0.1,2.4-0.4
				c0.6-0.3,0.9-0.7,0.9-1.3c0-0.2,0-0.4-0.1-0.6c-0.1-0.2-0.2-0.4-0.3-0.6s-0.4-0.5-0.7-0.7l-3.3-2.9c-0.8-0.7-1.3-1.1-1.6-1.4
				c-0.6-0.6-1.1-1.2-1.5-1.7c-0.3-0.5-0.6-1-0.8-1.6c-0.2-0.5-0.2-1.1-0.2-1.7c0-0.7,0.1-1.4,0.4-2.1s0.6-1.3,1.1-1.9
				s1.2-1.1,2-1.5s1.7-0.7,2.7-0.9s1.9-0.2,2.9-0.2c2,0,4.1,0.2,6.5,0.7c0,0.8,0.1,1.5,0.1,2.2s0.2,1.9,0.3,3.5
				c-1.1-0.4-2.1-0.7-3-0.9s-1.7-0.3-2.3-0.3c-0.9,0-1.7,0.2-2.3,0.5s-0.9,0.8-0.9,1.3c0,0.2,0,0.5,0.1,0.7s0.3,0.5,0.5,0.8
				s0.6,0.6,1,1s1.1,0.9,2,1.6l1.3,1c0.4,0.3,0.8,0.7,1.2,1.1s0.8,0.9,1.1,1.3s0.6,0.8,0.7,1.2s0.3,0.7,0.4,1.1s0.1,0.7,0.1,1.2
				c0,1.1-0.3,2.1-0.8,3s-1.2,1.7-2.1,2.4s-1.9,1-3,1.3s-2.3,0.4-3.5,0.4C25.4,177.8,23,177.5,20.1,177z"/>
			<path class="st0" d="M41,157.2c0.1-1.4,0.1-2.5,0.1-3.3c0-0.2,0-0.6,0-0.9c1.4,0,2.6,0,3.6,0c1.3,0,2.5,0,3.5,0
				c0,0.4-0.1,0.7-0.1,0.9l-0.1,2.2c0,0.3,0,0.7,0,1.2c-1.2,0-2.3,0-3.3,0C43.5,157.1,42.3,157.1,41,157.2z M39.9,177.4
				c0.2-1.4,0.3-2.6,0.4-3.5c0.1-0.9,0.2-2.1,0.2-3.6s0.1-3,0.2-4.8s0.1-3.8,0.1-6.1c1.5,0,2.7,0,3.7,0c0.8,0,2,0,3.6,0
				c-0.2,2.2-0.3,4.2-0.4,5.8s-0.1,3.5-0.2,5.3c0,3.3-0.1,5.6-0.1,6.8c-1.4,0-2.6,0-3.6,0C42.8,177.3,41.5,177.3,39.9,177.4z"/>
			<path class="st0" d="M49.3,177.4l4-5.3l3-4.1l-5.5-8.5c1.7,0,3.2,0,4.4,0c1.5,0,2.8,0,3.8,0l1.9,4c0.1,0.2,0.3,0.6,0.5,1.1
				c0.9-1.5,2-3.3,3.2-5.2c1,0,2.3,0,3.7,0c1.3,0,2.6,0,3.8,0l-2.8,3.7c-0.6,0.7-1.7,2.3-3.5,4.8c1.1,1.9,3,5,5.9,9.5
				c-1.3,0-2.6,0-3.9,0c-1.6,0-3,0-4.2,0c-0.8-1.6-1.3-2.9-1.7-3.6s-0.7-1.5-1-2.2l-0.6,1c-0.2,0.3-0.4,0.7-0.8,1.3l-2.2,3.5
				c-1.3,0-2.5,0-3.7,0C52.1,177.3,50.7,177.3,49.3,177.4z"/>
			<path class="st0" d="M88.5,158.2c-1.3,0-2.6,0.3-3.7,1s-1.9,1.6-2.5,2.8s-0.9,2.4-0.9,3.8c0,1.2,0.3,2.4,0.8,3.4s1.3,1.8,2.4,2.4
				s2.2,0.9,3.5,0.9c1.3,0,2.5-0.3,3.6-1s1.9-1.6,2.5-2.7s0.9-2.4,0.9-3.7c0-1.3-0.3-2.4-0.8-3.5s-1.3-1.9-2.3-2.5
				S89.8,158.2,88.5,158.2z M88.8,152.9c1.9,0,3.7,0.3,5.4,0.8s3.3,1.3,4.6,2.4s2.3,2.4,2.9,3.8s1,3.1,1,5c0,2-0.4,3.8-1.1,5.4
				s-1.7,3-3.1,4.2s-2.9,2-4.8,2.5s-3.8,0.8-5.8,0.8c-2,0-3.9-0.3-5.7-0.8s-3.4-1.4-4.7-2.5s-2.3-2.5-2.9-3.9s-0.8-3-0.8-4.8
				c0-2.6,0.6-4.8,1.8-6.8s3-3.5,5.3-4.5S85.9,152.9,88.8,152.9z"/>
			<path class="st0" d="M105.1,177c0-0.5-0.1-1.1-0.1-1.6s-0.1-1.4-0.2-2.3l-0.1-1.3c1.1,0.4,2.1,0.8,2.9,1s1.6,0.3,2.3,0.3
				c0.6,0,1-0.1,1.4-0.2c0.4-0.1,0.6-0.3,0.8-0.5c0.2-0.2,0.2-0.4,0.2-0.6c0-0.2-0.1-0.4-0.2-0.6c-0.1-0.2-0.4-0.4-0.8-0.7
				c-1-0.7-1.8-1.3-2.5-1.9s-1.3-1.1-1.6-1.5c-0.4-0.4-0.6-0.9-0.8-1.4c-0.2-0.5-0.3-1-0.3-1.6c0-1,0.3-1.9,0.8-2.7s1.4-1.5,2.5-1.8
				s2.4-0.6,4-0.6c1.6,0,3.7,0.2,6.2,0.6l0.3,4.9c-1.4-0.6-2.8-0.8-4.1-0.8c-0.9,0-1.6,0.1-2,0.3s-0.6,0.5-0.6,0.9
				c0,0.1,0,0.3,0.1,0.4s0.1,0.2,0.3,0.4s0.3,0.3,0.5,0.4s0.6,0.4,1.3,0.9s1.3,0.9,1.7,1.2c0.7,0.5,1.2,1,1.5,1.4s0.6,0.9,0.8,1.4
				s0.3,1,0.3,1.6c0,0.8-0.2,1.6-0.6,2.3s-1,1.3-1.8,1.7s-1.7,0.8-2.6,1s-1.9,0.3-2.9,0.3c-0.7,0-1.5-0.1-2.6-0.2
				S106.5,177.3,105.1,177z"/>
		</g>
		<g class="st19">
			<path class="st0" d="M19.9,176.9c-0.2-2.5-0.3-4.5-0.5-6c1.3,0.6,2.5,1,3.5,1.2s1.9,0.3,2.7,0.3c1,0,1.8-0.1,2.4-0.4
				c0.6-0.3,0.9-0.7,0.9-1.3c0-0.2,0-0.4-0.1-0.6c-0.1-0.2-0.2-0.4-0.3-0.6s-0.4-0.5-0.7-0.7l-3.3-2.9c-0.8-0.7-1.3-1.1-1.6-1.4
				c-0.6-0.6-1.1-1.2-1.5-1.7c-0.3-0.5-0.6-1-0.8-1.6c-0.2-0.5-0.2-1.1-0.2-1.7c0-0.7,0.1-1.4,0.4-2.1s0.6-1.3,1.1-1.9
				s1.2-1.1,2-1.5s1.7-0.7,2.7-0.9s1.9-0.2,2.9-0.2c2,0,4.1,0.2,6.5,0.7c0,0.8,0.1,1.5,0.1,2.2s0.2,1.9,0.3,3.5
				c-1.1-0.4-2.1-0.7-3-0.9s-1.7-0.3-2.3-0.3c-0.9,0-1.7,0.2-2.3,0.5s-0.9,0.8-0.9,1.3c0,0.2,0,0.5,0.1,0.7s0.3,0.5,0.5,0.8
				s0.6,0.6,1,1s1.1,0.9,2,1.6l1.3,1c0.4,0.3,0.8,0.7,1.2,1.1s0.8,0.9,1.1,1.3s0.6,0.8,0.7,1.2s0.3,0.7,0.4,1.1s0.1,0.7,0.1,1.2
				c0,1.1-0.3,2.1-0.8,3s-1.2,1.7-2.1,2.4s-1.9,1-3,1.3s-2.3,0.4-3.5,0.4C25.2,177.8,22.8,177.5,19.9,176.9z"/>
			<path class="st0" d="M40.8,157.1c0.1-1.4,0.1-2.5,0.1-3.3c0-0.2,0-0.6,0-0.9c1.4,0,2.6,0,3.6,0c1.3,0,2.5,0,3.5,0
				c0,0.4-0.1,0.7-0.1,0.9l-0.1,2.2c0,0.3,0,0.7,0,1.2c-1.2,0-2.3,0-3.3,0C43.3,157.1,42.1,157.1,40.8,157.1z M39.7,177.3
				c0.2-1.4,0.3-2.6,0.4-3.5c0.1-0.9,0.2-2.1,0.2-3.6s0.1-3,0.2-4.8s0.1-3.8,0.1-6.1c1.5,0,2.7,0,3.7,0c0.8,0,2,0,3.6,0
				c-0.2,2.2-0.3,4.2-0.4,5.8s-0.1,3.5-0.2,5.3c0,3.3-0.1,5.6-0.1,6.8c-1.4,0-2.6,0-3.6,0C42.7,177.3,41.4,177.3,39.7,177.3z"/>
			<path class="st0" d="M49.2,177.3l4-5.3l3-4.1l-5.5-8.5c1.7,0,3.2,0,4.4,0c1.5,0,2.8,0,3.8,0l1.9,4c0.1,0.2,0.3,0.6,0.5,1.1
				c0.9-1.5,2-3.3,3.2-5.2c1,0,2.3,0,3.7,0c1.3,0,2.6,0,3.8,0l-2.8,3.7c-0.6,0.7-1.7,2.3-3.5,4.8c1.1,1.9,3,5,5.9,9.5
				c-1.3,0-2.6,0-3.9,0c-1.6,0-3,0-4.2,0c-0.8-1.6-1.3-2.9-1.7-3.6s-0.7-1.5-1-2.2l-0.6,1c-0.2,0.3-0.4,0.7-0.8,1.3l-2.2,3.5
				c-1.3,0-2.5,0-3.7,0C52,177.3,50.6,177.3,49.2,177.3z"/>
			<path class="st0" d="M88.4,158.2c-1.3,0-2.6,0.3-3.7,1s-1.9,1.6-2.5,2.8s-0.9,2.4-0.9,3.8c0,1.2,0.3,2.4,0.8,3.4s1.3,1.8,2.4,2.4
				s2.2,0.9,3.5,0.9c1.3,0,2.5-0.3,3.6-1s1.9-1.6,2.5-2.7s0.9-2.4,0.9-3.7c0-1.3-0.3-2.4-0.8-3.5s-1.3-1.9-2.3-2.5
				S89.6,158.2,88.4,158.2z M88.7,152.9c1.9,0,3.7,0.3,5.4,0.8s3.3,1.3,4.6,2.4s2.3,2.4,2.9,3.8s1,3.1,1,5c0,2-0.4,3.8-1.1,5.4
				s-1.7,3-3.1,4.2s-2.9,2-4.8,2.5s-3.8,0.8-5.8,0.8c-2,0-3.9-0.3-5.7-0.8s-3.4-1.4-4.7-2.5s-2.3-2.5-2.9-3.9s-0.8-3-0.8-4.8
				c0-2.6,0.6-4.8,1.8-6.8s3-3.5,5.3-4.5S85.7,152.9,88.7,152.9z"/>
			<path class="st0" d="M105,177c0-0.5-0.1-1.1-0.1-1.6s-0.1-1.4-0.2-2.3l-0.1-1.3c1.1,0.4,2.1,0.8,2.9,1s1.6,0.3,2.3,0.3
				c0.6,0,1-0.1,1.4-0.2c0.4-0.1,0.6-0.3,0.8-0.5c0.2-0.2,0.2-0.4,0.2-0.6c0-0.2-0.1-0.4-0.2-0.6c-0.1-0.2-0.4-0.4-0.8-0.7
				c-1-0.7-1.8-1.3-2.5-1.9s-1.3-1.1-1.6-1.5c-0.4-0.4-0.6-0.9-0.8-1.4c-0.2-0.5-0.3-1-0.3-1.6c0-1,0.3-1.9,0.8-2.7s1.4-1.5,2.5-1.8
				s2.4-0.6,4-0.6c1.6,0,3.7,0.2,6.2,0.6l0.3,4.9c-1.4-0.6-2.8-0.8-4.1-0.8c-0.9,0-1.6,0.1-2,0.3s-0.6,0.5-0.6,0.9
				c0,0.1,0,0.3,0.1,0.4s0.1,0.2,0.3,0.4s0.3,0.3,0.5,0.4s0.6,0.4,1.3,0.9s1.3,0.9,1.7,1.2c0.7,0.5,1.2,1,1.5,1.4s0.6,0.9,0.8,1.4
				s0.3,1,0.3,1.6c0,0.8-0.2,1.6-0.6,2.3s-1,1.3-1.8,1.7s-1.7,0.8-2.6,1s-1.9,0.3-2.9,0.3c-0.7,0-1.5-0.1-2.6-0.2
				S106.4,177.3,105,177z"/>
		</g>
		<g class="st20">
			<path class="st0" d="M19.8,176.9c-0.2-2.5-0.3-4.5-0.5-6c1.3,0.6,2.5,1,3.5,1.2s1.9,0.3,2.7,0.3c1,0,1.8-0.1,2.4-0.4
				c0.6-0.3,0.9-0.7,0.9-1.3c0-0.2,0-0.4-0.1-0.6c-0.1-0.2-0.2-0.4-0.3-0.6s-0.4-0.5-0.7-0.7l-3.3-2.9c-0.8-0.7-1.3-1.1-1.6-1.4
				c-0.6-0.6-1.1-1.2-1.5-1.7c-0.3-0.5-0.6-1-0.8-1.6c-0.2-0.5-0.2-1.1-0.2-1.7c0-0.7,0.1-1.4,0.4-2.1s0.6-1.3,1.1-1.9
				s1.2-1.1,2-1.5s1.7-0.7,2.7-0.9s1.9-0.2,2.9-0.2c2,0,4.1,0.2,6.5,0.7c0,0.8,0.1,1.5,0.1,2.2s0.2,1.9,0.3,3.5
				c-1.1-0.4-2.1-0.7-3-0.9s-1.7-0.3-2.3-0.3c-0.9,0-1.7,0.2-2.3,0.5s-0.9,0.8-0.9,1.3c0,0.2,0,0.5,0.1,0.7s0.3,0.5,0.5,0.8
				s0.6,0.6,1,1s1.1,0.9,2,1.6l1.3,1c0.4,0.3,0.8,0.7,1.2,1.1s0.8,0.9,1.1,1.3s0.6,0.8,0.7,1.2s0.3,0.7,0.4,1.1s0.1,0.7,0.1,1.2
				c0,1.1-0.3,2.1-0.8,3s-1.2,1.7-2.1,2.4s-1.9,1-3,1.3s-2.3,0.4-3.5,0.4C25.1,177.7,22.7,177.5,19.8,176.9z"/>
			<path class="st0" d="M40.7,157.1c0.1-1.4,0.1-2.5,0.1-3.3c0-0.2,0-0.6,0-0.9c1.4,0,2.6,0,3.6,0c1.3,0,2.5,0,3.5,0
				c0,0.4-0.1,0.7-0.1,0.9l-0.1,2.2c0,0.3,0,0.7,0,1.2c-1.2,0-2.3,0-3.3,0C43.2,157,42,157.1,40.7,157.1z M39.6,177.3
				c0.2-1.4,0.3-2.6,0.4-3.5c0.1-0.9,0.2-2.1,0.2-3.6s0.1-3,0.2-4.8s0.1-3.8,0.1-6.1c1.5,0,2.7,0,3.7,0c0.8,0,2,0,3.6,0
				c-0.2,2.2-0.3,4.2-0.4,5.8s-0.1,3.5-0.2,5.3c0,3.3-0.1,5.6-0.1,6.8c-1.4,0-2.6,0-3.6,0C42.5,177.2,41.2,177.2,39.6,177.3z"/>
			<path class="st0" d="M49.1,177.3l4-5.3l3-4.1l-5.5-8.5c1.7,0,3.2,0,4.4,0c1.5,0,2.8,0,3.8,0l1.9,4c0.1,0.2,0.3,0.6,0.5,1.1
				c0.9-1.5,2-3.3,3.2-5.2c1,0,2.3,0,3.7,0c1.3,0,2.6,0,3.8,0l-2.8,3.7c-0.6,0.7-1.7,2.3-3.5,4.8c1.1,1.9,3,5,5.9,9.5
				c-1.3,0-2.6,0-3.9,0c-1.6,0-3,0-4.2,0c-0.8-1.6-1.3-2.9-1.7-3.6s-0.7-1.5-1-2.2l-0.6,1c-0.2,0.3-0.4,0.7-0.8,1.3l-2.2,3.5
				c-1.3,0-2.5,0-3.7,0C51.9,177.2,50.5,177.2,49.1,177.3z"/>
			<path class="st0" d="M88.2,158.1c-1.3,0-2.6,0.3-3.7,1s-1.9,1.6-2.5,2.8s-0.9,2.4-0.9,3.8c0,1.2,0.3,2.4,0.8,3.4s1.3,1.8,2.4,2.4
				s2.2,0.9,3.5,0.9c1.3,0,2.5-0.3,3.6-1s1.9-1.6,2.5-2.7s0.9-2.4,0.9-3.7c0-1.3-0.3-2.4-0.8-3.5s-1.3-1.9-2.3-2.5
				S89.5,158.1,88.2,158.1z M88.6,152.8c1.9,0,3.7,0.3,5.4,0.8s3.3,1.3,4.6,2.4s2.3,2.4,2.9,3.8s1,3.1,1,5c0,2-0.4,3.8-1.1,5.4
				s-1.7,3-3.1,4.2s-2.9,2-4.8,2.5s-3.8,0.8-5.8,0.8c-2,0-3.9-0.3-5.7-0.8s-3.4-1.4-4.7-2.5s-2.3-2.5-2.9-3.9s-0.8-3-0.8-4.8
				c0-2.6,0.6-4.8,1.8-6.8s3-3.5,5.3-4.5S85.6,152.8,88.6,152.8z"/>
			<path class="st0" d="M104.9,176.9c0-0.5-0.1-1.1-0.1-1.6s-0.1-1.4-0.2-2.3l-0.1-1.3c1.1,0.4,2.1,0.8,2.9,1s1.6,0.3,2.3,0.3
				c0.6,0,1-0.1,1.4-0.2c0.4-0.1,0.6-0.3,0.8-0.5c0.2-0.2,0.2-0.4,0.2-0.6c0-0.2-0.1-0.4-0.2-0.6c-0.1-0.2-0.4-0.4-0.8-0.7
				c-1-0.7-1.8-1.3-2.5-1.9s-1.3-1.1-1.6-1.5c-0.4-0.4-0.6-0.9-0.8-1.4c-0.2-0.5-0.3-1-0.3-1.6c0-1,0.3-1.9,0.8-2.7s1.4-1.5,2.5-1.8
				s2.4-0.6,4-0.6c1.6,0,3.7,0.2,6.2,0.6l0.3,4.9c-1.4-0.6-2.8-0.8-4.1-0.8c-0.9,0-1.6,0.1-2,0.3s-0.6,0.5-0.6,0.9
				c0,0.1,0,0.3,0.1,0.4s0.1,0.2,0.3,0.4s0.3,0.3,0.5,0.4s0.6,0.4,1.3,0.9s1.3,0.9,1.7,1.2c0.7,0.5,1.2,1,1.5,1.4s0.6,0.9,0.8,1.4
				s0.3,1,0.3,1.6c0,0.8-0.2,1.6-0.6,2.3s-1,1.3-1.8,1.7s-1.7,0.8-2.6,1s-1.9,0.3-2.9,0.3c-0.7,0-1.5-0.1-2.6-0.2
				S106.2,177.2,104.9,176.9z"/>
		</g>
		<g class="st21">
			<path class="st0" d="M19.7,176.9c-0.2-2.5-0.3-4.5-0.5-6c1.3,0.6,2.5,1,3.5,1.2s1.9,0.3,2.7,0.3c1,0,1.8-0.1,2.4-0.4
				c0.6-0.3,0.9-0.7,0.9-1.3c0-0.2,0-0.4-0.1-0.6c-0.1-0.2-0.2-0.4-0.3-0.6s-0.4-0.5-0.7-0.7l-3.3-2.9c-0.8-0.7-1.3-1.1-1.6-1.4
				c-0.6-0.6-1.1-1.2-1.5-1.7c-0.3-0.5-0.6-1-0.8-1.6c-0.2-0.5-0.2-1.1-0.2-1.7c0-0.7,0.1-1.4,0.4-2.1s0.6-1.3,1.1-1.9
				s1.2-1.1,2-1.5s1.7-0.7,2.7-0.9s1.9-0.2,2.9-0.2c2,0,4.1,0.2,6.5,0.7c0,0.8,0.1,1.5,0.1,2.2s0.2,1.9,0.3,3.5
				c-1.1-0.4-2.1-0.7-3-0.9s-1.7-0.3-2.3-0.3c-0.9,0-1.7,0.2-2.3,0.5s-0.9,0.8-0.9,1.3c0,0.2,0,0.5,0.1,0.7s0.3,0.5,0.5,0.8
				s0.6,0.6,1,1s1.1,0.9,2,1.6l1.3,1c0.4,0.3,0.8,0.7,1.2,1.1s0.8,0.9,1.1,1.3s0.6,0.8,0.7,1.2s0.3,0.7,0.4,1.1s0.1,0.7,0.1,1.2
				c0,1.1-0.3,2.1-0.8,3s-1.2,1.7-2.1,2.4s-1.9,1-3,1.3s-2.3,0.4-3.5,0.4C25,177.7,22.6,177.4,19.7,176.9z"/>
			<path class="st0" d="M40.6,157c0.1-1.4,0.1-2.5,0.1-3.3c0-0.2,0-0.6,0-0.9c1.4,0,2.6,0,3.6,0c1.3,0,2.5,0,3.5,0
				c0,0.4-0.1,0.7-0.1,0.9l-0.1,2.2c0,0.3,0,0.7,0,1.2c-1.2,0-2.3,0-3.3,0C43.1,157,41.9,157,40.6,157z M39.5,177.2
				c0.2-1.4,0.3-2.6,0.4-3.5c0.1-0.9,0.2-2.1,0.2-3.6s0.1-3,0.2-4.8s0.1-3.8,0.1-6.1c1.5,0,2.7,0,3.7,0c0.8,0,2,0,3.6,0
				c-0.2,2.2-0.3,4.2-0.4,5.8s-0.1,3.5-0.2,5.3c0,3.3-0.1,5.6-0.1,6.8c-1.4,0-2.6,0-3.6,0C42.4,177.2,41.1,177.2,39.5,177.2z"/>
			<path class="st0" d="M48.9,177.2l4-5.3l3-4.1l-5.5-8.5c1.7,0,3.2,0,4.4,0c1.5,0,2.8,0,3.8,0l1.9,4c0.1,0.2,0.3,0.6,0.5,1.1
				c0.9-1.5,2-3.3,3.2-5.2c1,0,2.3,0,3.7,0c1.3,0,2.6,0,3.8,0L69,163c-0.6,0.7-1.7,2.3-3.5,4.8c1.1,1.9,3,5,5.9,9.5
				c-1.3,0-2.6,0-3.9,0c-1.6,0-3,0-4.2,0c-0.8-1.6-1.3-2.9-1.7-3.6s-0.7-1.5-1-2.2l-0.6,1c-0.2,0.3-0.4,0.7-0.8,1.3l-2.2,3.5
				c-1.3,0-2.5,0-3.7,0C51.8,177.2,50.4,177.2,48.9,177.2z"/>
			<path class="st0" d="M88.1,158.1c-1.3,0-2.6,0.3-3.7,1s-1.9,1.6-2.5,2.8s-0.9,2.4-0.9,3.8c0,1.2,0.3,2.4,0.8,3.4s1.3,1.8,2.4,2.4
				s2.2,0.9,3.5,0.9c1.3,0,2.5-0.3,3.6-1s1.9-1.6,2.5-2.7s0.9-2.4,0.9-3.7c0-1.3-0.3-2.4-0.8-3.5s-1.3-1.9-2.3-2.5
				S89.4,158.1,88.1,158.1z M88.4,152.8c1.9,0,3.7,0.3,5.4,0.8s3.3,1.3,4.6,2.4s2.3,2.4,2.9,3.8s1,3.1,1,5c0,2-0.4,3.8-1.1,5.4
				s-1.7,3-3.1,4.2s-2.9,2-4.8,2.5s-3.8,0.8-5.8,0.8c-2,0-3.9-0.3-5.7-0.8s-3.4-1.4-4.7-2.5s-2.3-2.5-2.9-3.9s-0.8-3-0.8-4.8
				c0-2.6,0.6-4.8,1.8-6.8s3-3.5,5.3-4.5S85.5,152.8,88.4,152.8z"/>
			<path class="st0" d="M104.8,176.9c0-0.5-0.1-1.1-0.1-1.6s-0.1-1.4-0.2-2.3l-0.1-1.3c1.1,0.4,2.1,0.8,2.9,1s1.6,0.3,2.3,0.3
				c0.6,0,1-0.1,1.4-0.2c0.4-0.1,0.6-0.3,0.8-0.5s0.2-0.4,0.2-0.6c0-0.2-0.1-0.4-0.2-0.6s-0.4-0.4-0.8-0.7c-1-0.7-1.8-1.3-2.5-1.9
				s-1.3-1.1-1.6-1.5c-0.4-0.4-0.6-0.9-0.8-1.4s-0.3-1-0.3-1.6c0-1,0.3-1.9,0.8-2.7s1.4-1.5,2.5-1.8s2.4-0.6,4-0.6
				c1.6,0,3.7,0.2,6.2,0.6l0.3,4.9c-1.4-0.6-2.8-0.8-4.1-0.8c-0.9,0-1.6,0.1-2,0.3s-0.6,0.5-0.6,0.9c0,0.1,0,0.3,0.1,0.4
				s0.1,0.2,0.3,0.4s0.3,0.3,0.5,0.4s0.6,0.4,1.3,0.9s1.3,0.9,1.7,1.2c0.7,0.5,1.2,1,1.5,1.4s0.6,0.9,0.8,1.4s0.3,1,0.3,1.6
				c0,0.8-0.2,1.6-0.6,2.3s-1,1.3-1.8,1.7s-1.7,0.8-2.6,1s-1.9,0.3-2.9,0.3c-0.7,0-1.5-0.1-2.6-0.2S106.1,177.2,104.8,176.9z"/>
		</g>
		<g class="st22">
			<path class="st0" d="M19.6,176.8c-0.2-2.5-0.3-4.5-0.5-6c1.3,0.6,2.5,1,3.5,1.2s1.9,0.3,2.7,0.3c1,0,1.8-0.1,2.4-0.4
				c0.6-0.3,0.9-0.7,0.9-1.3c0-0.2,0-0.4-0.1-0.6c-0.1-0.2-0.2-0.4-0.3-0.6s-0.4-0.5-0.7-0.7l-3.3-2.9c-0.8-0.7-1.3-1.1-1.6-1.4
				c-0.6-0.6-1.1-1.2-1.5-1.7c-0.3-0.5-0.6-1-0.8-1.6c-0.2-0.5-0.2-1.1-0.2-1.7c0-0.7,0.1-1.4,0.4-2.1s0.6-1.3,1.1-1.9
				s1.2-1.1,2-1.5s1.7-0.7,2.7-0.9s1.9-0.2,2.9-0.2c2,0,4.1,0.2,6.5,0.7c0,0.8,0.1,1.5,0.1,2.2s0.2,1.9,0.3,3.5
				c-1.1-0.4-2.1-0.7-3-0.9s-1.7-0.3-2.3-0.3c-0.9,0-1.7,0.2-2.3,0.5s-0.9,0.8-0.9,1.3c0,0.2,0,0.5,0.1,0.7s0.3,0.5,0.5,0.8
				s0.6,0.6,1,1s1.1,0.9,2,1.6l1.3,1c0.4,0.3,0.8,0.7,1.2,1.1s0.8,0.9,1.1,1.3s0.6,0.8,0.7,1.2s0.3,0.7,0.4,1.1s0.1,0.7,0.1,1.2
				c0,1.1-0.3,2.1-0.8,3s-1.2,1.7-2.1,2.4s-1.9,1-3,1.3s-2.3,0.4-3.5,0.4C24.9,177.6,22.5,177.4,19.6,176.8z"/>
			<path class="st0" d="M40.5,157c0.1-1.4,0.1-2.5,0.1-3.3c0-0.2,0-0.6,0-0.9c1.4,0,2.6,0,3.6,0c1.3,0,2.5,0,3.5,0
				c0,0.4-0.1,0.7-0.1,0.9l-0.1,2.2c0,0.3,0,0.7,0,1.2c-1.2,0-2.3,0-3.3,0C43,156.9,41.8,157,40.5,157z M39.4,177.2
				c0.2-1.4,0.3-2.6,0.4-3.5c0.1-0.9,0.2-2.1,0.2-3.6s0.1-3,0.2-4.8s0.1-3.8,0.1-6.1c1.5,0,2.7,0,3.7,0c0.8,0,2,0,3.6,0
				c-0.2,2.2-0.3,4.2-0.4,5.8s-0.1,3.5-0.2,5.3c0,3.3-0.1,5.6-0.1,6.8c-1.4,0-2.6,0-3.6,0C42.3,177.1,41,177.2,39.4,177.2z"/>
			<path class="st0" d="M48.8,177.2l4-5.3l3-4.1l-5.5-8.5c1.7,0,3.2,0,4.4,0c1.5,0,2.8,0,3.8,0l1.9,4c0.1,0.2,0.3,0.6,0.5,1.1
				c0.9-1.5,2-3.3,3.2-5.2c1,0,2.3,0,3.7,0c1.3,0,2.6,0,3.8,0l-2.8,3.7c-0.6,0.7-1.7,2.3-3.5,4.8c1.1,1.9,3,5,5.9,9.5
				c-1.3,0-2.6,0-3.9,0c-1.6,0-3,0-4.2,0c-0.8-1.6-1.3-2.9-1.7-3.6s-0.7-1.5-1-2.2l-0.6,1c-0.2,0.3-0.4,0.7-0.8,1.3l-2.2,3.5
				c-1.3,0-2.5,0-3.7,0C51.6,177.1,50.2,177.2,48.8,177.2z"/>
			<path class="st0" d="M88,158c-1.3,0-2.6,0.3-3.7,1s-1.9,1.6-2.5,2.8s-0.9,2.4-0.9,3.8c0,1.2,0.3,2.4,0.8,3.4s1.3,1.8,2.4,2.4
				s2.2,0.9,3.5,0.9c1.3,0,2.5-0.3,3.6-1s1.9-1.6,2.5-2.7s0.9-2.4,0.9-3.7c0-1.3-0.3-2.4-0.8-3.5s-1.3-1.9-2.3-2.5S89.3,158,88,158z
				 M88.3,152.7c1.9,0,3.7,0.3,5.4,0.8s3.3,1.3,4.6,2.4s2.3,2.4,2.9,3.8s1,3.1,1,5c0,2-0.4,3.8-1.1,5.4s-1.7,3-3.1,4.2
				s-2.9,2-4.8,2.5s-3.8,0.8-5.8,0.8c-2,0-3.9-0.3-5.7-0.8s-3.4-1.4-4.7-2.5s-2.3-2.5-2.9-3.9s-0.8-3-0.8-4.8c0-2.6,0.6-4.8,1.8-6.8
				s3-3.5,5.3-4.5S85.4,152.7,88.3,152.7z"/>
			<path class="st0" d="M104.6,176.8c0-0.5-0.1-1.1-0.1-1.6s-0.1-1.4-0.2-2.3l-0.1-1.3c1.1,0.4,2.1,0.8,2.9,1s1.6,0.3,2.3,0.3
				c0.6,0,1-0.1,1.4-0.2c0.4-0.1,0.6-0.3,0.8-0.5c0.2-0.2,0.2-0.4,0.2-0.6c0-0.2-0.1-0.4-0.2-0.6c-0.1-0.2-0.4-0.4-0.8-0.7
				c-1-0.7-1.8-1.3-2.5-1.9s-1.3-1.1-1.6-1.5c-0.4-0.4-0.6-0.9-0.8-1.4c-0.2-0.5-0.3-1-0.3-1.6c0-1,0.3-1.9,0.8-2.7s1.4-1.5,2.5-1.8
				s2.4-0.6,4-0.6c1.6,0,3.7,0.2,6.2,0.6l0.3,4.9c-1.4-0.6-2.8-0.8-4.1-0.8c-0.9,0-1.6,0.1-2,0.3s-0.6,0.5-0.6,0.9
				c0,0.1,0,0.3,0.1,0.4s0.1,0.2,0.3,0.4s0.3,0.3,0.5,0.4s0.6,0.4,1.3,0.9s1.3,0.9,1.7,1.2c0.7,0.5,1.2,1,1.5,1.4s0.6,0.9,0.8,1.4
				s0.3,1,0.3,1.6c0,0.8-0.2,1.6-0.6,2.3s-1,1.3-1.8,1.7s-1.7,0.8-2.6,1s-1.9,0.3-2.9,0.3c-0.7,0-1.5-0.1-2.6-0.2
				S106,177.1,104.6,176.8z"/>
		</g>
		<g class="st23">
			<path class="st0" d="M19.5,176.8c-0.2-2.5-0.3-4.5-0.5-6c1.3,0.6,2.5,1,3.5,1.2s1.9,0.3,2.7,0.3c1,0,1.8-0.1,2.4-0.4
				c0.6-0.3,0.9-0.7,0.9-1.3c0-0.2,0-0.4-0.1-0.6c-0.1-0.2-0.2-0.4-0.3-0.6s-0.4-0.5-0.7-0.7l-3.3-2.9c-0.8-0.7-1.3-1.1-1.6-1.4
				c-0.6-0.6-1.1-1.2-1.5-1.7c-0.3-0.5-0.6-1-0.8-1.6c-0.2-0.5-0.2-1.1-0.2-1.7c0-0.7,0.1-1.4,0.4-2.1s0.6-1.3,1.1-1.9
				s1.2-1.1,2-1.5s1.7-0.7,2.7-0.9s1.9-0.2,2.9-0.2c2,0,4.1,0.2,6.5,0.7c0,0.8,0.1,1.5,0.1,2.2s0.2,1.9,0.3,3.5
				c-1.1-0.4-2.1-0.7-3-0.9s-1.7-0.3-2.3-0.3c-0.9,0-1.7,0.2-2.3,0.5s-0.9,0.8-0.9,1.3c0,0.2,0,0.5,0.1,0.7s0.3,0.5,0.5,0.8
				s0.6,0.6,1,1s1.1,0.9,2,1.6l1.3,1c0.4,0.3,0.8,0.7,1.2,1.1s0.8,0.9,1.1,1.3s0.6,0.8,0.7,1.2s0.3,0.7,0.4,1.1s0.1,0.7,0.1,1.2
				c0,1.1-0.3,2.1-0.8,3s-1.2,1.7-2.1,2.4s-1.9,1-3,1.3s-2.3,0.4-3.5,0.4C24.8,177.6,22.4,177.3,19.5,176.8z"/>
			<path class="st0" d="M40.4,156.9c0.1-1.4,0.1-2.5,0.1-3.3c0-0.2,0-0.6,0-0.9c1.4,0,2.6,0,3.6,0c1.3,0,2.5,0,3.5,0
				c0,0.4-0.1,0.7-0.1,0.9l-0.1,2.2c0,0.3,0,0.7,0,1.2c-1.2,0-2.3,0-3.3,0C42.9,156.9,41.7,156.9,40.4,156.9z M39.3,177.1
				c0.2-1.4,0.3-2.6,0.4-3.5c0.1-0.9,0.2-2.1,0.2-3.6s0.1-3,0.2-4.8s0.1-3.8,0.1-6.1c1.5,0,2.7,0,3.7,0c0.8,0,2,0,3.6,0
				c-0.2,2.2-0.3,4.2-0.4,5.8s-0.1,3.5-0.2,5.3c0,3.3-0.1,5.6-0.1,6.8c-1.4,0-2.6,0-3.6,0C42.2,177.1,40.9,177.1,39.3,177.1z"/>
			<path class="st0" d="M48.7,177.1l4-5.3l3-4.1l-5.5-8.5c1.7,0,3.2,0,4.4,0c1.5,0,2.8,0,3.8,0l1.9,4c0.1,0.2,0.3,0.6,0.5,1.1
				c0.9-1.5,2-3.3,3.2-5.2c1,0,2.3,0,3.7,0c1.3,0,2.6,0,3.8,0l-2.8,3.7c-0.6,0.7-1.7,2.3-3.5,4.8c1.1,1.9,3,5,5.9,9.5
				c-1.3,0-2.6,0-3.9,0c-1.6,0-3,0-4.2,0c-0.8-1.6-1.3-2.9-1.7-3.6s-0.7-1.5-1-2.2l-0.6,1c-0.2,0.3-0.4,0.7-0.8,1.3l-2.2,3.5
				c-1.3,0-2.5,0-3.7,0C51.5,177.1,50.1,177.1,48.7,177.1z"/>
			<path class="st0" d="M87.9,158c-1.3,0-2.6,0.3-3.7,1s-1.9,1.6-2.5,2.8s-0.9,2.4-0.9,3.8c0,1.2,0.3,2.4,0.8,3.4s1.3,1.8,2.4,2.4
				s2.2,0.9,3.5,0.9c1.3,0,2.5-0.3,3.6-1s1.9-1.6,2.5-2.7s0.9-2.4,0.9-3.7c0-1.3-0.3-2.4-0.8-3.5s-1.3-1.9-2.3-2.5
				S89.2,158,87.9,158z M88.2,152.7c1.9,0,3.7,0.3,5.4,0.8s3.3,1.3,4.6,2.4s2.3,2.4,2.9,3.8s1,3.1,1,5c0,2-0.4,3.8-1.1,5.4
				s-1.7,3-3.1,4.2s-2.9,2-4.8,2.5s-3.8,0.8-5.8,0.8c-2,0-3.9-0.3-5.7-0.8s-3.4-1.4-4.7-2.5s-2.3-2.5-2.9-3.9s-0.8-3-0.8-4.8
				c0-2.6,0.6-4.8,1.8-6.8s3-3.5,5.3-4.5S85.3,152.7,88.2,152.7z"/>
			<path class="st0" d="M104.5,176.8c0-0.5-0.1-1.1-0.1-1.6s-0.1-1.4-0.2-2.3l-0.1-1.3c1.1,0.4,2.1,0.8,2.9,1s1.6,0.3,2.3,0.3
				c0.6,0,1-0.1,1.4-0.2c0.4-0.1,0.6-0.3,0.8-0.5c0.2-0.2,0.2-0.4,0.2-0.6c0-0.2-0.1-0.4-0.2-0.6c-0.1-0.2-0.4-0.4-0.8-0.7
				c-1-0.7-1.8-1.3-2.5-1.9s-1.3-1.1-1.6-1.5c-0.4-0.4-0.6-0.9-0.8-1.4c-0.2-0.5-0.3-1-0.3-1.6c0-1,0.3-1.9,0.8-2.7s1.4-1.5,2.5-1.8
				s2.4-0.6,4-0.6c1.6,0,3.7,0.2,6.2,0.6l0.3,4.9c-1.4-0.6-2.8-0.8-4.1-0.8c-0.9,0-1.6,0.1-2,0.3s-0.6,0.5-0.6,0.9
				c0,0.1,0,0.3,0.1,0.4s0.1,0.2,0.3,0.4s0.3,0.3,0.5,0.4s0.6,0.4,1.3,0.9s1.3,0.9,1.7,1.2c0.7,0.5,1.2,1,1.5,1.4s0.6,0.9,0.8,1.4
				s0.3,1,0.3,1.6c0,0.8-0.2,1.6-0.6,2.3s-1,1.3-1.8,1.7s-1.7,0.8-2.6,1s-1.9,0.3-2.9,0.3c-0.7,0-1.5-0.1-2.6-0.2
				S105.9,177.1,104.5,176.8z"/>
		</g>
		<g class="st24">
			<path class="st0" d="M19.4,176.7c-0.2-2.5-0.3-4.5-0.5-6c1.3,0.6,2.5,1,3.5,1.2s1.9,0.3,2.7,0.3c1,0,1.8-0.1,2.4-0.4
				c0.6-0.3,0.9-0.7,0.9-1.3c0-0.2,0-0.4-0.1-0.6c-0.1-0.2-0.2-0.4-0.3-0.6s-0.4-0.5-0.7-0.7l-3.3-2.9c-0.8-0.7-1.3-1.1-1.6-1.4
				c-0.6-0.6-1.1-1.2-1.5-1.7c-0.3-0.5-0.6-1-0.8-1.6c-0.2-0.5-0.2-1.1-0.2-1.7c0-0.7,0.1-1.4,0.4-2.1s0.6-1.3,1.1-1.9
				s1.2-1.1,2-1.5s1.7-0.7,2.7-0.9s1.9-0.2,2.9-0.2c2,0,4.1,0.2,6.5,0.7c0,0.8,0.1,1.5,0.1,2.2s0.2,1.9,0.3,3.5
				c-1.1-0.4-2.1-0.7-3-0.9s-1.7-0.3-2.3-0.3c-0.9,0-1.7,0.2-2.3,0.5s-0.9,0.8-0.9,1.3c0,0.2,0,0.5,0.1,0.7s0.3,0.5,0.5,0.8
				s0.6,0.6,1,1s1.1,0.9,2,1.6l1.3,1c0.4,0.3,0.8,0.7,1.2,1.1s0.8,0.9,1.1,1.3s0.6,0.8,0.7,1.2s0.3,0.7,0.4,1.1s0.1,0.7,0.1,1.2
				c0,1.1-0.3,2.1-0.8,3s-1.2,1.7-2.1,2.4s-1.9,1-3,1.3s-2.3,0.4-3.5,0.4C24.6,177.5,22.2,177.3,19.4,176.7z"/>
			<path class="st0" d="M40.3,156.9c0.1-1.4,0.1-2.5,0.1-3.3c0-0.2,0-0.6,0-0.9c1.4,0,2.6,0,3.6,0c1.3,0,2.5,0,3.5,0
				c0,0.4-0.1,0.7-0.1,0.9l-0.1,2.2c0,0.3,0,0.7,0,1.2c-1.2,0-2.3,0-3.3,0C42.7,156.9,41.5,156.9,40.3,156.9z M39.1,177.1
				c0.2-1.4,0.3-2.6,0.4-3.5c0.1-0.9,0.2-2.1,0.2-3.6s0.1-3,0.2-4.8s0.1-3.8,0.1-6.1c1.5,0,2.7,0,3.7,0c0.8,0,2,0,3.6,0
				c-0.2,2.2-0.3,4.2-0.4,5.8s-0.1,3.5-0.2,5.3c0,3.3-0.1,5.6-0.1,6.8c-1.4,0-2.6,0-3.6,0C42.1,177.1,40.8,177.1,39.1,177.1z"/>
			<path class="st0" d="M48.6,177.1l4-5.3l3-4.1l-5.5-8.5c1.7,0,3.2,0,4.4,0c1.5,0,2.8,0,3.8,0l1.9,4c0.1,0.2,0.3,0.6,0.5,1.1
				c0.9-1.5,2-3.3,3.2-5.2c1,0,2.3,0,3.7,0c1.3,0,2.6,0,3.8,0l-2.8,3.7c-0.6,0.7-1.7,2.3-3.5,4.8c1.1,1.9,3,5,5.9,9.5
				c-1.3,0-2.6,0-3.9,0c-1.6,0-3,0-4.2,0c-0.8-1.6-1.3-2.9-1.7-3.6s-0.7-1.5-1-2.2l-0.6,1c-0.2,0.3-0.4,0.7-0.8,1.3l-2.2,3.5
				c-1.3,0-2.5,0-3.7,0C51.4,177.1,50,177.1,48.6,177.1z"/>
			<path class="st0" d="M87.8,157.9c-1.3,0-2.6,0.3-3.7,1s-1.9,1.6-2.5,2.8s-0.9,2.4-0.9,3.8c0,1.2,0.3,2.4,0.8,3.4s1.3,1.8,2.4,2.4
				s2.2,0.9,3.5,0.9c1.3,0,2.5-0.3,3.6-1s1.9-1.6,2.5-2.7s0.9-2.4,0.9-3.7c0-1.3-0.3-2.4-0.8-3.5s-1.3-1.9-2.3-2.5
				S89,157.9,87.8,157.9z M88.1,152.6c1.9,0,3.7,0.3,5.4,0.8s3.3,1.3,4.6,2.4s2.3,2.4,2.9,3.8s1,3.1,1,5c0,2-0.4,3.8-1.1,5.4
				s-1.7,3-3.1,4.2s-2.9,2-4.8,2.5s-3.8,0.8-5.8,0.8c-2,0-3.9-0.3-5.7-0.8s-3.4-1.4-4.7-2.5s-2.3-2.5-2.9-3.9s-0.8-3-0.8-4.8
				c0-2.6,0.6-4.8,1.8-6.8s3-3.5,5.3-4.5S85.2,152.6,88.1,152.6z"/>
			<path class="st0" d="M104.4,176.8c0-0.5-0.1-1.1-0.1-1.6s-0.1-1.4-0.2-2.3l-0.1-1.3c1.1,0.4,2.1,0.8,2.9,1s1.6,0.3,2.3,0.3
				c0.6,0,1-0.1,1.4-0.2c0.4-0.1,0.6-0.3,0.8-0.5c0.2-0.2,0.2-0.4,0.2-0.6c0-0.2-0.1-0.4-0.2-0.6c-0.1-0.2-0.4-0.4-0.8-0.7
				c-1-0.7-1.8-1.3-2.5-1.9s-1.3-1.1-1.6-1.5c-0.4-0.4-0.6-0.9-0.8-1.4c-0.2-0.5-0.3-1-0.3-1.6c0-1,0.3-1.9,0.8-2.7s1.4-1.5,2.5-1.8
				s2.4-0.6,4-0.6c1.6,0,3.7,0.2,6.2,0.6l0.3,4.9c-1.4-0.6-2.8-0.8-4.1-0.8c-0.9,0-1.6,0.1-2,0.3s-0.6,0.5-0.6,0.9
				c0,0.1,0,0.3,0.1,0.4s0.1,0.2,0.3,0.4s0.3,0.3,0.5,0.4s0.6,0.4,1.3,0.9s1.3,0.9,1.7,1.2c0.7,0.5,1.2,1,1.5,1.4s0.6,0.9,0.8,1.4
				s0.3,1,0.3,1.6c0,0.8-0.2,1.6-0.6,2.3s-1,1.3-1.8,1.7s-1.7,0.8-2.6,1s-1.9,0.3-2.9,0.3c-0.7,0-1.5-0.1-2.6-0.2
				S105.8,177.1,104.4,176.8z"/>
		</g>
		<g class="st25">
			<path class="st0" d="M19.2,176.7c-0.2-2.5-0.3-4.5-0.5-6c1.3,0.6,2.5,1,3.5,1.2s1.9,0.3,2.7,0.3c1,0,1.8-0.1,2.4-0.4
				c0.6-0.3,0.9-0.7,0.9-1.3c0-0.2,0-0.4-0.1-0.6c-0.1-0.2-0.2-0.4-0.3-0.6s-0.4-0.5-0.7-0.7l-3.3-2.9c-0.8-0.7-1.3-1.1-1.6-1.4
				c-0.6-0.6-1.1-1.2-1.5-1.7c-0.3-0.5-0.6-1-0.8-1.6c-0.2-0.5-0.2-1.1-0.2-1.7c0-0.7,0.1-1.4,0.4-2.1s0.6-1.3,1.1-1.9
				s1.2-1.1,2-1.5s1.7-0.7,2.7-0.9s1.9-0.2,2.9-0.2c2,0,4.1,0.2,6.5,0.7c0,0.8,0.1,1.5,0.1,2.2s0.2,1.9,0.3,3.5
				c-1.1-0.4-2.1-0.7-3-0.9s-1.7-0.3-2.3-0.3c-0.9,0-1.7,0.2-2.3,0.5s-0.9,0.8-0.9,1.3c0,0.2,0,0.5,0.1,0.7s0.3,0.5,0.5,0.8
				s0.6,0.6,1,1s1.1,0.9,2,1.6l1.3,1c0.4,0.3,0.8,0.7,1.2,1.1s0.8,0.9,1.1,1.3s0.6,0.8,0.7,1.2s0.3,0.7,0.4,1.1s0.1,0.7,0.1,1.2
				c0,1.1-0.3,2.1-0.8,3s-1.2,1.7-2.1,2.4s-1.9,1-3,1.3s-2.3,0.4-3.5,0.4C24.5,177.5,22.1,177.2,19.2,176.7z"/>
			<path class="st0" d="M40.1,156.9c0.1-1.4,0.1-2.5,0.1-3.3c0-0.2,0-0.6,0-0.9c1.4,0,2.6,0,3.6,0c1.3,0,2.5,0,3.5,0
				c0,0.4-0.1,0.7-0.1,0.9l-0.1,2.2c0,0.3,0,0.7,0,1.2c-1.2,0-2.3,0-3.3,0C42.6,156.8,41.4,156.8,40.1,156.9z M39,177
				c0.2-1.4,0.3-2.6,0.4-3.5c0.1-0.9,0.2-2.1,0.2-3.6s0.1-3,0.2-4.8s0.1-3.8,0.1-6.1c1.5,0,2.7,0,3.7,0c0.8,0,2,0,3.6,0
				c-0.2,2.2-0.3,4.2-0.4,5.8s-0.1,3.5-0.2,5.3c0,3.3-0.1,5.6-0.1,6.8c-1.4,0-2.6,0-3.6,0C41.9,177,40.6,177,39,177z"/>
			<path class="st0" d="M48.5,177l4-5.3l3-4.1l-5.5-8.5c1.7,0,3.2,0,4.4,0c1.5,0,2.8,0,3.8,0l1.9,4c0.1,0.2,0.3,0.6,0.5,1.1
				c0.9-1.5,2-3.3,3.2-5.2c1,0,2.3,0,3.7,0c1.3,0,2.6,0,3.8,0l-2.8,3.7c-0.6,0.7-1.7,2.3-3.5,4.8c1.1,1.9,3,5,5.9,9.5
				c-1.3,0-2.6,0-3.9,0c-1.6,0-3,0-4.2,0c-0.8-1.6-1.3-2.9-1.7-3.6s-0.7-1.5-1-2.2l-0.6,1c-0.2,0.3-0.4,0.7-0.8,1.3l-2.2,3.5
				c-1.3,0-2.5,0-3.7,0C51.3,177,49.9,177,48.5,177z"/>
			<path class="st0" d="M87.6,157.9c-1.3,0-2.6,0.3-3.7,1s-1.9,1.6-2.5,2.8s-0.9,2.4-0.9,3.8c0,1.2,0.3,2.4,0.8,3.4s1.3,1.8,2.4,2.4
				s2.2,0.9,3.5,0.9c1.3,0,2.5-0.3,3.6-1s1.9-1.6,2.5-2.7s0.9-2.4,0.9-3.7c0-1.3-0.3-2.4-0.8-3.5s-1.3-1.9-2.3-2.5
				S88.9,157.9,87.6,157.9z M88,152.6c1.9,0,3.7,0.3,5.4,0.8s3.3,1.3,4.6,2.4s2.3,2.4,2.9,3.8s1,3.1,1,5c0,2-0.4,3.8-1.1,5.4
				s-1.7,3-3.1,4.2s-2.9,2-4.8,2.5s-3.8,0.8-5.8,0.8c-2,0-3.9-0.3-5.7-0.8s-3.4-1.4-4.7-2.5s-2.3-2.5-2.9-3.9s-0.8-3-0.8-4.8
				c0-2.6,0.6-4.8,1.8-6.8s3-3.5,5.3-4.5S85,152.6,88,152.6z"/>
			<path class="st0" d="M104.3,176.7c0-0.5-0.1-1.1-0.1-1.6s-0.1-1.4-0.2-2.3l-0.1-1.3c1.1,0.4,2.1,0.8,2.9,1s1.6,0.3,2.3,0.3
				c0.6,0,1-0.1,1.4-0.2c0.4-0.1,0.6-0.3,0.8-0.5c0.2-0.2,0.2-0.4,0.2-0.6c0-0.2-0.1-0.4-0.2-0.6c-0.1-0.2-0.4-0.4-0.8-0.7
				c-1-0.7-1.8-1.3-2.5-1.9s-1.3-1.1-1.6-1.5c-0.4-0.4-0.6-0.9-0.8-1.4c-0.2-0.5-0.3-1-0.3-1.6c0-1,0.3-1.9,0.8-2.7s1.4-1.5,2.5-1.8
				s2.4-0.6,4-0.6c1.6,0,3.7,0.2,6.2,0.6l0.3,4.9c-1.4-0.6-2.8-0.8-4.1-0.8c-0.9,0-1.6,0.1-2,0.3s-0.6,0.5-0.6,0.9
				c0,0.1,0,0.3,0.1,0.4s0.1,0.2,0.3,0.4s0.3,0.3,0.5,0.4s0.6,0.4,1.3,0.9s1.3,0.9,1.7,1.2c0.7,0.5,1.2,1,1.5,1.4s0.6,0.9,0.8,1.4
				s0.3,1,0.3,1.6c0,0.8-0.2,1.6-0.6,2.3s-1,1.3-1.8,1.7s-1.7,0.8-2.6,1s-1.9,0.3-2.9,0.3c-0.7,0-1.5-0.1-2.6-0.2
				S105.6,177,104.3,176.7z"/>
		</g>
		<g class="st26">
			<path class="st0" d="M19.1,176.6c-0.2-2.5-0.3-4.5-0.5-6c1.3,0.6,2.5,1,3.5,1.2s1.9,0.3,2.7,0.3c1,0,1.8-0.1,2.4-0.4
				c0.6-0.3,0.9-0.7,0.9-1.3c0-0.2,0-0.4-0.1-0.6c-0.1-0.2-0.2-0.4-0.3-0.6s-0.4-0.5-0.7-0.7l-3.3-2.9c-0.8-0.7-1.3-1.1-1.6-1.4
				c-0.6-0.6-1.1-1.2-1.5-1.7c-0.3-0.5-0.6-1-0.8-1.6c-0.2-0.5-0.2-1.1-0.2-1.7c0-0.7,0.1-1.4,0.4-2.1s0.6-1.3,1.1-1.9
				s1.2-1.1,2-1.5s1.7-0.7,2.7-0.9s1.9-0.2,2.9-0.2c2,0,4.1,0.2,6.5,0.7c0,0.8,0.1,1.5,0.1,2.2s0.2,1.9,0.3,3.5
				c-1.1-0.4-2.1-0.7-3-0.9c-0.9-0.2-1.7-0.3-2.3-0.3c-0.9,0-1.7,0.2-2.3,0.5s-0.9,0.8-0.9,1.3c0,0.2,0,0.5,0.1,0.7s0.3,0.5,0.5,0.8
				s0.6,0.6,1,1s1.1,0.9,2,1.6l1.3,1c0.4,0.3,0.8,0.7,1.2,1.1s0.8,0.9,1.1,1.3s0.6,0.8,0.7,1.2s0.3,0.7,0.4,1.1s0.1,0.7,0.1,1.2
				c0,1.1-0.3,2.1-0.8,3s-1.2,1.7-2.1,2.4c-0.9,0.6-1.9,1-3,1.3s-2.3,0.4-3.5,0.4C24.4,177.5,22,177.2,19.1,176.6z"/>
			<path class="st0" d="M40,156.8c0.1-1.4,0.1-2.5,0.1-3.3c0-0.2,0-0.6,0-0.9c1.4,0,2.6,0,3.6,0c1.3,0,2.5,0,3.5,0
				c0,0.4-0.1,0.7-0.1,0.9l-0.1,2.2c0,0.3,0,0.7,0,1.2c-1.2,0-2.3,0-3.3,0C42.5,156.8,41.3,156.8,40,156.8z M38.9,177
				c0.2-1.4,0.3-2.6,0.4-3.5c0.1-0.9,0.2-2.1,0.2-3.6s0.1-3,0.2-4.8s0.1-3.8,0.1-6.1c1.5,0,2.7,0,3.7,0c0.8,0,2,0,3.6,0
				c-0.2,2.2-0.3,4.2-0.4,5.8s-0.1,3.5-0.2,5.3c0,3.3-0.1,5.6-0.1,6.8c-1.4,0-2.6,0-3.6,0C41.8,177,40.5,177,38.9,177z"/>
			<path class="st0" d="M48.3,177l4-5.3l3-4.1l-5.5-8.5c1.7,0,3.2,0,4.4,0c1.5,0,2.8,0,3.8,0l1.9,4c0.1,0.2,0.3,0.6,0.5,1.1
				c0.9-1.5,2-3.3,3.2-5.2c1,0,2.3,0,3.7,0c1.3,0,2.6,0,3.8,0l-2.8,3.7c-0.6,0.7-1.7,2.3-3.5,4.8c1.1,1.9,3,5,5.9,9.5
				c-1.3,0-2.6,0-3.9,0c-1.6,0-3,0-4.2,0c-0.8-1.6-1.3-2.9-1.7-3.6s-0.7-1.5-1-2.2l-0.6,1c-0.2,0.3-0.4,0.7-0.8,1.3l-2.2,3.5
				c-1.3,0-2.5,0-3.7,0C51.2,177,49.8,177,48.3,177z"/>
			<path class="st0" d="M87.5,157.8c-1.3,0-2.6,0.3-3.7,1s-1.9,1.6-2.5,2.8s-0.9,2.4-0.9,3.8c0,1.2,0.3,2.4,0.8,3.4s1.3,1.8,2.4,2.4
				s2.2,0.9,3.5,0.9c1.3,0,2.5-0.3,3.6-1s1.9-1.6,2.5-2.7s0.9-2.4,0.9-3.7c0-1.3-0.3-2.4-0.8-3.5s-1.3-1.9-2.3-2.5
				S88.8,157.8,87.5,157.8z M87.8,152.6c1.9,0,3.7,0.3,5.4,0.8s3.3,1.3,4.6,2.4s2.3,2.4,2.9,3.8s1,3.1,1,5c0,2-0.4,3.8-1.1,5.4
				s-1.7,3-3.1,4.2s-2.9,2-4.8,2.5s-3.8,0.8-5.8,0.8c-2,0-3.9-0.3-5.7-0.8s-3.4-1.4-4.7-2.5s-2.3-2.5-2.9-3.9s-0.8-3-0.8-4.8
				c0-2.6,0.6-4.8,1.8-6.8s3-3.5,5.3-4.5S84.9,152.6,87.8,152.6z"/>
			<path class="st0" d="M104.2,176.7c0-0.5-0.1-1.1-0.1-1.6s-0.1-1.4-0.2-2.3l-0.1-1.3c1.1,0.4,2.1,0.8,2.9,1s1.6,0.3,2.3,0.3
				c0.6,0,1-0.1,1.4-0.2c0.4-0.1,0.6-0.3,0.8-0.5c0.2-0.2,0.2-0.4,0.2-0.6c0-0.2-0.1-0.4-0.2-0.6c-0.1-0.2-0.4-0.4-0.8-0.7
				c-1-0.7-1.8-1.3-2.5-1.9s-1.3-1.1-1.6-1.5c-0.4-0.4-0.6-0.9-0.8-1.4c-0.2-0.5-0.3-1-0.3-1.6c0-1,0.3-1.9,0.8-2.7s1.4-1.5,2.5-1.8
				s2.4-0.6,4-0.6c1.6,0,3.7,0.2,6.2,0.6l0.3,4.9c-1.4-0.6-2.8-0.8-4.1-0.8c-0.9,0-1.6,0.1-2,0.3s-0.6,0.5-0.6,0.9
				c0,0.1,0,0.3,0.1,0.4s0.1,0.2,0.3,0.4s0.3,0.3,0.5,0.4s0.6,0.4,1.3,0.9s1.3,0.9,1.7,1.2c0.7,0.5,1.2,1,1.5,1.4s0.6,0.9,0.8,1.4
				s0.3,1,0.3,1.6c0,0.8-0.2,1.6-0.6,2.3s-1,1.3-1.8,1.7s-1.7,0.8-2.6,1s-1.9,0.3-2.9,0.3c-0.7,0-1.5-0.1-2.6-0.2
				S105.5,177,104.2,176.7z"/>
		</g>
		<g class="st27">
			<path class="st0" d="M19,176.6c-0.2-2.5-0.3-4.5-0.5-6c1.3,0.6,2.5,1,3.5,1.2s1.9,0.3,2.7,0.3c1,0,1.8-0.1,2.4-0.4
				c0.6-0.3,0.9-0.7,0.9-1.3c0-0.2,0-0.4-0.1-0.6c-0.1-0.2-0.2-0.4-0.3-0.6s-0.4-0.5-0.7-0.7l-3.3-2.9c-0.8-0.7-1.3-1.1-1.6-1.4
				c-0.6-0.6-1.1-1.2-1.5-1.7c-0.3-0.5-0.6-1-0.8-1.6c-0.2-0.5-0.2-1.1-0.2-1.7c0-0.7,0.1-1.4,0.4-2.1s0.6-1.3,1.1-1.9
				s1.2-1.1,2-1.5s1.7-0.7,2.7-0.9s1.9-0.2,2.9-0.2c2,0,4.1,0.2,6.5,0.7c0,0.8,0.1,1.5,0.1,2.2s0.2,1.9,0.3,3.5
				c-1.1-0.4-2.1-0.7-3-0.9s-1.7-0.3-2.3-0.3c-0.9,0-1.7,0.2-2.3,0.5s-0.9,0.8-0.9,1.3c0,0.2,0,0.5,0.1,0.7s0.3,0.5,0.5,0.8
				s0.6,0.6,1,1s1.1,0.9,2,1.6l1.3,1c0.4,0.3,0.8,0.7,1.2,1.1s0.8,0.9,1.1,1.3s0.6,0.8,0.7,1.2s0.3,0.7,0.4,1.1s0.1,0.7,0.1,1.2
				c0,1.1-0.3,2.1-0.8,3s-1.2,1.7-2.1,2.4s-1.9,1-3,1.3s-2.3,0.4-3.5,0.4C24.3,177.4,21.9,177.1,19,176.6z"/>
			<path class="st0" d="M39.9,156.8c0.1-1.4,0.1-2.5,0.1-3.3c0-0.2,0-0.6,0-0.9c1.4,0,2.6,0,3.6,0c1.3,0,2.5,0,3.5,0
				c0,0.4-0.1,0.7-0.1,0.9l-0.1,2.2c0,0.3,0,0.7,0,1.2c-1.2,0-2.3,0-3.3,0C42.4,156.7,41.2,156.7,39.9,156.8z M38.8,177
				c0.2-1.4,0.3-2.6,0.4-3.5c0.1-0.9,0.2-2.1,0.2-3.6s0.1-3,0.2-4.8s0.1-3.8,0.1-6.1c1.5,0,2.7,0,3.7,0c0.8,0,2,0,3.6,0
				c-0.2,2.2-0.3,4.2-0.4,5.8s-0.1,3.5-0.2,5.3c0,3.3-0.1,5.6-0.1,6.8c-1.4,0-2.6,0-3.6,0C41.7,176.9,40.4,176.9,38.8,177z"/>
			<path class="st0" d="M48.2,177l4-5.3l3-4.1l-5.5-8.5c1.7,0,3.2,0,4.4,0c1.5,0,2.8,0,3.8,0l1.9,4c0.1,0.2,0.3,0.6,0.5,1.1
				c0.9-1.5,2-3.3,3.2-5.2c1,0,2.3,0,3.7,0c1.3,0,2.6,0,3.8,0l-2.8,3.7c-0.6,0.7-1.7,2.3-3.5,4.8c1.1,1.9,3,5,5.9,9.5
				c-1.3,0-2.6,0-3.9,0c-1.6,0-3,0-4.2,0c-0.8-1.6-1.3-2.9-1.7-3.6s-0.7-1.5-1-2.2l-0.6,1c-0.2,0.3-0.4,0.7-0.8,1.3l-2.2,3.5
				c-1.3,0-2.5,0-3.7,0C51,176.9,49.6,176.9,48.2,177z"/>
			<path class="st0" d="M87.4,157.8c-1.3,0-2.6,0.3-3.7,1s-1.9,1.6-2.5,2.8s-0.9,2.4-0.9,3.8c0,1.2,0.3,2.4,0.8,3.4s1.3,1.8,2.4,2.4
				s2.2,0.9,3.5,0.9c1.3,0,2.5-0.3,3.6-1s1.9-1.6,2.5-2.7s0.9-2.4,0.9-3.7c0-1.3-0.3-2.4-0.8-3.5s-1.3-1.9-2.3-2.5
				S88.7,157.8,87.4,157.8z M87.7,152.5c1.9,0,3.7,0.3,5.4,0.8s3.3,1.3,4.6,2.4s2.3,2.4,2.9,3.8s1,3.1,1,5c0,2-0.4,3.8-1.1,5.4
				s-1.7,3-3.1,4.2s-2.9,2-4.8,2.5s-3.8,0.8-5.8,0.8c-2,0-3.9-0.3-5.7-0.8s-3.4-1.4-4.7-2.5s-2.3-2.5-2.9-3.9s-0.8-3-0.8-4.8
				c0-2.6,0.6-4.8,1.8-6.8s3-3.5,5.3-4.5S84.8,152.5,87.7,152.5z"/>
			<path class="st0" d="M104,176.6c0-0.5-0.1-1.1-0.1-1.6s-0.1-1.4-0.2-2.3l-0.1-1.3c1.1,0.4,2.1,0.8,2.9,1s1.6,0.3,2.3,0.3
				c0.6,0,1-0.1,1.4-0.2c0.4-0.1,0.6-0.3,0.8-0.5c0.2-0.2,0.2-0.4,0.2-0.6c0-0.2-0.1-0.4-0.2-0.6c-0.1-0.2-0.4-0.4-0.8-0.7
				c-1-0.7-1.8-1.3-2.5-1.9s-1.3-1.1-1.6-1.5c-0.4-0.4-0.6-0.9-0.8-1.4c-0.2-0.5-0.3-1-0.3-1.6c0-1,0.3-1.9,0.8-2.7s1.4-1.5,2.5-1.8
				s2.4-0.6,4-0.6c1.6,0,3.7,0.2,6.2,0.6l0.3,4.9c-1.4-0.6-2.8-0.8-4.1-0.8c-0.9,0-1.6,0.1-2,0.3s-0.6,0.5-0.6,0.9
				c0,0.1,0,0.3,0.1,0.4s0.1,0.2,0.3,0.4s0.3,0.3,0.5,0.4s0.6,0.4,1.3,0.9s1.3,0.9,1.7,1.2c0.7,0.5,1.2,1,1.5,1.4s0.6,0.9,0.8,1.4
				s0.3,1,0.3,1.6c0,0.8-0.2,1.6-0.6,2.3s-1,1.3-1.8,1.7s-1.7,0.8-2.6,1s-1.9,0.3-2.9,0.3c-0.7,0-1.5-0.1-2.6-0.2
				S105.4,176.9,104,176.6z"/>
		</g>
		<g class="st28">
			<path class="st0" d="M18.9,176.5c-0.2-2.5-0.3-4.5-0.5-6c1.3,0.6,2.5,1,3.5,1.2s1.9,0.3,2.7,0.3c1,0,1.8-0.1,2.4-0.4
				c0.6-0.3,0.9-0.7,0.9-1.3c0-0.2,0-0.4-0.1-0.6c-0.1-0.2-0.2-0.4-0.3-0.6s-0.4-0.5-0.7-0.7l-3.3-2.9c-0.8-0.7-1.3-1.1-1.6-1.4
				c-0.6-0.6-1.1-1.2-1.5-1.7c-0.3-0.5-0.6-1-0.8-1.6c-0.2-0.5-0.2-1.1-0.2-1.7c0-0.7,0.1-1.4,0.4-2.1s0.6-1.3,1.1-1.9
				s1.2-1.1,2-1.5s1.7-0.7,2.7-0.9s1.9-0.2,2.9-0.2c2,0,4.1,0.2,6.5,0.7c0,0.8,0.1,1.5,0.1,2.2s0.2,1.9,0.3,3.5
				c-1.1-0.4-2.1-0.7-3-0.9c-0.9-0.2-1.7-0.3-2.3-0.3c-0.9,0-1.7,0.2-2.3,0.5S27,159,27,159.5c0,0.2,0,0.5,0.1,0.7s0.3,0.5,0.5,0.8
				s0.6,0.6,1,1s1.1,0.9,2,1.6l1.3,1c0.4,0.3,0.8,0.7,1.2,1.1s0.8,0.9,1.1,1.3s0.6,0.8,0.7,1.2s0.3,0.7,0.4,1.1s0.1,0.7,0.1,1.2
				c0,1.1-0.3,2.1-0.8,3s-1.2,1.7-2.1,2.4c-0.9,0.6-1.9,1-3,1.3s-2.3,0.4-3.5,0.4C24.2,177.4,21.8,177.1,18.9,176.5z"/>
			<path class="st0" d="M39.8,156.7c0.1-1.4,0.1-2.5,0.1-3.3c0-0.2,0-0.6,0-0.9c1.4,0,2.6,0,3.6,0c1.3,0,2.5,0,3.5,0
				c0,0.4-0.1,0.7-0.1,0.9l-0.1,2.2c0,0.3,0,0.7,0,1.2c-1.2,0-2.3,0-3.3,0C42.3,156.7,41.1,156.7,39.8,156.7z M38.7,176.9
				c0.2-1.4,0.3-2.6,0.4-3.5c0.1-0.9,0.2-2.1,0.2-3.6s0.1-3,0.2-4.8s0.1-3.8,0.1-6.1c1.5,0,2.7,0,3.7,0c0.8,0,2,0,3.6,0
				c-0.2,2.2-0.3,4.2-0.4,5.8s-0.1,3.5-0.2,5.3c0,3.3-0.1,5.6-0.1,6.8c-1.4,0-2.6,0-3.6,0C41.6,176.9,40.3,176.9,38.7,176.9z"/>
			<path class="st0" d="M48.1,176.9l4-5.3l3-4.1l-5.5-8.5c1.7,0,3.2,0,4.4,0c1.5,0,2.8,0,3.8,0l1.9,4c0.1,0.2,0.3,0.6,0.5,1.1
				c0.9-1.5,2-3.3,3.2-5.2c1,0,2.3,0,3.7,0c1.3,0,2.6,0,3.8,0l-2.8,3.7c-0.6,0.7-1.7,2.3-3.5,4.8c1.1,1.9,3,5,5.9,9.5
				c-1.3,0-2.6,0-3.9,0c-1.6,0-3,0-4.2,0c-0.8-1.6-1.3-2.9-1.7-3.6s-0.7-1.5-1-2.2l-0.6,1c-0.2,0.3-0.4,0.7-0.8,1.3l-2.2,3.5
				c-1.3,0-2.5,0-3.7,0C50.9,176.9,49.5,176.9,48.1,176.9z"/>
			<path class="st0" d="M87.3,157.8c-1.3,0-2.6,0.3-3.7,1s-1.9,1.6-2.5,2.8s-0.9,2.4-0.9,3.8c0,1.2,0.3,2.4,0.8,3.4s1.3,1.8,2.4,2.4
				s2.2,0.9,3.5,0.9c1.3,0,2.5-0.3,3.6-1s1.9-1.6,2.5-2.7s0.9-2.4,0.9-3.7c0-1.3-0.3-2.4-0.8-3.5s-1.3-1.9-2.3-2.5
				S88.6,157.8,87.3,157.8z M87.6,152.5c1.9,0,3.7,0.3,5.4,0.8s3.3,1.3,4.6,2.4s2.3,2.4,2.9,3.8s1,3.1,1,5c0,2-0.4,3.8-1.1,5.4
				s-1.7,3-3.1,4.2s-2.9,2-4.8,2.5s-3.8,0.8-5.8,0.8c-2,0-3.9-0.3-5.7-0.8s-3.4-1.4-4.7-2.5s-2.3-2.5-2.9-3.9s-0.8-3-0.8-4.8
				c0-2.6,0.6-4.8,1.8-6.8s3-3.5,5.3-4.5S84.7,152.5,87.6,152.5z"/>
			<path class="st0" d="M103.9,176.6c0-0.5-0.1-1.1-0.1-1.6s-0.1-1.4-0.2-2.3l-0.1-1.3c1.1,0.4,2.1,0.8,2.9,1s1.6,0.3,2.3,0.3
				c0.6,0,1-0.1,1.4-0.2c0.4-0.1,0.6-0.3,0.8-0.5c0.2-0.2,0.2-0.4,0.2-0.6c0-0.2-0.1-0.4-0.2-0.6c-0.1-0.2-0.4-0.4-0.8-0.7
				c-1-0.7-1.8-1.3-2.5-1.9s-1.3-1.1-1.6-1.5c-0.4-0.4-0.6-0.9-0.8-1.4c-0.2-0.5-0.3-1-0.3-1.6c0-1,0.3-1.9,0.8-2.7s1.4-1.5,2.5-1.8
				s2.4-0.6,4-0.6c1.6,0,3.7,0.2,6.2,0.6l0.3,4.9c-1.4-0.6-2.8-0.8-4.1-0.8c-0.9,0-1.6,0.1-2,0.3s-0.6,0.5-0.6,0.9
				c0,0.1,0,0.3,0.1,0.4s0.1,0.2,0.3,0.4s0.3,0.3,0.5,0.4s0.6,0.4,1.3,0.9s1.3,0.9,1.7,1.2c0.7,0.5,1.2,1,1.5,1.4s0.6,0.9,0.8,1.4
				s0.3,1,0.3,1.6c0,0.8-0.2,1.6-0.6,2.3s-1,1.3-1.8,1.7s-1.7,0.8-2.6,1s-1.9,0.3-2.9,0.3c-0.7,0-1.5-0.1-2.6-0.2
				S105.3,176.9,103.9,176.6z"/>
		</g>
		<g class="st29">
			<path class="st0" d="M18.8,176.5c-0.2-2.5-0.3-4.5-0.5-6c1.3,0.6,2.5,1,3.5,1.2s1.9,0.3,2.7,0.3c1,0,1.8-0.1,2.4-0.4
				c0.6-0.3,0.9-0.7,0.9-1.3c0-0.2,0-0.4-0.1-0.6c-0.1-0.2-0.2-0.4-0.3-0.6s-0.4-0.5-0.7-0.7l-3.3-2.9c-0.8-0.7-1.3-1.1-1.6-1.4
				c-0.6-0.6-1.1-1.2-1.5-1.7c-0.3-0.5-0.6-1-0.8-1.6c-0.2-0.5-0.2-1.1-0.2-1.7c0-0.7,0.1-1.4,0.4-2.1s0.6-1.3,1.1-1.9
				s1.2-1.1,2-1.5s1.7-0.7,2.7-0.9s1.9-0.2,2.9-0.2c2,0,4.1,0.2,6.5,0.7c0,0.8,0.1,1.5,0.1,2.2s0.2,1.9,0.3,3.5
				c-1.1-0.4-2.1-0.7-3-0.9s-1.7-0.3-2.3-0.3c-0.9,0-1.7,0.2-2.3,0.5s-0.9,0.8-0.9,1.3c0,0.2,0,0.5,0.1,0.7s0.3,0.5,0.5,0.8
				s0.6,0.6,1,1s1.1,0.9,2,1.6l1.3,1c0.4,0.3,0.8,0.7,1.2,1.1s0.8,0.9,1.1,1.3s0.6,0.8,0.7,1.2s0.3,0.7,0.4,1.1s0.1,0.7,0.1,1.2
				c0,1.1-0.3,2.1-0.8,3s-1.2,1.7-2.1,2.4s-1.9,1-3,1.3s-2.3,0.4-3.5,0.4C24.1,177.3,21.7,177,18.8,176.5z"/>
			<path class="st0" d="M39.7,156.7c0.1-1.4,0.1-2.5,0.1-3.3c0-0.2,0-0.6,0-0.9c1.4,0,2.6,0,3.6,0c1.3,0,2.5,0,3.5,0
				c0,0.4-0.1,0.7-0.1,0.9l-0.1,2.2c0,0.3,0,0.7,0,1.2c-1.2,0-2.3,0-3.3,0C42.1,156.6,40.9,156.6,39.7,156.7z M38.6,176.9
				c0.2-1.4,0.3-2.6,0.4-3.5c0.1-0.9,0.2-2.1,0.2-3.6s0.1-3,0.2-4.8s0.1-3.8,0.1-6.1c1.5,0,2.7,0,3.7,0c0.8,0,2,0,3.6,0
				c-0.2,2.2-0.3,4.2-0.4,5.8s-0.1,3.5-0.2,5.3c0,3.3-0.1,5.6-0.1,6.8c-1.4,0-2.6,0-3.6,0C41.5,176.8,40.2,176.8,38.6,176.9z"/>
			<path class="st0" d="M48,176.9l4-5.3l3-4.1l-5.5-8.5c1.7,0,3.2,0,4.4,0c1.5,0,2.8,0,3.8,0l1.9,4c0.1,0.2,0.3,0.6,0.5,1.1
				c0.9-1.5,2-3.3,3.2-5.2c1,0,2.3,0,3.7,0c1.3,0,2.6,0,3.8,0l-2.8,3.7c-0.6,0.7-1.7,2.3-3.5,4.8c1.1,1.9,3,5,5.9,9.5
				c-1.3,0-2.6,0-3.9,0c-1.6,0-3,0-4.2,0c-0.8-1.6-1.3-2.9-1.7-3.6s-0.7-1.5-1-2.2l-0.6,1c-0.2,0.3-0.4,0.7-0.8,1.3l-2.2,3.5
				c-1.3,0-2.5,0-3.7,0C50.8,176.8,49.4,176.8,48,176.9z"/>
			<path class="st0" d="M87.2,157.7c-1.3,0-2.6,0.3-3.7,1s-1.9,1.6-2.5,2.8s-0.9,2.4-0.9,3.8c0,1.2,0.3,2.4,0.8,3.4s1.3,1.8,2.4,2.4
				s2.2,0.9,3.5,0.9c1.3,0,2.5-0.3,3.6-1s1.9-1.6,2.5-2.7s0.9-2.4,0.9-3.7c0-1.3-0.3-2.4-0.8-3.5s-1.3-1.9-2.3-2.5
				S88.5,157.7,87.2,157.7z M87.5,152.4c1.9,0,3.7,0.3,5.4,0.8s3.3,1.3,4.6,2.4s2.3,2.4,2.9,3.8s1,3.1,1,5c0,2-0.4,3.8-1.1,5.4
				s-1.7,3-3.1,4.2s-2.9,2-4.8,2.5s-3.8,0.8-5.8,0.8c-2,0-3.9-0.3-5.7-0.8s-3.4-1.4-4.7-2.5s-2.3-2.5-2.9-3.9s-0.8-3-0.8-4.8
				c0-2.6,0.6-4.8,1.8-6.8s3-3.5,5.3-4.5S84.6,152.4,87.5,152.4z"/>
			<path class="st0" d="M103.8,176.5c0-0.5-0.1-1.1-0.1-1.6s-0.1-1.4-0.2-2.3l-0.1-1.3c1.1,0.4,2.1,0.8,2.9,1s1.6,0.3,2.3,0.3
				c0.6,0,1-0.1,1.4-0.2c0.4-0.1,0.6-0.3,0.8-0.5c0.2-0.2,0.2-0.4,0.2-0.6c0-0.2-0.1-0.4-0.2-0.6c-0.1-0.2-0.4-0.4-0.8-0.7
				c-1-0.7-1.8-1.3-2.5-1.9s-1.3-1.1-1.6-1.5c-0.4-0.4-0.6-0.9-0.8-1.4c-0.2-0.5-0.3-1-0.3-1.6c0-1,0.3-1.9,0.8-2.7s1.4-1.5,2.5-1.8
				s2.4-0.6,4-0.6c1.6,0,3.7,0.2,6.2,0.6l0.3,4.9c-1.4-0.6-2.8-0.8-4.1-0.8c-0.9,0-1.6,0.1-2,0.3s-0.6,0.5-0.6,0.9
				c0,0.1,0,0.3,0.1,0.4s0.1,0.2,0.3,0.4s0.3,0.3,0.5,0.4s0.6,0.4,1.3,0.9s1.3,0.9,1.7,1.2c0.7,0.5,1.2,1,1.5,1.4s0.6,0.9,0.8,1.4
				s0.3,1,0.3,1.6c0,0.8-0.2,1.6-0.6,2.3s-1,1.3-1.8,1.7s-1.7,0.8-2.6,1s-1.9,0.3-2.9,0.3c-0.7,0-1.5-0.1-2.6-0.2
				S105.2,176.8,103.8,176.5z"/>
		</g>
		<g class="st30">
			<path class="st0" d="M18.6,176.5c-0.2-2.5-0.3-4.5-0.5-6c1.3,0.6,2.5,1,3.5,1.2s1.9,0.3,2.7,0.3c1,0,1.8-0.1,2.4-0.4
				c0.6-0.3,0.9-0.7,0.9-1.3c0-0.2,0-0.4-0.1-0.6c-0.1-0.2-0.2-0.4-0.3-0.6s-0.4-0.5-0.7-0.7l-3.3-2.9c-0.8-0.7-1.3-1.1-1.6-1.4
				c-0.6-0.6-1.1-1.2-1.5-1.7c-0.3-0.5-0.6-1-0.8-1.6c-0.2-0.5-0.2-1.1-0.2-1.7c0-0.7,0.1-1.4,0.4-2.1s0.6-1.3,1.1-1.9
				s1.2-1.1,2-1.5s1.7-0.7,2.7-0.9s1.9-0.2,2.9-0.2c2,0,4.1,0.2,6.5,0.7c0,0.8,0.1,1.5,0.1,2.2s0.2,1.9,0.3,3.5
				c-1.1-0.4-2.1-0.7-3-0.9c-0.9-0.2-1.7-0.3-2.3-0.3c-0.9,0-1.7,0.2-2.3,0.5s-0.9,0.8-0.9,1.3c0,0.2,0,0.5,0.1,0.7s0.3,0.5,0.5,0.8
				s0.6,0.6,1,1s1.1,0.9,2,1.6l1.3,1c0.4,0.3,0.8,0.7,1.2,1.1s0.8,0.9,1.1,1.3s0.6,0.8,0.7,1.2s0.3,0.7,0.4,1.1s0.1,0.7,0.1,1.2
				c0,1.1-0.3,2.1-0.8,3s-1.2,1.7-2.1,2.4c-0.9,0.6-1.9,1-3,1.3s-2.3,0.4-3.5,0.4C23.9,177.3,21.5,177,18.6,176.5z"/>
			<path class="st0" d="M39.5,156.6c0.1-1.4,0.1-2.5,0.1-3.3c0-0.2,0-0.6,0-0.9c1.4,0,2.6,0,3.6,0c1.3,0,2.5,0,3.5,0
				c0,0.4-0.1,0.7-0.1,0.9l-0.1,2.2c0,0.3,0,0.7,0,1.2c-1.2,0-2.3,0-3.3,0C42,156.6,40.8,156.6,39.5,156.6z M38.4,176.8
				c0.2-1.4,0.3-2.6,0.4-3.5c0.1-0.9,0.2-2.1,0.2-3.6s0.1-3,0.2-4.8s0.1-3.8,0.1-6.1c1.5,0,2.7,0,3.7,0c0.8,0,2,0,3.6,0
				c-0.2,2.2-0.3,4.2-0.4,5.8S46,168.2,46,170c0,3.3-0.1,5.6-0.1,6.8c-1.4,0-2.6,0-3.6,0C41.4,176.8,40.1,176.8,38.4,176.8z"/>
			<path class="st0" d="M47.9,176.8l4-5.3l3-4.1l-5.5-8.5c1.7,0,3.2,0,4.4,0c1.5,0,2.8,0,3.8,0l1.9,4c0.1,0.2,0.3,0.6,0.5,1.1
				c0.9-1.5,2-3.3,3.2-5.2c1,0,2.3,0,3.7,0c1.3,0,2.6,0,3.8,0l-2.8,3.7c-0.6,0.7-1.7,2.3-3.5,4.8c1.1,1.9,3,5,5.9,9.5
				c-1.3,0-2.6,0-3.9,0c-1.6,0-3,0-4.2,0c-0.8-1.6-1.3-2.9-1.7-3.6s-0.7-1.5-1-2.2l-0.6,1c-0.2,0.3-0.4,0.7-0.8,1.3l-2.2,3.5
				c-1.3,0-2.5,0-3.7,0C50.7,176.8,49.3,176.8,47.9,176.8z"/>
			<path class="st0" d="M87.1,157.7c-1.3,0-2.6,0.3-3.7,1s-1.9,1.6-2.5,2.8s-0.9,2.4-0.9,3.8c0,1.2,0.3,2.4,0.8,3.4s1.3,1.8,2.4,2.4
				s2.2,0.9,3.5,0.9c1.3,0,2.5-0.3,3.6-1s1.9-1.6,2.5-2.7s0.9-2.4,0.9-3.7c0-1.3-0.3-2.4-0.8-3.5s-1.3-1.9-2.3-2.5
				S88.3,157.7,87.1,157.7z M87.4,152.4c1.9,0,3.7,0.3,5.4,0.8s3.3,1.3,4.6,2.4s2.3,2.4,2.9,3.8s1,3.1,1,5c0,2-0.4,3.8-1.1,5.4
				s-1.7,3-3.1,4.2s-2.9,2-4.8,2.5s-3.8,0.8-5.8,0.8c-2,0-3.9-0.3-5.7-0.8s-3.4-1.4-4.7-2.5s-2.3-2.5-2.9-3.9s-0.8-3-0.8-4.8
				c0-2.6,0.6-4.8,1.8-6.8s3-3.5,5.3-4.5S84.4,152.4,87.4,152.4z"/>
			<path class="st0" d="M103.7,176.5c0-0.5-0.1-1.1-0.1-1.6s-0.1-1.4-0.2-2.3l-0.1-1.3c1.1,0.4,2.1,0.8,2.9,1s1.6,0.3,2.3,0.3
				c0.6,0,1-0.1,1.4-0.2c0.4-0.1,0.6-0.3,0.8-0.5c0.2-0.2,0.2-0.4,0.2-0.6c0-0.2-0.1-0.4-0.2-0.6c-0.1-0.2-0.4-0.4-0.8-0.7
				c-1-0.7-1.8-1.3-2.5-1.9s-1.3-1.1-1.6-1.5c-0.4-0.4-0.6-0.9-0.8-1.4c-0.2-0.5-0.3-1-0.3-1.6c0-1,0.3-1.9,0.8-2.7s1.4-1.5,2.5-1.8
				s2.4-0.6,4-0.6c1.6,0,3.7,0.2,6.2,0.6l0.3,4.9c-1.4-0.6-2.8-0.8-4.1-0.8c-0.9,0-1.6,0.1-2,0.3s-0.6,0.5-0.6,0.9
				c0,0.1,0,0.3,0.1,0.4s0.1,0.2,0.3,0.4s0.3,0.3,0.5,0.4s0.6,0.4,1.3,0.9s1.3,0.9,1.7,1.2c0.7,0.5,1.2,1,1.5,1.4s0.6,0.9,0.8,1.4
				s0.3,1,0.3,1.6c0,0.8-0.2,1.6-0.6,2.3s-1,1.3-1.8,1.7s-1.7,0.8-2.6,1s-1.9,0.3-2.9,0.3c-0.7,0-1.5-0.1-2.6-0.2
				S105,176.8,103.7,176.5z"/>
		</g>
		<g class="st31">
			<path class="st0" d="M18.5,176.4c-0.2-2.5-0.3-4.5-0.5-6c1.3,0.6,2.5,1,3.5,1.2s1.9,0.3,2.7,0.3c1,0,1.8-0.1,2.4-0.4
				c0.6-0.3,0.9-0.7,0.9-1.3c0-0.2,0-0.4-0.1-0.6c-0.1-0.2-0.2-0.4-0.3-0.6s-0.4-0.5-0.7-0.7l-3.3-2.9c-0.8-0.7-1.3-1.1-1.6-1.4
				c-0.6-0.6-1.1-1.2-1.5-1.7c-0.3-0.5-0.6-1-0.8-1.6c-0.2-0.5-0.2-1.1-0.2-1.7c0-0.7,0.1-1.4,0.4-2.1s0.6-1.3,1.1-1.9
				s1.2-1.1,2-1.5s1.7-0.7,2.7-0.9s1.9-0.2,2.9-0.2c2,0,4.1,0.2,6.5,0.7c0,0.8,0.1,1.5,0.1,2.2s0.2,1.9,0.3,3.5
				c-1.1-0.4-2.1-0.7-3-0.9s-1.7-0.3-2.3-0.3c-0.9,0-1.7,0.2-2.3,0.5s-0.9,0.8-0.9,1.3c0,0.2,0,0.5,0.1,0.7s0.3,0.5,0.5,0.8
				s0.6,0.6,1,1s1.1,0.9,2,1.6l1.3,1c0.4,0.3,0.8,0.7,1.2,1.1s0.8,0.9,1.1,1.3s0.6,0.8,0.7,1.2s0.3,0.7,0.4,1.1s0.1,0.7,0.1,1.2
				c0,1.1-0.3,2.1-0.8,3s-1.2,1.7-2.1,2.4s-1.9,1-3,1.3s-2.3,0.4-3.5,0.4C23.8,177.2,21.4,177,18.5,176.4z"/>
			<path class="st0" d="M39.4,156.6c0.1-1.4,0.1-2.5,0.1-3.3c0-0.2,0-0.6,0-0.9c1.4,0,2.6,0,3.6,0c1.3,0,2.5,0,3.5,0
				c0,0.4-0.1,0.7-0.1,0.9l-0.1,2.2c0,0.3,0,0.7,0,1.2c-1.2,0-2.3,0-3.3,0C41.9,156.5,40.7,156.6,39.4,156.6z M38.3,176.8
				c0.2-1.4,0.3-2.6,0.4-3.5c0.1-0.9,0.2-2.1,0.2-3.6s0.1-3,0.2-4.8s0.1-3.8,0.1-6.1c1.5,0,2.7,0,3.7,0c0.8,0,2,0,3.6,0
				c-0.2,2.2-0.3,4.2-0.4,5.8s-0.1,3.5-0.2,5.3c0,3.3-0.1,5.6-0.1,6.8c-1.4,0-2.6,0-3.6,0C41.2,176.7,39.9,176.8,38.3,176.8z"/>
			<path class="st0" d="M47.8,176.8l4-5.3l3-4.1l-5.5-8.5c1.7,0,3.2,0,4.4,0c1.5,0,2.8,0,3.8,0l1.9,4c0.1,0.2,0.3,0.6,0.5,1.1
				c0.9-1.5,2-3.3,3.2-5.2c1,0,2.3,0,3.7,0c1.3,0,2.6,0,3.8,0l-2.8,3.7c-0.6,0.7-1.7,2.3-3.5,4.8c1.1,1.9,3,5,5.9,9.5
				c-1.3,0-2.6,0-3.9,0c-1.6,0-3,0-4.2,0c-0.8-1.6-1.3-2.9-1.7-3.6s-0.7-1.5-1-2.2l-0.6,1c-0.2,0.3-0.4,0.7-0.8,1.3l-2.2,3.5
				c-1.3,0-2.5,0-3.7,0C50.6,176.7,49.2,176.8,47.8,176.8z"/>
			<path class="st0" d="M86.9,157.6c-1.3,0-2.6,0.3-3.7,1s-1.9,1.6-2.5,2.8s-0.9,2.4-0.9,3.8c0,1.2,0.3,2.4,0.8,3.4s1.3,1.8,2.4,2.4
				s2.2,0.9,3.5,0.9c1.3,0,2.5-0.3,3.6-1s1.9-1.6,2.5-2.7s0.9-2.4,0.9-3.7c0-1.3-0.3-2.4-0.8-3.5s-1.3-1.9-2.3-2.5
				S88.2,157.6,86.9,157.6z M87.3,152.3c1.9,0,3.7,0.3,5.4,0.8s3.3,1.3,4.6,2.4s2.3,2.4,2.9,3.8s1,3.1,1,5c0,2-0.4,3.8-1.1,5.4
				s-1.7,3-3.1,4.2s-2.9,2-4.8,2.5s-3.8,0.8-5.8,0.8c-2,0-3.9-0.3-5.7-0.8s-3.4-1.4-4.7-2.5s-2.3-2.5-2.9-3.9s-0.8-3-0.8-4.8
				c0-2.6,0.6-4.8,1.8-6.8s3-3.5,5.3-4.5S84.3,152.3,87.3,152.3z"/>
			<path class="st0" d="M103.6,176.4c0-0.5-0.1-1.1-0.1-1.6s-0.1-1.4-0.2-2.3l-0.1-1.3c1.1,0.4,2.1,0.8,2.9,1s1.6,0.3,2.3,0.3
				c0.6,0,1-0.1,1.4-0.2c0.4-0.1,0.6-0.3,0.8-0.5c0.2-0.2,0.2-0.4,0.2-0.6c0-0.2-0.1-0.4-0.2-0.6c-0.1-0.2-0.4-0.4-0.8-0.7
				c-1-0.7-1.8-1.3-2.5-1.9s-1.3-1.1-1.6-1.5c-0.4-0.4-0.6-0.9-0.8-1.4c-0.2-0.5-0.3-1-0.3-1.6c0-1,0.3-1.9,0.8-2.7s1.4-1.5,2.5-1.8
				s2.4-0.6,4-0.6c1.6,0,3.7,0.2,6.2,0.6l0.3,4.9c-1.4-0.6-2.8-0.8-4.1-0.8c-0.9,0-1.6,0.1-2,0.3s-0.6,0.5-0.6,0.9
				c0,0.1,0,0.3,0.1,0.4s0.1,0.2,0.3,0.4s0.3,0.3,0.5,0.4s0.6,0.4,1.3,0.9s1.3,0.9,1.7,1.2c0.7,0.5,1.2,1,1.5,1.4s0.6,0.9,0.8,1.4
				s0.3,1,0.3,1.6c0,0.8-0.2,1.6-0.6,2.3s-1,1.3-1.8,1.7s-1.7,0.8-2.6,1s-1.9,0.3-2.9,0.3c-0.7,0-1.5-0.1-2.6-0.2
				S104.9,176.7,103.6,176.4z"/>
		</g>
		<g class="st32">
			<path class="st0" d="M18.4,176.4c-0.2-2.5-0.3-4.5-0.5-6c1.3,0.6,2.5,1,3.5,1.2s1.9,0.3,2.7,0.3c1,0,1.8-0.1,2.4-0.4
				c0.6-0.3,0.9-0.7,0.9-1.3c0-0.2,0-0.4-0.1-0.6c-0.1-0.2-0.2-0.4-0.3-0.6s-0.4-0.5-0.7-0.7l-3.3-2.9c-0.8-0.7-1.3-1.1-1.6-1.4
				c-0.6-0.6-1.1-1.2-1.5-1.7c-0.3-0.5-0.6-1-0.8-1.6c-0.2-0.5-0.2-1.1-0.2-1.7c0-0.7,0.1-1.4,0.4-2.1s0.6-1.3,1.1-1.9
				s1.2-1.1,2-1.5s1.7-0.7,2.7-0.9s1.9-0.2,2.9-0.2c2,0,4.1,0.2,6.5,0.7c0,0.8,0.1,1.5,0.1,2.2s0.2,1.9,0.3,3.5
				c-1.1-0.4-2.1-0.7-3-0.9c-0.9-0.2-1.7-0.3-2.3-0.3c-0.9,0-1.7,0.2-2.3,0.5s-0.9,0.8-0.9,1.3c0,0.2,0,0.5,0.1,0.7s0.3,0.5,0.5,0.8
				s0.6,0.6,1,1s1.1,0.9,2,1.6l1.3,1c0.4,0.3,0.8,0.7,1.2,1.1s0.8,0.9,1.1,1.3s0.6,0.8,0.7,1.2s0.3,0.7,0.4,1.1s0.1,0.7,0.1,1.2
				c0,1.1-0.3,2.1-0.8,3s-1.2,1.7-2.1,2.4c-0.9,0.6-1.9,1-3,1.3s-2.3,0.4-3.5,0.4C23.7,177.2,21.3,176.9,18.4,176.4z"/>
			<path class="st0" d="M39.3,156.5c0.1-1.4,0.1-2.5,0.1-3.3c0-0.2,0-0.6,0-0.9c1.4,0,2.6,0,3.6,0c1.3,0,2.5,0,3.5,0
				c0,0.4-0.1,0.7-0.1,0.9l-0.1,2.2c0,0.3,0,0.7,0,1.2c-1.2,0-2.3,0-3.3,0C41.8,156.5,40.6,156.5,39.3,156.5z M38.2,176.7
				c0.2-1.4,0.3-2.6,0.4-3.5c0.1-0.9,0.2-2.1,0.2-3.6s0.1-3,0.2-4.8s0.1-3.8,0.1-6.1c1.5,0,2.7,0,3.7,0c0.8,0,2,0,3.6,0
				c-0.2,2.2-0.3,4.2-0.4,5.8s-0.1,3.5-0.2,5.3c0,3.3-0.1,5.6-0.1,6.8c-1.4,0-2.6,0-3.6,0C41.1,176.7,39.8,176.7,38.2,176.7z"/>
			<path class="st0" d="M47.6,176.7l4-5.3l3-4.1l-5.5-8.5c1.7,0,3.2,0,4.4,0c1.5,0,2.8,0,3.8,0l1.9,4c0.1,0.2,0.3,0.6,0.5,1.1
				c0.9-1.5,2-3.3,3.2-5.2c1,0,2.3,0,3.7,0c1.3,0,2.6,0,3.8,0l-2.8,3.7c-0.6,0.7-1.7,2.3-3.5,4.8c1.1,1.9,3,5,5.9,9.5
				c-1.3,0-2.6,0-3.9,0c-1.6,0-3,0-4.2,0c-0.8-1.6-1.3-2.9-1.7-3.6s-0.7-1.5-1-2.2l-0.6,1c-0.2,0.3-0.4,0.7-0.8,1.3l-2.2,3.5
				c-1.3,0-2.5,0-3.7,0C50.5,176.7,49.1,176.7,47.6,176.7z"/>
			<path class="st0" d="M86.8,157.6c-1.3,0-2.6,0.3-3.7,1s-1.9,1.6-2.5,2.8s-0.9,2.4-0.9,3.8c0,1.2,0.3,2.4,0.8,3.4s1.3,1.8,2.4,2.4
				s2.2,0.9,3.5,0.9c1.3,0,2.5-0.3,3.6-1s1.9-1.6,2.5-2.7s0.9-2.4,0.9-3.7c0-1.3-0.3-2.4-0.8-3.5s-1.3-1.9-2.3-2.5
				S88.1,157.6,86.8,157.6z M87.1,152.3c1.9,0,3.7,0.3,5.4,0.8s3.3,1.3,4.6,2.4s2.3,2.4,2.9,3.8s1,3.1,1,5c0,2-0.4,3.8-1.1,5.4
				s-1.7,3-3.1,4.2s-2.9,2-4.8,2.5s-3.8,0.8-5.8,0.8c-2,0-3.9-0.3-5.7-0.8s-3.4-1.4-4.7-2.5s-2.3-2.5-2.9-3.9s-0.8-3-0.8-4.8
				c0-2.6,0.6-4.8,1.8-6.8s3-3.5,5.3-4.5S84.2,152.3,87.1,152.3z"/>
			<path class="st0" d="M103.4,176.4c0-0.5-0.1-1.1-0.1-1.6s-0.1-1.4-0.2-2.3l-0.1-1.3c1.1,0.4,2.1,0.8,2.9,1s1.6,0.3,2.3,0.3
				c0.6,0,1-0.1,1.4-0.2c0.4-0.1,0.6-0.3,0.8-0.5c0.2-0.2,0.2-0.4,0.2-0.6c0-0.2-0.1-0.4-0.2-0.6c-0.1-0.2-0.4-0.4-0.8-0.7
				c-1-0.7-1.8-1.3-2.5-1.9s-1.3-1.1-1.6-1.5c-0.4-0.4-0.6-0.9-0.8-1.4c-0.2-0.5-0.3-1-0.3-1.6c0-1,0.3-1.9,0.8-2.7s1.4-1.5,2.5-1.8
				s2.4-0.6,4-0.6c1.6,0,3.7,0.2,6.2,0.6l0.3,4.9c-1.4-0.6-2.8-0.8-4.1-0.8c-0.9,0-1.6,0.1-2,0.3s-0.6,0.5-0.6,0.9
				c0,0.1,0,0.3,0.1,0.4s0.1,0.2,0.3,0.4s0.3,0.3,0.5,0.4s0.6,0.4,1.3,0.9s1.3,0.9,1.7,1.2c0.7,0.5,1.2,1,1.5,1.4s0.6,0.9,0.8,1.4
				s0.3,1,0.3,1.6c0,0.8-0.2,1.6-0.6,2.3s-1,1.3-1.8,1.7s-1.7,0.8-2.6,1s-1.9,0.3-2.9,0.3c-0.7,0-1.5-0.1-2.6-0.2
				S104.8,176.7,103.4,176.4z"/>
		</g>
		<g class="st33">
			<path class="st0" d="M18.3,176.3c-0.2-2.5-0.3-4.5-0.5-6c1.3,0.6,2.5,1,3.5,1.2s1.9,0.3,2.7,0.3c1,0,1.8-0.1,2.4-0.4
				c0.6-0.3,0.9-0.7,0.9-1.3c0-0.2,0-0.4-0.1-0.6c-0.1-0.2-0.2-0.4-0.3-0.6s-0.4-0.5-0.7-0.7l-3.3-2.9c-0.8-0.7-1.3-1.1-1.6-1.4
				c-0.6-0.6-1.1-1.2-1.5-1.7c-0.3-0.5-0.6-1-0.8-1.6c-0.2-0.5-0.2-1.1-0.2-1.7c0-0.7,0.1-1.4,0.4-2.1s0.6-1.3,1.1-1.9
				s1.2-1.1,2-1.5s1.7-0.7,2.7-0.9s1.9-0.2,2.9-0.2c2,0,4.1,0.2,6.5,0.7c0,0.8,0.1,1.5,0.1,2.2s0.2,1.9,0.3,3.5
				c-1.1-0.4-2.1-0.7-3-0.9c-0.9-0.2-1.7-0.3-2.3-0.3c-0.9,0-1.7,0.2-2.3,0.5s-0.9,0.8-0.9,1.3c0,0.2,0,0.5,0.1,0.7s0.3,0.5,0.5,0.8
				s0.6,0.6,1,1s1.1,0.9,2,1.6l1.3,1c0.4,0.3,0.8,0.7,1.2,1.1s0.8,0.9,1.1,1.3s0.6,0.8,0.7,1.2s0.3,0.7,0.4,1.1s0.1,0.7,0.1,1.2
				c0,1.1-0.3,2.1-0.8,3s-1.2,1.7-2.1,2.4c-0.9,0.6-1.9,1-3,1.3s-2.3,0.4-3.5,0.4C23.6,177.1,21.2,176.9,18.3,176.3z"/>
			<path class="st0" d="M39.2,156.5c0.1-1.4,0.1-2.5,0.1-3.3c0-0.2,0-0.6,0-0.9c1.4,0,2.6,0,3.6,0c1.3,0,2.5,0,3.5,0
				c0,0.4-0.1,0.7-0.1,0.9l-0.1,2.2c0,0.3,0,0.7,0,1.2c-1.2,0-2.3,0-3.3,0C41.7,156.5,40.5,156.5,39.2,156.5z M38.1,176.7
				c0.2-1.4,0.3-2.6,0.4-3.5c0.1-0.9,0.2-2.1,0.2-3.6s0.1-3,0.2-4.8s0.1-3.8,0.1-6.1c1.5,0,2.7,0,3.7,0c0.8,0,2,0,3.6,0
				c-0.2,2.2-0.3,4.2-0.4,5.8s-0.1,3.5-0.2,5.3c0,3.3-0.1,5.6-0.1,6.8c-1.4,0-2.6,0-3.6,0C41,176.7,39.7,176.7,38.1,176.7z"/>
			<path class="st0" d="M47.5,176.7l4-5.3l3-4.1l-5.5-8.5c1.7,0,3.2,0,4.4,0c1.5,0,2.8,0,3.8,0l1.9,4c0.1,0.2,0.3,0.6,0.5,1.1
				c0.9-1.5,2-3.3,3.2-5.2c1,0,2.3,0,3.7,0c1.3,0,2.6,0,3.8,0l-2.8,3.7c-0.6,0.7-1.7,2.3-3.5,4.8c1.1,1.9,3,5,5.9,9.5
				c-1.3,0-2.6,0-3.9,0c-1.6,0-3,0-4.2,0c-0.8-1.6-1.3-2.9-1.7-3.6s-0.7-1.5-1-2.2l-0.6,1c-0.2,0.3-0.4,0.7-0.8,1.3l-2.2,3.5
				c-1.3,0-2.5,0-3.7,0C50.3,176.7,48.9,176.7,47.5,176.7z"/>
			<path class="st0" d="M86.7,157.5c-1.3,0-2.6,0.3-3.7,1s-1.9,1.6-2.5,2.8s-0.9,2.4-0.9,3.8c0,1.2,0.3,2.4,0.8,3.4s1.3,1.8,2.4,2.4
				s2.2,0.9,3.5,0.9c1.3,0,2.5-0.3,3.6-1s1.9-1.6,2.5-2.7s0.9-2.4,0.9-3.7c0-1.3-0.3-2.4-0.8-3.5s-1.3-1.9-2.3-2.5
				S88,157.5,86.7,157.5z M87,152.2c1.9,0,3.7,0.3,5.4,0.8s3.3,1.3,4.6,2.4s2.3,2.4,2.9,3.8s1,3.1,1,5c0,2-0.4,3.8-1.1,5.4
				s-1.7,3-3.1,4.2s-2.9,2-4.8,2.5s-3.8,0.8-5.8,0.8c-2,0-3.9-0.3-5.7-0.8s-3.4-1.4-4.7-2.5s-2.3-2.5-2.9-3.9s-0.8-3-0.8-4.8
				c0-2.6,0.6-4.8,1.8-6.8s3-3.5,5.3-4.5S84.1,152.2,87,152.2z"/>
			<path class="st0" d="M103.3,176.4c0-0.5-0.1-1.1-0.1-1.6s-0.1-1.4-0.2-2.3l-0.1-1.3c1.1,0.4,2.1,0.8,2.9,1s1.6,0.3,2.3,0.3
				c0.6,0,1-0.1,1.4-0.2c0.4-0.1,0.6-0.3,0.8-0.5c0.2-0.2,0.2-0.4,0.2-0.6c0-0.2-0.1-0.4-0.2-0.6c-0.1-0.2-0.4-0.4-0.8-0.7
				c-1-0.7-1.8-1.3-2.5-1.9s-1.3-1.1-1.6-1.5c-0.4-0.4-0.6-0.9-0.8-1.4c-0.2-0.5-0.3-1-0.3-1.6c0-1,0.3-1.9,0.8-2.7s1.4-1.5,2.5-1.8
				s2.4-0.6,4-0.6c1.6,0,3.7,0.2,6.2,0.6l0.3,4.9c-1.4-0.6-2.8-0.8-4.1-0.8c-0.9,0-1.6,0.1-2,0.3s-0.6,0.5-0.6,0.9
				c0,0.1,0,0.3,0.1,0.4s0.1,0.2,0.3,0.4s0.3,0.3,0.5,0.4s0.6,0.4,1.3,0.9s1.3,0.9,1.7,1.2c0.7,0.5,1.2,1,1.5,1.4s0.6,0.9,0.8,1.4
				s0.3,1,0.3,1.6c0,0.8-0.2,1.6-0.6,2.3s-1,1.3-1.8,1.7s-1.7,0.8-2.6,1s-1.9,0.3-2.9,0.3c-0.7,0-1.5-0.1-2.6-0.2
				S104.7,176.6,103.3,176.4z"/>
		</g>
		<text transform="matrix(1 0 0 1 16.6196 176.6446)" class="st34 st7 st8">SixOs</text>
	</g>
</g>
</svg>
